<?xml version="1.0" standalone="no"?>
<!DOCTYPE svg PUBLIC "-//W3C//DTD SVG 1.1//EN" "http://www.w3.org/Graphics/SVG/1.1/DTD/svg11.dtd" >
<svg>
<metadata>
Created by FontForge 20090622 at Tue Jul 12 21:25:08 2016
 By deploy user
Copyright (c) 2011-2012, Ana Sanfelippo (anasanfe@gmail.com), with Reserved Font Name 'Almendra'
</metadata>
<defs>
<font id="Almendra-Regular" horiz-adv-x="370" >
  <font-face 
    font-family="Almendra"
    font-weight="400"
    font-stretch="normal"
    units-per-em="1000"
    panose-1="2 0 0 0 0 0 0 0 0 0"
    ascent="800"
    descent="-200"
    x-height="485"
    cap-height="659"
    bbox="-64 -227 1029 939"
    underline-thickness="50"
    underline-position="-50"
    unicode-range="U+0020-U+FB06"
  />
<missing-glyph horiz-adv-x="180" 
 />
    <glyph glyph-name="ellipsis" unicode="&#x2e;&#x2e;&#x2e;" horiz-adv-x="650" 
d="M160 46q-7 -13 -24.5 -33t-29.5 -28q-12 8 -29.5 28t-24.5 33q6 12 23 27.5t31 22.5q13 -8 30 -23.5t24 -26.5zM379 46q-7 -13 -24.5 -33t-29.5 -28q-12 8 -29.5 28t-24.5 33q6 12 23 27.5t31 22.5q13 -8 30 -23.5t24 -26.5zM598 46q-7 -13 -24.5 -33t-29.5 -28
q-12 8 -29.5 28t-24.5 33q6 12 23 27.5t31 22.5q13 -8 30 -23.5t24 -26.5z" />
    <glyph glyph-name="f_h" unicode="fh" horiz-adv-x="845" 
d="M439 689q46 7 97 22l5 -18q-19 -15 -47 -29q-15 -82 -15 -339l4 -1q34 47 88.5 96.5t98.5 64.5q30 0 50 -14t28.5 -40.5t11 -53t1.5 -63.5l-5 -281q24 -8 54 -8v-21q-64 -3 -135 -19l-7 4q16 97 19 280q2 18 0.5 41.5t-4.5 44t-13.5 34.5t-27.5 14q-39 0 -92 -49t-71 -91
q0 -145 11 -233q27 -6 63 -19l-2 -19q-56 8 -105 8q-51 0 -102 -6l-3 19q30 13 59 20q9 67 9 157v186q0 165 -6 242q-31 21 -80 21q-70 0 -128 -36q-17 -52 -17 -132l142 5l4 -4q-7 -19 -13 -47q-51 3 -134 3v-198q0 -158 12 -290q-19 3 -35 2q-29 -53 -45 -142l-18 1
q12 216 12 429v199h-54l-2 2q0 16 3 22q22 9 53 17q15 96 78 158t161 83q42 -4 97 -22z" />
    <glyph glyph-name="fi" unicode="fi" horiz-adv-x="582" 
d="M503 620q-7 -13 -24.5 -33t-29.5 -28q-12 8 -29.5 28t-24.5 33q6 12 23 27.5t31 22.5q13 -8 30 -23.5t24 -26.5zM485 274v-84q0 -108 7 -160q27 -6 63 -19l-2 -19q-56 8 -105 8q-51 0 -102 -6l-3 19q30 13 59 20q9 67 9 157q0 162 -6 223q-20 11 -94 13l-134 2v-198
q0 -134 12 -290q-19 3 -35 2q-30 -55 -45 -142l-18 1q12 216 12 429v199h-54l-2 2q0 16 3 22q13 5 53 17q10 78 64 145t128 96q41 -2 80 -16v-14q-38 -47 -43 -115h-22q0 39 -2 61q-16 10 -44 10q-43 0 -65 -22q-21 -56 -21 -145h146q110 0 167 15l7 -4q-13 -77 -13 -207z
" />
    <glyph glyph-name="fl" unicode="fl" horiz-adv-x="592" 
d="M483 417l-3 -187q-2 -143 6 -200q28 -6 63 -19l-2 -19q-56 8 -105 8q-51 0 -102 -6l-3 19q30 13 59 20q9 64 10 197l3 187q2 132 -6 201q-31 21 -80 21q-70 0 -128 -36q-17 -52 -17 -132l142 5l4 -4q-7 -19 -13 -47q-51 3 -134 3v-198q0 -158 12 -290q-19 3 -35 2
q-29 -53 -45 -142l-18 1q12 216 12 429v199h-54l-2 2q0 16 3 22q22 9 53 17q15 96 78 158t161 83q42 -4 97 -22q50 8 99 22l5 -18q-19 -15 -47 -29q-11 -60 -13 -247z" />
    <glyph glyph-name="s_t" unicode="st" horiz-adv-x="705" 
d="M543 568l-6 -97l141 5l4 -4q-7 -18 -13 -47q-51 3 -134 3l-4 -198q-4 -173 30 -173q55 0 114 53l10 -10q-58 -81 -141 -115q-57 0 -73.5 52t-13.5 193l4 199h-54l-2 2q0 16 3 22q22 9 53 17l8 91q9 94 -87 94q-47 0 -79.5 -26.5t-32.5 -72.5q0 -36 8 -64q6 -11 37 -16
l40 -7v-14q-39 -48 -43 -105h-22q0 39 -2 61q-39 12 -76 12q-33 0 -60.5 -13.5t-27.5 -43.5q0 -18 33 -42t72 -43.5t72 -48.5t33 -56q0 -61 -55.5 -117.5t-112.5 -73.5q-72 0 -138 21v14q39 48 43 105h22v-14.5t0.5 -16.5t1 -15t0.5 -11v-4q46 -17 90 -17q38 0 65.5 18
t27.5 60q0 18 -33 41.5t-72 43.5t-72 48.5t-33 55.5q0 53 56.5 106.5t106.5 64.5h18q-20 34 -27 84q27 61 80 101.5t112 40.5q71 0 102.5 -35t26.5 -108z" />
    <glyph glyph-name="c_t" unicode="ct" horiz-adv-x="705" 
d="M235 57q55 0 114 53l10 -10q-58 -81 -141 -115q-87 0 -129 55t-42 150q0 103 56 187t146 108q-20 34 -27 84q27 61 80 101.5t112 40.5q71 0 102.5 -35t26.5 -108l-6 -97l141 5l4 -4q-7 -18 -13 -47q-51 3 -133 3l-5 -198q-4 -173 30 -173q55 0 114 53l10 -10
q-58 -81 -141 -115q-57 0 -73.5 52t-13.5 193l4 199h-54l-2 2q0 16 3 22q22 9 53 17l8 91q9 94 -87 94q-47 0 -79.5 -26.5t-32.5 -72.5q0 -35 7 -59q7 -13 53 -21l40 -7v-14q-39 -48 -43 -105h-22q0 39 -2 61q-41 12 -73 12q-48 0 -74 -24q-29 -61 -29 -154q0 -41 3.5 -70.5
t14 -58.5t33.5 -44t57 -15z" />
    <glyph glyph-name="f_k" unicode="fk" horiz-adv-x="812" 
d="M478 263q0 -145 11 -233q27 -6 63 -19l-2 -19q-56 8 -105 8q-51 0 -102 -6l-3 19q30 13 59 20q9 67 9 197v187q0 131 -5 201q-31 21 -80 21q-70 0 -128 -36q-17 -52 -17 -132l142 5l4 -4q-7 -19 -13 -47q-51 3 -134 3v-198q0 -158 12 -290q-19 3 -35 2q-29 -53 -45 -142
l-18 1q12 216 12 429v199h-54l-2 2q0 16 3 22q22 9 53 17q15 96 78 158t161 83q46 -4 98 -23q45 8 96 23l5 -18q-19 -15 -47 -29q-16 -88 -16 -338l4 -2q35 50 85 97.5t94 63.5q36 -9 58 -42t22 -72q0 -100 -100 -143l30 -64l20.5 -45l16 -36t12.5 -24.5t14 -21.5
q0 -2 21.5 -5t32.5 -3v-21q-69 -3 -142 -20l-9 5q0 70 -57 218q-24 -2 -36 -2v21q54 3 85.5 31.5t31.5 79.5q0 17 -7.5 40.5t-19.5 31.5q-39 -7 -88.5 -57.5t-67.5 -92.5z" />
    <glyph glyph-name="f_b" unicode="fb" horiz-adv-x="828" 
d="M776 294q0 -104 -56 -190.5t-150 -118.5q-96 0 -175 36q13 116 13 355q0 166 -6 242q-32 21 -79 21q-70 0 -128 -36q-17 -52 -17 -132l142 5l4 -4q-7 -19 -13 -47q-51 3 -134 3v-198q0 -158 12 -290q-19 3 -35 2q-29 -53 -45 -142l-18 1q12 216 12 429v199h-54l-2 2
q0 16 3 22q22 9 53 17q15 96 78 158t161 83q42 -4 97 -22q53 10 96 22l5 -18q-19 -15 -47 -29q-15 -82 -15 -339l4 -1q35 50 83 97t91 64q55 0 87.5 -61t32.5 -130zM696 249q0 49 -17.5 101.5t-50.5 52.5q-35 0 -85 -50t-65 -90q0 -149 7 -192q53 -24 104 -24q48 0 74 24
q33 76 33 178z" />
    <glyph glyph-name="f_j" unicode="fj" horiz-adv-x="589" 
d="M503 620q-7 -13 -24.5 -33t-29.5 -28q-12 8 -29.5 28t-24.5 33q6 12 23 27.5t31 22.5q13 -8 30 -23.5t24 -26.5zM330 -215l-15 15q96 117 96 253v137q0 161 -6 223q-20 11 -94 13l-134 2v-198q0 -134 12 -290q-19 3 -35 2q-30 -55 -45 -142l-18 1q12 216 12 429v199h-54
l-2 2q0 16 3 22q13 5 53 17q10 78 64 145t128 96q41 -2 80 -16v-14q-38 -47 -43 -115h-22q0 39 -2 61q-16 10 -44 10q-43 0 -65 -22q-21 -56 -21 -145h146q110 0 167 15l7 -4q-15 -88 -15 -260q0 -145 7 -221q-32 -109 -160 -215z" />
    <glyph glyph-name="f_t" unicode="ft" horiz-adv-x="638" 
d="M471 471l140 5l4 -4q-7 -18 -13 -47q-51 3 -134 3l-4 -198q-4 -173 30 -173q55 0 114 53l10 -10q-58 -81 -141 -115q-57 0 -73.5 52t-13.5 193l4 198h-217v-198q0 -134 12 -290q-19 3 -35 2q-30 -55 -45 -142l-18 1q12 216 12 429v199h-54l-2 2q0 16 3 22q13 5 53 17
q10 78 64 145t128 96q44 0 90 -16v-14q-38 -47 -43 -115h-22q0 39 -2 61q-20 12 -49 12q-45 0 -70 -24q-21 -56 -21 -145l132 4q52 1 83 22.5t58 70.5q12 3 28 3l4 -2q-10 -60 -12 -97z" />
    <glyph glyph-name="T_h" unicode="Th" horiz-adv-x="958" 
d="M788 -15l-7 4q16 97 19 280q2 18 0.5 41.5t-4.5 44t-13.5 34.5t-27.5 14q-39 0 -92 -49t-71 -91q0 -145 11 -233q27 -6 63 -19l-2 -19q-56 8 -105 8q-51 0 -102 -6l-3 19q30 13 59 20q9 67 9 157v186q0 132 -6 213q-47 25 -144 25q-31 0 -64 -5q-10 -68 -10 -254
q0 -224 13 -320q48 -5 96 -16l-3 -26q-64 7 -142 7q-91 0 -144 -8l-4 25q45 14 96 21q11 82 11 258v59q0 103 -13 254q-17 5 -43 5q-58 0 -100 -18q-13 -42 -20 -112h-25q-4 107 -33 158l6 20q96 -11 266 -11q101 0 156.5 1.5t123 9.5t110.5 24l5 -18q-19 -15 -47 -29
q-15 -83 -15 -314l4 -1q34 47 88.5 96.5t98.5 64.5q30 0 50 -14t28.5 -40.5t11 -53t1.5 -63.5l-5 -281q24 -8 54 -8v-21q-64 -3 -135 -19z" />
    <glyph glyph-name="apple" unicode="ardilla" horiz-adv-x="650" 
d="M525 396q61 -36 93 -118l-13 -7q-26 43 -59 43q-17 0 -27 -8.5t-14 -27t-5 -31.5t-1 -38q0 -48 -20.5 -92t-58.5 -73l-9 8q41 69 41 127q0 49 -33 85q0 132 106 132zM199 -2v3q22 23 63 23q20 0 38 -6q3 5 5 12q-47 31 -74 54t-40 51q-37 0 -56 3v3q17 19 47 22
q-1 5 -1 15q-58 0 -109 56q20 33 34 51t36 33.5t46 15.5v3q0 14 25 29q14 -12 14 -27q0 -9 -5 -12q39 -21 78 -27q57 -8 93 -44.5t36 -90.5q0 -48 -20.5 -92t-57.5 -73q-97 -10 -152 -2zM176 233q21 0 30 23l-4 2q-11 -13 -26 -13t-26 13l-4 -2q9 -23 30 -23z" />
    <glyph glyph-name=".notdef" horiz-adv-x="180" 
 />
    <glyph glyph-name=".null" horiz-adv-x="0" 
 />
    <glyph glyph-name="nonmarkingreturn" horiz-adv-x="333" 
 />
    <glyph glyph-name="space" unicode=" " horiz-adv-x="180" 
 />
    <glyph glyph-name="exclam" unicode="!" horiz-adv-x="226" 
d="M160 46q-7 -13 -24.5 -33t-29.5 -28q-12 8 -29.5 28t-24.5 33q6 12 23 27.5t31 22.5q13 -8 30 -23.5t24 -26.5zM93 180l-21 499q12 6 38 12t39 5q11 -10 32 -40q-47 -167 -62 -474z" />
    <glyph glyph-name="quotedbl" unicode="&#x22;" horiz-adv-x="315" 
d="M76 432l-13 217q12 6 38 12t39 5l12 -13q-31 -80 -46 -219zM211 432l-13 217q12 6 38 12t39 5l12 -13q-31 -80 -46 -219z" />
    <glyph glyph-name="numbersign" unicode="#" horiz-adv-x="550" 
d="M380 372v-1q100 -2 123 -1l7 -6l-10 -48l-127 3l-15 -131q96 -2 118 -1l7 -5l-10 -49l-121 3l-27 -228h-5q-24 5 -41 21q18 99 31 208l-108 3l-27 -232h-5q-24 5 -41 21q18 99 31 208v4l-112 3l-8 7l10 52l46 -4q18 -2 71 -4l16 129l-108 3l-8 6l10 53l45 -4q16 -2 67 -4
l26 209q19 0 44 5l4 -3q-21 -112 -33 -213q33 -2 109 -4l26 215q19 0 44 5l4 -3q-21 -113 -33 -217zM208 193q32 -2 108 -4l16 131l-108 3z" />
    <glyph glyph-name="dollar" unicode="$" horiz-adv-x="450" 
d="M122 75q41 -22 87 -25l9 174q-39 23 -61.5 38t-43 37.5t-20.5 42.5q0 43 41.5 91t101.5 78l3 77q16 2 27 6l4 -3q-6 -35 -7 -68q76 0 139 -16v-14q-37 -46 -43 -113h-22q0 40 -3 63q-38 14 -74 15l-6 -147q33 -19 49 -29.5t40 -28t34.5 -33t10.5 -31.5q0 -52 -43.5 -105
t-110.5 -86l-1 -90h-5q-17 5 -27 15l5 62q-79 0 -151 26v13q37 46 43 112h22q0 -39 2 -61zM328 132q0 27 -85 77l-7 -159q39 4 65.5 23.5t26.5 58.5zM153 399q0 -26 76 -73l5 131q-81 -9 -81 -58z" />
    <glyph glyph-name="percent" unicode="%" horiz-adv-x="744" 
d="M34 389q14 88 58 134.5t86 46.5q22 0 114 -15t161 -15q63 0 86 38l6 10q38 2 65 10l3 -3l-145 -217l-305 -478h-5q-26 12 -39 32q101 137 122 170l175 274q48 72 94 151l-4 1q-24 -25 -69 -25q-59 0 -177 36l-3 -3q47 -44 62 -128q-14 -88 -57 -134.5t-84 -46.5
q-48 0 -89 42.5t-55 119.5zM425 147q14 88 58 134.5t86 46.5q47 0 87 -42.5t54 -119.5q-14 -88 -57 -134.5t-84 -46.5q-48 0 -89 42.5t-55 119.5zM178 258q33 12 52 53.5t19 87.5t-19 87.5t-52 53.5q-32 -12 -52 -54t-20 -87t20 -87t52 -54zM569 16q33 12 52 53.5t19 87.5
t-19 87.5t-52 53.5q-32 -12 -52 -54t-20 -87t20 -87t52 -54z" />
    <glyph glyph-name="ampersand" unicode="&#x26;" horiz-adv-x="604" 
d="M425 407q70 -25 70 -99q0 -81 -63 -167q60 -70 98 -104q48 -2 98 -13l-2 -25q-15 1 -54 1q-107 0 -173 -15l-4 14q6 10 6 24q0 26 -24 54q-65 -62 -130 -92q-89 0 -151 59t-62 147q0 124 132 188q-1 1 -8.5 15.5t-9 18t-8.5 16.5t-9 18.5t-7.5 17.5t-7 19t-4.5 17.5
t-4 19t-1 17.5q20 36 74.5 76t96.5 52q136 0 136 -98q0 -39 -21.5 -74t-56.5 -51l1 -5l231 18l4 -4q-7 -18 -13 -47q-76 5 -134 7v-5zM414 163q29 46 29 120q0 61 -36.5 96.5t-99.5 37.5l-7 19q48 40 48 90q0 35 -26.5 53t-66.5 18q-47 0 -69 -19q-4 -11 -4 -27
q0 -59 82.5 -185t149.5 -203zM267 63q61 0 95 33q-96 110 -186 265q-62 -50 -62 -130q0 -72 42 -120t111 -48z" />
    <glyph glyph-name="quotesingle" unicode="'" horiz-adv-x="180" 
d="M76 432l-13 217q12 6 38 12t39 5l12 -13q-31 -80 -46 -219z" />
    <glyph glyph-name="parenleft" unicode="(" horiz-adv-x="297" 
d="M48 262q0 135 53 251.5t149 197.5l10 -10q-140 -191 -140 -439q0 -127 36 -250.5t104 -216.5l-10 -10q-94 80 -148 208.5t-54 268.5z" />
    <glyph glyph-name="parenright" unicode=")" horiz-adv-x="297" 
d="M249 262q0 -140 -54 -268.5t-148 -208.5l-10 10q68 93 104 216.5t36 250.5q0 248 -140 439l10 10q96 -81 149 -197.5t53 -251.5z" />
    <glyph glyph-name="asterisk" unicode="*" horiz-adv-x="371" 
d="M231 676q-29 -47 -36 -112q52 39 78 87h3q2 -4 5 -14.5t3 -11.5q38 7 43 4q0 -3 -25 -35l8.5 -8.5t9.5 -11.5l-1 -2q-52 2 -116 -25q60 -27 116 -25l1 -2q-2 -4 -9.5 -11.5l-8.5 -8.5q1 -2 8.5 -10.5t12 -14.5t4.5 -10q-5 -3 -43 4q0 -1 -3 -11.5t-5 -14.5h-3
q-27 49 -78 87q7 -65 36 -112l-2 -2q-3 0 -13.5 3t-12.5 3q-13 -36 -18 -39q-5 2 -18 39q-2 0 -12.5 -3t-13.5 -3l-2 2q28 47 36 112q-51 -38 -78 -87h-3q-2 4 -5 14.5t-3 11.5q-38 -7 -43 -4q0 3 25 35l-8.5 8.5t-9.5 11.5l1 2q55 -2 115 25q-64 27 -115 25l-1 2
q2 4 9.5 11.5l8.5 8.5q-1 2 -8.5 10.5t-12 14.5t-4.5 10q5 3 43 -4q0 1 3 11.5t5 14.5h3q26 -48 78 -87q-9 65 -36 112l2 2q3 0 13.5 -3t12.5 -3q13 36 18 39q5 -2 18 -39q2 0 12.5 3t13.5 3z" />
    <glyph glyph-name="plus" unicode="+" horiz-adv-x="550" 
d="M501 268l-9 -46h-193q0 -127 9 -222l-46 -9l-10 7v224h-186l-8 7l9 51q122 -6 185 -7v203l47 9l5 -6q-5 -133 -5 -206v-1q37 -1 111 -1q46 0 85 3z" />
    <glyph glyph-name="comma" unicode="," horiz-adv-x="213" 
d="M160 46q0 -50 -34 -102t-80 -83l-10 10q21 25 38 61.5t18 63.5q-26 24 -40 50q6 12 23 27.5t31 22.5q13 -8 30 -23.5t24 -26.5z" />
    <glyph glyph-name="hyphen" unicode="-" horiz-adv-x="286" 
d="M260 293l-6 -42l-217 -15l-9 6l6 46h46q88 0 172 10z" />
    <glyph glyph-name="period" unicode="." horiz-adv-x="212" 
d="M160 46q-7 -13 -24.5 -33t-29.5 -28q-12 8 -29.5 28t-24.5 33q6 12 23 27.5t31 22.5q13 -8 30 -23.5t24 -26.5z" />
    <glyph glyph-name="slash" unicode="/" horiz-adv-x="354" 
d="M61 -41h-5q-23 10 -40 30q45 100 79 189l114 299q40 104 78 221q28 2 55 8l4 -3q-26 -59 -83 -212z" />
    <glyph glyph-name="zero" unicode="0" horiz-adv-x="499" 
d="M42 221q21 128 84.5 196t124.5 68q69 0 126.5 -62t79.5 -175q-21 -128 -83.5 -195.5t-122.5 -67.5q-70 0 -128.5 62t-80.5 174zM251 453q-50 -17 -80 -82t-30 -136t30 -136t80 -82q50 17 80 82t30 136t-30 136t-80 82z" />
    <glyph glyph-name="one" unicode="1" horiz-adv-x="333" 
d="M210 36q32 -9 59 -23l-3 -19q-51 6 -105 6q-64 0 -117 -8l-2 19q40 13 78 22q9 74 9 157v84q0 101 -7 159q-47 13 -78 29l3 20q57 -12 116 -12q63 0 104 5l4 -20q-29 -8 -59 -21q-9 -68 -9 -160v-84q0 -102 7 -154z" />
    <glyph glyph-name="two" unicode="2" horiz-adv-x="444" 
d="M216 485q81 0 118.5 -39t37.5 -120q-95 -126 -236 -247l2 -4q15 7 27 10q77 3 187 -11q10 22 23 58l21 -7q-11 -39 -11 -73q0 -30 7 -59l-12 -8q-159 36 -296 36q-13 -13 -31 -36l-19 10q19 38 62 88t81.5 88.5t68.5 87.5t30 90q0 37 -24 55.5t-64 18.5q-34 0 -62 -14
q-7 -12 -7 -34q0 -18 10 -27l-1 -7q-26 -16 -48 -40q-12 1 -19 9.5t-7 19.5q0 46 53.5 92.5t108.5 62.5z" />
    <glyph glyph-name="three" unicode="3" horiz-adv-x="450" 
d="M83 485q120 -27 280 -27q25 16 36 27l17 -15q-38 -35 -177 -203q72 -12 112 -64.5t40 -136.5q-20 -55 -73.5 -107.5t-108.5 -73.5q-41 0 -93 11t-88 28v13q38 43 43 112h22q0 -39 2 -61q24 -17 63.5 -29t69.5 -12q40 0 60 24q15 38 15 85q0 71 -37 111.5t-105 40.5l-4 6
l135 183l-2 4q-15 -7 -27 -10q-58 0 -147 7q-9 -23 -20 -61l-21 7q7 40 7 65q0 34 -10 67z" />
    <glyph glyph-name="four" unicode="4" horiz-adv-x="471" 
d="M332 274q0 -130 1 -165q38 0 53.5 7.5t27.5 36.5l16 -3q-9 -45 -9 -92l-4 -2q-35 3 -83 3q0 -67 8 -126q21 -11 51 -18l-4 -20q-57 5 -101 5q-49 0 -111 -12l-3 20q34 15 79 26q7 57 7 125h-253l-4 14q161 187 261 387q42 10 73 25l8 -4q-13 -77 -13 -207zM256 379
q-62 -136 -148 -259q62 -6 152 -8l3 267h-7z" />
    <glyph glyph-name="five" unicode="5" horiz-adv-x="461" 
d="M323 398q-70 -7 -153 -7l-23 10l-4 -5l-11 -155q45 25 65 30q98 -3 152 -56t54 -149q-20 -55 -73.5 -107.5t-108.5 -73.5q-41 0 -93 11t-88 28v13q38 43 43 112h22q0 -39 2 -61q24 -17 63.5 -29t69.5 -12q40 0 60 24q15 38 15 85q0 70 -36.5 111t-104.5 41q-39 0 -70 -17
l-12 9l10 175q4 67 -2 107l21 4q5 -18 9 -27q128 4 229 26l11 -9q-12 -35 -12 -79q0 -24 5 -54l-22 -5q-9 37 -18 60z" />
    <glyph glyph-name="six" unicode="6" horiz-adv-x="451" 
d="M143 215q0 -168 106 -168q49 0 69 24q15 38 15 75q0 152 -131 152q-15 0 -30 -3v7q28 20 57 48q192 0 192 -194q-22 -51 -81 -103.5t-112 -67.5q-174 0 -174 197q0 124 78.5 239t194.5 164l13 -18q-90 -59 -143.5 -152t-53.5 -200z" />
    <glyph glyph-name="seven" unicode="7" horiz-adv-x="390" 
d="M101 -70q13 144 140 358l65 110l-3 4q-14 -7 -26 -11q-85 -3 -182 6q-9 -23 -18 -60l-22 5q5 30 5 54q0 43 -12 78l11 9q125 -26 287 -26q8 9 17 24l20 -10q-60 -103 -106 -204q-86 -192 -87 -331q48 -9 80 -22l-2 -20q-66 7 -112 6q-57 -2 -100 -11l-5 20q32 10 50 21z
" />
    <glyph glyph-name="eight" unicode="8" horiz-adv-x="476" 
d="M258 585q58 0 98.5 -25.5t40.5 -74.5q0 -34 -35 -77t-74 -71q40 -25 64 -44t45 -53t21 -74q-22 -57 -76.5 -109.5t-112.5 -71.5q-66 0 -118.5 41.5t-52.5 103.5q0 43 36 92t81 80q-95 69 -95 152q23 37 79.5 78.5t98.5 52.5zM330 146q0 15 -6.5 29t-13.5 24t-24 24.5
t-26.5 21l-33 22l-32.5 21.5q-62 -48 -62 -132q0 -45 35.5 -77t82.5 -32q45 0 65 24q15 35 15 75zM167 466q0 -34 25 -59.5t75 -56.5q56 51 56 109q0 64 -86 64q-42 0 -63 -23q-7 -12 -7 -34z" />
    <glyph glyph-name="nine" unicode="9" horiz-adv-x="451" 
d="M308 255q0 168 -106 168q-49 0 -69 -24q-15 -38 -15 -75q0 -152 131 -152q15 0 30 3v-7q-28 -20 -57 -48q-192 0 -192 194q22 51 81 103.5t112 67.5q174 0 174 -197q0 -124 -78.5 -239t-194.5 -164l-13 18q90 59 143.5 152t53.5 200z" />
    <glyph glyph-name="colon" unicode=":" horiz-adv-x="212" 
d="M160 46q-7 -13 -24.5 -33t-29.5 -28q-12 8 -29.5 28t-24.5 33q6 12 23 27.5t31 22.5q13 -8 30 -23.5t24 -26.5zM160 435q-7 -13 -24.5 -33t-29.5 -28q-12 8 -29.5 28t-24.5 33q6 12 23 27.5t31 22.5q13 -8 30 -23.5t24 -26.5z" />
    <glyph glyph-name="semicolon" unicode=";" horiz-adv-x="212" 
d="M160 46q0 -50 -34 -102t-80 -83l-10 10q21 25 38 61.5t18 63.5q-26 24 -40 50q6 12 23 27.5t31 22.5q13 -8 30 -23.5t24 -26.5zM160 435q-7 -13 -24.5 -33t-29.5 -28q-12 8 -29.5 28t-24.5 33q6 12 23 27.5t31 22.5q13 -8 30 -23.5t24 -26.5z" />
    <glyph glyph-name="less" unicode="&#x3c;" horiz-adv-x="550" 
d="M52 222l14 64q56 17 186 66q124 47 222 97l24 -46l-5 -10l-359 -139v-4l359 -138l5 -10l-26 -47q-93 46 -220 97q-103 41 -200 70z" />
    <glyph glyph-name="equal" unicode="=" horiz-adv-x="550" 
d="M496 191l-9 -46h-426l-8 7l9 51q170 -9 343 -9q46 0 85 3zM496 345l-9 -46h-426l-8 7l9 51q169 -9 343 -9q46 0 85 3z" />
    <glyph glyph-name="greater" unicode="&#x3e;" horiz-adv-x="550" 
d="M484 286l14 -64q-97 -29 -200 -70q-127 -51 -220 -97l-26 47l5 10l359 138v4l-359 139l-5 10l24 46q98 -50 222 -97q130 -49 186 -66z" />
    <glyph glyph-name="question" unicode="?" horiz-adv-x="335" 
d="M140 180l-21 139v19q120 120 120 222q0 37 -24 55.5t-64 18.5q-34 0 -62 -14q-7 -12 -7 -34q0 -18 10 -27l-1 -7q-26 -16 -48 -40q-12 1 -19 9.5t-7 19.5q0 46 53.5 92.5t108.5 62.5q81 0 118.5 -39t37.5 -120q-63 -90 -158 -185q-7 -89 -11 -170zM205 49
q-7 -13 -24.5 -33t-29.5 -28q-12 8 -29.5 28t-24.5 33q6 12 23 27.5t31 22.5q13 -8 30 -23.5t24 -26.5z" />
    <glyph glyph-name="at" unicode="@" horiz-adv-x="860" 
d="M241 176q0 104 56 190.5t150 118.5q67 0 140 -21q14 21 23 53l21 -6q-22 -92 -22 -276q0 -135 17 -204q66 38 99.5 122t33.5 176q0 287 -301 287q-102 0 -177 -46q-73 -70 -116.5 -181t-43.5 -217q0 -150 72 -231t216 -81q62 0 119 22l7 -13q-60 -42 -134 -59
q-176 0 -261 84.5t-85 260.5q0 201 113 342.5t306 168.5q349 0 349 -303q0 -139 -64 -243.5t-186 -134.5q-15 18 -24.5 70t-9.5 90l-4 1q-35 -50 -83 -97t-91 -64q-55 0 -87.5 61t-32.5 130zM321 221q0 -49 17.5 -101.5t50.5 -52.5q35 0 85 50t65 90q0 149 -7 192
q-53 24 -104 24q-48 0 -74 -24q-33 -76 -33 -178z" />
    <glyph glyph-name="A" unicode="A" horiz-adv-x="599" 
d="M98 662q114 -11 227 -11q135 0 249 11l4 -25q-45 -14 -96 -21q-13 -96 -13 -262q0 -223 13 -319q53 -5 110 -19l-3 -24q-74 8 -156 8q-91 0 -144 -8l-4 25q45 14 96 21q8 66 11 213q-53 6 -111 6q-66 0 -109 -6q-24 -98 -24 -150q0 -66 43 -91l-4 -14q-31 4 -96 4
q-82 0 -141 -8l-4 25q45 14 96 21l164 581q-57 6 -111 19zM281 294q70 0 111 7q0 242 -10 310q-31 3 -60 3q-32 0 -64 -3l-59 -244l-16 -66q45 -7 98 -7z" />
    <glyph glyph-name="B" unicode="B" horiz-adv-x="576" 
d="M292 -15q-63 0 -147 38q-17 -26 -23 -45l-21 5q24 109 24 342q0 189 -11 283q-48 16 -98 16v25q50 0 155.5 4.5t132.5 4.5q38 0 63 -2t52.5 -8.5t43.5 -19t26.5 -35t10.5 -54.5q0 -53 -39 -98.5t-95 -68.5v-4q72 0 117 -33t45 -98q0 -80 -74.5 -154.5t-161.5 -97.5z
M246 345l5 37h12q74 0 107 21q36 40 36 106q0 112 -119 112q-40 0 -76 -13q-9 -94 -9 -283q0 -152 5 -240q52 -28 118 -28q53 0 88 24q23 49 23 110q0 154 -190 154z" />
    <glyph glyph-name="C" unicode="C" horiz-adv-x="498" 
d="M304 64q81 0 163 78l14 -13q-83 -106 -198 -144q-120 0 -180.5 75.5t-60.5 204.5q0 138 73.5 252.5t197.5 148.5q101 0 206 -19l-1 -22q-26 0 -48 -9q-25 -59 -33 -138h-25q-9 40 -9 93q-47 25 -113 25q-65 0 -108 -36q-51 -87 -51 -221q0 -59 7.5 -104.5t25 -86
t53.5 -62.5t87 -22z" />
    <glyph glyph-name="D" unicode="D" horiz-adv-x="619" 
d="M306 -15q-72 0 -161 38q-17 -26 -23 -45l-21 5q24 109 24 342q0 189 -11 283q-48 16 -98 16v25q50 0 155.5 4.5t132.5 4.5q134 0 203.5 -69t69.5 -203q0 -139 -73 -252t-198 -149zM287 621q-40 0 -76 -13q-9 -94 -9 -283q0 -152 5 -240q54 -28 132 -28q60 0 98 34
q51 93 51 229q0 62 -10 113t-32 95t-62.5 68.5t-96.5 24.5z" />
    <glyph glyph-name="E" unicode="E" horiz-adv-x="512" 
d="M304 64q81 0 163 78l14 -13q-83 -106 -198 -144q-120 0 -180.5 75.5t-60.5 204.5q0 138 73.5 252.5t197.5 148.5q101 0 206 -19l-1 -22q-26 0 -48 -9q-25 -59 -33 -138h-25q-9 40 -9 93q-47 25 -113 25q-65 0 -108 -36q-45 -77 -50 -187q43 -8 112 -8q111 0 132 43l20 -4
q-9 -32 -9 -77q0 -43 6 -87l-23 -4q-15 38 -20 89q-38 3 -106 3q-73 0 -113 -5q1 -56 9 -99t26.5 -81t53 -58.5t84.5 -20.5z" />
    <glyph glyph-name="F" unicode="F" horiz-adv-x="488" 
d="M498 662l4 -20q-52 -53 -59 -158h-25q-9 43 -9 109q-43 21 -118 21q-41 0 -74 -5q-10 -68 -10 -243q43 -8 84 -8q78 0 99 43l20 -4q-9 -32 -9 -77q0 -44 6 -87l-23 -4q-15 38 -20 89q-38 3 -73 3q-44 0 -84 -5q1 -204 13 -281q50 -5 110 -19l-3 -24q-74 8 -156 8
q-91 0 -144 -8l-4 25q45 14 96 21q11 82 11 258v59q0 110 -13 258q-40 5 -96 23l4 25q104 -10 266 -10q108 0 207 11z" />
    <glyph glyph-name="G" unicode="G" horiz-adv-x="557" 
d="M303 64q56 0 100 29v83q0 23 -4 67q-35 10 -91 20l3 21q23 -3 44 -3q88 0 161 49l9 -18q-23 -18 -36 -36q-12 -120 -20 -280h-21q-10 43 -24 71q-65 -57 -141 -82q-120 0 -180.5 75.5t-60.5 204.5q0 138 73.5 252.5t197.5 148.5q104 0 209 -19l-1 -22q-25 0 -48 -9
q-27 -64 -33 -139h-25q-9 41 -9 93q-47 26 -116 26q-65 0 -108 -36q-51 -87 -51 -221q0 -60 7 -105t24.5 -85.5t53 -62.5t87.5 -22z" />
    <glyph glyph-name="H" unicode="H" horiz-adv-x="708" 
d="M490 613q-51 7 -96 21l4 25q61 -8 142 -8q94 0 158 8l3 -24q-57 -14 -110 -19q-13 -74 -13 -261v-59q0 -187 13 -261q53 -5 110 -19l-3 -24q-64 8 -156 8q-83 0 -144 -8l-4 25q45 14 96 21q10 101 11 290q-74 7 -145 7q-75 0 -149 -7q1 -214 13 -293q53 -5 110 -19
l-3 -24q-74 8 -156 8q-91 0 -144 -8l-4 25q45 14 96 21q11 82 11 258v59q0 162 -13 258q-51 7 -96 21l4 25q53 -8 144 -8q82 0 156 8l3 -24q-57 -14 -110 -19q-9 -59 -11 -234q76 -10 149 -10q77 0 145 9q-1 132 -11 232z" />
    <glyph glyph-name="I" unicode="I" horiz-adv-x="337" 
d="M218 616q-11 -75 -11 -261q0 -224 13 -320q53 -5 110 -19l-3 -24q-74 8 -156 8q-91 0 -144 -8l-4 25q45 14 96 21q11 82 11 258v59q0 162 -13 258q-51 7 -96 21l4 25q53 -8 144 -8q82 0 156 8l3 -24q-57 -14 -110 -19z" />
    <glyph glyph-name="J" unicode="J" horiz-adv-x="337" 
d="M119 616q-53 5 -110 19l3 24q74 -8 156 -8q91 0 144 8l4 -25q-45 -14 -96 -21q-13 -96 -13 -258v-59q0 -185 8 -263q-56 -126 -206 -213l-17 19q76 64 107 137.5t31 177.5v201q0 186 -11 261z" />
    <glyph glyph-name="K" unicode="K" horiz-adv-x="606" 
d="M510 613q-9 -85 -146 -216l167 -359q51 -7 96 -21l-4 -25q-59 8 -141 8q-55 0 -86 -4l-4 14q17 17 17 57q0 81 -102 277q-56 -51 -100 -87q3 -155 12 -222q59 -6 113 -19l-3 -24q-74 8 -159 8q-91 0 -144 -8l-4 25q45 14 96 21q11 82 11 258v59q0 162 -13 258
q-51 7 -96 21l4 25q53 -8 144 -8q72 0 146 8l3 -24q-64 -15 -100 -19q-11 -75 -11 -266v-56q126 133 165 197t39 104q0 29 -17 46l4 14q31 -4 69 -4q77 0 136 8l4 -25q-45 -14 -96 -21z" />
    <glyph glyph-name="L" unicode="L" horiz-adv-x="456" 
d="M477 9l-6 -20q-100 11 -222 11q-135 0 -224 -10l-4 25q39 13 96 23q11 82 11 258v59q0 175 -11 258q-51 7 -96 21l4 25q53 -8 144 -8q82 0 156 8l3 -24q-60 -14 -110 -19q-13 -88 -13 -261q0 -239 10 -313q33 -5 74 -5q71 0 111 18q12 37 19 112h25q4 -106 33 -158z" />
    <glyph glyph-name="M" unicode="M" horiz-adv-x="864" 
d="M362 70q0 134 -130 531l-4 -1l-32 -233q-20 -143 -20 -258q0 -37 8.5 -61t34.5 -38l-4 -14q-31 4 -98 4q-82 0 -141 -8l-4 25q45 14 96 21l116 579q-60 6 -110 18l3 24q74 -8 176 -8q64 0 104 4l2 -14q-34 -12 -34 -31q0 -66 79 -317l31 -98l7 2q1 22 124 412
q0 10 -11 19.5t-23 12.5l3 14q50 -4 114 -4q110 0 162 8l5 -25q-48 -15 -97 -21q-5 -24 -5 -71q0 -76 16.5 -261t30.5 -246q53 -5 110 -19l-3 -24q-74 8 -156 8q-90 0 -143 -8l-4 25q45 14 96 21q0 95 -11.5 267.5t-28.5 291.5l-3 1q-141 -390 -149 -493q-65 -39 -97 -76
l-12 8q2 22 2 33z" />
    <glyph glyph-name="N" unicode="N" horiz-adv-x="706" 
d="M185 651q49 0 93 6l5 -16q-12 -4 -23 -12.5t-11 -18.5q0 -24 51 -112t224 -358l4 2v144q0 168 -17 254t-60 101l4 14q31 -4 94 -4q77 0 136 8l3 -23q-71 -17 -99 -20q-13 -98 -13 -261v-59q0 -187 13 -261q51 -6 96 -18l-4 -25q-53 8 -126 8q-34 0 -67 -3q0 69 -301 538
l-4 -2v-168q0 -255 37 -330q55 -5 109 -19l-2 -24q-74 8 -156 8q-91 0 -144 -8l-4 25q45 14 96 21q11 82 11 258v59q0 162 -13 258q-51 7 -96 21l4 25q50 -8 160 -8z" />
    <glyph glyph-name="O" unicode="O" horiz-adv-x="602" 
d="M42 265q0 139 74.5 253.5t196.5 147.5q122 0 184.5 -73t62.5 -206q0 -138 -68.5 -246.5t-190.5 -155.5q-117 0 -188 77.5t-71 202.5zM280 594q-60 0 -98 -34q-51 -90 -51 -221q0 -70 19.5 -132t64.5 -106t107 -44q59 0 99 35q50 92 50 218q0 59 -9.5 107t-30.5 89.5
t-59.5 64.5t-91.5 23z" />
    <glyph glyph-name="P" unicode="P" horiz-adv-x="512" 
d="M118 38q12 82 12 287q0 189 -11 283q-48 16 -98 16v25q50 0 156.5 4.5t133.5 4.5q206 0 206 -164q0 -89 -73 -144t-170 -55q-15 0 -22 1l4 32h12q75 0 115 38t40 113q0 71 -31 106.5t-98 35.5q-40 0 -78 -13q-9 -94 -9 -283q0 -201 12 -290q53 -5 110 -19l-3 -24
q-74 8 -156 8q-91 0 -144 -8l-4 25q45 14 96 21z" />
    <glyph glyph-name="Q" unicode="Q" horiz-adv-x="602" 
d="M601 -99q44 17 86 41l11 -17q-71 -45 -115 -127l-28 20q-152 109 -269 109q-63 0 -107 -34l-17 16q42 44 119 77q-109 7 -174 83.5t-65 195.5q0 139 74.5 253.5t196.5 147.5q122 0 184.5 -73t62.5 -206q0 -130 -61.5 -234.5t-172.5 -156.5q50 0 149 -44.5t126 -50.5z
M280 594q-60 0 -98 -34q-51 -90 -51 -221q0 -70 19.5 -132t64.5 -106t107 -44q59 0 99 35q50 92 50 218q0 59 -9.5 107t-30.5 89.5t-59.5 64.5t-91.5 23z" />
    <glyph glyph-name="R" unicode="R" horiz-adv-x="619" 
d="M131 35q13 96 13 290q0 189 -11 283q-48 16 -98 16v25q50 0 155.5 4.5t132.5 4.5q101 0 152 -33t51 -121q0 -122 -125 -170l140 -296q51 -7 96 -21l-4 -25q-59 8 -141 8q-55 0 -86 -4l-4 14q17 17 17 57q0 80 -94 255q-25 5 -58 5l3 22h12q72 0 111 35.5t39 104.5
q0 67 -30.5 99.5t-95.5 32.5q-40 0 -76 -13q-9 -94 -9 -283q0 -212 11 -287q51 -7 96 -21l-4 -25q-53 8 -144 8q-82 0 -156 -8l-3 24q57 14 110 19z" />
    <glyph glyph-name="S" unicode="S" horiz-adv-x="465" 
d="M116 87q57 -23 114 -23t90.5 26.5t33.5 77.5q0 30 -43 67.5t-95 67.5t-95 68.5t-43 70.5q0 70 64.5 135.5t141.5 88.5q86 0 163 -17v-20q-52 -48 -58 -148h-25q0 53 -5 93q-43 20 -101 20q-47 0 -80 -22t-33 -63q0 -30 43 -67t94.5 -66.5t94.5 -67.5t43 -70
q0 -73 -64.5 -148t-140.5 -105q-79 0 -147 18q-21 -10 -42 -30l-15 14q69 73 77 193h25v-14.5t0.5 -17.5t0.5 -18t0.5 -17t1 -14t0.5 -9v-3z" />
    <glyph glyph-name="T" unicode="T" horiz-adv-x="519" 
d="M544 662l4 -20q-33 -35 -44.5 -69t-14.5 -89h-25q-9 43 -9 109q-43 21 -103 21q-27 0 -44 -5q-10 -68 -10 -254q0 -224 13 -320q50 -5 110 -19l-3 -24q-74 8 -156 8q-91 0 -144 -8l-4 25q45 14 96 21q11 82 11 258v59q0 103 -13 254q-17 5 -43 5q-58 0 -100 -18
q-13 -42 -20 -112h-25q-4 107 -33 158l6 20q96 -11 266 -11q189 0 285 11z" />
    <glyph glyph-name="U" unicode="U" horiz-adv-x="665" 
d="M197 549q-14 -126 -14 -273q0 -40 3 -69.5t12 -57.5t24.5 -46t41.5 -28.5t62 -10.5q74 0 127 48q5 130 5 212q0 178 -11 292q-51 7 -96 21l4 22q61 -8 142 -8q94 0 158 8l3 -21q-57 -14 -110 -19q-13 -74 -13 -264v-59q0 -187 13 -261q53 -5 110 -19l-3 -24q-64 8 -156 8
q-40 0 -58 -1l-3 14q9 11 13 71q-58 -65 -146 -99q-111 0 -156.5 65.5t-45.5 190.5q0 57 7 181t7 136q0 34 -7 55q-51 7 -96 21l4 25q59 -8 141 -8q55 0 86 4l4 -14q-45 -25 -52 -92z" />
    <glyph glyph-name="V" unicode="V" horiz-adv-x="599" 
d="M331 35q51 -7 96 -21l-4 -22q-59 8 -141 8q-63 0 -94 -4l-4 14q12 4 23 12.5t11 18.5q0 73 -133 488q-18 55 -31 84q-56 7 -96 21l4 25q53 -8 148 -8q86 0 160 8l3 -24q-57 -14 -110 -19q7 -81 50.5 -244.5t93.5 -302.5q84 186 112.5 282.5t28.5 166.5q0 94 -50 123l4 14
q31 -4 86 -4q82 0 141 8l4 -25q-45 -14 -96 -21q5 -35 5 -58q0 -88 -43.5 -189t-167.5 -331z" />
    <glyph glyph-name="W" unicode="W" horiz-adv-x="906" 
d="M330 34q17 -9 46 -17l-3 -21q-48 4 -91 4q-63 0 -94 -4l-4 14q12 4 23 12.5t11 18.5q0 73 -133 488q-18 55 -31 84q-57 10 -96 23l4 25q97 -10 334 -10q216 0 313 10l4 -25q-44 -14 -96 -23q5 -35 5 -58q0 -34 -8 -77q38 -170 120 -409q74 187 97.5 283.5t23.5 165.5
q0 94 -50 123l4 14q31 -4 86 -4q82 0 141 8l4 -25q-45 -14 -96 -21q5 -35 5 -58q0 -84 -41.5 -193t-150.5 -328q17 -9 46 -17l-3 -21q-48 4 -91 4q-63 0 -94 -4l-4 14q12 4 23 12.5t11 18.5q0 59 -71 299h-4q-47 -121 -140 -306zM428 518q0 68 -25 88.5t-97 20.5
q-83 0 -142 -18q9 -82 51.5 -243t91.5 -297q74 187 97.5 283.5t23.5 165.5z" />
    <glyph glyph-name="X" unicode="X" horiz-adv-x="645" 
d="M349 659l3 -24q-57 -14 -110 -19q0 -62 100 -229q110 180 110 222q0 22 -20 32l4 14q50 -4 83 -4q78 0 130 8l5 -25q-48 -15 -97 -21q-53 -84 -190 -265l196 -310q51 -7 96 -21l-4 -25q-59 8 -141 8q-55 0 -86 -4l-4 14q4 8 4 22q0 65 -115 254q-129 -215 -129 -251
q53 -5 110 -19l-3 -24q-80 8 -163 8q-80 0 -137 -8l-5 25q48 15 97 21q60 95 204 289l-180 286q-51 7 -96 21l4 25q63 -8 153 -8q101 0 181 8z" />
    <glyph glyph-name="Y" unicode="Y" horiz-adv-x="545" 
d="M171 616q47 -140 120 -279q111 217 111 272q0 22 -20 32l4 14q50 -4 83 -4q78 0 130 8l5 -25q-48 -15 -97 -21l-196 -315q0 -167 13 -263q53 -5 110 -19l-3 -24q-74 8 -156 8q-91 0 -144 -8l-4 25q45 14 96 21q11 82 11 207v26l-127 266.5t-45 75.5q-56 7 -96 21l4 25
q53 -8 148 -8q86 0 160 8l3 -24q-57 -14 -110 -19z" />
    <glyph glyph-name="Z" unicode="Z" horiz-adv-x="491" 
d="M389 640q31 0 50 7.5t42 28.5l21 -16q-34 -33 -79 -111l-268 -476l4 -3h144q58 0 83 19q6 38 6 93h26q7 -113 79 -187l-19 -15q-8 10 -20 18q-142 23 -339 23q-81 0 -113 -38l-21 17q50 50 90 118l284 469l-3 3h-135q-63 0 -107 -19q-11 -57 -25 -91l-24 4q2 38 2 58
q0 49 -9 85q-16 9 -47 17l3 22q21 0 155.5 -13t219.5 -13z" />
    <glyph glyph-name="bracketleft" unicode="[" horiz-adv-x="326" 
d="M296 -172v-21q-127 2 -195 -15l-7 5q10 69 10 452q0 381 -10 450l7 5q68 -17 195 -15v-21q-78 -2 -132 -17v-806q54 -15 132 -17z" />
    <glyph glyph-name="backslash" unicode="\" horiz-adv-x="351" 
d="M282 -45h-5l-178 523q-46 137 -78 218q32 11 48 21h4q26 -95 69 -224l109 -318q32 -93 72 -192q-14 -16 -41 -28z" />
    <glyph glyph-name="bracketright" unicode="]" horiz-adv-x="326" 
d="M30 -193v21q78 2 132 17v806q-54 15 -132 17v21q127 -2 195 15l7 -5q-10 -69 -10 -450q0 -383 10 -452l-7 -5q-68 17 -195 15z" />
    <glyph glyph-name="asciicircum" unicode="^" horiz-adv-x="518" 
d="M259 580l-180 -289l-29 15q92 158 181 380l53 10q95 -238 184 -390l-29 -15z" />
    <glyph glyph-name="underscore" unicode="_" horiz-adv-x="615" 
d="M619 -146l-8 -39h-606l-8 7l8 44q170 -9 462 -9q107 0 146 3z" />
    <glyph glyph-name="grave" unicode="`" horiz-adv-x="200" 
d="M189 525l-189 109q1 10 9.5 30.5t15.5 28.5q17 3 43 1q24 -42 59.5 -84t72.5 -67z" />
    <glyph glyph-name="a" unicode="a" horiz-adv-x="514" 
d="M50 176q0 104 56 190.5t150 118.5q67 0 140 -21q14 21 23 53l21 -6q-22 -90 -22 -318q0 -102 7 -160q24 -8 54 -8v-21q-64 -3 -135 -19l-7 4q11 69 11 156l-4 1q-35 -50 -83 -97t-91 -64q-55 0 -87.5 61t-32.5 130zM130 221q0 -49 17.5 -101.5t50.5 -52.5q35 0 85 50
t65 90q0 149 -7 192q-53 24 -104 24q-48 0 -74 -24q-33 -76 -33 -178z" />
    <glyph glyph-name="b" unicode="b" horiz-adv-x="511" 
d="M459 294q0 -104 -56 -190.5t-150 -118.5q-96 0 -175 36q13 116 13 355q0 263 -24 358l21 6q9 -32 23 -53q55 9 107 24l5 -18q-19 -15 -47 -29q-15 -82 -15 -339l4 -1q35 50 83 97t91 64q55 0 87.5 -61t32.5 -130zM379 249q0 49 -17.5 101.5t-50.5 52.5q-35 0 -85 -50
t-65 -90q0 -149 7 -192q53 -24 104 -24q48 0 74 24q33 76 33 178z" />
    <glyph glyph-name="c" unicode="c" horiz-adv-x="387" 
d="M238 57q55 0 114 53l10 -10q-58 -81 -141 -115q-87 0 -129 55t-42 150q0 103 56 187t146 108q61 0 121 -16v-14q-39 -48 -43 -105h-22q0 39 -2 61q-41 12 -73 12q-48 0 -74 -24q-29 -61 -29 -154q0 -41 3.5 -70.5t14 -58.5t33.5 -44t57 -15z" />
    <glyph glyph-name="d" unicode="d" horiz-adv-x="514" 
d="M50 176q0 104 56 190.5t150 118.5q54 0 98 -10q0 130 -7 188q-24 8 -54 8v21q64 3 135 19l7 -5q-17 -98 -17 -330v-183q0 -102 7 -160q24 -8 54 -8v-21q-64 -3 -135 -19l-7 4q11 69 11 156l-4 1q-35 -50 -83 -97t-91 -64q-55 0 -87.5 61t-32.5 130zM130 221
q0 -50 17.5 -102t50.5 -52q35 0 85 50t65 90q0 149 -7 192q-53 24 -104 24q-48 0 -74 -24q-33 -76 -33 -178z" />
    <glyph glyph-name="e" unicode="e" horiz-adv-x="426" 
d="M238 57q63 0 123 53l11 -10q-57 -78 -146 -115q-88 0 -132 55t-44 150q0 101 55 185.5t147 109.5q67 0 94 -26.5t27 -93.5q0 -38 -10 -65q21 -8 49 -8l-1 -21q-116 2 -281 -33q0 -40 4 -69t14.5 -56t33 -41.5t56.5 -14.5zM159 399q-27 -56 -29 -135q82 27 163 41
q0 66 -12.5 92t-55.5 26q-37 0 -66 -24z" />
    <glyph glyph-name="f" unicode="f" horiz-adv-x="325" 
d="M311 425q-51 3 -134 3v-198q0 -134 12 -290q-19 3 -35 2q-30 -55 -45 -142l-18 1q12 216 12 429v199h-54l-2 2q0 16 3 22q13 5 53 17q10 78 64 145t128 96q44 0 90 -16v-14q-38 -47 -43 -115h-22q0 39 -2 61q-20 12 -49 12q-45 0 -70 -24q-21 -56 -21 -144l142 5l4 -4
q-7 -18 -13 -47z" />
    <glyph glyph-name="g" unicode="g" horiz-adv-x="503" 
d="M53 185q0 102 54 185.5t147 114.5q67 0 140 -21q44 9 77 19l5 -18q-19 -15 -47 -29q-13 -121 -13 -226q0 -168 7 -244q-22 -55 -83 -108.5t-121 -72.5q-93 0 -178 31v19q19 67 112 167v4q-46 13 -73 67.5t-27 111.5zM133 229q0 -47 17.5 -97t49.5 -50q33 0 81.5 52.5
t64.5 91.5q0 131 -7 173q-53 24 -104 24q-45 0 -72 -24q-30 -73 -30 -170zM346 170l-4 1q-15 -31 -42.5 -62.5t-55.5 -56t-54.5 -51t-46 -59t-23.5 -67.5q55 -28 123 -28q44 0 69 24q23 60 28.5 116t5.5 183z" />
    <glyph glyph-name="h" unicode="h" horiz-adv-x="542" 
d="M372 -15l-7 4q16 97 19 280q2 18 0.5 41.5t-4.5 44t-13.5 34.5t-27.5 14q-39 0 -92 -49t-71 -91q0 -145 11 -233q28 -6 63 -19l-2 -19q-56 8 -105 8q-51 0 -102 -6l-3 19q30 13 59 20q9 68 9 157v186q0 263 -24 358l21 6q9 -32 23 -53q55 9 107 24l5 -18q-19 -15 -47 -29
q-15 -82 -15 -339l4 -1q34 47 88.5 96.5t98.5 64.5q30 0 50 -14t28.5 -40.5t11 -53t1.5 -63.5l-5 -281q24 -8 54 -8v-21q-64 -3 -135 -19z" />
    <glyph glyph-name="i" unicode="i" horiz-adv-x="287" 
d="M190 274v-84q0 -108 7 -160q28 -6 63 -19l-2 -19q-56 8 -105 8q-51 0 -102 -6l-3 19q30 13 59 20q9 68 9 157v84q0 81 -8 162q-26 8 -54 8v21q77 5 142 20l7 -4q-13 -77 -13 -207zM208 620q-7 -13 -24.5 -33t-29.5 -28q-12 8 -29.5 28t-24.5 33q6 12 23 27.5t31 22.5
q13 -8 30 -23.5t24 -26.5z" />
    <glyph glyph-name="j" unicode="j" horiz-adv-x="291" 
d="M32 -215l-15 15q96 117 96 253v137q0 165 -8 246q-26 8 -54 8v21q77 5 142 20l7 -4q-15 -88 -15 -260q0 -145 7 -221q-32 -109 -160 -215zM206 620q-7 -13 -24.5 -33t-29.5 -28q-12 8 -29.5 28t-24.5 33q6 12 23 27.5t31 22.5q13 -8 30 -23.5t24 -26.5z" />
    <glyph glyph-name="k" unicode="k" horiz-adv-x="515" 
d="M181 263q0 -145 11 -233q28 -6 63 -19l-2 -19q-56 8 -105 8q-51 0 -102 -6l-3 19q30 13 59 20q9 68 9 197v187q0 151 -8 232q-26 8 -54 8v21q99 7 190 33l5 -18q-19 -15 -47 -29q-16 -88 -16 -338l4 -2q35 50 85 97.5t94 63.5q36 -9 58 -42t22 -72q0 -100 -100 -143
l30 -64l20.5 -45l16 -36t12.5 -24.5t14 -21.5q0 -2 21.5 -5t32.5 -3v-21q-69 -3 -142 -20l-9 5q0 70 -57 218q-24 -2 -36 -2v21q54 3 85.5 31.5t31.5 79.5q0 17 -7.5 40.5t-19.5 31.5q-39 -7 -88.5 -57.5t-67.5 -92.5z" />
    <glyph glyph-name="l" unicode="l" horiz-adv-x="298" 
d="M188 417l-2 -187q-2 -143 6 -200q28 -6 63 -19l-2 -19q-56 8 -105 8q-51 0 -102 -6l-3 19q30 13 59 20q9 64 10 197l2 187q2 145 -7 232q-26 8 -54 8v21q100 7 191 33l5 -18q-19 -15 -47 -29q-12 -66 -14 -247z" />
    <glyph glyph-name="m" unicode="m" horiz-adv-x="809" 
d="M676 0q-20 0 -48 -2v14q15 78 19 257q3 134 -42 134q-36 0 -88 -49t-70 -91l-4 -232q34 -7 69 -20l-2 -19q-56 8 -106 8q-20 0 -48 -2v14q15 78 19 257q3 134 -42 134q-36 0 -87.5 -49t-69.5 -91q0 -145 11 -233q28 -6 63 -19l-2 -19q-56 8 -105 8q-51 0 -102 -6l-3 19
q30 13 59 20q9 68 9 157v84q0 92 -7 163q-24 8 -54 8v21q64 3 135 19l7 -4q-11 -69 -11 -156l4 -1q32 47 84 96.5t94 64.5q90 0 90 -160l4 -1q32 47 84 96.5t94 64.5q94 0 90 -171l-5 -281q29 -7 59 -20l-3 -19q-48 6 -95 6z" />
    <glyph glyph-name="n" unicode="n" horiz-adv-x="547" 
d="M413 0q-19 0 -49 -2v14q16 78 20 257q2 18 0.5 41.5t-4.5 44t-13.5 34.5t-27.5 14q-39 0 -92 -49t-71 -91q0 -145 11 -233q28 -6 63 -19l-2 -19q-56 8 -105 8q-51 0 -102 -6l-3 19q30 13 59 20q9 68 9 157v84q0 92 -7 163q-24 8 -54 8v21q64 3 135 19l7 -4
q-11 -69 -11 -156l4 -1q34 47 88.5 96.5t98.5 64.5q30 0 50 -14t28.5 -40.5t11 -53t1.5 -63.5l-5 -281q29 -7 59 -20l-3 -19q-48 6 -96 6z" />
    <glyph glyph-name="o" unicode="o" horiz-adv-x="488" 
d="M45 190q0 102 57.5 186.5t151.5 108.5q93 0 141 -54t48 -151q0 -93 -56 -177t-143 -118q-87 0 -143 58.5t-56 146.5zM227 423q-42 0 -69 -24q-33 -63 -33 -154q0 -73 37 -135.5t99 -62.5q42 0 70 25q32 61 32 153q0 83 -33.5 140.5t-102.5 57.5z" />
    <glyph glyph-name="p" unicode="p" horiz-adv-x="513" 
d="M463 294q0 -104 -56 -190.5t-150 -118.5q-54 0 -98 10q0 -109 7 -161q45 -11 79 -26l-3 -20q-62 12 -107 12q-40 0 -97 -5l-4 20q30 7 51 18q10 86 10 281v163q0 102 -7 160q-24 8 -54 8v21q64 3 135 19l7 -4q-11 -69 -11 -156l4 -1q35 50 83 97t91 64q55 0 87.5 -61
t32.5 -130zM383 249q0 49 -17.5 101.5t-50.5 52.5q-35 0 -85 -50t-65 -90q0 -149 7 -192q53 -24 104 -24q48 0 74 24q33 76 33 178z" />
    <glyph glyph-name="q" unicode="q" horiz-adv-x="516" 
d="M50 176q0 104 56 190.5t150 118.5q67 0 140 -21q44 9 77 19l5 -18q-19 -15 -47 -29q-13 -104 -13 -342q0 -193 8 -257q33 -6 54 -12l2 -19q-96 -6 -198 -33l-7 20q47 15 60 29q10 94 11 323l-4 1q-35 -50 -83 -97t-91 -64q-55 0 -87.5 61t-32.5 130zM130 221
q0 -49 17.5 -101.5t50.5 -52.5q35 0 85 50t65 90q0 149 -7 192q-53 24 -104 24q-48 0 -74 -24q-33 -76 -33 -178z" />
    <glyph glyph-name="r" unicode="r" horiz-adv-x="381" 
d="M176 263q0 -145 11 -233q50 -7 84 -19l-2 -19q-51 8 -115 8q-56 0 -113 -6l-3 19q30 13 59 20q9 68 9 157v84q0 92 -7 163q-24 8 -54 8v21q64 3 135 19l7 -4q-11 -69 -11 -156l4 -1q14 40 51.5 92.5t69.5 68.5q45 0 88 -16v-14q-38 -48 -43 -125h-22q0 39 -2 61
q-13 10 -34 10q-30 0 -63.5 -47.5t-48.5 -90.5z" />
    <glyph glyph-name="s" unicode="s" horiz-adv-x="391" 
d="M95 64q46 -17 90 -17q38 0 65.5 18t27.5 60q0 18 -33 41.5t-72 43.5t-72 48.5t-33 55.5q0 53 56.5 106.5t106.5 64.5q64 0 124 -16v-14q-39 -48 -43 -105h-22q0 39 -2 61q-39 12 -76 12q-33 0 -60.5 -13.5t-27.5 -43.5q0 -18 33 -42t72 -43.5t72 -48.5t33 -56
q0 -61 -55.5 -117.5t-112.5 -73.5q-72 0 -138 21v14q39 48 43 105h22v-14.5t0.5 -16.5t1 -15t0.5 -11v-4z" />
    <glyph glyph-name="t" unicode="t" horiz-adv-x="344" 
d="M177 471l140 5l4 -4q-7 -18 -13 -47q-51 3 -134 3l-4 -198q-4 -173 30 -173q55 0 114 53l10 -10q-58 -81 -141 -115q-57 0 -73.5 52t-13.5 193l4 199h-54l-2 2q0 16 3 22q84 55 110 114q12 3 28 3l4 -2q-10 -60 -12 -97z" />
    <glyph glyph-name="u" unicode="u" horiz-adv-x="542" 
d="M170 485l7 -4q-16 -97 -19 -280q-2 -18 -0.5 -41.5t4.5 -44t13.5 -34.5t27.5 -14q39 0 92 49t71 91q0 145 -11 233q-28 6 -63 19l2 19q56 -8 105 -8q51 0 102 6l3 -19q-30 -13 -59 -20q-9 -68 -9 -157v-84q0 -92 7 -163q24 -8 54 -8v-21q-64 -3 -135 -19l-7 2
q11 69 11 158l-4 1q-34 -47 -88.5 -96.5t-98.5 -64.5q-30 0 -50 14t-28.5 40.5t-11 53t-1.5 63.5l5 281q-24 8 -54 8v21q64 3 135 19z" />
    <glyph glyph-name="v" unicode="v" horiz-adv-x="479" 
d="M435 445q8 -26 8 -50q0 -94 -53 -202.5t-127 -184.5q-26 -13 -59 -23q-13 3 -24.5 17.5t-25.5 50t-29.5 106t-32.5 175.5q-11 68 -20 102q-24 8 -54 8v21q67 3 142 20l7 -4q-8 -28 -8 -58q0 -39 9 -93q20 -121 37.5 -187.5t27 -81.5t20.5 -15q57 70 83.5 139.5
t26.5 156.5q0 50 -21 92q-29 9 -56 9l1 21q102 4 192 27l4 -18q-13 -10 -48 -28z" />
    <glyph glyph-name="w" unicode="w" horiz-adv-x="728" 
d="M680 445q8 -26 8 -50q0 -94 -51 -202.5t-122 -184.5q-25 -13 -56 -23q-46 11 -83 203q-47 -101 -120 -180q-25 -13 -56 -23q-17 4 -31.5 28t-35 103.5t-41.5 217.5q-11 68 -20 102q-24 8 -54 8v21q67 3 142 20l7 -4q-8 -28 -8 -58q0 -39 9 -93q19 -121 35 -187.5
t25 -81.5t19 -15q53 70 77.5 139.5t24.5 156.5q0 57 -18 94q-24 8 -54 8v21q59 -4 146 -4q181 0 301 30l4 -18q-13 -10 -48 -28zM587 434q-29 9 -56 9q-81 0 -113 -20q0 -39 9 -93q19 -121 35 -187.5t25 -81.5t19 -15q53 70 77.5 139.5t24.5 156.5q0 50 -21 92z" />
    <glyph glyph-name="x" unicode="x" horiz-adv-x="490" 
d="M237 337l21 -37q28 59 63 115.5t61 69.5q45 0 88 -16v-14q-38 -48 -43 -125h-22q0 39 -2 61q-13 10 -34 10q-22 0 -73 -97l-20 -38l58 -102q54 -95 82 -131q0 -2 21.5 -5t32.5 -3v-21q-63 -3 -133 -19l-8 2q0 28 -60 138l-36 64q-24 -56 -65.5 -123t-69.5 -81
q-45 0 -88 16v14q38 48 43 125h22q0 -39 2 -61q13 -10 34 -10q22 0 85 120l18 35l-42 76q-38 65 -87 136q-24 8 -54 8v21q67 3 142 20l7 -4q0 -28 9 -51t48 -93z" />
    <glyph glyph-name="y" unicode="y" horiz-adv-x="530" 
d="M171 485l7 -4q-16 -97 -19 -280q-3 -134 42 -134q36 0 88.5 50.5t67.5 89.5q0 145 -11 233q-27 6 -63 19l2 19q56 -8 105 -8q51 0 102 6l3 -19q-30 -13 -59 -20q-9 -68 -9 -157v-84q0 -159 7 -230q-19 -55 -80 -107.5t-121 -73.5q-92 0 -168 29v13q37 44 42 112h21
q0 -39 2 -61q56 -31 128 -31q40 0 65 24q23 61 28.5 110.5t5.5 163.5l-4 1q-30 -45 -83 -95.5t-95 -65.5q-29 0 -48 14t-27.5 40.5t-11 53t-1.5 63.5l5 281q-24 8 -54 8v21q63 3 133 19z" />
    <glyph glyph-name="z" unicode="z" horiz-adv-x="412" 
d="M142 89l2 -4q15 7 27 10q86 0 171 -20q10 22 23 58l21 -7q-11 -39 -11 -73q0 -31 7 -60l-12 -8q-154 46 -286 46q-31 -17 -60 -46l-17 15q32 32 73 90l209 295l-64 3q-111 4 -137 2q-20 -20 -37 -49l-19 11q29 53 36 126l13 7q25 -12 48 -16.5t103 -10.5l108 -9
q31 17 50 36l17 -15q-42 -42 -73 -90z" />
    <glyph glyph-name="braceleft" unicode="{" horiz-adv-x="300" 
d="M224 711l4 -14q-27 -14 -51 -40t-33 -53q0 -47 22.5 -141t22.5 -134q-14 -34 -91 -79v-4q77 -45 91 -79q0 -40 -22.5 -134t-22.5 -141q9 -27 33 -53t51 -40l-4 -14q-48 14 -91.5 56t-43.5 86q0 47 13.5 130t13.5 130q0 20 -20.5 32t-47.5 17l-4 19q72 16 72 54
q0 47 -13.5 130t-13.5 130q0 44 43.5 86t91.5 56z" />
    <glyph glyph-name="bar" unicode="|" horiz-adv-x="238" 
d="M144 -199q-18 -10 -41 -17l-7 3q0 689 -7 936q34 14 52 27l5 -1q-2 -142 -2 -948z" />
    <glyph glyph-name="braceright" unicode="}" horiz-adv-x="288" 
d="M72 697l4 14q48 -14 91.5 -56t43.5 -86q0 -47 -13.5 -130t-13.5 -130q0 -38 72 -54l-4 -19q-27 -5 -47.5 -17t-20.5 -32q0 -47 13.5 -130t13.5 -130q0 -44 -43.5 -86t-91.5 -56l-4 14q27 14 51 40t33 53q0 47 -22.5 141t-22.5 134q14 34 91 79v4q-77 45 -91 79
q0 40 22.5 134t22.5 141q-9 27 -33 53t-51 40z" />
    <glyph glyph-name="asciitilde" unicode="~" horiz-adv-x="590" 
d="M68 200l-18 11q22 41 69.5 76.5t91.5 40.5q43 -29 96 -49.5t97 -20.5q69 0 118 58l18 -11q-20 -38 -64 -71.5t-87 -45.5q-33 0 -110 33t-110 33q-66 0 -101 -54z" />
    <glyph glyph-name="nbspace" unicode="&#xa0;" horiz-adv-x="180" 
 />
    <glyph glyph-name="exclamdown" unicode="&#xa1;" horiz-adv-x="226" 
d="M66 436q7 11 24 26.5t30 23.5q14 -7 31 -22.5t23 -27.5q-7 -13 -24.5 -33t-29.5 -28q-12 8 -29.5 28t-24.5 33zM133 301l21 -484q-12 -6 -38 -12t-39 -5q-11 10 -32 40q47 157 62 459z" />
    <glyph glyph-name="cent" unicode="&#xa2;" horiz-adv-x="450" 
d="M264 72q55 0 114 53l10 -10q-52 -74 -127 -109l-1 -98h-5q-16 5 -27 15l6 77q-81 4 -119.5 58.5t-38.5 146.5q0 94 47.5 173.5t126.5 111.5l4 98q15 2 28 6l4 -3q-5 -34 -8 -91q61 0 121 -16v-14q-39 -48 -43 -105h-22q0 39 -2 61q-38 10 -56 11l-13 -365h1zM156 260
q0 -37 2.5 -64t10.5 -54t25 -44t42 -23l12 363q-38 -2 -63 -24q-29 -61 -29 -154z" />
    <glyph glyph-name="sterling" unicode="&#xa3;" horiz-adv-x="450" 
d="M181 293q57 2 144 12l8 -5l-6 -42l-148 -11q-7 -97 -49 -159l3 -3q15 7 27 10q101 2 204 -21q10 22 23 58l21 -7q-11 -39 -11 -73q0 -31 7 -60l-12 -8q-154 46 -289 46q-31 -17 -60 -46l-17 15q37 37 72 89q6 21 6 47.5t-2.5 59t-2.5 46.5v1l-39 -3l-9 6l6 46h46
q14 86 70 155.5t139 91.5q69 0 128 -16v-14q-37 -46 -43 -113h-22q0 41 -3 64q-42 14 -80 14q-50 0 -80 -26q-31 -65 -31 -154z" />
    <glyph glyph-name="currency" unicode="&#xa4;" horiz-adv-x="567" 
d="M81 286q0 84 52 145l-101 90q5 26 24 47h5l105 -104q56 45 135 59q76 0 129 -36l77 81q42 -14 53 -16l2 -4l-99 -93q33 -42 33 -105q0 -89 -57 -152l123 -115l-2 -4q-11 -2 -53 -16l-101 105q-51 -39 -117 -52q-81 0 -137 36l-91 -89h-5q-19 21 -24 47q25 21 83 75
q-34 42 -34 101zM273 469q-58 0 -87 -26q-32 -45 -32 -114q0 -73 38 -116t112 -43q58 0 87 26q32 45 32 114q0 74 -38 116.5t-112 42.5z" />
    <glyph glyph-name="yen" unicode="&#xa5;" horiz-adv-x="450" 
d="M156 493q13 -59 93 -222q86 168 86 220q0 19 -13 32l3 7q29 -7 70 -7q42 0 70 4l2 -22q-35 -4 -54 -13l-144 -246v-1l44 2q63 3 84 5q4 -20 9 -31v-5l-137 -2q0 -34 1 -49l43 2q63 3 84 5q4 -20 9 -31v-5l-135 -2q1 -49 9 -104q28 -6 63 -19l-2 -19q-56 8 -105 8
q-51 0 -102 -6l-3 19q30 13 59 20q4 34 7 99h-11q-72 -2 -118 -9l-3 4q6 20 7 32l126 4q0 8 0.5 24t0.5 25h-13q-72 -2 -118 -9l-3 4q6 20 7 32l118 4q-86 178 -131 244q-48 9 -80 22l2 20q75 -8 116 -6q67 4 104 11l5 -20q-32 -10 -50 -21z" />
    <glyph glyph-name="brokenbar" unicode="&#xa6;" horiz-adv-x="245" 
d="M149 340q-18 -10 -41 -17l-7 3q-1 182 -7 399q34 14 52 27l5 -1q-2 -142 -2 -411zM149 -198q-18 -10 -41 -17l-7 3q-1 182 -7 399q34 14 52 27l5 -1q-2 -142 -2 -411z" />
    <glyph glyph-name="section" unicode="&#xa7;" horiz-adv-x="467" 
d="M361 131l-14 13q18 24 18 62q0 29 -29 61.5t-70 63l-82 62.5t-70 69t-29 73q23 37 79.5 78.5t98.5 52.5q64 0 124 -16v-14q-39 -48 -43 -105h-22q0 39 -2 61q-39 12 -76 12q-42 0 -65 -23q-7 -12 -7 -34q0 -35 39.5 -75t88 -70.5t92.5 -71t51 -74.5q-8 -25 -34.5 -64
t-47.5 -61zM217 -53q42 0 65 23q7 12 7 34q0 35 -39.5 75t-88 70.5t-92.5 71t-51 74.5q8 25 34.5 64t47.5 61l14 -13q-18 -24 -18 -62q0 -29 29 -61.5t70 -63l82 -62.5t70 -69t29 -73q-23 -37 -79.5 -78.5t-98.5 -52.5q-72 0 -138 21v14q39 48 43 105h22v-14.5t0.5 -16.5
t1 -15t0.5 -11v-4q46 -17 90 -17z" />
    <glyph glyph-name="dieresis" unicode="&#xa8;" horiz-adv-x="293" 
d="M108 620q-7 -13 -24.5 -33t-29.5 -28q-12 8 -29.5 28t-24.5 33q6 12 23 27.5t31 22.5q13 -8 30 -23.5t24 -26.5zM293 620q-7 -13 -24.5 -33t-29.5 -28q-12 8 -29.5 28t-24.5 33q6 12 23 27.5t31 22.5q13 -8 30 -23.5t24 -26.5z" />
    <glyph glyph-name="copyright" unicode="&#xa9;" horiz-adv-x="765" 
d="M388 177q48 0 96 44l12 -13q-44 -55 -122 -89q-75 0 -113 45t-38 125q0 77 48.5 147t120.5 95q63 0 120 -13l-1 -17q-17 -2 -24 -7q-16 -35 -21 -83h-18q-7 30 -7 53q-28 15 -64 15q-32 0 -55 -16q-28 -54 -28 -129q0 -73 19.5 -115t74.5 -42zM42 325q0 141 99.5 241
t240.5 100t241 -100t100 -241t-100 -240.5t-241 -99.5t-240.5 99.5t-99.5 240.5zM86 325q0 -123 86.5 -210.5t209.5 -87.5t210 87.5t87 210.5t-87 211t-210 88t-209.5 -88t-86.5 -211z" />
    <glyph glyph-name="ordfeminine" unicode="&#xaa;" horiz-adv-x="410" 
d="M38 414q0 84 47 154.5t125 97.5q56 0 117 -17q13 20 20 43l17 -5q-18 -86 -18 -258q0 -81 6 -129q15 -7 40 -7v-18q-47 -2 -112 -16l-6 3q9 53 9 127h-3q-29 -40 -67.5 -78t-72.5 -52q-47 0 -74.5 49t-27.5 106zM109 451q0 -39 13.5 -81t39.5 -42q28 0 68 39.5t53 71.5
q0 119 -6 155q-37 20 -83 20q-38 0 -59 -20q-26 -61 -26 -143z" />
    <glyph glyph-name="guillemotleft" unicode="&#xab;" horiz-adv-x="413" 
d="M111 283l108 -158l-20 -14q-93 107 -178 158v20q95 52 178 150l19 -13zM287 285l98 -143l-20 -14q-91 96 -168 143v20q100 55 168 135l19 -13z" />
    <glyph glyph-name="logicalnot" unicode="&#xac;" horiz-adv-x="550" 
d="M494 82l-47 9v147h-388l-8 7l9 51q170 -9 343 -9q46 0 85 3l6 -6q0 -64 5 -196z" />
    <glyph glyph-name="registered" unicode="&#xae;" horiz-adv-x="434" 
d="M21 500q0 82 57 139t139 57t139 -57t57 -139t-57 -139t-139 -57t-139 57t-57 139zM57 500q0 -68 46.5 -115t113.5 -47t112.5 47t45.5 115t-45.5 114t-112.5 46t-113.5 -46t-46.5 -114zM150 420q4 40 4 87q0 61 -3 82q-12 4 -22 4v12q14 0 46.5 1.5t43.5 1.5q36 0 55 -9.5
t19 -37.5q0 -38 -37 -53l43 -88l20 -5v-11q-21 3 -43 3q-20 0 -36 -2l-2 7q6 5 6 16q0 23 -26 75q-8 3 -15 3l1 11h4q39 0 39 39q0 34 -33 34q-10 0 -17 -3q-1 -19 -1 -80q0 -73 3 -87l22 -5l-1 -11q-22 3 -48 3q-23 0 -47 -3v11q12 3 25 5z" />
    <glyph glyph-name="macron" unicode="&#xaf;" horiz-adv-x="274" 
d="M274 634l-9 -46l-256 -3l-9 6l9 50l45 -3q49 -3 104 -3q63 0 108 4z" />
    <glyph glyph-name="degree" unicode="&#xb0;" horiz-adv-x="367" 
d="M45 509q0 61 41.5 104t105.5 54q58 0 94 -30t36 -85q0 -60 -38 -101.5t-100 -54.5q-59 0 -99 29.5t-40 83.5zM174 628q-35 0 -53 -17q-19 -29 -19 -73q0 -47 23.5 -75t67.5 -28q35 0 53 17q19 29 19 73q0 48 -23 75.5t-68 27.5z" />
    <glyph glyph-name="plusminus" unicode="&#xb1;" horiz-adv-x="550" 
d="M501 313l-9 -46h-193q0 -82 9 -177l-46 -9l-10 7v179h-186l-8 7l9 51q122 -6 185 -7v158l47 9l5 -6q-5 -88 -5 -161v-1q37 -1 111 -1q46 0 85 3zM493 46l-9 -46h-426l-8 7l9 51q170 -9 343 -9q46 0 85 3z" />
    <glyph glyph-name="twosuperior" unicode="&#xb2;" horiz-adv-x="372" 
d="M184 746q66 0 97 -32t31 -98q-76 -99 -190 -198l2 -3q11 5 19 7q68 3 150 -8q10 19 20 47l17 -6q-9 -30 -9 -61q0 -21 6 -48l-10 -7q-144 30 -242 30q-14 -14 -26 -30l-17 8q18 37 70 91.5t90.5 104.5t38.5 93q0 28 -19.5 43t-50.5 15q-28 0 -51 -11q-5 -12 -5 -27
q0 -16 8 -21v-6q-12 -7 -40 -33q-23 2 -23 24q0 37 44.5 74.5t89.5 51.5z" />
    <glyph glyph-name="threesuperior" unicode="&#xb3;" horiz-adv-x="334" 
d="M65 745q86 -18 203 -18q14 8 23 18l13 -11q-21 -19 -119 -134q104 -19 104 -138q-13 -37 -51 -73t-78 -50q-71 0 -130 26v12q23 32 30 83h18q0 -27 1 -42q48 -27 93 -27q27 0 37 12q9 23 9 52q0 47 -23.5 73.5t-69.5 26.5l-3 4l85 119l-2 3q-11 -5 -19 -7q-45 0 -95 5
q-10 -18 -16 -42l-17 6q5 28 5 51t-7 45z" />
    <glyph glyph-name="acute" unicode="&#xb4;" horiz-adv-x="200" 
d="M200 634l-189 -109l-11 18q37 25 72.5 67t59.5 84q26 2 43 -1q7 -8 15.5 -28.5t9.5 -30.5z" />
    <glyph glyph-name="mu" unicode="&#xb5;" horiz-adv-x="529" 
d="M361 207q0 189 -14 263q60 6 98 15l6 -5q-20 -69 -20 -246q0 -130 7 -201q24 -8 54 -8v-21q-64 -3 -135 -19l-7 2q11 69 11 158l-4 1q-34 -48 -87 -97.5t-97 -63.5q-25 0 -37 14q0 -105 21 -195l-3 -3q-44 -8 -76 -20l-9 7q9 63 19 355l4 188q1 88 -6 136l4 3q57 6 92 15
l6 -5q-35 -143 -35 -308q0 -25 1 -38t5 -31.5t14.5 -27t27.5 -8.5q38 0 90 48.5t70 91.5z" />
    <glyph glyph-name="paragraph" unicode="&#xb6;" horiz-adv-x="574" 
d="M333 651v-7q-16 -113 -16 -319v-144q0 -49 -2.5 -84t-13 -78t-29 -70t-53.5 -45.5t-83 -18.5q-12 0 -21 7.5t-10 19.5q27 25 42 50l7 1q11 -10 39 -10q32 0 46 7q28 76 28 171v165q-12 -1 -34 -1q-105 0 -171.5 64t-66.5 143q0 67 51 111.5t150 44.5q16 0 137 -7zM354 -1
l-2 4q10 32 13.5 87.5t3.5 234.5q0 230 12 324q43 -4 136 -4h36v-25q-50 0 -98 -16q-11 -93 -11 -279q0 -205 12 -287q51 -7 96 -21l-4 -25q-61 8 -137 8q-37 0 -57 -1z" />
    <glyph glyph-name="periodcentered" unicode="&#xb7;" horiz-adv-x="212" 
d="M160 284q-7 -13 -24.5 -33t-29.5 -28q-12 8 -29.5 28t-24.5 33q6 12 23 27.5t31 22.5q13 -8 30 -23.5t24 -26.5z" />
    <glyph glyph-name="cedilla" unicode="&#xb8;" horiz-adv-x="184" 
d="M40 -97l-6 4l38 107l29 2l-24 -62l4 -3q46 0 74.5 -21t28.5 -63q-14 -27 -40.5 -49.5t-55.5 -32.5q-44 0 -88 21q10 19 16 39l4 2q32 -25 68 -25q18 0 26 5q9 13 9 31q0 45 -83 45z" />
    <glyph glyph-name="onesuperior" unicode="&#xb9;" horiz-adv-x="303" 
d="M125 378q8 69 8 129v67q0 44 -3 91h-60l-2 2q0 11 2 17q72 20 110 60q12 2 26 2l3 -2q-11 -81 -11 -170v-67q0 -81 6 -127q25 -8 45 -17l-3 -17q-40 6 -83 6q-47 0 -86 -7l-2 17q25 11 50 16z" />
    <glyph glyph-name="ordmasculine" unicode="&#xba;" horiz-adv-x="395" 
d="M32 427q0 82 48 150.5t126 88.5q77 0 117 -44t40 -123q0 -75 -46.5 -143t-118.5 -97q-72 0 -119 48t-47 120zM184 613q-34 0 -54 -19q-27 -53 -27 -124q0 -59 29.5 -108t79.5 -49q32 0 54 20q26 47 26 123q0 65 -27 111t-81 46z" />
    <glyph glyph-name="guillemotright" unicode="&#xbb;" horiz-adv-x="413" 
d="M194 125l108 158l-105 143l17 13q83 -98 178 -150v-20q-85 -51 -178 -158zM28 142l98 143l-95 128l17 13q68 -80 168 -135v-20q-77 -47 -168 -143z" />
    <glyph glyph-name="onequarter" unicode="&#xbc;" horiz-adv-x="830" 
d="M729 263v-107q55 0 66 32l14 -4q-7 -32 -5 -73l-4 -2q-24 2 -70 2q0 -45 5 -70q13 -7 45 -16l-3 -18q-40 6 -91 6q-47 0 -80 -8l-2 17q27 12 54 17q5 29 5 72h-189l-4 12q137 160 191 266q36 4 71 17l6 -2q-9 -48 -9 -141zM151 -42l-5 1q-17 14 -29 40l125 161l254 351
l132 193q22 -5 53 -7l4 -3q-32 -40 -136 -184zM125 298q8 69 8 129v67q0 44 -3 91h-60l-2 2q0 11 2 17q72 20 110 60q12 2 26 2l3 -2q-11 -81 -11 -170v-67q0 -81 6 -127q25 -8 45 -17l-3 -17q-40 6 -83 6q-47 0 -86 -7l-2 17q25 11 50 16zM660 331q-33 -70 -105 -168
q43 -6 108 -6l2 174h-5z" />
    <glyph glyph-name="onehalf" unicode="&#xbd;" horiz-adv-x="830" 
d="M151 -42l-5 1q-17 14 -29 40l125 161l254 351l132 193q22 -5 53 -7l4 -3q-32 -40 -136 -184zM125 298q8 69 8 129v67q0 44 -3 91h-60l-2 2q0 11 2 17q72 20 110 60q12 2 26 2l3 -2q-11 -81 -11 -170v-67q0 -81 6 -127q25 -8 45 -17l-3 -17q-40 6 -83 6q-47 0 -86 -7
l-2 17q25 11 50 16zM641 407q66 0 97 -32t31 -98q-76 -99 -190 -198l2 -3q11 5 19 7q68 3 150 -8q10 19 20 47l17 -6q-9 -30 -9 -61q0 -21 6 -48l-10 -7q-144 30 -242 30q-14 -14 -26 -30l-17 8q18 37 70 91.5t90.5 104.5t38.5 93q0 28 -19.5 43t-50.5 15q-28 0 -51 -11
q-5 -12 -5 -27q0 -16 8 -21v-6q-12 -7 -40 -33q-23 2 -23 24q0 37 44.5 74.5t89.5 51.5z" />
    <glyph glyph-name="threequarters" unicode="&#xbe;" horiz-adv-x="830" 
d="M729 263v-107q55 0 66 32l14 -4q-7 -32 -5 -73l-4 -2q-24 2 -70 2q0 -45 5 -70q13 -7 45 -16l-3 -18q-40 6 -91 6q-47 0 -80 -8l-2 17q27 12 54 17q5 29 5 72h-189l-4 12q137 160 191 266q36 4 71 17l6 -2q-9 -48 -9 -141zM65 665q86 -18 203 -18q14 8 23 18l13 -11
q-21 -19 -119 -134q104 -19 104 -138q-13 -37 -51 -73t-78 -50q-71 0 -130 26v12q23 32 30 83h18q0 -27 1 -42q48 -27 93 -27q27 0 37 12q9 23 9 52q0 47 -23.5 73.5t-69.5 26.5l-3 4l85 119l-2 3q-11 -5 -19 -7q-45 0 -95 5q-10 -18 -16 -42l-17 6q5 28 5 51t-7 45z
M151 -42l-5 1q-17 14 -29 40l125 161l254 351l132 193q22 -5 53 -7l4 -3q-32 -40 -136 -184zM660 331q-33 -70 -105 -168q43 -6 108 -6l2 174h-5z" />
    <glyph glyph-name="questiondown" unicode="&#xbf;" horiz-adv-x="335" 
d="M128 436q7 11 24 26.5t30 23.5q14 -7 31 -22.5t23 -27.5q-7 -13 -24.5 -33t-29.5 -28q-12 8 -29.5 28t-24.5 33zM195 301l21 -139v-19q-120 -120 -120 -222q0 -37 24 -55.5t64 -18.5q34 0 62 14q7 12 7 34q0 18 -10 27l1 7q26 16 48 40q12 -1 19 -9.5t7 -19.5
q0 -46 -53.5 -92.5t-108.5 -62.5q-81 0 -118.5 39t-37.5 120q63 90 158 185q7 89 11 170z" />
    <glyph glyph-name="Agrave" unicode="&#xc0;" horiz-adv-x="599" 
d="M98 662q114 -11 227 -11q135 0 249 11l4 -25q-45 -14 -96 -21q-13 -96 -13 -262q0 -223 13 -319q53 -5 110 -19l-3 -24q-74 8 -156 8q-91 0 -144 -8l-4 25q45 14 96 21q8 66 11 213q-53 6 -111 6q-66 0 -109 -6q-24 -98 -24 -150q0 -66 43 -91l-4 -14q-31 4 -96 4
q-82 0 -141 -8l-4 25q45 14 96 21l164 581q-57 6 -111 19zM281 294q70 0 111 7q0 242 -10 310q-31 3 -60 3q-32 0 -64 -3l-59 -244l-16 -66q45 -7 98 -7zM370 731l-206 75q-1 10 4.5 31.5t10.5 30.5q20 7 42 9q75 -90 157 -126z" />
    <glyph glyph-name="Aacute" unicode="&#xc1;" horiz-adv-x="599" 
d="M98 662q114 -11 227 -11q135 0 249 11l4 -25q-45 -14 -96 -21q-13 -96 -13 -262q0 -223 13 -319q53 -5 110 -19l-3 -24q-74 8 -156 8q-91 0 -144 -8l-4 25q45 14 96 21q8 66 11 213q-53 6 -111 6q-66 0 -109 -6q-24 -98 -24 -150q0 -66 43 -91l-4 -14q-31 4 -96 4
q-82 0 -141 -8l-4 25q45 14 96 21l164 581q-57 6 -111 19zM281 294q70 0 111 7q0 242 -10 310q-31 3 -60 3q-32 0 -64 -3l-59 -244l-16 -66q45 -7 98 -7zM529 797l-206 -75l-8 20q82 36 157 126q22 -2 42 -9q5 -9 10.5 -30.5t4.5 -31.5z" />
    <glyph glyph-name="Acircumflex" unicode="&#xc2;" horiz-adv-x="599" 
d="M98 662q114 -11 227 -11q135 0 249 11l4 -25q-45 -14 -96 -21q-13 -96 -13 -262q0 -223 13 -319q53 -5 110 -19l-3 -24q-74 8 -156 8q-91 0 -144 -8l-4 25q45 14 96 21q8 66 11 213q-53 6 -111 6q-66 0 -109 -6q-24 -98 -24 -150q0 -66 43 -91l-4 -14q-31 4 -96 4
q-82 0 -141 -8l-4 25q45 14 96 21l164 581q-57 6 -111 19zM281 294q70 0 111 7q0 242 -10 310q-31 3 -60 3q-32 0 -64 -3l-59 -244l-16 -66q45 -7 98 -7zM509 715l-161 75l-161 -75l-10 19q92 58 161 151h20q69 -93 161 -151z" />
    <glyph glyph-name="Atilde" unicode="&#xc3;" horiz-adv-x="599" 
d="M98 662q114 -11 227 -11q135 0 249 11l4 -25q-45 -14 -96 -21q-13 -96 -13 -262q0 -223 13 -319q53 -5 110 -19l-3 -24q-74 8 -156 8q-91 0 -144 -8l-4 25q45 14 96 21q8 66 11 213q-53 6 -111 6q-66 0 -109 -6q-24 -98 -24 -150q0 -66 43 -91l-4 -14q-31 4 -96 4
q-82 0 -141 -8l-4 25q45 14 96 21l164 581q-57 6 -111 19zM281 294q70 0 111 7q0 242 -10 310q-31 3 -60 3q-32 0 -64 -3l-59 -244l-16 -66q45 -7 98 -7zM201 744l-18 11q56 61 128 82q59 -31 119 -31q45 0 65 24l18 -11q-56 -61 -104 -82q-21 0 -72.5 15.5t-72.5 15.5
q-43 0 -63 -24z" />
    <glyph glyph-name="Adieresis" unicode="&#xc4;" horiz-adv-x="599" 
d="M98 662q114 -11 227 -11q135 0 249 11l4 -25q-45 -14 -96 -21q-13 -96 -13 -262q0 -223 13 -319q53 -5 110 -19l-3 -24q-74 8 -156 8q-91 0 -144 -8l-4 25q45 14 96 21q8 66 11 213q-53 6 -111 6q-66 0 -109 -6q-24 -98 -24 -150q0 -66 43 -91l-4 -14q-31 4 -96 4
q-82 0 -141 -8l-4 25q45 14 96 21l164 581q-57 6 -111 19zM281 294q70 0 111 7q0 242 -10 310q-31 3 -60 3q-32 0 -64 -3l-59 -244l-16 -66q45 -7 98 -7zM310 803q-7 -13 -24.5 -33t-29.5 -28q-12 8 -29.5 28t-24.5 33q6 12 23 27.5t31 22.5q13 -8 30 -23.5t24 -26.5z
M495 803q-7 -13 -24.5 -33t-29.5 -28q-12 8 -29.5 28t-24.5 33q6 12 23 27.5t31 22.5q13 -8 30 -23.5t24 -26.5z" />
    <glyph glyph-name="Aring" unicode="&#xc5;" horiz-adv-x="599" 
d="M98 662q114 -11 227 -11q135 0 249 11l4 -25q-45 -14 -96 -21q-13 -96 -13 -262q0 -223 13 -319q53 -5 110 -19l-3 -24q-74 8 -156 8q-91 0 -144 -8l-4 25q45 14 96 21q8 66 11 213q-53 6 -111 6q-66 0 -109 -6q-24 -98 -24 -150q0 -66 43 -91l-4 -14q-31 4 -96 4
q-82 0 -141 -8l-4 25q45 14 96 21l164 581q-57 6 -111 19zM281 294q70 0 111 7q0 242 -10 310q-31 3 -60 3q-32 0 -64 -3l-59 -244l-16 -66q45 -7 98 -7zM243 777q0 40 29.5 69.5t72.5 38.5q91 0 91 -74q0 -39 -26.5 -66.5t-69.5 -40.5q-41 0 -69 19t-28 54zM331 850
q-19 0 -30 -9q-11 -17 -11 -43t16 -42.5t42 -16.5q20 0 30 9q11 16 11 43t-15.5 43t-42.5 16z" />
    <glyph glyph-name="AE" unicode="&#xc6;" horiz-adv-x="748" 
d="M398 651q190 0 325 11l4 -20q-52 -53 -59 -158h-25q-9 43 -9 109q-43 21 -108 21q-48 0 -76 -5q-7 -22 -12 -60q-8 -70 -13 -184q32 -7 77 -7q89 0 109 43l20 -4q-9 -32 -9 -77q0 -44 6 -87l-23 -4q-15 38 -20 89q-38 3 -83 3q-44 0 -78 -5v-43q0 -50 5 -84t18.5 -64.5
t41.5 -45.5t71 -15q72 0 148 78l14 -13q-83 -110 -183 -144q-111 0 -155 69.5t-42 197.5l1 63q-31 6 -72 6q-51 0 -76 -6l-14 -46q-38 -126 -38 -178q0 -59 38 -81l-4 -14q-31 4 -96 4q-82 0 -141 -8l-4 25q45 14 96 21l210 581q-56 6 -111 19l3 24q135 -11 264 -11z
M285 611l-72 -247q23 -6 60 -6q47 0 72 7l4.5 81t4.5 72.5t2 39.5q0 37 -3 53q-13 3 -32 3t-36 -3z" />
    <glyph glyph-name="Ccedilla" unicode="&#xc7;" horiz-adv-x="498" 
d="M304 64q81 0 163 78l14 -13q-83 -106 -198 -144q-120 0 -180.5 75.5t-60.5 204.5q0 138 73.5 252.5t197.5 148.5q101 0 206 -19l-1 -22q-26 0 -48 -9q-25 -59 -33 -138h-25q-9 40 -9 93q-47 25 -113 25q-65 0 -108 -36q-51 -87 -51 -221q0 -59 7.5 -104.5t25 -86
t53.5 -62.5t87 -22zM215 -97l-6 4l38 107l29 2l-24 -62l4 -3q46 0 74.5 -21t28.5 -63q-14 -27 -40.5 -49.5t-55.5 -32.5q-44 0 -88 21q10 19 16 39l4 2q32 -25 68 -25q18 0 26 5q9 13 9 31q0 45 -83 45z" />
    <glyph glyph-name="Egrave" unicode="&#xc8;" horiz-adv-x="512" 
d="M304 64q81 0 163 78l14 -13q-83 -106 -198 -144q-120 0 -180.5 75.5t-60.5 204.5q0 138 73.5 252.5t197.5 148.5q101 0 206 -19l-1 -22q-26 0 -48 -9q-25 -59 -33 -138h-25q-9 40 -9 93q-47 25 -113 25q-65 0 -108 -36q-45 -77 -50 -187q43 -8 112 -8q111 0 132 43l20 -4
q-9 -32 -9 -77q0 -43 6 -87l-23 -4q-15 38 -20 89q-38 3 -106 3q-73 0 -113 -5q1 -56 9 -99t26.5 -81t53 -58.5t84.5 -20.5zM362 731l-206 75q-1 10 4.5 31.5t10.5 30.5q20 7 42 9q75 -90 157 -126z" />
    <glyph glyph-name="Eacute" unicode="&#xc9;" horiz-adv-x="512" 
d="M304 64q81 0 163 78l14 -13q-83 -106 -198 -144q-120 0 -180.5 75.5t-60.5 204.5q0 138 73.5 252.5t197.5 148.5q101 0 206 -19l-1 -22q-26 0 -48 -9q-25 -59 -33 -138h-25q-9 40 -9 93q-47 25 -113 25q-65 0 -108 -36q-45 -77 -50 -187q43 -8 112 -8q111 0 132 43l20 -4
q-9 -32 -9 -77q0 -43 6 -87l-23 -4q-15 38 -20 89q-38 3 -106 3q-73 0 -113 -5q1 -56 9 -99t26.5 -81t53 -58.5t84.5 -20.5zM456 797l-206 -75l-8 20q82 36 157 126q22 -2 42 -9q5 -9 10.5 -30.5t4.5 -31.5z" />
    <glyph glyph-name="Ecircumflex" unicode="&#xca;" horiz-adv-x="512" 
d="M304 64q81 0 163 78l14 -13q-83 -106 -198 -144q-120 0 -180.5 75.5t-60.5 204.5q0 138 73.5 252.5t197.5 148.5q101 0 206 -19l-1 -22q-26 0 -48 -9q-25 -59 -33 -138h-25q-9 40 -9 93q-47 25 -113 25q-65 0 -108 -36q-45 -77 -50 -187q43 -8 112 -8q111 0 132 43l20 -4
q-9 -32 -9 -77q0 -43 6 -87l-23 -4q-15 38 -20 89q-38 3 -106 3q-73 0 -113 -5q1 -56 9 -99t26.5 -81t53 -58.5t84.5 -20.5zM472 715l-161 75l-161 -75l-10 19q92 58 161 151h20q69 -93 161 -151z" />
    <glyph glyph-name="Edieresis" unicode="&#xcb;" horiz-adv-x="512" 
d="M304 64q81 0 163 78l14 -13q-83 -106 -198 -144q-120 0 -180.5 75.5t-60.5 204.5q0 138 73.5 252.5t197.5 148.5q101 0 206 -19l-1 -22q-26 0 -48 -9q-25 -59 -33 -138h-25q-9 40 -9 93q-47 25 -113 25q-65 0 -108 -36q-45 -77 -50 -187q43 -8 112 -8q111 0 132 43l20 -4
q-9 -32 -9 -77q0 -43 6 -87l-23 -4q-15 38 -20 89q-38 3 -106 3q-73 0 -113 -5q1 -56 9 -99t26.5 -81t53 -58.5t84.5 -20.5zM272 803q-7 -13 -24.5 -33t-29.5 -28q-12 8 -29.5 28t-24.5 33q6 12 23 27.5t31 22.5q13 -8 30 -23.5t24 -26.5zM457 803q-7 -13 -24.5 -33
t-29.5 -28q-12 8 -29.5 28t-24.5 33q6 12 23 27.5t31 22.5q13 -8 30 -23.5t24 -26.5z" />
    <glyph glyph-name="Igrave" unicode="&#xcc;" horiz-adv-x="337" 
d="M218 616q-11 -75 -11 -261q0 -224 13 -320q53 -5 110 -19l-3 -24q-74 8 -156 8q-91 0 -144 -8l-4 25q45 14 96 21q11 82 11 258v59q0 162 -13 258q-51 7 -96 21l4 25q53 -8 144 -8q82 0 156 8l3 -24q-57 -14 -110 -19zM243 731l-206 75q-1 10 4.5 31.5t10.5 30.5
q20 7 42 9q75 -90 157 -126z" />
    <glyph glyph-name="Iacute" unicode="&#xcd;" horiz-adv-x="337" 
d="M218 616q-11 -75 -11 -261q0 -224 13 -320q53 -5 110 -19l-3 -24q-74 8 -156 8q-91 0 -144 -8l-4 25q45 14 96 21q11 82 11 258v59q0 162 -13 258q-51 7 -96 21l4 25q53 -8 144 -8q82 0 156 8l3 -24q-57 -14 -110 -19zM315 797l-206 -75l-8 20q82 36 157 126q22 -2 42 -9
q5 -9 10.5 -30.5t4.5 -31.5z" />
    <glyph glyph-name="Icircumflex" unicode="&#xce;" horiz-adv-x="337" 
d="M218 616q-11 -75 -11 -261q0 -224 13 -320q53 -5 110 -19l-3 -24q-74 8 -156 8q-91 0 -144 -8l-4 25q45 14 96 21q11 82 11 258v59q0 162 -13 258q-51 7 -96 21l4 25q53 -8 144 -8q82 0 156 8l3 -24q-57 -14 -110 -19zM335 715l-161 75l-161 -75l-10 19q92 58 161 151h20
q69 -93 161 -151z" />
    <glyph glyph-name="Idieresis" unicode="&#xcf;" horiz-adv-x="337" 
d="M218 616q-11 -75 -11 -261q0 -224 13 -320q53 -5 110 -19l-3 -24q-74 8 -156 8q-91 0 -144 -8l-4 25q45 14 96 21q11 82 11 258v59q0 162 -13 258q-51 7 -96 21l4 25q53 -8 144 -8q82 0 156 8l3 -24q-57 -14 -110 -19zM135 803q-7 -13 -24.5 -33t-29.5 -28
q-12 8 -29.5 28t-24.5 33q6 12 23 27.5t31 22.5q13 -8 30 -23.5t24 -26.5zM320 803q-7 -13 -24.5 -33t-29.5 -28q-12 8 -29.5 28t-24.5 33q6 12 23 27.5t31 22.5q13 -8 30 -23.5t24 -26.5z" />
    <glyph glyph-name="Eth" unicode="&#xd0;" horiz-adv-x="619" 
d="M306 -15q-72 0 -161 38q-17 -26 -23 -45l-21 5q24 108 24 341q-62 -3 -106 -9l-3 4q6 20 7 32l102 3q-1 150 -11 254q-48 16 -98 16v25q50 0 155.5 4.5t132.5 4.5q134 0 203.5 -69t69.5 -203q0 -139 -73 -252t-198 -149zM235 326l-33 -1q0 -152 5 -240q54 -28 132 -28
q60 0 98 34q51 93 51 229q0 62 -10 113t-32 95t-62.5 68.5t-96.5 24.5q-40 0 -76 -13q-9 -87 -9 -251l62 2q64 3 84 5q4 -20 9 -31v-5z" />
    <glyph glyph-name="Ntilde" unicode="&#xd1;" horiz-adv-x="706" 
d="M185 651q49 0 93 6l5 -16q-12 -4 -23 -12.5t-11 -18.5q0 -24 51 -112t224 -358l4 2v144q0 168 -17 254t-60 101l4 14q31 -4 94 -4q77 0 136 8l3 -23q-71 -17 -99 -20q-13 -98 -13 -261v-59q0 -187 13 -261q51 -6 96 -18l-4 -25q-53 8 -126 8q-34 0 -67 -3q0 69 -301 538
l-4 -2v-168q0 -255 37 -330q55 -5 109 -19l-2 -24q-74 8 -156 8q-91 0 -144 -8l-4 25q45 14 96 21q11 82 11 258v59q0 162 -13 258q-51 7 -96 21l4 25q50 -8 160 -8zM219 744l-18 11q56 61 128 82q59 -31 119 -31q45 0 65 24l18 -11q-56 -61 -104 -82q-21 0 -72.5 15.5
t-72.5 15.5q-43 0 -63 -24z" />
    <glyph glyph-name="Ograve" unicode="&#xd2;" horiz-adv-x="602" 
d="M42 265q0 139 74.5 253.5t196.5 147.5q122 0 184.5 -73t62.5 -206q0 -138 -68.5 -246.5t-190.5 -155.5q-117 0 -188 77.5t-71 202.5zM280 594q-60 0 -98 -34q-51 -90 -51 -221q0 -70 19.5 -132t64.5 -106t107 -44q59 0 99 35q50 92 50 218q0 59 -9.5 107t-30.5 89.5
t-59.5 64.5t-91.5 23zM385 731l-206 75q-1 10 4.5 31.5t10.5 30.5q20 7 42 9q75 -90 157 -126z" />
    <glyph glyph-name="Oacute" unicode="&#xd3;" horiz-adv-x="602" 
d="M42 265q0 139 74.5 253.5t196.5 147.5q122 0 184.5 -73t62.5 -206q0 -138 -68.5 -246.5t-190.5 -155.5q-117 0 -188 77.5t-71 202.5zM280 594q-60 0 -98 -34q-51 -90 -51 -221q0 -70 19.5 -132t64.5 -106t107 -44q59 0 99 35q50 92 50 218q0 59 -9.5 107t-30.5 89.5
t-59.5 64.5t-91.5 23zM485 797l-206 -75l-8 20q82 36 157 126q22 -2 42 -9q5 -9 10.5 -30.5t4.5 -31.5z" />
    <glyph glyph-name="Ocircumflex" unicode="&#xd4;" horiz-adv-x="602" 
d="M42 265q0 139 74.5 253.5t196.5 147.5q122 0 184.5 -73t62.5 -206q0 -138 -68.5 -246.5t-190.5 -155.5q-117 0 -188 77.5t-71 202.5zM280 594q-60 0 -98 -34q-51 -90 -51 -221q0 -70 19.5 -132t64.5 -106t107 -44q59 0 99 35q50 92 50 218q0 59 -9.5 107t-30.5 89.5
t-59.5 64.5t-91.5 23zM482 715l-161 75l-161 -75l-10 19q92 58 161 151h20q69 -93 161 -151z" />
    <glyph glyph-name="Otilde" unicode="&#xd5;" horiz-adv-x="602" 
d="M42 265q0 139 74.5 253.5t196.5 147.5q122 0 184.5 -73t62.5 -206q0 -138 -68.5 -246.5t-190.5 -155.5q-117 0 -188 77.5t-71 202.5zM280 594q-60 0 -98 -34q-51 -90 -51 -221q0 -70 19.5 -132t64.5 -106t107 -44q59 0 99 35q50 92 50 218q0 59 -9.5 107t-30.5 89.5
t-59.5 64.5t-91.5 23zM175 744l-18 11q56 61 128 82q59 -31 119 -31q45 0 65 24l18 -11q-56 -61 -104 -82q-21 0 -72.5 15.5t-72.5 15.5q-43 0 -63 -24z" />
    <glyph glyph-name="Odieresis" unicode="&#xd6;" horiz-adv-x="602" 
d="M42 265q0 139 74.5 253.5t196.5 147.5q122 0 184.5 -73t62.5 -206q0 -138 -68.5 -246.5t-190.5 -155.5q-117 0 -188 77.5t-71 202.5zM280 594q-60 0 -98 -34q-51 -90 -51 -221q0 -70 19.5 -132t64.5 -106t107 -44q59 0 99 35q50 92 50 218q0 59 -9.5 107t-30.5 89.5
t-59.5 64.5t-91.5 23zM283 803q-7 -13 -24.5 -33t-29.5 -28q-12 8 -29.5 28t-24.5 33q6 12 23 27.5t31 22.5q13 -8 30 -23.5t24 -26.5zM468 803q-7 -13 -24.5 -33t-29.5 -28q-12 8 -29.5 28t-24.5 33q6 12 23 27.5t31 22.5q13 -8 30 -23.5t24 -26.5z" />
    <glyph glyph-name="multiply" unicode="&#xd7;" horiz-adv-x="550" 
d="M427 425l38 -35l-154 -151q28 -29 55.5 -54l62 -55.5l46.5 -40.5l-28 -39h-11l-158 155l-158 -155h-11l-28 39q130 116 163 150l-153 151l38 35l8 -1l141 -151l141 151z" />
    <glyph glyph-name="Oslash" unicode="&#xd8;" horiz-adv-x="602" 
d="M42 265q0 139 74.5 253.5t196.5 147.5q44 0 83 -11l25 77q23 2 38 7l4 -3q-14 -32 -37 -91q134 -59 134 -258q0 -138 -68.5 -246.5t-190.5 -155.5q-60 0 -117 25l-36 -97h-5q-16 9 -26 24l39 89q-54 36 -84 98t-30 141zM392 556l-175 -459q45 -40 105 -40q59 0 99 35
q50 92 50 218q0 177 -79 246zM280 594q-60 0 -98 -34q-51 -90 -51 -221q0 -135 64 -218l173 452q-39 21 -88 21z" />
    <glyph glyph-name="Ugrave" unicode="&#xd9;" horiz-adv-x="665" 
d="M197 549q-14 -126 -14 -273q0 -40 3 -69.5t12 -57.5t24.5 -46t41.5 -28.5t62 -10.5q74 0 127 48q5 130 5 212q0 178 -11 292q-51 7 -96 21l4 22q61 -8 142 -8q94 0 158 8l3 -21q-57 -14 -110 -19q-13 -74 -13 -264v-59q0 -187 13 -261q53 -5 110 -19l-3 -24q-64 8 -156 8
q-40 0 -58 -1l-3 14q9 11 13 71q-58 -65 -146 -99q-111 0 -156.5 65.5t-45.5 190.5q0 57 7 181t7 136q0 34 -7 55q-51 7 -96 21l4 25q59 -8 141 -8q55 0 86 4l4 -14q-45 -25 -52 -92zM394 731l-206 75q-1 10 4.5 31.5t10.5 30.5q20 7 42 9q75 -90 157 -126z" />
    <glyph glyph-name="Uacute" unicode="&#xda;" horiz-adv-x="665" 
d="M197 549q-14 -126 -14 -273q0 -40 3 -69.5t12 -57.5t24.5 -46t41.5 -28.5t62 -10.5q74 0 127 48q5 130 5 212q0 178 -11 292q-51 7 -96 21l4 22q61 -8 142 -8q94 0 158 8l3 -21q-57 -14 -110 -19q-13 -74 -13 -264v-59q0 -187 13 -261q53 -5 110 -19l-3 -24q-64 8 -156 8
q-40 0 -58 -1l-3 14q9 11 13 71q-58 -65 -146 -99q-111 0 -156.5 65.5t-45.5 190.5q0 57 7 181t7 136q0 34 -7 55q-51 7 -96 21l4 25q59 -8 141 -8q55 0 86 4l4 -14q-45 -25 -52 -92zM519 797l-206 -75l-8 20q82 36 157 126q22 -2 42 -9q5 -9 10.5 -30.5t4.5 -31.5z" />
    <glyph glyph-name="Ucircumflex" unicode="&#xdb;" horiz-adv-x="665" 
d="M197 549q-14 -126 -14 -273q0 -40 3 -69.5t12 -57.5t24.5 -46t41.5 -28.5t62 -10.5q74 0 127 48q5 130 5 212q0 178 -11 292q-51 7 -96 21l4 22q61 -8 142 -8q94 0 158 8l3 -21q-57 -14 -110 -19q-13 -74 -13 -264v-59q0 -187 13 -261q53 -5 110 -19l-3 -24q-64 8 -156 8
q-40 0 -58 -1l-3 14q9 11 13 71q-58 -65 -146 -99q-111 0 -156.5 65.5t-45.5 190.5q0 57 7 181t7 136q0 34 -7 55q-51 7 -96 21l4 25q59 -8 141 -8q55 0 86 4l4 -14q-45 -25 -52 -92zM504 715l-161 75l-161 -75l-10 19q92 58 161 151h20q69 -93 161 -151z" />
    <glyph glyph-name="Udieresis" unicode="&#xdc;" horiz-adv-x="665" 
d="M197 549q-14 -126 -14 -273q0 -40 3 -69.5t12 -57.5t24.5 -46t41.5 -28.5t62 -10.5q74 0 127 48q5 130 5 212q0 178 -11 292q-51 7 -96 21l4 22q61 -8 142 -8q94 0 158 8l3 -21q-57 -14 -110 -19q-13 -74 -13 -264v-59q0 -187 13 -261q53 -5 110 -19l-3 -24q-64 8 -156 8
q-40 0 -58 -1l-3 14q9 11 13 71q-58 -65 -146 -99q-111 0 -156.5 65.5t-45.5 190.5q0 57 7 181t7 136q0 34 -7 55q-51 7 -96 21l4 25q59 -8 141 -8q55 0 86 4l4 -14q-45 -25 -52 -92zM305 803q-7 -13 -24.5 -33t-29.5 -28q-12 8 -29.5 28t-24.5 33q6 12 23 27.5t31 22.5
q13 -8 30 -23.5t24 -26.5zM490 803q-7 -13 -24.5 -33t-29.5 -28q-12 8 -29.5 28t-24.5 33q6 12 23 27.5t31 22.5q13 -8 30 -23.5t24 -26.5z" />
    <glyph glyph-name="Yacute" unicode="&#xdd;" horiz-adv-x="545" 
d="M171 616q47 -140 120 -279q111 217 111 272q0 22 -20 32l4 14q50 -4 83 -4q78 0 130 8l5 -25q-48 -15 -97 -21l-196 -315q0 -167 13 -263q53 -5 110 -19l-3 -24q-74 8 -156 8q-91 0 -144 -8l-4 25q45 14 96 21q11 82 11 207v26l-127 266.5t-45 75.5q-56 7 -96 21l4 25
q53 -8 148 -8q86 0 160 8l3 -24q-57 -14 -110 -19zM476 797l-206 -75l-8 20q82 36 157 126q22 -2 42 -9q5 -9 10.5 -30.5t4.5 -31.5z" />
    <glyph glyph-name="Thorn" unicode="&#xde;" horiz-adv-x="510" 
d="M218 616q-4 -19 -7 -91q14 0 47 1.5t47 1.5q206 0 206 -164q0 -89 -73 -144t-170 -55q-15 0 -22 1l4 32h12q75 0 115 38t40 113q0 71 -31 106.5t-98 35.5q-40 0 -78 -13h-1q-2 -40 -2 -123q0 -224 13 -320q53 -5 110 -19l-3 -24q-74 8 -156 8q-91 0 -144 -8l-4 25
q45 14 96 21q11 82 11 258v59q0 162 -13 258q-51 7 -96 21l4 25q53 -8 144 -8q82 0 156 8l3 -24q-57 -14 -110 -19z" />
    <glyph glyph-name="germandbls" unicode="&#xdf;" horiz-adv-x="525" 
d="M289 64q28 -17 69 -17q39 0 61 20t22 58q0 20 -27.5 56t-60 70.5t-60 74.5t-27.5 67v9q118 71 118 164q0 83 -94 83q-55 0 -86 -28q-16 -36 -21.5 -76.5t-5.5 -115.5v-199q0 -134 12 -290q-19 3 -35 2q-30 -55 -45 -142l-18 1q12 216 12 429v199h-54l-2 2q0 16 3 22
q13 5 53 17q13 87 69 151t141 90q62 0 103.5 -24.5t41.5 -76.5q0 -37 -18.5 -72t-40 -56l-40 -39t-18.5 -23q0 -20 24.5 -52.5t53.5 -62t53.5 -66t24.5 -63.5q0 -56 -50 -114t-108 -77q-62 0 -117 21v14q39 48 43 105h22v-14.5t0.5 -16.5t1 -15t0.5 -11v-4z" />
    <glyph glyph-name="agrave" unicode="&#xe0;" horiz-adv-x="514" 
d="M317 525l-189 109q1 10 9.5 30.5t15.5 28.5q17 3 43 1q24 -42 59.5 -84t72.5 -67zM50 176q0 104 56 190.5t150 118.5q67 0 140 -21q14 21 23 53l21 -6q-22 -90 -22 -318q0 -102 7 -160q24 -8 54 -8v-21q-64 -3 -135 -19l-7 4q11 69 11 156l-4 1q-35 -50 -83 -97t-91 -64
q-55 0 -87.5 61t-32.5 130zM130 221q0 -49 17.5 -101.5t50.5 -52.5q35 0 85 50t65 90q0 149 -7 192q-53 24 -104 24q-48 0 -74 -24q-33 -76 -33 -178z" />
    <glyph glyph-name="aacute" unicode="&#xe1;" horiz-adv-x="514" 
d="M50 176q0 104 56 190.5t150 118.5q67 0 140 -21q14 21 23 53l21 -6q-22 -90 -22 -318q0 -102 7 -160q24 -8 54 -8v-21q-64 -3 -135 -19l-7 4q11 69 11 156l-4 1q-35 -50 -83 -97t-91 -64q-55 0 -87.5 61t-32.5 130zM130 221q0 -49 17.5 -101.5t50.5 -52.5q35 0 85 50
t65 90q0 149 -7 192q-53 24 -104 24q-48 0 -74 -24q-33 -76 -33 -178zM427 634l-189 -109l-11 18q37 25 72.5 67t59.5 84q26 2 43 -1q7 -8 15.5 -28.5t9.5 -30.5z" />
    <glyph glyph-name="acircumflex" unicode="&#xe2;" horiz-adv-x="514" 
d="M277 612l-134 -90l-13 17q84 71 137 168h20q55 -92 137 -158l-13 -17zM50 176q0 104 56 190.5t150 118.5q67 0 140 -21q14 21 23 53l21 -6q-22 -90 -22 -318q0 -102 7 -160q24 -8 54 -8v-21q-64 -3 -135 -19l-7 4q11 69 11 156l-4 1q-35 -50 -83 -97t-91 -64
q-55 0 -87.5 61t-32.5 130zM130 221q0 -49 17.5 -101.5t50.5 -52.5q35 0 85 50t65 90q0 149 -7 192q-53 24 -104 24q-48 0 -74 -24q-33 -76 -33 -178z" />
    <glyph glyph-name="atilde" unicode="&#xe3;" horiz-adv-x="514" 
d="M50 176q0 104 56 190.5t150 118.5q67 0 140 -21q14 21 23 53l21 -6q-22 -90 -22 -318q0 -102 7 -160q24 -8 54 -8v-21q-64 -3 -135 -19l-7 4q11 69 11 156l-4 1q-35 -50 -83 -97t-91 -64q-55 0 -87.5 61t-32.5 130zM130 221q0 -49 17.5 -101.5t50.5 -52.5q35 0 85 50
t65 90q0 149 -7 192q-53 24 -104 24q-48 0 -74 -24q-33 -76 -33 -178zM148 570l-18 11q56 61 128 82q59 -31 119 -31q45 0 65 24l18 -11q-56 -61 -104 -82q-21 0 -72.5 15.5t-72.5 15.5q-43 0 -63 -24z" />
    <glyph glyph-name="adieresis" unicode="&#xe4;" horiz-adv-x="514" 
d="M50 176q0 104 56 190.5t150 118.5q67 0 140 -21q14 21 23 53l21 -6q-22 -90 -22 -318q0 -102 7 -160q24 -8 54 -8v-21q-64 -3 -135 -19l-7 4q11 69 11 156l-4 1q-35 -50 -83 -97t-91 -64q-55 0 -87.5 61t-32.5 130zM130 221q0 -49 17.5 -101.5t50.5 -52.5q35 0 85 50
t65 90q0 149 -7 192q-53 24 -104 24q-48 0 -74 -24q-33 -76 -33 -178zM238 620q-7 -13 -24.5 -33t-29.5 -28q-12 8 -29.5 28t-24.5 33q6 12 23 27.5t31 22.5q13 -8 30 -23.5t24 -26.5zM423 620q-7 -13 -24.5 -33t-29.5 -28q-12 8 -29.5 28t-24.5 33q6 12 23 27.5t31 22.5
q13 -8 30 -23.5t24 -26.5z" />
    <glyph glyph-name="aring" unicode="&#xe5;" horiz-adv-x="514" 
d="M50 176q0 104 56 190.5t150 118.5q67 0 140 -21q14 21 23 53l21 -6q-22 -90 -22 -318q0 -102 7 -160q24 -8 54 -8v-21q-64 -3 -135 -19l-7 4q11 69 11 156l-4 1q-35 -50 -83 -97t-91 -64q-55 0 -87.5 61t-32.5 130zM130 221q0 -49 17.5 -101.5t50.5 -52.5q35 0 85 50
t65 90q0 149 -7 192q-53 24 -104 24q-48 0 -74 -24q-33 -76 -33 -178zM196 598q0 40 29.5 69.5t72.5 38.5q91 0 91 -74q0 -39 -26.5 -66.5t-69.5 -40.5q-41 0 -69 19t-28 54zM284 671q-20 0 -30 -9q-11 -16 -11 -43q0 -26 16 -42.5t42 -16.5q19 0 30 9q11 17 11 43
q0 27 -15.5 43t-42.5 16z" />
    <glyph glyph-name="ae" unicode="&#xe6;" horiz-adv-x="701" 
d="M54 156q0 120 68 213t180 116q72 -10 145 -44q40 31 87 44q67 0 94 -26.5t27 -93.5q0 -21 -4 -38q8 -2 14 -2q10 0 28 4l1 -20q-154 -27 -281 -101q4 -151 107 -151q63 0 123 53l11 -10q-57 -78 -146 -115q-132 0 -172 136q-36 -43 -89 -83t-99 -53q-48 8 -71 58.5
t-23 112.5zM199 413q-60 -99 -60 -232q0 -45 11.5 -82.5t40.5 -37.5q27 0 72 31t71 65q-2 14 -2 33q0 102 56 186v4q-66 49 -144 49q-26 0 -45 -16zM575 317q-1 59 -14 82.5t-54 23.5q-37 0 -66 -24q-27 -58 -29 -161q83 53 163 79z" />
    <glyph glyph-name="ccedilla" unicode="&#xe7;" horiz-adv-x="387" 
d="M238 57q55 0 114 53l10 -10q-58 -81 -141 -115q-87 0 -129 55t-42 150q0 103 56 187t146 108q61 0 121 -16v-14q-39 -48 -43 -105h-22q0 39 -2 61q-41 12 -73 12q-48 0 -74 -24q-29 -61 -29 -154q0 -41 3.5 -70.5t14 -58.5t33.5 -44t57 -15zM157 -97l-6 4l38 107l29 2
l-24 -62l4 -3q46 0 74.5 -21t28.5 -63q-14 -27 -40.5 -49.5t-55.5 -32.5q-44 0 -88 21q10 19 16 39l4 2q32 -25 68 -25q18 0 26 5q9 13 9 31q0 45 -83 45z" />
    <glyph glyph-name="egrave" unicode="&#xe8;" horiz-adv-x="426" 
d="M238 57q63 0 123 53l11 -10q-57 -78 -146 -115q-88 0 -132 55t-44 150q0 101 55 185.5t147 109.5q67 0 94 -26.5t27 -93.5q0 -38 -10 -65q21 -8 49 -8l-1 -21q-116 2 -281 -33q0 -40 4 -69t14.5 -56t33 -41.5t56.5 -14.5zM159 399q-27 -56 -29 -135q82 27 163 41
q0 66 -12.5 92t-55.5 26q-37 0 -66 -24zM279 525l-189 109q1 10 9.5 30.5t15.5 28.5q17 3 43 1q24 -42 59.5 -84t72.5 -67z" />
    <glyph glyph-name="eacute" unicode="&#xe9;" horiz-adv-x="426" 
d="M238 57q63 0 123 53l11 -10q-57 -78 -146 -115q-88 0 -132 55t-44 150q0 101 55 185.5t147 109.5q67 0 94 -26.5t27 -93.5q0 -38 -10 -65q21 -8 49 -8l-1 -21q-116 2 -281 -33q0 -40 4 -69t14.5 -56t33 -41.5t56.5 -14.5zM159 399q-27 -56 -29 -135q82 27 163 41
q0 66 -12.5 92t-55.5 26q-37 0 -66 -24zM401 634l-189 -109l-11 18q37 25 72.5 67t59.5 84q26 2 43 -1q7 -8 15.5 -28.5t9.5 -30.5z" />
    <glyph glyph-name="ecircumflex" unicode="&#xea;" horiz-adv-x="426" 
d="M238 57q63 0 123 53l11 -10q-57 -78 -146 -115q-88 0 -132 55t-44 150q0 101 55 185.5t147 109.5q67 0 94 -26.5t27 -93.5q0 -38 -10 -65q21 -8 49 -8l-1 -21q-116 2 -281 -33q0 -40 4 -69t14.5 -56t33 -41.5t56.5 -14.5zM159 399q-27 -56 -29 -135q82 27 163 41
q0 66 -12.5 92t-55.5 26q-37 0 -66 -24zM256 612l-134 -90l-13 17q84 71 137 168h20q53 -97 137 -168l-13 -17z" />
    <glyph glyph-name="edieresis" unicode="&#xeb;" horiz-adv-x="426" 
d="M238 57q63 0 123 53l11 -10q-57 -78 -146 -115q-88 0 -132 55t-44 150q0 101 55 185.5t147 109.5q67 0 94 -26.5t27 -93.5q0 -38 -10 -65q21 -8 49 -8l-1 -21q-116 2 -281 -33q0 -40 4 -69t14.5 -56t33 -41.5t56.5 -14.5zM159 399q-27 -56 -29 -135q82 27 163 41
q0 66 -12.5 92t-55.5 26q-37 0 -66 -24zM217 620q-7 -13 -24.5 -33t-29.5 -28q-12 8 -29.5 28t-24.5 33q6 12 23 27.5t31 22.5q13 -8 30 -23.5t24 -26.5zM402 620q-7 -13 -24.5 -33t-29.5 -28q-12 8 -29.5 28t-24.5 33q6 12 23 27.5t31 22.5q13 -8 30 -23.5t24 -26.5z" />
    <glyph glyph-name="igrave" unicode="&#xec;" horiz-adv-x="287" 
d="M190 274v-84q0 -108 7 -160q28 -6 63 -19l-2 -19q-56 8 -105 8q-51 0 -102 -6l-3 19q30 13 59 20q9 68 9 157v84q0 81 -8 162q-26 8 -54 8v21q77 5 142 20l7 -4q-13 -77 -13 -207zM219 525l-189 109q1 10 9.5 30.5t15.5 28.5q17 3 43 1q24 -42 59.5 -84t72.5 -67z" />
    <glyph glyph-name="iacute" unicode="&#xed;" horiz-adv-x="287" 
d="M190 274v-84q0 -108 7 -160q28 -6 63 -19l-2 -19q-56 8 -105 8q-51 0 -102 -6l-3 19q30 13 59 20q9 68 9 157v84q0 81 -8 162q-26 8 -54 8v21q77 5 142 20l7 -4q-13 -77 -13 -207zM284 634l-189 -109l-11 18q37 25 72.5 67t59.5 84q26 2 43 -1q7 -8 15.5 -28.5t9.5 -30.5
z" />
    <glyph glyph-name="icircumflex" unicode="&#xee;" horiz-adv-x="287" 
d="M190 274v-84q0 -108 7 -160q28 -6 63 -19l-2 -19q-56 8 -105 8q-51 0 -102 -6l-3 19q30 13 59 20q9 68 9 157v84q0 81 -8 162q-26 8 -54 8v21q77 5 142 20l7 -4q-13 -77 -13 -207zM146 612l-134 -90l-13 17q84 71 137 168h20q53 -97 137 -168l-13 -17z" />
    <glyph glyph-name="idieresis" unicode="&#xef;" horiz-adv-x="287" 
d="M115 630q-7 -13 -24.5 -33t-29.5 -28q-12 8 -29.5 28t-24.5 33q6 12 23 27.5t31 22.5q13 -8 30 -23.5t24 -26.5zM286 630q-7 -13 -24.5 -33t-29.5 -28q-12 8 -29.5 28t-24.5 33q6 12 23 27.5t31 22.5q13 -8 30 -23.5t24 -26.5zM190 274v-84q0 -108 7 -160q28 -6 63 -19
l-2 -19q-56 8 -105 8q-51 0 -102 -6l-3 19q30 13 59 20q9 68 9 157v84q0 81 -8 162q-26 8 -54 8v21q77 5 142 20l7 -4q-13 -77 -13 -207z" />
    <glyph glyph-name="eth" unicode="&#xf0;" horiz-adv-x="471" 
d="M299 572l-14 -8q144 -134 144 -292q0 -118 -61.5 -195.5t-173.5 -91.5q-71 12 -110 65.5t-39 130.5q0 90 57.5 154t149.5 84q48 -11 81 -65h5q-36 103 -101 182l-22 -13q-62 -36 -97 -68l-5 3q-8 27 -10 31l113 70q-64 69 -165 129l14 23q109 -55 194 -125l49 31
q54 33 70 46q8 -11 23 -22l3 -4zM306 54q43 60 43 177q0 33 -7 60q-43 69 -119 85q-47 0 -72 -45t-25 -124q0 -70 33 -118.5t94 -48.5q31 0 53 14z" />
    <glyph glyph-name="ntilde" unicode="&#xf1;" horiz-adv-x="547" 
d="M413 0q-19 0 -49 -2v14q16 78 20 257q2 18 0.5 41.5t-4.5 44t-13.5 34.5t-27.5 14q-39 0 -92 -49t-71 -91q0 -145 11 -233q28 -6 63 -19l-2 -19q-56 8 -105 8q-51 0 -102 -6l-3 19q30 13 59 20q9 68 9 157v84q0 92 -7 163q-24 8 -54 8v21q64 3 135 19l7 -4
q-11 -69 -11 -156l4 -1q34 47 88.5 96.5t98.5 64.5q30 0 50 -14t28.5 -40.5t11 -53t1.5 -63.5l-5 -281q29 -7 59 -20l-3 -19q-48 6 -96 6zM147 570l-18 11q56 61 128 82q59 -31 119 -31q45 0 65 24l18 -11q-56 -61 -104 -82q-21 0 -72.5 15.5t-72.5 15.5q-43 0 -63 -24z" />
    <glyph glyph-name="ograve" unicode="&#xf2;" horiz-adv-x="488" 
d="M45 190q0 102 57.5 186.5t151.5 108.5q93 0 141 -54t48 -151q0 -93 -56 -177t-143 -118q-87 0 -143 58.5t-56 146.5zM227 423q-42 0 -69 -24q-33 -63 -33 -154q0 -73 37 -135.5t99 -62.5q42 0 70 25q32 61 32 153q0 83 -33.5 140.5t-102.5 57.5zM302 525l-189 109
q1 10 9.5 30.5t15.5 28.5q17 3 43 1q24 -42 59.5 -84t72.5 -67z" />
    <glyph glyph-name="oacute" unicode="&#xf3;" horiz-adv-x="488" 
d="M45 190q0 102 57.5 186.5t151.5 108.5q93 0 141 -54t48 -151q0 -93 -56 -177t-143 -118q-87 0 -143 58.5t-56 146.5zM227 423q-42 0 -69 -24q-33 -63 -33 -154q0 -73 37 -135.5t99 -62.5q42 0 70 25q32 61 32 153q0 83 -33.5 140.5t-102.5 57.5zM419 634l-189 -109
l-11 18q37 25 72.5 67t59.5 84q26 2 43 -1q7 -8 15.5 -28.5t9.5 -30.5z" />
    <glyph glyph-name="ocircumflex" unicode="&#xf4;" horiz-adv-x="488" 
d="M45 190q0 102 57.5 186.5t151.5 108.5q93 0 141 -54t48 -151q0 -93 -56 -177t-143 -118q-87 0 -143 58.5t-56 146.5zM227 423q-42 0 -69 -24q-33 -63 -33 -154q0 -73 37 -135.5t99 -62.5q42 0 70 25q32 61 32 153q0 83 -33.5 140.5t-102.5 57.5zM259 612l-134 -90l-13 17
q84 71 137 168h20q53 -97 137 -168l-13 -17z" />
    <glyph glyph-name="otilde" unicode="&#xf5;" horiz-adv-x="488" 
d="M45 190q0 102 57.5 186.5t151.5 108.5q93 0 141 -54t48 -151q0 -93 -56 -177t-143 -118q-87 0 -143 58.5t-56 146.5zM227 423q-42 0 -69 -24q-33 -63 -33 -154q0 -73 37 -135.5t99 -62.5q42 0 70 25q32 61 32 153q0 83 -33.5 140.5t-102.5 57.5zM106 570l-18 11
q56 61 128 82q59 -31 119 -31q45 0 65 24l18 -11q-56 -61 -104 -82q-21 0 -72.5 15.5t-72.5 15.5q-43 0 -63 -24z" />
    <glyph glyph-name="odieresis" unicode="&#xf6;" horiz-adv-x="488" 
d="M45 190q0 102 57.5 186.5t151.5 108.5q93 0 141 -54t48 -151q0 -93 -56 -177t-143 -118q-87 0 -143 58.5t-56 146.5zM227 423q-42 0 -69 -24q-33 -63 -33 -154q0 -73 37 -135.5t99 -62.5q42 0 70 25q32 61 32 153q0 83 -33.5 140.5t-102.5 57.5zM221 620
q-7 -13 -24.5 -33t-29.5 -28q-12 8 -29.5 28t-24.5 33q6 12 23 27.5t31 22.5q13 -8 30 -23.5t24 -26.5zM406 620q-7 -13 -24.5 -33t-29.5 -28q-12 8 -29.5 28t-24.5 33q6 12 23 27.5t31 22.5q13 -8 30 -23.5t24 -26.5z" />
    <glyph glyph-name="divide" unicode="&#xf7;" horiz-adv-x="550" 
d="M318 385q0 -17 -14 -31.5t-30 -14.5t-30.5 14.5t-14.5 31.5t14.5 31t30.5 14t30 -14t14 -31zM318 112q0 -17 -14 -31.5t-30 -14.5t-30.5 14.5t-14.5 31.5q0 16 14.5 30.5t30.5 14.5t30 -14t14 -31zM496 268l-9 -46h-426l-8 7l9 51q169 -9 343 -9q46 0 85 3z" />
    <glyph glyph-name="oslash" unicode="&#xf8;" horiz-adv-x="488" 
d="M133 -77h-5q-15 8 -23 23l31 69q-43 27 -67 73t-24 102q0 102 57.5 186.5t151.5 108.5q30 0 61 -7q7 21 21 70q19 2 34 7l4 -3q-2 -4 -34 -83q103 -42 103 -189q0 -93 -56 -177t-143 -118q-42 0 -82 16zM363 225q0 112 -53 165l-120 -315q31 -28 71 -28q42 0 70 25
q32 61 32 153zM227 423q-42 0 -69 -24q-33 -63 -33 -154q0 -87 45 -147l120 308q-26 17 -63 17z" />
    <glyph glyph-name="ugrave" unicode="&#xf9;" horiz-adv-x="542" 
d="M170 485l7 -4q-16 -97 -19 -280q-2 -18 -0.5 -41.5t4.5 -44t13.5 -34.5t27.5 -14q39 0 92 49t71 91q0 145 -11 233q-28 6 -63 19l2 19q56 -8 105 -8q51 0 102 6l3 -19q-30 -13 -59 -20q-9 -68 -9 -157v-84q0 -92 7 -163q24 -8 54 -8v-21q-64 -3 -135 -19l-7 2
q11 69 11 158l-4 1q-34 -47 -88.5 -96.5t-98.5 -64.5q-30 0 -50 14t-28.5 40.5t-11 53t-1.5 63.5l5 281q-24 8 -54 8v21q64 3 135 19zM321 525l-189 109q1 10 9.5 30.5t15.5 28.5q17 3 43 1q24 -42 59.5 -84t72.5 -67z" />
    <glyph glyph-name="uacute" unicode="&#xfa;" horiz-adv-x="542" 
d="M170 485l7 -4q-16 -97 -19 -280q-2 -18 -0.5 -41.5t4.5 -44t13.5 -34.5t27.5 -14q39 0 92 49t71 91q0 145 -11 233q-28 6 -63 19l2 19q56 -8 105 -8q51 0 102 6l3 -19q-30 -13 -59 -20q-9 -68 -9 -157v-84q0 -92 7 -163q24 -8 54 -8v-21q-64 -3 -135 -19l-7 2
q11 69 11 158l-4 1q-34 -47 -88.5 -96.5t-98.5 -64.5q-30 0 -50 14t-28.5 40.5t-11 53t-1.5 63.5l5 281q-24 8 -54 8v21q64 3 135 19zM451 634l-189 -109l-11 18q37 25 72.5 67t59.5 84q26 2 43 -1q7 -8 15.5 -28.5t9.5 -30.5z" />
    <glyph glyph-name="ucircumflex" unicode="&#xfb;" horiz-adv-x="542" 
d="M170 485l7 -4q-16 -97 -19 -280q-2 -18 -0.5 -41.5t4.5 -44t13.5 -34.5t27.5 -14q39 0 92 49t71 91q0 145 -11 233q-28 6 -63 19l2 19q56 -8 105 -8q51 0 102 6l3 -19q-30 -13 -59 -20q-9 -68 -9 -157v-84q0 -92 7 -163q24 -8 54 -8v-21q-64 -3 -135 -19l-7 2
q11 69 11 158l-4 1q-34 -47 -88.5 -96.5t-98.5 -64.5q-30 0 -50 14t-28.5 40.5t-11 53t-1.5 63.5l5 281q-24 8 -54 8v21q64 3 135 19zM284 612l-134 -90l-13 17q84 71 137 168h20q53 -97 137 -168l-13 -17z" />
    <glyph glyph-name="udieresis" unicode="&#xfc;" horiz-adv-x="542" 
d="M170 485l7 -4q-16 -97 -19 -280q-2 -18 -0.5 -41.5t4.5 -44t13.5 -34.5t27.5 -14q39 0 92 49t71 91q0 145 -11 233q-28 6 -63 19l2 19q56 -8 105 -8q51 0 102 6l3 -19q-30 -13 -59 -20q-9 -68 -9 -157v-84q0 -92 7 -163q24 -8 54 -8v-21q-64 -3 -135 -19l-7 2
q11 69 11 158l-4 1q-34 -47 -88.5 -96.5t-98.5 -64.5q-30 0 -50 14t-28.5 40.5t-11 53t-1.5 63.5l5 281q-24 8 -54 8v21q64 3 135 19zM246 620q-7 -13 -24.5 -33t-29.5 -28q-12 8 -29.5 28t-24.5 33q6 12 23 27.5t31 22.5q13 -8 30 -23.5t24 -26.5zM431 620
q-7 -13 -24.5 -33t-29.5 -28q-12 8 -29.5 28t-24.5 33q6 12 23 27.5t31 22.5q13 -8 30 -23.5t24 -26.5z" />
    <glyph glyph-name="yacute" unicode="&#xfd;" horiz-adv-x="542" 
d="M183 485l7 -4q-16 -97 -19 -280q-3 -134 42 -134q36 0 88.5 50.5t67.5 89.5q0 145 -11 233q-27 6 -63 19l2 19q56 -8 105 -8q51 0 102 6l3 -19q-30 -13 -59 -20q-9 -68 -9 -157v-84q0 -159 7 -230q-19 -55 -80 -107.5t-121 -73.5q-92 0 -168 29v13q37 44 42 112h21
q0 -39 2 -61q56 -31 128 -31q40 0 65 24q23 61 28.5 110.5t5.5 163.5l-4 1q-30 -45 -83 -95.5t-95 -65.5q-29 0 -48 14t-27.5 40.5t-11 53t-1.5 63.5l5 281q-24 8 -54 8v21q63 3 133 19zM457 634l-189 -109l-11 18q37 25 72.5 67t59.5 84q26 2 43 -1q7 -8 15.5 -28.5
t9.5 -30.5z" />
    <glyph glyph-name="thorn" unicode="&#xfe;" horiz-adv-x="522" 
d="M472 294q0 -104 -56 -190.5t-150 -118.5q-54 0 -98 10q0 -109 7 -161q45 -11 79 -26l-3 -20q-62 12 -108 12q-41 0 -98 -5l-4 20q30 7 51 18q8 72 10 311l2 273q2 170 -7 244q-24 8 -54 8v21q60 3 141 21l7 -4q-19 -119 -19 -290v-95h4q35 50 84 98t92 65q55 0 87.5 -61
t32.5 -130zM392 249q0 49 -17.5 101.5t-50.5 52.5q-35 0 -85 -50t-65 -90q0 -149 7 -192q53 -24 104 -24q48 0 74 24q33 76 33 178z" />
    <glyph glyph-name="ydieresis" unicode="&#xff;" horiz-adv-x="542" 
d="M183 485l7 -4q-16 -97 -19 -280q-3 -134 42 -134q36 0 88.5 50.5t67.5 89.5q0 145 -11 233q-27 6 -63 19l2 19q56 -8 105 -8q51 0 102 6l3 -19q-30 -13 -59 -20q-9 -68 -9 -157v-84q0 -159 7 -230q-19 -55 -80 -107.5t-121 -73.5q-92 0 -168 29v13q37 44 42 112h21
q0 -39 2 -61q56 -31 128 -31q40 0 65 24q23 61 28.5 110.5t5.5 163.5l-4 1q-30 -45 -83 -95.5t-95 -65.5q-29 0 -48 14t-27.5 40.5t-11 53t-1.5 63.5l5 281q-24 8 -54 8v21q63 3 133 19zM248 620q-7 -13 -24.5 -33t-29.5 -28q-12 8 -29.5 28t-24.5 33q6 12 23 27.5t31 22.5
q13 -8 30 -23.5t24 -26.5zM433 620q-7 -13 -24.5 -33t-29.5 -28q-12 8 -29.5 28t-24.5 33q6 12 23 27.5t31 22.5q13 -8 30 -23.5t24 -26.5z" />
    <glyph glyph-name="Amacron" unicode="&#x100;" horiz-adv-x="599" 
d="M485 822l-9 -46l-256 -3l-9 6l9 50l45 -3q50 -3 104 -3q63 0 108 4zM98 662q114 -11 227 -11q135 0 249 11l4 -25q-45 -14 -96 -21q-13 -96 -13 -262q0 -223 13 -319q53 -5 110 -19l-3 -24q-74 8 -156 8q-91 0 -144 -8l-4 25q45 14 96 21q8 66 11 213q-53 6 -111 6
q-66 0 -109 -6q-24 -98 -24 -150q0 -66 43 -91l-4 -14q-31 4 -96 4q-82 0 -141 -8l-4 25q45 14 96 21l164 581q-57 6 -111 19zM281 294q70 0 111 7q0 242 -10 310q-31 3 -60 3q-32 0 -64 -3l-59 -244l-16 -66q45 -7 98 -7z" />
    <glyph glyph-name="amacron" unicode="&#x101;" horiz-adv-x="514" 
d="M50 176q0 104 56 190.5t150 118.5q67 0 140 -21q14 21 23 53l21 -6q-22 -90 -22 -318q0 -102 7 -160q24 -8 54 -8v-21q-64 -3 -135 -19l-7 4q11 69 11 156l-4 1q-35 -50 -83 -97t-91 -64q-55 0 -87.5 61t-32.5 130zM130 221q0 -49 17.5 -101.5t50.5 -52.5q35 0 85 50
t65 90q0 149 -7 192q-53 24 -104 24q-48 0 -74 -24q-33 -76 -33 -178zM413 634l-9 -46l-256 -3l-9 6l9 50l45 -3q49 -3 104 -3q63 0 108 4z" />
    <glyph glyph-name="Abreve" unicode="&#x102;" horiz-adv-x="599" 
d="M191 829l1 9q43 2 71 16h4q14 -33 45 -51t69 -18q70 0 107 69l18 -11q-21 -43 -58 -76t-81 -48q-49 0 -103 33t-73 77zM98 662q114 -11 227 -11q135 0 249 11l4 -25q-45 -14 -96 -21q-13 -96 -13 -262q0 -223 13 -319q53 -5 110 -19l-3 -24q-74 8 -156 8q-91 0 -144 -8
l-4 25q45 14 96 21q8 66 11 213q-53 6 -111 6q-66 0 -109 -6q-24 -98 -24 -150q0 -66 43 -91l-4 -14q-31 4 -96 4q-82 0 -141 -8l-4 25q45 14 96 21l164 581q-57 6 -111 19zM281 294q70 0 111 7q0 242 -10 310q-31 3 -60 3q-32 0 -64 -3l-59 -244l-16 -66q45 -7 98 -7z" />
    <glyph glyph-name="abreve" unicode="&#x103;" horiz-adv-x="514" 
d="M50 176q0 104 56 190.5t150 118.5q67 0 140 -21q14 21 23 53l21 -6q-22 -90 -22 -318q0 -102 7 -160q24 -8 54 -8v-21q-64 -3 -135 -19l-7 4q11 69 11 156l-4 1q-35 -50 -83 -97t-91 -64q-55 0 -87.5 61t-32.5 130zM130 221q0 -49 17.5 -101.5t50.5 -52.5q35 0 85 50
t65 90q0 149 -7 192q-53 24 -104 24q-48 0 -74 -24q-33 -76 -33 -178zM120 658l1 9q43 2 71 16h4q14 -33 45 -51t69 -18q70 0 107 69l18 -11q-21 -43 -58 -76t-81 -48q-49 0 -103 33t-73 77z" />
    <glyph glyph-name="Aogonek" unicode="&#x104;" horiz-adv-x="599" 
d="M98 662q114 -11 227 -11q135 0 249 11l4 -25q-45 -14 -96 -21q-13 -96 -13 -262q0 -223 13 -319q53 -5 110 -19l-3 -24q-74 8 -156 8q-49 0 -89 -29t-40 -73q0 -62 66 -62q22 0 37 4v-9q-31 -21 -49 -46q-60 0 -90 23t-30 79q17 44 95 110l48 41q8 66 11 213
q-53 6 -111 6q-66 0 -109 -6q-24 -98 -24 -150q0 -66 43 -91l-4 -14q-31 4 -96 4q-82 0 -141 -8l-4 25q45 14 96 21l164 581q-57 6 -111 19zM281 294q70 0 111 7q0 242 -10 310q-31 3 -60 3q-32 0 -64 -3l-59 -244l-16 -66q45 -7 98 -7z" />
    <glyph glyph-name="aogonek" unicode="&#x105;" horiz-adv-x="514" 
d="M415 -160v-9q-31 -21 -49 -46q-60 0 -90 23t-30 79q23 57 91 102q11 69 11 156l-4 1q-35 -50 -83 -97t-91 -64q-55 0 -87.5 61t-32.5 130q0 104 56 190.5t150 118.5q67 0 140 -21q14 21 23 53l21 -6q-22 -90 -22 -318q0 -102 7 -160q24 -8 54 -8v-21q-42 -1 -74 -9.5
t-49 -20t-27.5 -27t-13.5 -27t-3 -22.5q0 -62 66 -62q22 0 37 4zM130 221q0 -49 17.5 -101.5t50.5 -52.5q35 0 85 50t65 90q0 149 -7 192q-53 24 -104 24q-48 0 -74 -24q-33 -76 -33 -178z" />
    <glyph glyph-name="Cacute" unicode="&#x106;" horiz-adv-x="498" 
d="M477 797l-206 -75l-8 20q82 36 157 126q22 -2 42 -9q5 -9 10.5 -30.5t4.5 -31.5zM304 64q81 0 163 78l14 -13q-83 -106 -198 -144q-120 0 -180.5 75.5t-60.5 204.5q0 138 73.5 252.5t197.5 148.5q101 0 206 -19l-1 -22q-26 0 -48 -9q-25 -59 -33 -138h-25q-9 40 -9 93
q-47 25 -113 25q-65 0 -108 -36q-51 -87 -51 -221q0 -59 7.5 -104.5t25 -86t53.5 -62.5t87 -22z" />
    <glyph glyph-name="cacute" unicode="&#x107;" horiz-adv-x="387" 
d="M238 57q55 0 114 53l10 -10q-58 -81 -141 -115q-87 0 -129 55t-42 150q0 103 56 187t146 108q61 0 121 -16v-14q-39 -48 -43 -105h-22q0 39 -2 61q-41 12 -73 12q-48 0 -74 -24q-29 -61 -29 -154q0 -41 3.5 -70.5t14 -58.5t33.5 -44t57 -15zM401 634l-189 -109l-11 18
q37 25 72.5 67t59.5 84q26 2 43 -1q7 -8 15.5 -28.5t9.5 -30.5z" />
    <glyph glyph-name="Ccircumflex" unicode="&#x108;" horiz-adv-x="498" 
d="M465 715l-161 75l-161 -75l-10 19q92 58 161 151h20q69 -93 161 -151zM304 64q81 0 163 78l14 -13q-83 -106 -198 -144q-120 0 -180.5 75.5t-60.5 204.5q0 138 73.5 252.5t197.5 148.5q101 0 206 -19l-1 -22q-26 0 -48 -9q-25 -59 -33 -138h-25q-9 40 -9 93
q-47 25 -113 25q-65 0 -108 -36q-51 -87 -51 -221q0 -59 7.5 -104.5t25 -86t53.5 -62.5t87 -22z" />
    <glyph glyph-name="ccircumflex" unicode="&#x109;" horiz-adv-x="387" 
d="M238 57q55 0 114 53l10 -10q-58 -81 -141 -115q-87 0 -129 55t-42 150q0 103 56 187t146 108q61 0 121 -16v-14q-39 -48 -43 -105h-22q0 39 -2 61q-41 12 -73 12q-48 0 -74 -24q-29 -61 -29 -154q0 -41 3.5 -70.5t14 -58.5t33.5 -44t57 -15zM242 612l-134 -90l-13 17
q84 71 137 168h20q53 -97 137 -168l-13 -17z" />
    <glyph glyph-name="Cdotaccent" unicode="&#x10a;" horiz-adv-x="498" 
d="M304 64q81 0 163 78l14 -13q-83 -106 -198 -144q-120 0 -180.5 75.5t-60.5 204.5q0 138 73.5 252.5t197.5 148.5q101 0 206 -19l-1 -22q-26 0 -48 -9q-25 -59 -33 -138h-25q-9 40 -9 93q-47 25 -113 25q-65 0 -108 -36q-51 -87 -51 -221q0 -59 7.5 -104.5t25 -86
t53.5 -62.5t87 -22zM358 803q-7 -13 -24.5 -33t-29.5 -28q-12 8 -29.5 28t-24.5 33q6 12 23 27.5t31 22.5q13 -8 30 -23.5t24 -26.5z" />
    <glyph glyph-name="cdotaccent" unicode="&#x10b;" horiz-adv-x="387" 
d="M238 57q55 0 114 53l10 -10q-58 -81 -141 -115q-87 0 -129 55t-42 150q0 103 56 187t146 108q61 0 121 -16v-14q-39 -48 -43 -105h-22q0 39 -2 61q-41 12 -73 12q-48 0 -74 -24q-29 -61 -29 -154q0 -41 3.5 -70.5t14 -58.5t33.5 -44t57 -15zM296 620q-7 -13 -24.5 -33
t-29.5 -28q-12 8 -29.5 28t-24.5 33q6 12 23 27.5t31 22.5q13 -8 30 -23.5t24 -26.5z" />
    <glyph glyph-name="Ccaron" unicode="&#x10c;" horiz-adv-x="498" 
d="M304 810l161 75l10 -19q-92 -58 -161 -151h-20q-69 93 -161 151l10 19zM304 64q81 0 163 78l14 -13q-83 -106 -198 -144q-120 0 -180.5 75.5t-60.5 204.5q0 138 73.5 252.5t197.5 148.5q101 0 206 -19l-1 -22q-26 0 -48 -9q-25 -59 -33 -138h-25q-9 40 -9 93
q-47 25 -113 25q-65 0 -108 -36q-51 -87 -51 -221q0 -59 7.5 -104.5t25 -86t53.5 -62.5t87 -22z" />
    <glyph glyph-name="ccaron" unicode="&#x10d;" horiz-adv-x="387" 
d="M238 57q55 0 114 53l10 -10q-58 -81 -141 -115q-87 0 -129 55t-42 150q0 103 56 187t146 108q61 0 121 -16v-14q-39 -48 -43 -105h-22q0 39 -2 61q-41 12 -73 12q-48 0 -74 -24q-29 -61 -29 -154q0 -41 3.5 -70.5t14 -58.5t33.5 -44t57 -15zM110 705l134 -90l134 90
l13 -17q-84 -71 -137 -168h-20q-53 97 -137 168z" />
    <glyph glyph-name="Dcaron" unicode="&#x10e;" horiz-adv-x="619" 
d="M308 810l161 75l10 -19q-92 -58 -161 -151h-20q-69 93 -161 151l10 19zM306 -15q-72 0 -161 38q-17 -26 -23 -45l-21 5q24 109 24 342q0 189 -11 283q-48 16 -98 16v25q50 0 155.5 4.5t132.5 4.5q134 0 203.5 -69t69.5 -203q0 -139 -73 -252t-198 -149zM287 621
q-40 0 -76 -13q-9 -94 -9 -283q0 -152 5 -240q54 -28 132 -28q60 0 98 34q51 93 51 229q0 62 -10 113t-32 95t-62.5 68.5t-96.5 24.5z" />
    <glyph glyph-name="Emacron" unicode="&#x112;" horiz-adv-x="513" 
d="M397 566q-48 28 -118 28q-65 0 -106 -34q-15 -187 170 -187l-5 -37h-12q-79 0 -130.5 -31.5t-51.5 -98.5q0 -73 48 -111.5t121 -38.5q57 0 94 24q7 14 7 46q0 28 -10 39l1 7q25 15 50 42q12 -1 19.5 -10t7.5 -21q0 -61 -57.5 -118.5t-125.5 -79.5q-107 0 -178 52t-71 148
q0 69 58 115t132 46v4q-68 4 -113.5 38t-45.5 94q36 64 95.5 115t127.5 69q72 0 141 -19q21 10 42 30l19 -13q-74 -81 -81 -191h-25q0 48 -3 93zM441 822l-9 -46l-256 -3l-9 6l9 50l45 -3q49 -3 104 -3q63 0 108 4z" />
    <glyph glyph-name="emacron" unicode="&#x113;" horiz-adv-x="426" 
d="M238 57q63 0 123 53l11 -10q-57 -78 -146 -115q-88 0 -132 55t-44 150q0 101 55 185.5t147 109.5q67 0 94 -26.5t27 -93.5q0 -38 -10 -65q21 -8 49 -8l-1 -21q-116 2 -281 -33q0 -40 4 -69t14.5 -56t33 -41.5t56.5 -14.5zM159 399q-27 -56 -29 -135q82 27 163 41
q0 66 -12.5 92t-55.5 26q-37 0 -66 -24zM392 634l-9 -46l-256 -3l-9 6l9 50l45 -3q50 -3 104 -3q63 0 108 4z" />
    <glyph glyph-name="Ebreve" unicode="&#x114;" horiz-adv-x="513" 
d="M397 566q-48 28 -118 28q-65 0 -106 -34q-15 -187 170 -187l-5 -37h-12q-79 0 -130.5 -31.5t-51.5 -98.5q0 -73 48 -111.5t121 -38.5q57 0 94 24q7 14 7 46q0 28 -10 39l1 7q25 15 50 42q12 -1 19.5 -10t7.5 -21q0 -61 -57.5 -118.5t-125.5 -79.5q-107 0 -178 52t-71 148
q0 69 58 115t132 46v4q-68 4 -113.5 38t-45.5 94q36 64 95.5 115t127.5 69q72 0 141 -19q21 10 42 30l19 -13q-74 -81 -81 -191h-25q0 48 -3 93zM147 829l1 9q43 2 71 16h4q14 -33 45 -51t69 -18q70 0 107 69l18 -11q-21 -43 -58 -76t-81 -48q-49 0 -103 33t-73 77z" />
    <glyph glyph-name="ebreve" unicode="&#x115;" horiz-adv-x="426" 
d="M238 57q63 0 123 53l11 -10q-57 -78 -146 -115q-88 0 -132 55t-44 150q0 101 55 185.5t147 109.5q67 0 94 -26.5t27 -93.5q0 -38 -10 -65q21 -8 49 -8l-1 -21q-116 2 -281 -33q0 -40 4 -69t14.5 -56t33 -41.5t56.5 -14.5zM159 399q-27 -56 -29 -135q82 27 163 41
q0 66 -12.5 92t-55.5 26q-37 0 -66 -24zM99 658l1 9q43 2 71 16h4q14 -33 45 -51t69 -18q70 0 107 69l18 -11q-21 -43 -58 -76t-81 -48q-49 0 -103 33t-73 77z" />
    <glyph glyph-name="Edotaccent" unicode="&#x116;" horiz-adv-x="513" 
d="M397 566q-48 28 -118 28q-65 0 -106 -34q-15 -187 170 -187l-5 -37h-12q-79 0 -130.5 -31.5t-51.5 -98.5q0 -73 48 -111.5t121 -38.5q57 0 94 24q7 14 7 46q0 28 -10 39l1 7q25 15 50 42q12 -1 19.5 -10t7.5 -21q0 -61 -57.5 -118.5t-125.5 -79.5q-107 0 -178 52t-71 148
q0 69 58 115t132 46v4q-68 4 -113.5 38t-45.5 94q36 64 95.5 115t127.5 69q72 0 141 -19q21 10 42 30l19 -13q-74 -81 -81 -191h-25q0 48 -3 93zM358 803q-7 -13 -24.5 -33t-29.5 -28q-12 8 -29.5 28t-24.5 33q6 12 23 27.5t31 22.5q13 -8 30 -23.5t24 -26.5z" />
    <glyph glyph-name="Eogonek" unicode="&#x118;" horiz-adv-x="513" 
d="M397 566q-48 28 -118 28q-65 0 -106 -34q-15 -187 170 -187l-5 -37h-12q-79 0 -130.5 -31.5t-51.5 -98.5q0 -73 48 -111.5t121 -38.5q57 0 94 24q7 14 7 46q0 28 -10 39l1 7q25 15 50 42q12 -1 19.5 -10t7.5 -21q0 -35 -20 -68.5t-41 -52.5t-58 -48q-65 -51 -81 -73
t-16 -43q0 -62 66 -62q22 0 37 4v-9q-31 -21 -49 -46q-60 0 -90 23t-30 79q20 51 85 98q-102 4 -168.5 55.5t-66.5 144.5q0 69 58 115t132 46v4q-68 4 -113.5 38t-45.5 94q36 64 95.5 115t127.5 69q72 0 141 -19q21 10 42 30l19 -13q-74 -81 -81 -191h-25q0 48 -3 93z" />
    <glyph glyph-name="eogonek" unicode="&#x119;" horiz-adv-x="426" 
d="M307 -160v-9q-31 -21 -49 -46q-60 0 -90 23t-30 79q21 53 85 98q-86 1 -129.5 56t-43.5 149q0 101 55 185.5t147 109.5q67 0 94 -26.5t27 -93.5q0 -38 -10 -65q21 -8 49 -8l-1 -21q-116 2 -281 -33q0 -40 4 -69t14.5 -56t33 -41.5t56.5 -14.5q63 0 123 53l11 -10
q-20 -29 -52.5 -58.5t-56 -47.5t-41.5 -43.5t-18 -52.5q0 -62 66 -62q22 0 37 4zM159 399q-27 -56 -29 -135q82 27 163 41q0 66 -12.5 92t-55.5 26q-37 0 -66 -24z" />
    <glyph glyph-name="Ecaron" unicode="&#x11a;" horiz-adv-x="513" 
d="M397 566q-48 28 -118 28q-65 0 -106 -34q-15 -187 170 -187l-5 -37h-12q-79 0 -130.5 -31.5t-51.5 -98.5q0 -73 48 -111.5t121 -38.5q57 0 94 24q7 14 7 46q0 28 -10 39l1 7q25 15 50 42q12 -1 19.5 -10t7.5 -21q0 -61 -57.5 -118.5t-125.5 -79.5q-107 0 -178 52t-71 148
q0 69 58 115t132 46v4q-68 4 -113.5 38t-45.5 94q36 64 95.5 115t127.5 69q72 0 141 -19q21 10 42 30l19 -13q-74 -81 -81 -191h-25q0 48 -3 93zM303 810l161 75l10 -19q-92 -58 -161 -151h-20q-69 93 -161 151l10 19z" />
    <glyph glyph-name="ecaron" unicode="&#x11b;" horiz-adv-x="426" 
d="M238 57q63 0 123 53l11 -10q-57 -78 -146 -115q-88 0 -132 55t-44 150q0 101 55 185.5t147 109.5q67 0 94 -26.5t27 -93.5q0 -38 -10 -65q21 -8 49 -8l-1 -21q-116 2 -281 -33q0 -40 4 -69t14.5 -56t33 -41.5t56.5 -14.5zM159 399q-27 -56 -29 -135q82 27 163 41
q0 66 -12.5 92t-55.5 26q-37 0 -66 -24zM122 705l134 -90l134 90l13 -17q-84 -71 -137 -168h-20q-53 97 -137 168z" />
    <glyph glyph-name="Gcircumflex" unicode="&#x11c;" horiz-adv-x="557" 
d="M465 715l-161 75l-161 -75l-10 19q92 58 161 151h20q69 -93 161 -151zM303 64q56 0 100 29v83q0 23 -4 67q-35 10 -91 20l3 21q23 -3 44 -3q88 0 161 49l9 -18q-23 -18 -36 -36q-12 -120 -20 -280h-21q-10 43 -24 71q-65 -57 -141 -82q-120 0 -180.5 75.5t-60.5 204.5
q0 138 73.5 252.5t197.5 148.5q104 0 209 -19l-1 -22q-25 0 -48 -9q-27 -64 -33 -139h-25q-9 41 -9 93q-47 26 -116 26q-65 0 -108 -36q-51 -87 -51 -221q0 -60 7 -105t24.5 -85.5t53 -62.5t87.5 -22z" />
    <glyph glyph-name="gcircumflex" unicode="&#x11d;" horiz-adv-x="503" 
d="M53 185q0 102 54 185.5t147 114.5q67 0 140 -21q44 9 77 19l5 -18q-19 -15 -47 -29q-13 -121 -13 -226q0 -168 7 -244q-22 -55 -83 -108.5t-121 -72.5q-93 0 -178 31v19q19 67 112 167v4q-46 13 -73 67.5t-27 111.5zM133 229q0 -47 17.5 -97t49.5 -50q33 0 81.5 52.5
t64.5 91.5q0 131 -7 173q-53 24 -104 24q-45 0 -72 -24q-30 -73 -30 -170zM346 170l-4 1q-15 -31 -42.5 -62.5t-55.5 -56t-54.5 -51t-46 -59t-23.5 -67.5q55 -28 123 -28q44 0 69 24q23 60 28.5 116t5.5 183zM263 612l-134 -90l-13 17q84 71 137 168h20q53 -97 137 -168
l-13 -17z" />
    <glyph glyph-name="Gbreve" unicode="&#x11e;" horiz-adv-x="557" 
d="M303 64q56 0 100 29v83q0 23 -4 67q-35 10 -91 20l3 21q23 -3 44 -3q88 0 161 49l9 -18q-23 -18 -36 -36q-12 -120 -20 -280h-21q-10 43 -24 71q-65 -57 -141 -82q-120 0 -180.5 75.5t-60.5 204.5q0 138 73.5 252.5t197.5 148.5q104 0 209 -19l-1 -22q-25 0 -48 -9
q-27 -64 -33 -139h-25q-9 41 -9 93q-47 26 -116 26q-65 0 -108 -36q-51 -87 -51 -221q0 -60 7 -105t24.5 -85.5t53 -62.5t87.5 -22zM147 829l1 9q43 2 71 16h4q14 -33 45 -51t69 -18q70 0 107 69l18 -11q-21 -43 -58 -76t-81 -48q-49 0 -103 33t-73 77z" />
    <glyph glyph-name="gbreve" unicode="&#x11f;" horiz-adv-x="503" 
d="M53 185q0 102 54 185.5t147 114.5q67 0 140 -21q44 9 77 19l5 -18q-19 -15 -47 -29q-13 -121 -13 -226q0 -168 7 -244q-22 -55 -83 -108.5t-121 -72.5q-93 0 -178 31v19q19 67 112 167v4q-46 13 -73 67.5t-27 111.5zM133 229q0 -47 17.5 -97t49.5 -50q33 0 81.5 52.5
t64.5 91.5q0 131 -7 173q-53 24 -104 24q-45 0 -72 -24q-30 -73 -30 -170zM346 170l-4 1q-15 -31 -42.5 -62.5t-55.5 -56t-54.5 -51t-46 -59t-23.5 -67.5q55 -28 123 -28q44 0 69 24q23 60 28.5 116t5.5 183zM107 658l1 9q43 2 71 16h4q14 -33 45 -51t69 -18q70 0 107 69
l18 -11q-21 -43 -58 -76t-81 -48q-49 0 -103 33t-73 77z" />
    <glyph glyph-name="Gdotaccent" unicode="&#x120;" horiz-adv-x="557" 
d="M303 64q56 0 100 29v83q0 23 -4 67q-35 10 -91 20l3 21q23 -3 44 -3q88 0 161 49l9 -18q-23 -18 -36 -36q-12 -120 -20 -280h-21q-10 43 -24 71q-65 -57 -141 -82q-120 0 -180.5 75.5t-60.5 204.5q0 138 73.5 252.5t197.5 148.5q104 0 209 -19l-1 -22q-25 0 -48 -9
q-27 -64 -33 -139h-25q-9 41 -9 93q-47 26 -116 26q-65 0 -108 -36q-51 -87 -51 -221q0 -60 7 -105t24.5 -85.5t53 -62.5t87.5 -22zM358 803q-7 -13 -24.5 -33t-29.5 -28q-12 8 -29.5 28t-24.5 33q6 12 23 27.5t31 22.5q13 -8 30 -23.5t24 -26.5z" />
    <glyph glyph-name="gdotaccent" unicode="&#x121;" horiz-adv-x="503" 
d="M53 185q0 102 54 185.5t147 114.5q67 0 140 -21q44 9 77 19l5 -18q-19 -15 -47 -29q-13 -121 -13 -226q0 -168 7 -244q-22 -55 -83 -108.5t-121 -72.5q-93 0 -178 31v19q19 67 112 167v4q-46 13 -73 67.5t-27 111.5zM133 229q0 -47 17.5 -97t49.5 -50q33 0 81.5 52.5
t64.5 91.5q0 131 -7 173q-53 24 -104 24q-45 0 -72 -24q-30 -73 -30 -170zM346 170l-4 1q-15 -31 -42.5 -62.5t-55.5 -56t-54.5 -51t-46 -59t-23.5 -67.5q55 -28 123 -28q44 0 69 24q23 60 28.5 116t5.5 183zM317 620q-7 -13 -24.5 -33t-29.5 -28q-12 8 -29.5 28t-24.5 33
q6 12 23 27.5t31 22.5q13 -8 30 -23.5t24 -26.5z" />
    <glyph glyph-name="Hcircumflex" unicode="&#x124;" horiz-adv-x="708" 
d="M521 715l-161 75l-161 -75l-10 19q92 58 161 151h20q69 -93 161 -151zM490 613q-51 7 -96 21l4 25q61 -8 142 -8q94 0 158 8l3 -24q-57 -14 -110 -19q-13 -74 -13 -261v-59q0 -187 13 -261q53 -5 110 -19l-3 -24q-64 8 -156 8q-83 0 -144 -8l-4 25q45 14 96 21
q10 101 11 290q-74 7 -145 7q-75 0 -149 -7q1 -214 13 -293q53 -5 110 -19l-3 -24q-74 8 -156 8q-91 0 -144 -8l-4 25q45 14 96 21q11 82 11 258v59q0 162 -13 258q-51 7 -96 21l4 25q53 -8 144 -8q82 0 156 8l3 -24q-57 -14 -110 -19q-9 -59 -11 -234q76 -10 149 -10
q77 0 145 9q-1 132 -11 232z" />
    <glyph glyph-name="hcircumflex" unicode="&#x125;" horiz-adv-x="542" 
d="M372 -15l-7 4q16 97 19 280q2 18 0.5 41.5t-4.5 44t-13.5 34.5t-27.5 14q-39 0 -92 -49t-71 -91q0 -145 11 -233q28 -6 63 -19l-2 -19q-56 8 -105 8q-51 0 -102 -6l-3 19q30 13 59 20q9 68 9 157v186q0 263 -24 358l21 6q9 -32 23 -53q55 9 107 24l5 -18q-19 -15 -47 -29
q-15 -82 -15 -339l4 -1q34 47 88.5 96.5t98.5 64.5q30 0 50 -14t28.5 -40.5t11 -53t1.5 -63.5l-5 -281q24 -8 54 -8v-21q-64 -3 -135 -19zM150 844l-134 -90l-13 17q84 71 137 168h20q53 -97 137 -168l-13 -17z" />
    <glyph glyph-name="Hbar" unicode="&#x126;" horiz-adv-x="708" 
d="M490 613q-51 7 -96 21l4 25q61 -8 142 -8q94 0 158 8l3 -24q-57 -14 -110 -19q-5 -25 -8 -95l81 3l6 -6l-5 -27h-84q-3 -68 -3 -136v-59q0 -187 13 -261q53 -5 110 -19l-3 -24q-64 8 -156 8q-83 0 -144 -8l-4 25q45 14 96 21q10 101 11 290q-74 7 -145 7q-75 0 -149 -7
q1 -214 13 -293q53 -5 110 -19l-3 -24q-74 8 -156 8q-91 0 -144 -8l-4 25q45 14 96 21q11 82 11 258v59q0 46 -4 136h-70l-8 7l5 32l71 -3q-3 52 -7 86q-51 7 -96 21l4 25q53 -8 144 -8q82 0 156 8l3 -24q-57 -14 -110 -19q-4 -19 -7 -92q150 -3 285 -3l-2 37.5t-2.5 34.5
t-1.5 20zM501 381l-3 110h-289q-2 -70 -2 -109q76 -10 149 -10q77 0 145 9z" />
    <glyph glyph-name="hbar" unicode="&#x127;" horiz-adv-x="542" 
d="M372 -15l-7 4q16 97 19 280q2 18 0.5 41.5t-4.5 44t-13.5 34.5t-27.5 14q-39 0 -92 -49t-71 -91q0 -145 11 -233q28 -6 63 -19l-2 -19q-56 8 -105 8q-51 0 -102 -6l-3 19q30 13 59 20q9 68 9 157v186q0 125 -2 175q-33 -2 -70 -7l-3 4q6 20 7 32l64 2q-5 92 -20 152l21 6
q9 -32 23 -53q55 9 107 24l5 -18q-19 -15 -47 -29q-6 -30 -9 -79l119 4q64 3 84 5q4 -20 9 -31v-5l-122 -2l-92 -3q-4 -75 -4 -228l4 -1q34 47 88.5 96.5t98.5 64.5q30 0 50 -14t28.5 -40.5t11 -53t1.5 -63.5l-5 -281q24 -8 54 -8v-21q-64 -3 -135 -19z" />
    <glyph glyph-name="Itilde" unicode="&#x128;" horiz-adv-x="337" 
d="M218 616q-11 -75 -11 -261q0 -224 13 -320q53 -5 110 -19l-3 -24q-74 8 -156 8q-91 0 -144 -8l-4 25q45 14 96 21q11 82 11 258v59q0 162 -13 258q-51 7 -96 21l4 25q53 -8 144 -8q82 0 156 8l3 -24q-57 -14 -110 -19zM27 744l-18 11q56 61 128 82q59 -31 119 -31
q45 0 65 24l18 -11q-56 -61 -104 -82q-21 0 -72.5 15.5t-72.5 15.5q-43 0 -63 -24z" />
    <glyph glyph-name="itilde" unicode="&#x129;" horiz-adv-x="287" 
d="M20 570l-18 11q46 59 112 82q48 -31 104 -31q35 0 55 24l17 -11q-38 -56 -91 -82q-16 0 -63 15.5t-63 15.5q-35 0 -53 -24zM190 274v-84q0 -108 7 -160q28 -6 63 -19l-2 -19q-56 8 -105 8q-51 0 -102 -6l-3 19q30 13 59 20q9 68 9 157v84q0 81 -8 162q-26 8 -54 8v21
q77 5 142 20l7 -4q-13 -77 -13 -207z" />
    <glyph glyph-name="Imacron" unicode="&#x12a;" horiz-adv-x="337" 
d="M218 616q-11 -75 -11 -261q0 -224 13 -320q53 -5 110 -19l-3 -24q-74 8 -156 8q-91 0 -144 -8l-4 25q45 14 96 21q11 82 11 258v59q0 162 -13 258q-51 7 -96 21l4 25q53 -8 144 -8q82 0 156 8l3 -24q-57 -14 -110 -19zM310 822l-9 -46l-256 -3l-9 6l9 50l45 -3
q49 -3 104 -3q63 0 108 4z" />
    <glyph glyph-name="imacron" unicode="&#x12b;" horiz-adv-x="287" 
d="M263 634l-9 -46l-216 -3l-9 6l9 50l45 -3q42 -3 84 -3q49 0 88 4zM190 274v-84q0 -108 7 -160q28 -6 63 -19l-2 -19q-56 8 -105 8q-51 0 -102 -6l-3 19q30 13 59 20q9 68 9 157v84q0 81 -8 162q-26 8 -54 8v21q77 5 142 20l7 -4q-13 -77 -13 -207z" />
    <glyph glyph-name="Ibreve" unicode="&#x12c;" horiz-adv-x="337" 
d="M218 616q-11 -75 -11 -261q0 -224 13 -320q53 -5 110 -19l-3 -24q-74 8 -156 8q-91 0 -144 -8l-4 25q45 14 96 21q11 82 11 258v59q0 162 -13 258q-51 7 -96 21l4 25q53 -8 144 -8q82 0 156 8l3 -24q-57 -14 -110 -19zM16 829l1 9q43 2 71 16h4q14 -33 45 -51t69 -18
q70 0 107 69l18 -11q-21 -43 -58 -76t-81 -48q-49 0 -103 33t-73 77z" />
    <glyph glyph-name="ibreve" unicode="&#x12d;" horiz-adv-x="287" 
d="M6 658l1 9q46 2 71 16h4q28 -70 94 -70q60 0 89 70l19 -11q-17 -42 -49.5 -75.5t-70.5 -48.5q-49 0 -95.5 32t-62.5 78zM190 274v-84q0 -108 7 -160q28 -6 63 -19l-2 -19q-56 8 -105 8q-51 0 -102 -6l-3 19q30 13 59 20q9 68 9 157v84q0 81 -8 162q-26 8 -54 8v21
q77 5 142 20l7 -4q-13 -77 -13 -207z" />
    <glyph glyph-name="Iogonek" unicode="&#x12e;" horiz-adv-x="337" 
d="M299 -160v-9q-32 -21 -49 -46q-60 0 -90 23t-30 79q13 31 40.5 62.5t55.5 49.5q-16 1 -55 1q-91 0 -144 -8l-4 25q45 14 96 21q11 82 11 258v59q0 162 -13 258q-51 7 -96 21l4 25q53 -8 144 -8q82 0 156 8l3 -24q-57 -14 -110 -19q-11 -75 -11 -261q0 -224 13 -320
q53 -5 110 -19l-3 -24q-28 4 -48 4q-29 0 -56 -30.5t-27 -67.5q0 -62 66 -62q22 0 37 4z" />
    <glyph glyph-name="iogonek" unicode="&#x12f;" horiz-adv-x="287" 
d="M230 -160v-9q-32 -21 -49 -46q-60 0 -90 23t-30 79q13 31 42 62.5t60 50.5h-10q-51 0 -102 -6l-3 19q30 13 59 20q9 68 9 157v84q0 81 -8 162q-26 8 -54 8v21q77 5 142 20l7 -4q-13 -77 -13 -207v-84q0 -108 7 -160q28 -6 63 -19l-2 -19q-28 5 -43 5q-31 0 -59.5 -33.5
t-28.5 -65.5q0 -62 66 -62q22 0 37 4zM208 620q-7 -13 -24.5 -33t-29.5 -28q-12 8 -29.5 28t-24.5 33q6 12 23 27.5t31 22.5q13 -8 30 -23.5t24 -26.5z" />
    <glyph glyph-name="Idotaccent" unicode="&#x130;" horiz-adv-x="337" 
d="M218 616q-11 -75 -11 -261q0 -224 13 -320q53 -5 110 -19l-3 -24q-74 8 -156 8q-91 0 -144 -8l-4 25q45 14 96 21q11 82 11 258v59q0 162 -13 258q-51 7 -96 21l4 25q53 -8 144 -8q82 0 156 8l3 -24q-57 -14 -110 -19zM227 803q-7 -13 -24.5 -33t-29.5 -28
q-12 8 -29.5 28t-24.5 33q6 12 23 27.5t31 22.5q13 -8 30 -23.5t24 -26.5z" />
    <glyph glyph-name="dotlessi" unicode="&#x131;" horiz-adv-x="287" 
d="M190 274v-84q0 -108 7 -160q28 -6 63 -19l-2 -19q-56 8 -105 8q-51 0 -102 -6l-3 19q30 13 59 20q9 68 9 157v84q0 81 -8 162q-26 8 -54 8v21q77 5 142 20l7 -4q-13 -77 -13 -207z" />
    <glyph glyph-name="IJ" unicode="&#x132;" horiz-adv-x="674" 
d="M218 616q-11 -75 -11 -261q0 -224 13 -320q53 -5 110 -19l-3 -24q-74 8 -156 8q-91 0 -144 -8l-4 25q45 14 96 21q11 82 11 258v59q0 162 -13 258q-51 7 -96 21l4 25q53 -8 144 -8q82 0 156 8l3 -24q-57 -14 -110 -19zM456 616q-53 5 -110 19l3 24q74 -8 156 -8
q91 0 144 8l4 -25q-45 -14 -96 -21q-13 -96 -13 -258v-59q0 -185 8 -263q-56 -126 -206 -213l-17 19q76 64 107 137.5t31 177.5v201q0 186 -11 261z" />
    <glyph glyph-name="ij" unicode="&#x133;" horiz-adv-x="578" 
d="M190 274v-84q0 -108 7 -160q28 -6 63 -19l-2 -19q-56 8 -105 8q-51 0 -102 -6l-3 19q30 13 59 20q9 68 9 157v84q0 81 -8 162q-26 8 -54 8v21q77 5 142 20l7 -4q-13 -77 -13 -207zM208 620q-7 -13 -24.5 -33t-29.5 -28q-12 8 -29.5 28t-24.5 33q6 12 23 27.5t31 22.5
q13 -8 30 -23.5t24 -26.5zM319 -215l-15 15q96 117 96 253v137q0 165 -8 246q-26 8 -54 8v21q77 5 142 20l7 -4q-15 -88 -15 -260q0 -145 7 -221q-32 -109 -160 -215zM493 620q-7 -13 -24.5 -33t-29.5 -28q-12 8 -29.5 28t-24.5 33q6 12 23 27.5t31 22.5q13 -8 30 -23.5
t24 -26.5z" />
    <glyph glyph-name="Jcircumflex" unicode="&#x134;" horiz-adv-x="337" 
d="M325 715l-161 75l-161 -75l-10 19q92 58 161 151h20q69 -93 161 -151zM119 616q-53 5 -110 19l3 24q74 -8 156 -8q91 0 144 8l4 -25q-45 -14 -96 -21q-13 -96 -13 -258v-59q0 -185 8 -263q-56 -126 -206 -213l-17 19q76 64 107 137.5t31 177.5v201q0 186 -11 261z" />
    <glyph glyph-name="jcircumflex" unicode="&#x135;" horiz-adv-x="291" 
d="M143 612l-134 -90l-13 17q84 71 137 168h20q53 -97 137 -168l-13 -17zM32 -215l-15 15q96 117 96 253v137q0 165 -8 246q-26 8 -54 8v21q77 5 142 20l7 -4q-15 -88 -15 -260q0 -145 7 -221q-32 -109 -160 -215z" />
    <glyph glyph-name="kcommaaccent" unicode="&#x137;" horiz-adv-x="515" 
d="M181 263q0 -145 11 -233q28 -6 63 -19l-2 -19q-56 8 -105 8q-51 0 -102 -6l-3 19q30 13 59 20q9 68 9 197v187q0 151 -8 232q-26 8 -54 8v21q99 7 190 33l5 -18q-19 -15 -47 -29q-16 -88 -16 -338l4 -2q35 50 85 97.5t94 63.5q36 -9 58 -42t22 -72q0 -100 -100 -143
l30 -64l20.5 -45l16 -36t12.5 -24.5t14 -21.5q0 -2 21.5 -5t32.5 -3v-21q-69 -3 -142 -20l-9 5q0 70 -57 218q-24 -2 -36 -2v21q54 3 85.5 31.5t31.5 79.5q0 17 -7.5 40.5t-19.5 31.5q-39 -7 -88.5 -57.5t-67.5 -92.5zM329 -84q-5 -79 -106 -131l-10 13q42 31 48 68
q-26 24 -40 50q6 12 23 27.5t31 22.5q13 -8 30 -23.5t24 -26.5z" />
    <glyph glyph-name="kgreenlandic" unicode="&#x138;" horiz-adv-x="506" 
d="M186 185q0 -104 7 -155q27 -6 63 -19l-2 -19q-56 8 -105 8q-51 0 -102 -6l-3 19q30 13 59 20q9 68 9 157v84q0 81 -8 162q-26 8 -54 8v21q77 5 142 20l7 -4q-13 -77 -13 -207v-27l4 -1q28 57 90.5 130.5t112.5 108.5q45 0 88 -16v-14q-38 -48 -43 -125h-22q0 39 -2 61
q-13 10 -34 10q-31 0 -107 -93l94 -149q54 -88 84 -126q18 -8 54 -8v-21q-63 -3 -133 -19l-8 4q0 34 -61 128l-79 126q-29 -41 -38 -58z" />
    <glyph glyph-name="lacute" unicode="&#x13a;" horiz-adv-x="298" 
d="M188 417l-2 -187q-2 -143 6 -200q28 -6 63 -19l-2 -19q-56 8 -105 8q-51 0 -102 -6l-3 19q30 13 59 20q9 64 10 197l2 187q2 145 -7 232q-26 8 -54 8v21q100 7 191 33l5 -18q-19 -15 -47 -29q-12 -66 -14 -247zM153 844l-134 -90l-13 17q84 71 137 168h20
q53 -97 137 -168l-13 -17z" />
    <glyph glyph-name="Ldotaccent" unicode="&#x13f;" horiz-adv-x="456" 
d="M477 9l-6 -20q-100 11 -222 11q-135 0 -224 -10l-4 25q39 13 96 23q11 82 11 258v59q0 175 -11 258q-51 7 -96 21l4 25q53 -8 144 -8q82 0 156 8l3 -24q-60 -14 -110 -19q-13 -88 -13 -261q0 -239 10 -313q33 -5 74 -5q71 0 111 18q12 37 19 112h25q4 -106 33 -158z
M424 354q-7 -13 -24.5 -33t-29.5 -28q-12 8 -29.5 28t-24.5 33q6 12 23 27.5t31 22.5q13 -8 30 -23.5t24 -26.5z" />
    <glyph glyph-name="ldot" unicode="&#x140;" horiz-adv-x="510" 
d="M188 417l-2 -187q-2 -143 6 -200q28 -6 63 -19l-2 -19q-56 8 -105 8q-51 0 -102 -6l-3 19q30 13 59 20q9 64 10 197l2 187q2 145 -7 232q-26 8 -54 8v21q100 7 191 33l5 -18q-19 -15 -47 -29q-12 -66 -14 -247zM346 368q-7 -13 -24.5 -33t-29.5 -28q-12 8 -29.5 28
t-24.5 33q6 12 23 27.5t31 22.5q13 -8 30 -23.5t24 -26.5z" />
    <glyph glyph-name="Lslash" unicode="&#x141;" horiz-adv-x="456" 
d="M477 9l-6 -20q-100 11 -222 11q-135 0 -224 -10l-4 25q39 13 96 23q11 82 11 258v12q-60 -29 -95 -55l-4 3q-5 27 -7 32l106 54v13q0 175 -11 258q-51 7 -96 21l4 25q53 -8 144 -8q82 0 156 8l3 -24q-60 -14 -110 -19q-11 -70 -13 -235l64 33q57 30 74 40q8 -12 21 -24
l2 -4l-110 -55l-51 -25q0 -232 10 -304q33 -5 74 -5q71 0 111 18q12 37 19 112h25q4 -106 33 -158z" />
    <glyph glyph-name="lslash" unicode="&#x142;" horiz-adv-x="298" 
d="M188 417l-1 -34l16 8q57 30 74 40q8 -12 21 -24l2 -4l-113 -57l-1 -116q-2 -143 6 -200q28 -6 63 -19l-2 -19q-56 8 -105 8q-51 0 -102 -6l-3 19q30 13 59 20q9 64 10 197l1 80q-50 -26 -80 -47l-4 3q-5 27 -7 32l91 47l1 72q2 145 -7 232q-26 8 -54 8v21q100 7 191 33
l5 -18q-19 -15 -47 -29q-12 -66 -14 -247z" />
    <glyph glyph-name="Nacute" unicode="&#x143;" horiz-adv-x="706" 
d="M554 797l-206 -75l-8 20q82 36 157 126q22 -2 42 -9q5 -9 10.5 -30.5t4.5 -31.5zM185 651q49 0 93 6l5 -16q-12 -4 -23 -12.5t-11 -18.5q0 -24 51 -112t224 -358l4 2v144q0 168 -17 254t-60 101l4 14q31 -4 94 -4q77 0 136 8l3 -23q-71 -17 -99 -20q-13 -98 -13 -261v-59
q0 -187 13 -261q51 -6 96 -18l-4 -25q-53 8 -126 8q-34 0 -67 -3q0 69 -301 538l-4 -2v-168q0 -255 37 -330q55 -5 109 -19l-2 -24q-74 8 -156 8q-91 0 -144 -8l-4 25q45 14 96 21q11 82 11 258v59q0 162 -13 258q-51 7 -96 21l4 25q50 -8 160 -8z" />
    <glyph glyph-name="nacute" unicode="&#x144;" horiz-adv-x="547" 
d="M413 0q-19 0 -49 -2v14q16 78 20 257q2 18 0.5 41.5t-4.5 44t-13.5 34.5t-27.5 14q-39 0 -92 -49t-71 -91q0 -145 11 -233q28 -6 63 -19l-2 -19q-56 8 -105 8q-51 0 -102 -6l-3 19q30 13 59 20q9 68 9 157v84q0 92 -7 163q-24 8 -54 8v21q64 3 135 19l7 -4
q-11 -69 -11 -156l4 -1q34 47 88.5 96.5t98.5 64.5q30 0 50 -14t28.5 -40.5t11 -53t1.5 -63.5l-5 -281q29 -7 59 -20l-3 -19q-48 6 -96 6zM428 634l-189 -109l-11 18q37 25 72.5 67t59.5 84q26 2 43 -1q7 -8 15.5 -28.5t9.5 -30.5z" />
    <glyph glyph-name="Ncaron" unicode="&#x147;" horiz-adv-x="706" 
d="M360 810l161 75l10 -19q-92 -58 -161 -151h-20q-69 93 -161 151l10 19zM185 651q49 0 93 6l5 -16q-12 -4 -23 -12.5t-11 -18.5q0 -24 51 -112t224 -358l4 2v144q0 168 -17 254t-60 101l4 14q31 -4 94 -4q77 0 136 8l3 -23q-71 -17 -99 -20q-13 -98 -13 -261v-59
q0 -187 13 -261q51 -6 96 -18l-4 -25q-53 8 -126 8q-34 0 -67 -3q0 69 -301 538l-4 -2v-168q0 -255 37 -330q55 -5 109 -19l-2 -24q-74 8 -156 8q-91 0 -144 -8l-4 25q45 14 96 21q11 82 11 258v59q0 162 -13 258q-51 7 -96 21l4 25q50 -8 160 -8z" />
    <glyph glyph-name="ncaron" unicode="&#x148;" horiz-adv-x="547" 
d="M413 0q-19 0 -49 -2v14q16 78 20 257q2 18 0.5 41.5t-4.5 44t-13.5 34.5t-27.5 14q-39 0 -92 -49t-71 -91q0 -145 11 -233q28 -6 63 -19l-2 -19q-56 8 -105 8q-51 0 -102 -6l-3 19q30 13 59 20q9 68 9 157v84q0 92 -7 163q-24 8 -54 8v21q64 3 135 19l7 -4
q-11 -69 -11 -156l4 -1q34 47 88.5 96.5t98.5 64.5q30 0 50 -14t28.5 -40.5t11 -53t1.5 -63.5l-5 -281q29 -7 59 -20l-3 -19q-48 6 -96 6zM146 705l134 -90l134 90l13 -17q-84 -71 -137 -168h-20q-53 97 -137 168z" />
    <glyph glyph-name="Omacron" unicode="&#x14c;" horiz-adv-x="602" 
d="M42 265q0 139 74.5 253.5t196.5 147.5q122 0 184.5 -73t62.5 -206q0 -138 -68.5 -246.5t-190.5 -155.5q-117 0 -188 77.5t-71 202.5zM280 594q-60 0 -98 -34q-51 -90 -51 -221q0 -70 19.5 -132t64.5 -106t107 -44q59 0 99 35q50 92 50 218q0 59 -9.5 107t-30.5 89.5
t-59.5 64.5t-91.5 23zM458 822l-9 -46l-256 -3l-9 6l9 50l45 -3q50 -3 104 -3q63 0 108 4z" />
    <glyph glyph-name="omacron" unicode="&#x14d;" horiz-adv-x="488" 
d="M45 190q0 102 57.5 186.5t151.5 108.5q93 0 141 -54t48 -151q0 -93 -56 -177t-143 -118q-87 0 -143 58.5t-56 146.5zM227 423q-42 0 -69 -24q-33 -63 -33 -154q0 -73 37 -135.5t99 -62.5q42 0 70 25q32 61 32 153q0 83 -33.5 140.5t-102.5 57.5zM396 634l-9 -46l-256 -3
l-9 6l9 50l45 -3q50 -3 104 -3q63 0 108 4z" />
    <glyph glyph-name="Obreve" unicode="&#x14e;" horiz-adv-x="602" 
d="M42 265q0 139 74.5 253.5t196.5 147.5q122 0 184.5 -73t62.5 -206q0 -138 -68.5 -246.5t-190.5 -155.5q-117 0 -188 77.5t-71 202.5zM280 594q-60 0 -98 -34q-51 -90 -51 -221q0 -70 19.5 -132t64.5 -106t107 -44q59 0 99 35q50 92 50 218q0 59 -9.5 107t-30.5 89.5
t-59.5 64.5t-91.5 23zM164 829l1 9q43 2 71 16h4q14 -33 45 -51t69 -18q70 0 107 69l18 -11q-21 -43 -58 -76t-81 -48q-49 0 -103 33t-73 77z" />
    <glyph glyph-name="obreve" unicode="&#x14f;" horiz-adv-x="488" 
d="M45 190q0 102 57.5 186.5t151.5 108.5q93 0 141 -54t48 -151q0 -93 -56 -177t-143 -118q-87 0 -143 58.5t-56 146.5zM227 423q-42 0 -69 -24q-33 -63 -33 -154q0 -73 37 -135.5t99 -62.5q42 0 70 25q32 61 32 153q0 83 -33.5 140.5t-102.5 57.5zM102 658l1 9q43 2 71 16
h4q14 -33 45 -51t69 -18q70 0 107 69l18 -11q-21 -43 -58 -76t-81 -48q-49 0 -103 33t-73 77z" />
    <glyph glyph-name="Ohungarumlaut" unicode="&#x150;" horiz-adv-x="602" 
d="M42 265q0 139 74.5 253.5t196.5 147.5q122 0 184.5 -73t62.5 -206q0 -138 -68.5 -246.5t-190.5 -155.5q-117 0 -188 77.5t-71 202.5zM280 594q-60 0 -98 -34q-51 -90 -51 -221q0 -70 19.5 -132t64.5 -106t107 -44q59 0 99 35q50 92 50 218q0 59 -9.5 107t-30.5 89.5
t-59.5 64.5t-91.5 23zM402 807l-191 -85l-8 20q82 36 157 126q8 -1 27 -5q15 -27 15 -56zM571 807l-191 -85l-8 20q82 36 157 126q8 -1 27 -5q15 -27 15 -56z" />
    <glyph glyph-name="ohungarumlaut" unicode="&#x151;" horiz-adv-x="488" 
d="M45 190q0 102 57.5 186.5t151.5 108.5q93 0 141 -54t48 -151q0 -93 -56 -177t-143 -118q-87 0 -143 58.5t-56 146.5zM227 423q-42 0 -69 -24q-33 -63 -33 -154q0 -73 37 -135.5t99 -62.5q42 0 70 25q32 61 32 153q0 83 -33.5 140.5t-102.5 57.5zM495 644l-179 -119
l-11 18q37 25 72.5 67t59.5 84q20 2 33 -1q18 -22 25 -49zM334 644l-179 -119l-11 18q37 25 72.5 67t59.5 84q20 2 33 -1q18 -22 25 -49z" />
    <glyph glyph-name="OE" unicode="&#x152;" horiz-adv-x="825" 
d="M547 651q137 0 253 11l4 -20q-52 -53 -59 -158h-25q-9 43 -9 109q-43 21 -108 21q-49 0 -76 -5q-7 -22 -12 -60q-8 -70 -13 -184q31 -7 77 -7q89 0 109 43l20 -4q-9 -32 -9 -77q0 -44 6 -87l-23 -4q-15 38 -20 89q-38 3 -83 3q-44 0 -78 -5v-43q0 -39 2.5 -67.5t11.5 -57
t23.5 -46t39.5 -28t60 -10.5q69 0 147 78l14 -13q-83 -110 -183 -144q-124 0 -170 96h-4q-73 -74 -188 -96q-99 17 -155.5 88.5t-56.5 173.5q0 101 45 192t126.5 151.5t180.5 71.5q24 0 69 -5.5t84 -5.5zM431 577q-53 23 -106 23q-54 0 -84 -22q-100 -99 -100 -297
q0 -94 45.5 -162.5t126.5 -68.5q48 0 77 21q18 24 23.5 59.5t5.5 121.5q0 85 6 195.5t6 129.5z" />
    <glyph glyph-name="oe" unicode="&#x153;" horiz-adv-x="732" 
d="M45 190q0 102 57.5 186.5t151.5 108.5q119 0 162 -98h4q56 75 138 98q67 0 94 -26.5t27 -93.5q0 -38 -10 -65q21 -8 49 -8l-1 -21q-116 2 -281 -33q0 -40 4 -69t14.5 -56t33 -41.5t56.5 -14.5q63 0 123 53l11 -10q-57 -78 -146 -115q-118 0 -158 102h-4
q-49 -72 -126 -102q-87 0 -143 58.5t-56 146.5zM227 423q-42 0 -69 -24q-33 -63 -33 -154q0 -73 37 -135.5t99 -62.5q35 0 63 25q32 61 32 153q0 84 -31 141t-98 57zM465 399q-27 -56 -29 -135q82 27 163 41q0 66 -12.5 92t-55.5 26q-37 0 -66 -24z" />
    <glyph glyph-name="Racute" unicode="&#x154;" horiz-adv-x="619" 
d="M131 35q13 96 13 290q0 189 -11 283q-48 16 -98 16v25q50 0 155.5 4.5t132.5 4.5q101 0 152 -33t51 -121q0 -122 -125 -170l140 -296q51 -7 96 -21l-4 -25q-59 8 -141 8q-55 0 -86 -4l-4 14q17 17 17 57q0 80 -94 255q-25 5 -58 5l3 22h12q72 0 111 35.5t39 104.5
q0 67 -30.5 99.5t-95.5 32.5q-40 0 -76 -13q-9 -94 -9 -283q0 -212 11 -287q51 -7 96 -21l-4 -25q-53 8 -144 8q-82 0 -156 -8l-3 24q57 14 110 19zM487 797l-206 -75l-8 20q82 36 157 126q22 -2 42 -9q5 -9 10.5 -30.5t4.5 -31.5z" />
    <glyph glyph-name="racute" unicode="&#x155;" horiz-adv-x="381" 
d="M176 263q0 -145 11 -233q50 -7 84 -19l-2 -19q-51 8 -115 8q-56 0 -113 -6l-3 19q30 13 59 20q9 68 9 157v84q0 92 -7 163q-24 8 -54 8v21q64 3 135 19l7 -4q-11 -69 -11 -156l4 -1q14 40 51.5 92.5t69.5 68.5q45 0 88 -16v-14q-38 -48 -43 -125h-22q0 39 -2 61
q-13 10 -34 10q-30 0 -63.5 -47.5t-48.5 -90.5zM376 634l-189 -109l-11 18q37 25 72.5 67t59.5 84q26 2 43 -1q7 -8 15.5 -28.5t9.5 -30.5z" />
    <glyph glyph-name="Rcommaaccent" unicode="&#x156;" horiz-adv-x="619" 
d="M131 35q13 96 13 290q0 189 -11 283q-48 16 -98 16v25q50 0 155.5 4.5t132.5 4.5q101 0 152 -33t51 -121q0 -122 -125 -170l140 -296q51 -7 96 -21l-4 -25q-59 8 -141 8q-55 0 -86 -4l-4 14q17 17 17 57q0 80 -94 255q-25 5 -58 5l3 22h12q72 0 111 35.5t39 104.5
q0 67 -30.5 99.5t-95.5 32.5q-40 0 -76 -13q-9 -94 -9 -283q0 -212 11 -287q51 -7 96 -21l-4 -25q-53 8 -144 8q-82 0 -156 -8l-3 24q57 14 110 19zM379 -84q-5 -79 -106 -131l-10 13q42 31 48 68q-26 24 -40 50q6 12 23 27.5t31 22.5q13 -8 30 -23.5t24 -26.5z" />
    <glyph glyph-name="rcommaaccent" unicode="&#x157;" horiz-adv-x="381" 
d="M176 263q0 -145 11 -233q50 -7 84 -19l-2 -19q-51 8 -115 8q-56 0 -113 -6l-3 19q30 13 59 20q9 68 9 157v84q0 92 -7 163q-24 8 -54 8v21q64 3 135 19l7 -4q-11 -69 -11 -156l4 -1q14 40 51.5 92.5t69.5 68.5q45 0 88 -16v-14q-38 -48 -43 -125h-22q0 39 -2 61
q-13 10 -34 10q-30 0 -63.5 -47.5t-48.5 -90.5zM205 -84q-5 -79 -106 -131l-10 13q42 31 48 68q-26 24 -40 50q6 12 23 27.5t31 22.5q13 -8 30 -23.5t24 -26.5z" />
    <glyph glyph-name="Rcaron" unicode="&#x158;" horiz-adv-x="619" 
d="M306 810l161 75l10 -19q-92 -58 -161 -151h-20q-69 93 -161 151l10 19zM131 35q13 96 13 290q0 189 -11 283q-48 16 -98 16v25q50 0 155.5 4.5t132.5 4.5q101 0 152 -33t51 -121q0 -122 -125 -170l140 -296q51 -7 96 -21l-4 -25q-59 8 -141 8q-55 0 -86 -4l-4 14
q17 17 17 57q0 80 -94 255q-25 5 -58 5l3 22h12q72 0 111 35.5t39 104.5q0 67 -30.5 99.5t-95.5 32.5q-40 0 -76 -13q-9 -94 -9 -283q0 -212 11 -287q51 -7 96 -21l-4 -25q-53 8 -144 8q-82 0 -156 -8l-3 24q57 14 110 19z" />
    <glyph glyph-name="rcaron" unicode="&#x159;" horiz-adv-x="381" 
d="M176 263q0 -145 11 -233q50 -7 84 -19l-2 -19q-51 8 -115 8q-56 0 -113 -6l-3 19q30 13 59 20q9 68 9 157v84q0 92 -7 163q-24 8 -54 8v21q64 3 135 19l7 -4q-11 -69 -11 -156l4 -1q14 40 51.5 92.5t69.5 68.5q45 0 88 -16v-14q-38 -48 -43 -125h-22q0 39 -2 61
q-13 10 -34 10q-30 0 -63.5 -47.5t-48.5 -90.5zM95 705l134 -90l134 90l13 -17q-84 -71 -137 -168h-20q-53 97 -137 168z" />
    <glyph glyph-name="Sacute" unicode="&#x15a;" horiz-adv-x="465" 
d="M417 797l-206 -75l-8 20q82 36 157 126q22 -2 42 -9q5 -9 10.5 -30.5t4.5 -31.5zM116 87q57 -23 114 -23t90.5 26.5t33.5 77.5q0 30 -43 67.5t-95 67.5t-95 68.5t-43 70.5q0 70 64.5 135.5t141.5 88.5q86 0 163 -17v-20q-52 -48 -58 -148h-25q0 53 -5 93q-43 20 -101 20
q-47 0 -80 -22t-33 -63q0 -30 43 -67t94.5 -66.5t94.5 -67.5t43 -70q0 -73 -64.5 -148t-140.5 -105q-79 0 -147 18q-21 -10 -42 -30l-15 14q69 73 77 193h25v-14.5t0.5 -17.5t0.5 -18t0.5 -17t1 -14t0.5 -9v-3z" />
    <glyph glyph-name="sacute" unicode="&#x15b;" horiz-adv-x="391" 
d="M95 64q46 -17 90 -17q38 0 65.5 18t27.5 60q0 18 -33 41.5t-72 43.5t-72 48.5t-33 55.5q0 53 56.5 106.5t106.5 64.5q64 0 124 -16v-14q-39 -48 -43 -105h-22q0 39 -2 61q-39 12 -76 12q-33 0 -60.5 -13.5t-27.5 -43.5q0 -18 33 -42t72 -43.5t72 -48.5t33 -56
q0 -61 -55.5 -117.5t-112.5 -73.5q-72 0 -138 21v14q39 48 43 105h22v-14.5t0.5 -16.5t1 -15t0.5 -11v-4zM377 634l-189 -109l-11 18q37 25 72.5 67t59.5 84q26 2 43 -1q7 -8 15.5 -28.5t9.5 -30.5z" />
    <glyph glyph-name="Scircumflex" unicode="&#x15c;" horiz-adv-x="465" 
d="M434 715l-161 75l-161 -75l-10 19q92 58 161 151h20q69 -93 161 -151zM116 87q57 -23 114 -23t90.5 26.5t33.5 77.5q0 30 -43 67.5t-95 67.5t-95 68.5t-43 70.5q0 70 64.5 135.5t141.5 88.5q86 0 163 -17v-20q-52 -48 -58 -148h-25q0 53 -5 93q-43 20 -101 20
q-47 0 -80 -22t-33 -63q0 -30 43 -67t94.5 -66.5t94.5 -67.5t43 -70q0 -73 -64.5 -148t-140.5 -105q-79 0 -147 18q-21 -10 -42 -30l-15 14q69 73 77 193h25v-14.5t0.5 -17.5t0.5 -18t0.5 -17t1 -14t0.5 -9v-3z" />
    <glyph glyph-name="scircumflex" unicode="&#x15d;" horiz-adv-x="391" 
d="M95 64q46 -17 90 -17q38 0 65.5 18t27.5 60q0 18 -33 41.5t-72 43.5t-72 48.5t-33 55.5q0 53 56.5 106.5t106.5 64.5q64 0 124 -16v-14q-39 -48 -43 -105h-22q0 39 -2 61q-39 12 -76 12q-33 0 -60.5 -13.5t-27.5 -43.5q0 -18 33 -42t72 -43.5t72 -48.5t33 -56
q0 -61 -55.5 -117.5t-112.5 -73.5q-72 0 -138 21v14q39 48 43 105h22v-14.5t0.5 -16.5t1 -15t0.5 -11v-4zM231 612l-134 -90l-13 17q84 71 137 168h20q53 -97 137 -168l-13 -17z" />
    <glyph glyph-name="Scedilla" unicode="&#x15e;" horiz-adv-x="465" 
d="M116 87q57 -23 114 -23t90.5 26.5t33.5 77.5q0 30 -43 67.5t-95 67.5t-95 68.5t-43 70.5q0 70 64.5 135.5t141.5 88.5q86 0 163 -17v-20q-52 -48 -58 -148h-25q0 53 -5 93q-43 20 -101 20q-47 0 -80 -22t-33 -63q0 -30 43 -67t94.5 -66.5t94.5 -67.5t43 -70
q0 -73 -64.5 -148t-140.5 -105q-79 0 -147 18q-21 -10 -42 -30l-15 14q69 73 77 193h25v-14.5t0.5 -17.5t0.5 -18t0.5 -17t1 -14t0.5 -9v-3zM166 -97l-6 4l38 107l29 2l-24 -62l4 -3q46 0 74.5 -21t28.5 -63q-14 -27 -40.5 -49.5t-55.5 -32.5q-44 0 -88 21q10 19 16 39l4 2
q32 -25 68 -25q18 0 26 5q9 13 9 31q0 45 -83 45z" />
    <glyph glyph-name="scedilla" unicode="&#x15f;" horiz-adv-x="391" 
d="M95 64q46 -17 90 -17q38 0 65.5 18t27.5 60q0 18 -33 41.5t-72 43.5t-72 48.5t-33 55.5q0 53 56.5 106.5t106.5 64.5q64 0 124 -16v-14q-39 -48 -43 -105h-22q0 39 -2 61q-39 12 -76 12q-33 0 -60.5 -13.5t-27.5 -43.5q0 -18 33 -42t72 -43.5t72 -48.5t33 -56
q0 -61 -55.5 -117.5t-112.5 -73.5q-72 0 -138 21v14q39 48 43 105h22v-14.5t0.5 -16.5t1 -15t0.5 -11v-4zM128 -97l-6 4l38 107l29 2l-24 -62l4 -3q46 0 74.5 -21t28.5 -63q-14 -27 -40.5 -49.5t-55.5 -32.5q-44 0 -88 21q10 19 16 39l4 2q32 -25 68 -25q18 0 26 5
q9 13 9 31q0 45 -83 45z" />
    <glyph glyph-name="Scaron" unicode="&#x160;" horiz-adv-x="465" 
d="M273 810l161 75l10 -19q-92 -58 -161 -151h-20q-69 93 -161 151l10 19zM116 87q57 -23 114 -23t90.5 26.5t33.5 77.5q0 30 -43 67.5t-95 67.5t-95 68.5t-43 70.5q0 70 64.5 135.5t141.5 88.5q86 0 163 -17v-20q-52 -48 -58 -148h-25q0 53 -5 93q-43 20 -101 20
q-47 0 -80 -22t-33 -63q0 -30 43 -67t94.5 -66.5t94.5 -67.5t43 -70q0 -73 -64.5 -148t-140.5 -105q-79 0 -147 18q-21 -10 -42 -30l-15 14q69 73 77 193h25v-14.5t0.5 -17.5t0.5 -18t0.5 -17t1 -14t0.5 -9v-3z" />
    <glyph glyph-name="scaron" unicode="&#x161;" horiz-adv-x="391" 
d="M95 64q46 -17 90 -17q38 0 65.5 18t27.5 60q0 18 -33 41.5t-72 43.5t-72 48.5t-33 55.5q0 53 56.5 106.5t106.5 64.5q64 0 124 -16v-14q-39 -48 -43 -105h-22q0 39 -2 61q-39 12 -76 12q-33 0 -60.5 -13.5t-27.5 -43.5q0 -18 33 -42t72 -43.5t72 -48.5t33 -56
q0 -61 -55.5 -117.5t-112.5 -73.5q-72 0 -138 21v14q39 48 43 105h22v-14.5t0.5 -16.5t1 -15t0.5 -11v-4zM96 705l134 -90l134 90l13 -17q-84 -71 -137 -168h-20q-53 97 -137 168z" />
    <glyph glyph-name="Tcedilla" unicode="&#x162;" horiz-adv-x="519" 
d="M544 662l4 -20q-33 -35 -44.5 -69t-14.5 -89h-25q-9 43 -9 109q-43 21 -103 21q-27 0 -44 -5q-10 -68 -10 -254q0 -224 13 -320q50 -5 110 -19l-3 -24q-74 8 -156 8q-91 0 -144 -8l-4 25q45 14 96 21q11 82 11 258v59q0 103 -13 254q-17 5 -43 5q-58 0 -100 -18
q-13 -42 -20 -112h-25q-4 107 -33 158l6 20q96 -11 266 -11q189 0 285 11zM224 -97l-6 4l38 107l29 2l-24 -62l4 -3q46 0 74.5 -21t28.5 -63q-14 -27 -40.5 -49.5t-55.5 -32.5q-44 0 -88 21q10 19 16 39l4 2q32 -25 68 -25q18 0 26 5q9 13 9 31q0 45 -83 45z" />
    <glyph glyph-name="tcedilla" unicode="&#x163;" horiz-adv-x="344" 
d="M177 471l140 5l4 -4q-7 -18 -13 -47q-51 3 -134 3l-4 -198q-4 -173 30 -173q55 0 114 53l10 -10q-58 -81 -141 -115q-57 0 -73.5 52t-13.5 193l4 199h-54l-2 2q0 16 3 22q84 55 110 114q12 3 28 3l4 -2q-10 -60 -12 -97zM148 -97l-6 4l38 107l29 2l-24 -62l4 -3
q46 0 74.5 -21t28.5 -63q-14 -27 -40.5 -49.5t-55.5 -32.5q-44 0 -88 21q10 19 16 39l4 2q32 -25 68 -25q18 0 26 5q9 13 9 31q0 45 -83 45z" />
    <glyph glyph-name="Tcaron" unicode="&#x164;" horiz-adv-x="519" 
d="M264 810l161 75l10 -19q-92 -58 -161 -151h-20q-69 93 -161 151l10 19zM544 662l4 -20q-33 -35 -44.5 -69t-14.5 -89h-25q-9 43 -9 109q-43 21 -103 21q-27 0 -44 -5q-10 -68 -10 -254q0 -224 13 -320q50 -5 110 -19l-3 -24q-74 8 -156 8q-91 0 -144 -8l-4 25
q45 14 96 21q11 82 11 258v59q0 103 -13 254q-17 5 -43 5q-58 0 -100 -18q-13 -42 -20 -112h-25q-4 107 -33 158l6 20q96 -11 266 -11q189 0 285 11z" />
    <glyph glyph-name="Tbar" unicode="&#x166;" horiz-adv-x="519" 
d="M544 662l4 -20q-33 -35 -44.5 -69t-14.5 -89h-25q-9 43 -9 109q-43 21 -103 21q-27 0 -44 -5q-10 -64 -10 -238l39 2q63 3 84 5q4 -20 9 -31v-5l-132 -2q0 -211 13 -305q50 -5 110 -19l-3 -24q-74 8 -156 8q-91 0 -144 -8l-4 25q45 14 96 21q11 82 11 258v42h-11
q-72 -2 -118 -9l-3 4q6 20 7 32l125 4q-1 73 -13 240q-17 5 -43 5q-58 0 -100 -18q-13 -42 -20 -112h-25q-4 107 -33 158l6 20q96 -11 266 -11q189 0 285 11z" />
    <glyph glyph-name="tbar" unicode="&#x167;" horiz-adv-x="344" 
d="M177 471l140 5l4 -4q-7 -18 -13 -47q-51 3 -134 3l-3 -123l52 2q65 3 85 5q4 -20 9 -31v-5l-146 -2l-1 -44q-4 -173 30 -173q55 0 114 53l10 -10q-58 -81 -141 -115q-57 0 -73.5 52t-13.5 193l1 40q-29 -1 -50 -5l-3 4q6 20 7 32l46 1l3 127h-54l-2 2q0 16 3 22
q84 55 110 114q12 3 28 3l4 -2q-10 -60 -12 -97z" />
    <glyph glyph-name="Utilde" unicode="&#x168;" horiz-adv-x="665" 
d="M197 549q-14 -126 -14 -273q0 -40 3 -69.5t12 -57.5t24.5 -46t41.5 -28.5t62 -10.5q74 0 127 48q5 130 5 212q0 178 -11 292q-51 7 -96 21l4 22q61 -8 142 -8q94 0 158 8l3 -21q-57 -14 -110 -19q-13 -74 -13 -264v-59q0 -187 13 -261q53 -5 110 -19l-3 -24q-64 8 -156 8
q-40 0 -58 -1l-3 14q9 11 13 71q-58 -65 -146 -99q-111 0 -156.5 65.5t-45.5 190.5q0 57 7 181t7 136q0 34 -7 55q-51 7 -96 21l4 25q59 -8 141 -8q55 0 86 4l4 -14q-45 -25 -52 -92zM190 753l-18 11q56 61 128 82q59 -31 119 -31q45 0 65 24l18 -11q-56 -61 -104 -82
q-21 0 -72.5 15.5t-72.5 15.5q-43 0 -63 -24z" />
    <glyph glyph-name="utilde" unicode="&#x169;" horiz-adv-x="542" 
d="M170 485l7 -4q-16 -97 -19 -280q-2 -18 -0.5 -41.5t4.5 -44t13.5 -34.5t27.5 -14q39 0 92 49t71 91q0 145 -11 233q-28 6 -63 19l2 19q56 -8 105 -8q51 0 102 6l3 -19q-30 -13 -59 -20q-9 -68 -9 -157v-84q0 -92 7 -163q24 -8 54 -8v-21q-64 -3 -135 -19l-7 2
q11 69 11 158l-4 1q-34 -47 -88.5 -96.5t-98.5 -64.5q-30 0 -50 14t-28.5 40.5t-11 53t-1.5 63.5l5 281q-24 8 -54 8v21q64 3 135 19zM137 570l-18 11q56 61 128 82q59 -31 119 -31q45 0 65 24l18 -11q-56 -61 -104 -82q-21 0 -72.5 15.5t-72.5 15.5q-43 0 -63 -24z" />
    <glyph glyph-name="Umacron" unicode="&#x16a;" horiz-adv-x="665" 
d="M197 549q-14 -126 -14 -273q0 -40 3 -69.5t12 -57.5t24.5 -46t41.5 -28.5t62 -10.5q74 0 127 48q5 130 5 212q0 178 -11 292q-51 7 -96 21l4 22q61 -8 142 -8q94 0 158 8l3 -21q-57 -14 -110 -19q-13 -74 -13 -264v-59q0 -187 13 -261q53 -5 110 -19l-3 -24q-64 8 -156 8
q-40 0 -58 -1l-3 14q9 11 13 71q-58 -65 -146 -99q-111 0 -156.5 65.5t-45.5 190.5q0 57 7 181t7 136q0 34 -7 55q-51 7 -96 21l4 25q59 -8 141 -8q55 0 86 4l4 -14q-45 -25 -52 -92zM480 822l-9 -46l-256 -3l-9 6l9 50l45 -3q49 -3 104 -3q63 0 108 4z" />
    <glyph glyph-name="umacron" unicode="&#x16b;" horiz-adv-x="542" 
d="M170 485l7 -4q-16 -97 -19 -280q-2 -18 -0.5 -41.5t4.5 -44t13.5 -34.5t27.5 -14q39 0 92 49t71 91q0 145 -11 233q-28 6 -63 19l2 19q56 -8 105 -8q51 0 102 6l3 -19q-30 -13 -59 -20q-9 -68 -9 -157v-84q0 -92 7 -163q24 -8 54 -8v-21q-64 -3 -135 -19l-7 2
q11 69 11 158l-4 1q-34 -47 -88.5 -96.5t-98.5 -64.5q-30 0 -50 14t-28.5 40.5t-11 53t-1.5 63.5l5 281q-24 8 -54 8v21q64 3 135 19zM421 634l-9 -46l-256 -3l-9 6l9 50l45 -3q50 -3 104 -3q63 0 108 4z" />
    <glyph glyph-name="Ubreve" unicode="&#x16c;" horiz-adv-x="665" 
d="M197 549q-14 -126 -14 -273q0 -40 3 -69.5t12 -57.5t24.5 -46t41.5 -28.5t62 -10.5q74 0 127 48q5 130 5 212q0 178 -11 292q-51 7 -96 21l4 22q61 -8 142 -8q94 0 158 8l3 -21q-57 -14 -110 -19q-13 -74 -13 -264v-59q0 -187 13 -261q53 -5 110 -19l-3 -24q-64 8 -156 8
q-40 0 -58 -1l-3 14q9 11 13 71q-58 -65 -146 -99q-111 0 -156.5 65.5t-45.5 190.5q0 57 7 181t7 136q0 34 -7 55q-51 7 -96 21l4 25q59 -8 141 -8q55 0 86 4l4 -14q-45 -25 -52 -92zM186 829l1 9q43 2 71 16h4q14 -33 45 -51t69 -18q70 0 107 69l18 -11q-21 -43 -58 -76
t-81 -48q-49 0 -103 33t-73 77z" />
    <glyph glyph-name="ubreve" unicode="&#x16d;" horiz-adv-x="542" 
d="M170 485l7 -4q-16 -97 -19 -280q-2 -18 -0.5 -41.5t4.5 -44t13.5 -34.5t27.5 -14q39 0 92 49t71 91q0 145 -11 233q-28 6 -63 19l2 19q56 -8 105 -8q51 0 102 6l3 -19q-30 -13 -59 -20q-9 -68 -9 -157v-84q0 -92 7 -163q24 -8 54 -8v-21q-64 -3 -135 -19l-7 2
q11 69 11 158l-4 1q-34 -47 -88.5 -96.5t-98.5 -64.5q-30 0 -50 14t-28.5 40.5t-11 53t-1.5 63.5l5 281q-24 8 -54 8v21q64 3 135 19zM128 658l1 9q43 2 71 16h4q14 -33 45 -51t69 -18q70 0 107 69l18 -11q-21 -43 -58 -76t-81 -48q-49 0 -103 33t-73 77z" />
    <glyph glyph-name="Uring" unicode="&#x16e;" horiz-adv-x="665" 
d="M197 549q-14 -126 -14 -273q0 -40 3 -69.5t12 -57.5t24.5 -46t41.5 -28.5t62 -10.5q74 0 127 48q5 130 5 212q0 178 -11 292q-51 7 -96 21l4 22q61 -8 142 -8q94 0 158 8l3 -21q-57 -14 -110 -19q-13 -74 -13 -264v-59q0 -187 13 -261q53 -5 110 -19l-3 -24q-64 8 -156 8
q-40 0 -58 -1l-3 14q9 11 13 71q-58 -65 -146 -99q-111 0 -156.5 65.5t-45.5 190.5q0 57 7 181t7 136q0 34 -7 55q-51 7 -96 21l4 25q59 -8 141 -8q55 0 86 4l4 -14q-45 -25 -52 -92zM238 777q0 40 29.5 69.5t72.5 38.5q91 0 91 -74q0 -39 -26.5 -66.5t-69.5 -40.5
q-41 0 -69 19t-28 54zM326 850q-20 0 -30 -9q-11 -17 -11 -43t16 -42.5t42 -16.5q19 0 30 9q11 16 11 43t-15.5 43t-42.5 16z" />
    <glyph glyph-name="uring" unicode="&#x16f;" horiz-adv-x="542" 
d="M170 485l7 -4q-16 -97 -19 -280q-2 -18 -0.5 -41.5t4.5 -44t13.5 -34.5t27.5 -14q39 0 92 49t71 91q0 145 -11 233q-28 6 -63 19l2 19q56 -8 105 -8q51 0 102 6l3 -19q-30 -13 -59 -20q-9 -68 -9 -157v-84q0 -92 7 -163q24 -8 54 -8v-21q-64 -3 -135 -19l-7 2
q11 69 11 158l-4 1q-34 -47 -88.5 -96.5t-98.5 -64.5q-30 0 -50 14t-28.5 40.5t-11 53t-1.5 63.5l5 281q-24 8 -54 8v21q64 3 135 19zM187 598q0 40 29.5 69.5t72.5 38.5q91 0 91 -74q0 -39 -26.5 -66.5t-69.5 -40.5q-41 0 -69 19t-28 54zM275 671q-19 0 -30 -9
q-11 -16 -11 -43q0 -26 16 -42.5t42 -16.5q20 0 30 9q11 17 11 43q0 27 -15.5 43t-42.5 16z" />
    <glyph glyph-name="Uhungarumlaut" unicode="&#x170;" horiz-adv-x="665" 
d="M197 549q-14 -126 -14 -273q0 -40 3 -69.5t12 -57.5t24.5 -46t41.5 -28.5t62 -10.5q74 0 127 48q5 130 5 212q0 178 -11 292q-51 7 -96 21l4 22q61 -8 142 -8q94 0 158 8l3 -21q-57 -14 -110 -19q-13 -74 -13 -264v-59q0 -187 13 -261q53 -5 110 -19l-3 -24q-64 8 -156 8
q-40 0 -58 -1l-3 14q9 11 13 71q-58 -65 -146 -99q-111 0 -156.5 65.5t-45.5 190.5q0 57 7 181t7 136q0 34 -7 55q-51 7 -96 21l4 25q59 -8 141 -8q55 0 86 4l4 -14q-45 -25 -52 -92zM404 807l-191 -85l-8 20q82 36 157 126q8 -1 27 -5q15 -27 15 -56zM573 807l-191 -85
l-8 20q82 36 157 126q8 -1 27 -5q15 -27 15 -56z" />
    <glyph glyph-name="uhungarumlaut" unicode="&#x171;" horiz-adv-x="542" 
d="M170 485l7 -4q-16 -97 -19 -280q-2 -18 -0.5 -41.5t4.5 -44t13.5 -34.5t27.5 -14q39 0 92 49t71 91q0 145 -11 233q-28 6 -63 19l2 19q56 -8 105 -8q51 0 102 6l3 -19q-30 -13 -59 -20q-9 -68 -9 -157v-84q0 -92 7 -163q24 -8 54 -8v-21q-64 -3 -135 -19l-7 2
q11 69 11 158l-4 1q-34 -47 -88.5 -96.5t-98.5 -64.5q-30 0 -50 14t-28.5 40.5t-11 53t-1.5 63.5l5 281q-24 8 -54 8v21q64 3 135 19zM490 644l-179 -119l-11 18q37 25 72.5 67t59.5 84q20 2 33 -1q18 -22 25 -49zM329 644l-179 -119l-11 18q37 25 72.5 67t59.5 84
q20 2 33 -1q18 -22 25 -49z" />
    <glyph glyph-name="Uogonek" unicode="&#x172;" horiz-adv-x="665" 
d="M197 549q-14 -126 -14 -273q0 -40 3 -69.5t12 -57.5t24.5 -46t41.5 -28.5t62 -10.5q74 0 127 48q5 130 5 212q0 178 -11 292q-51 7 -96 21l4 22q61 -8 142 -8q94 0 158 8l3 -21q-57 -14 -110 -19q-13 -74 -13 -264v-59q0 -187 13 -261q53 -5 110 -19l-3 -24q-28 4 -48 4
q-29 0 -56 -30.5t-27 -67.5q0 -62 66 -62q22 0 37 4v-9q-31 -21 -49 -46q-60 0 -90 23t-30 79q13 31 40.5 62.5t55.5 49.5q-16 1 -55 1q-40 0 -58 -1l-3 14q9 11 13 71q-58 -65 -146 -99q-111 0 -156.5 65.5t-45.5 190.5q0 57 7 181t7 136q0 34 -7 55q-51 7 -96 21l4 25
q59 -8 141 -8q55 0 86 4l4 -14q-45 -25 -52 -92z" />
    <glyph glyph-name="uogonek" unicode="&#x173;" horiz-adv-x="542" 
d="M170 485l7 -4q-16 -97 -19 -280q-2 -18 -0.5 -41.5t4.5 -44t13.5 -34.5t27.5 -14q39 0 92 49t71 91q0 145 -11 233q-28 6 -63 19l2 19q56 -8 105 -8q51 0 102 6l3 -19q-30 -13 -59 -20q-9 -68 -9 -157v-84q0 -92 7 -163q24 -8 54 -8v-21q-42 -1 -74 -9.5t-49 -20
t-27.5 -27t-13.5 -27t-3 -22.5q0 -62 66 -62q22 0 37 4v-9q-32 -21 -49 -46q-60 0 -90 23t-30 79q23 57 91 102q11 67 11 156l-4 1q-34 -47 -88.5 -96.5t-98.5 -64.5q-30 0 -50 14t-28.5 40.5t-11 53t-1.5 63.5l5 281q-24 8 -54 8v21q64 3 135 19z" />
    <glyph glyph-name="Wcircumflex" unicode="&#x174;" horiz-adv-x="906" 
d="M633 715l-161 75l-161 -75l-10 19q92 58 161 151h20q69 -93 161 -151zM330 34q17 -9 46 -17l-3 -21q-48 4 -91 4q-63 0 -94 -4l-4 14q12 4 23 12.5t11 18.5q0 73 -133 488q-18 55 -31 84q-57 10 -96 23l4 25q97 -10 334 -10q216 0 313 10l4 -25q-44 -14 -96 -23
q5 -35 5 -58q0 -34 -8 -77q38 -170 120 -409q74 187 97.5 283.5t23.5 165.5q0 94 -50 123l4 14q31 -4 86 -4q82 0 141 8l4 -25q-45 -14 -96 -21q5 -35 5 -58q0 -84 -41.5 -193t-150.5 -328q17 -9 46 -17l-3 -21q-48 4 -91 4q-63 0 -94 -4l-4 14q12 4 23 12.5t11 18.5
q0 59 -71 299h-4q-47 -121 -140 -306zM428 518q0 68 -25 88.5t-97 20.5q-83 0 -142 -18q9 -82 51.5 -243t91.5 -297q74 187 97.5 283.5t23.5 165.5z" />
    <glyph glyph-name="wcircumflex" unicode="&#x175;" horiz-adv-x="728" 
d="M680 445q8 -26 8 -50q0 -94 -51 -202.5t-122 -184.5q-25 -13 -56 -23q-46 11 -83 203q-47 -101 -120 -180q-25 -13 -56 -23q-17 4 -31.5 28t-35 103.5t-41.5 217.5q-11 68 -20 102q-24 8 -54 8v21q67 3 142 20l7 -4q-8 -28 -8 -58q0 -39 9 -93q19 -121 35 -187.5
t25 -81.5t19 -15q53 70 77.5 139.5t24.5 156.5q0 57 -18 94q-24 8 -54 8v21q59 -4 146 -4q181 0 301 30l4 -18q-13 -10 -48 -28zM587 434q-29 9 -56 9q-81 0 -113 -20q0 -39 9 -93q19 -121 35 -187.5t25 -81.5t19 -15q53 70 77.5 139.5t24.5 156.5q0 50 -21 92zM376 612
l-134 -90l-13 17q84 71 137 168h20q53 -97 137 -168l-13 -17z" />
    <glyph glyph-name="Ycircumflex" unicode="&#x176;" horiz-adv-x="545" 
d="M456 715l-161 75l-161 -75l-10 19q92 58 161 151h20q69 -93 161 -151zM171 616q47 -140 120 -279q111 217 111 272q0 22 -20 32l4 14q50 -4 83 -4q78 0 130 8l5 -25q-48 -15 -97 -21l-196 -315q0 -167 13 -263q53 -5 110 -19l-3 -24q-74 8 -156 8q-91 0 -144 -8l-4 25
q45 14 96 21q11 82 11 207v26l-127 266.5t-45 75.5q-56 7 -96 21l4 25q53 -8 148 -8q86 0 160 8l3 -24q-57 -14 -110 -19z" />
    <glyph glyph-name="ycircumflex" unicode="&#x177;" horiz-adv-x="530" 
d="M171 485l7 -4q-16 -97 -19 -280q-3 -134 42 -134q36 0 88.5 50.5t67.5 89.5q0 145 -11 233q-27 6 -63 19l2 19q56 -8 105 -8q51 0 102 6l3 -19q-30 -13 -59 -20q-9 -68 -9 -157v-84q0 -159 7 -230q-19 -55 -80 -107.5t-121 -73.5q-92 0 -168 29v13q37 44 42 112h21
q0 -39 2 -61q56 -31 128 -31q40 0 65 24q23 61 28.5 110.5t5.5 163.5l-4 1q-30 -45 -83 -95.5t-95 -65.5q-29 0 -48 14t-27.5 40.5t-11 53t-1.5 63.5l5 281q-24 8 -54 8v21q63 3 133 19zM272 612l-134 -90l-13 17q84 71 137 168h20q53 -97 137 -168l-13 -17z" />
    <glyph glyph-name="Ydieresis" unicode="&#x178;" horiz-adv-x="545" 
d="M171 616q47 -140 120 -279q111 217 111 272q0 22 -20 32l4 14q50 -4 83 -4q78 0 130 8l5 -25q-48 -15 -97 -21l-196 -315q0 -167 13 -263q53 -5 110 -19l-3 -24q-74 8 -156 8q-91 0 -144 -8l-4 25q45 14 96 21q11 82 11 207v26l-127 266.5t-45 75.5q-56 7 -96 21l4 25
q53 -8 148 -8q86 0 160 8l3 -24q-57 -14 -110 -19zM257 803q-7 -13 -24.5 -33t-29.5 -28q-12 8 -29.5 28t-24.5 33q6 12 23 27.5t31 22.5q13 -8 30 -23.5t24 -26.5zM442 803q-7 -13 -24.5 -33t-29.5 -28q-12 8 -29.5 28t-24.5 33q6 12 23 27.5t31 22.5q13 -8 30 -23.5
t24 -26.5z" />
    <glyph glyph-name="Zacute" unicode="&#x179;" horiz-adv-x="491" 
d="M415 797l-206 -75l-8 20q82 36 157 126q22 -2 42 -9q5 -9 10.5 -30.5t4.5 -31.5zM389 640q31 0 50 7.5t42 28.5l21 -16q-34 -33 -79 -111l-268 -476l4 -3h144q58 0 83 19q6 38 6 93h26q7 -113 79 -187l-19 -15q-8 10 -20 18q-142 23 -339 23q-81 0 -113 -38l-21 17
q50 50 90 118l284 469l-3 3h-135q-63 0 -107 -19q-11 -57 -25 -91l-24 4q2 38 2 58q0 49 -9 85q-16 9 -47 17l3 22q21 0 155.5 -13t219.5 -13z" />
    <glyph glyph-name="zacute" unicode="&#x17a;" horiz-adv-x="412" 
d="M142 89l2 -4q15 7 27 10q86 0 171 -20q10 22 23 58l21 -7q-11 -39 -11 -73q0 -31 7 -60l-12 -8q-154 46 -286 46q-31 -17 -60 -46l-17 15q32 32 73 90l209 295l-64 3q-111 4 -137 2q-20 -20 -37 -49l-19 11q29 53 36 126l13 7q25 -12 48 -16.5t103 -10.5l108 -9
q31 17 50 36l17 -15q-42 -42 -73 -90zM395 634l-189 -109l-11 18q37 25 72.5 67t59.5 84q26 2 43 -1q7 -8 15.5 -28.5t9.5 -30.5z" />
    <glyph glyph-name="Zdotaccent" unicode="&#x17b;" horiz-adv-x="491" 
d="M389 640q31 0 50 7.5t42 28.5l21 -16q-34 -33 -79 -111l-268 -476l4 -3h144q58 0 83 19q6 38 6 93h26q7 -113 79 -187l-19 -15q-8 10 -20 18q-142 23 -339 23q-81 0 -113 -38l-21 17q50 50 90 118l284 469l-3 3h-135q-63 0 -107 -19q-11 -57 -25 -91l-24 4q2 38 2 58
q0 49 -9 85q-16 9 -47 17l3 22q21 0 155.5 -13t219.5 -13zM337 803q-7 -13 -24.5 -33t-29.5 -28q-12 8 -29.5 28t-24.5 33q6 12 23 27.5t31 22.5q13 -8 30 -23.5t24 -26.5z" />
    <glyph glyph-name="zdotaccent" unicode="&#x17c;" horiz-adv-x="412" 
d="M142 89l2 -4q15 7 27 10q86 0 171 -20q10 22 23 58l21 -7q-11 -39 -11 -73q0 -31 7 -60l-12 -8q-154 46 -286 46q-31 -17 -60 -46l-17 15q32 32 73 90l209 295l-64 3q-111 4 -137 2q-20 -20 -37 -49l-19 11q29 53 36 126l13 7q25 -12 48 -16.5t103 -10.5l108 -9
q31 17 50 36l17 -15q-42 -42 -73 -90zM288 620q-7 -13 -24.5 -33t-29.5 -28q-12 8 -29.5 28t-24.5 33q6 12 23 27.5t31 22.5q13 -8 30 -23.5t24 -26.5z" />
    <glyph glyph-name="Zcaron" unicode="&#x17d;" horiz-adv-x="491" 
d="M282 810l161 75l10 -19q-92 -58 -161 -151h-20q-69 93 -161 151l10 19zM389 640q31 0 50 7.5t42 28.5l21 -16q-34 -33 -79 -111l-268 -476l4 -3h144q58 0 83 19q6 38 6 93h26q7 -113 79 -187l-19 -15q-8 10 -20 18q-142 23 -339 23q-81 0 -113 -38l-21 17q50 50 90 118
l284 469l-3 3h-135q-63 0 -107 -19q-11 -57 -25 -91l-24 4q2 38 2 58q0 49 -9 85q-16 9 -47 17l3 22q21 0 155.5 -13t219.5 -13z" />
    <glyph glyph-name="zcaron" unicode="&#x17e;" horiz-adv-x="412" 
d="M142 89l2 -4q15 7 27 10q86 0 171 -20q10 22 23 58l21 -7q-11 -39 -11 -73q0 -31 7 -60l-12 -8q-154 46 -286 46q-31 -17 -60 -46l-17 15q32 32 73 90l209 295l-64 3q-111 4 -137 2q-20 -20 -37 -49l-19 11q29 53 36 126l13 7q25 -12 48 -16.5t103 -10.5l108 -9
q31 17 50 36l17 -15q-42 -42 -73 -90zM99 705l134 -90l134 90l13 -17q-84 -71 -137 -168h-20q-53 97 -137 168z" />
    <glyph glyph-name="florin" unicode="&#x192;" horiz-adv-x="450" 
d="M258 77q-22 -68 -85 -130t-125 -62q-12 0 -21 7.5t-10 19.5q27 25 42 50l7 1q11 -10 39 -10q32 0 46 7q28 76 28 171l-1 125h-54l-2 2q0 16 3 22q13 5 53 17q10 78 64 145t128 96q44 0 90 -16v-14q-38 -47 -43 -115h-22q0 39 -2 61q-19 12 -49 12q-45 0 -70 -24
q-21 -56 -21 -144l142 5l4 -4q-7 -18 -13 -47q-51 3 -134 3q0 -113 6 -178z" />
    <glyph glyph-name="AEacute" unicode="&#x1fc;" horiz-adv-x="748" 
d="M614 797l-206 -75l-8 20q82 36 157 126q22 -2 42 -9q5 -9 10.5 -30.5t4.5 -31.5zM398 651q190 0 325 11l4 -20q-52 -53 -59 -158h-25q-9 43 -9 109q-43 21 -108 21q-48 0 -76 -5q-7 -22 -12 -60q-8 -70 -13 -184q32 -7 77 -7q89 0 109 43l20 -4q-9 -32 -9 -77
q0 -44 6 -87l-23 -4q-15 38 -20 89q-38 3 -83 3q-44 0 -78 -5v-43q0 -50 5 -84t18.5 -64.5t41.5 -45.5t71 -15q72 0 148 78l14 -13q-83 -110 -183 -144q-111 0 -155 69.5t-42 197.5l1 63q-31 6 -72 6q-51 0 -76 -6l-14 -46q-38 -126 -38 -178q0 -59 38 -81l-4 -14
q-31 4 -96 4q-82 0 -141 -8l-4 25q45 14 96 21l210 581q-56 6 -111 19l3 24q135 -11 264 -11zM285 611l-72 -247q23 -6 60 -6q47 0 72 7l4.5 81t4.5 72.5t2 39.5q0 37 -3 53q-13 3 -32 3t-36 -3z" />
    <glyph glyph-name="aeacute" unicode="&#x1fd;" horiz-adv-x="701" 
d="M54 156q0 120 68 213t180 116q72 -10 145 -44q40 31 87 44q67 0 94 -26.5t27 -93.5q0 -21 -4 -38q8 -2 14 -2q10 0 28 4l1 -20q-154 -27 -281 -101q4 -151 107 -151q63 0 123 53l11 -10q-57 -78 -146 -115q-132 0 -172 136q-36 -43 -89 -83t-99 -53q-48 8 -71 58.5
t-23 112.5zM199 413q-60 -99 -60 -232q0 -45 11.5 -82.5t40.5 -37.5q27 0 72 31t71 65q-2 14 -2 33q0 102 56 186v4q-66 49 -144 49q-26 0 -45 -16zM575 317q-1 59 -14 82.5t-54 23.5q-37 0 -66 -24q-27 -58 -29 -161q83 53 163 79zM588 634l-189 -109l-11 18q37 25 72.5 67
t59.5 84q26 2 43 -1q7 -8 15.5 -28.5t9.5 -30.5z" />
    <glyph glyph-name="Oslashacute" unicode="&#x1fe;" horiz-adv-x="602" 
d="M485 797l-206 -75l-8 20q82 36 157 126q22 -2 42 -9q5 -9 10.5 -30.5t4.5 -31.5zM42 265q0 139 74.5 253.5t196.5 147.5q44 0 83 -11l25 77q23 2 38 7l4 -3q-14 -32 -37 -91q134 -59 134 -258q0 -138 -68.5 -246.5t-190.5 -155.5q-60 0 -117 25l-36 -97h-5q-16 9 -26 24
l39 89q-54 36 -84 98t-30 141zM392 556l-175 -459q45 -40 105 -40q59 0 99 35q50 92 50 218q0 177 -79 246zM280 594q-60 0 -98 -34q-51 -90 -51 -221q0 -135 64 -218l173 452q-39 21 -88 21z" />
    <glyph glyph-name="oslashacute" unicode="&#x1ff;" horiz-adv-x="488" 
d="M133 -77h-5q-15 8 -23 23l31 69q-43 27 -67 73t-24 102q0 102 57.5 186.5t151.5 108.5q30 0 61 -7q7 21 21 70q19 2 34 7l4 -3q-2 -4 -34 -83q103 -42 103 -189q0 -93 -56 -177t-143 -118q-42 0 -82 16zM363 225q0 112 -53 165l-120 -315q31 -28 71 -28q42 0 70 25
q32 61 32 153zM227 423q-42 0 -69 -24q-33 -63 -33 -154q0 -87 45 -147l120 308q-26 17 -63 17zM419 634l-189 -109l-11 18q37 25 72.5 67t59.5 84q26 2 43 -1q7 -8 15.5 -28.5t9.5 -30.5z" />
    <glyph glyph-name="dotlessj" unicode="&#x237;" horiz-adv-x="291" 
d="M32 -215l-15 15q96 117 96 253v137q0 165 -8 246q-26 8 -54 8v21q77 5 142 20l7 -4q-15 -88 -15 -260q0 -145 7 -221q-32 -109 -160 -215z" />
    <glyph glyph-name="circumflex" unicode="&#x2c6;" horiz-adv-x="294" 
d="M147 612l-134 -90l-13 17q84 71 137 168h20q53 -97 137 -168l-13 -17z" />
    <glyph glyph-name="caron" unicode="&#x2c7;" horiz-adv-x="294" 
d="M13 705l134 -90l134 90l13 -17q-84 -71 -137 -168h-20q-53 97 -137 168z" />
    <glyph glyph-name="breve" unicode="&#x2d8;" horiz-adv-x="509" 
d="M94 658l1 9q43 2 71 16h4q14 -33 45 -51t69 -18q70 0 107 69l18 -11q-21 -43 -58 -76t-81 -48q-49 0 -103 33t-73 77z" />
    <glyph glyph-name="dotaccent" unicode="&#x2d9;" horiz-adv-x="308" 
d="M208 620q-7 -13 -24.5 -33t-29.5 -28q-12 8 -29.5 28t-24.5 33q6 12 23 27.5t31 22.5q13 -8 30 -23.5t24 -26.5z" />
    <glyph glyph-name="ring" unicode="&#x2da;" horiz-adv-x="193" 
d="M0 598q0 40 29.5 69.5t72.5 38.5q91 0 91 -74q0 -39 -26.5 -66.5t-69.5 -40.5q-41 0 -69 19t-28 54zM88 671q-20 0 -30 -9q-11 -16 -11 -43q0 -26 16 -42.5t42 -16.5q19 0 30 9q11 17 11 43q0 27 -15.5 43t-42.5 16z" />
    <glyph glyph-name="ogonek" unicode="&#x2db;" horiz-adv-x="369" 
d="M269 -160v-9q-31 -21 -49 -46q-60 0 -90 23t-30 79q14 36 52.5 71.5t78.5 53.5l7 -12q-72 -46 -72 -102q0 -62 66 -62q22 0 37 4z" />
    <glyph glyph-name="tilde" unicode="&#x2dc;" horiz-adv-x="330" 
d="M18 570l-18 11q56 61 128 82q59 -31 119 -31q45 0 65 24l18 -11q-56 -61 -104 -82q-21 0 -72.5 15.5t-72.5 15.5q-43 0 -63 -24z" />
    <glyph glyph-name="hungarumlaut" unicode="&#x2dd;" horiz-adv-x="541" 
d="M446 644l-179 -119l-11 18q37 25 72.5 67t59.5 84q20 2 33 -1q18 -22 25 -49zM285 644l-179 -119l-11 18q37 25 72.5 67t59.5 84q20 2 33 -1q18 -22 25 -49z" />
    <glyph glyph-name="dotaccentcmb" unicode="&#x307;" horiz-adv-x="108" 
d="M108 620q-7 -13 -24.5 -33t-29.5 -28q-12 8 -29.5 28t-24.5 33q6 12 23 27.5t31 22.5q13 -8 30 -23.5t24 -26.5z" />
    <glyph glyph-name="pi" unicode="&#x3c0;" horiz-adv-x="496" 
d="M113 544q186 -28 323 -37q10 22 23 58l21 -7q-11 -39 -11 -73q0 -30 7 -59l-12 -8l-76 15q-25 -95 -25 -261q0 -25 1 -38t5 -31.5t14.5 -27t27.5 -8.5q32 0 58 43l13 -7q-32 -82 -93 -118q-106 0 -106 132q0 73 19.5 162t50.5 160q-119 20 -181 26q-11 -99 -11 -218
q0 -208 28 -329l-3 -3q-36 -5 -83 -20l-9 7q7 46 12 164t5 181v83q0 100 -6 139q-10 1 -24 1q-71 0 -111 -54l-18 11q22 41 69.5 76.5t91.5 40.5z" />
    <glyph glyph-name="endash" unicode="&#x2013;" horiz-adv-x="410" 
d="M417 284l-8 -39h-406l-8 7l8 44q124 -9 312 -9q57 0 96 3z" />
    <glyph glyph-name="emdash" unicode="&#x2014;" horiz-adv-x="615" 
d="M619 284l-8 -39h-606l-8 7l8 44q169 -9 462 -9q107 0 146 3z" />
    <glyph glyph-name="quoteleft" unicode="&#x2018;" horiz-adv-x="213" 
d="M53 481q0 50 34 102t80 83l10 -10q-21 -25 -38 -61.5t-18 -63.5q26 -24 40 -50q-6 -12 -23 -27.5t-31 -22.5q-13 8 -30 23.5t-24 26.5z" />
    <glyph glyph-name="quoteright" unicode="&#x2019;" horiz-adv-x="213" 
d="M160 616q0 -50 -34 -102t-80 -83l-10 10q21 25 38 61.5t18 63.5q-26 24 -40 50q6 12 23 27.5t31 22.5q13 -8 30 -23.5t24 -26.5z" />
    <glyph glyph-name="quotesinglbase" unicode="&#x201a;" horiz-adv-x="208" 
d="M160 46q0 -50 -32.5 -97t-81.5 -75l-10 11q51 49 56 111q-26 24 -40 50q6 12 23 27.5t31 22.5q13 -8 30 -23.5t24 -26.5z" />
    <glyph glyph-name="quotedblleft" unicode="&#x201c;" horiz-adv-x="366" 
d="M53 481q0 50 34 102t80 83l10 -10q-21 -25 -38 -61.5t-18 -63.5q26 -24 40 -50q-6 -12 -23 -27.5t-31 -22.5q-13 8 -30 23.5t-24 26.5zM206 481q0 50 34 102t80 83l10 -10q-21 -25 -38 -61.5t-18 -63.5q26 -24 40 -50q-6 -12 -23 -27.5t-31 -22.5q-13 8 -30 23.5
t-24 26.5z" />
    <glyph glyph-name="quotedblright" unicode="&#x201d;" horiz-adv-x="366" 
d="M313 616q0 -50 -34 -102t-80 -83l-10 10q21 25 38 61.5t18 63.5q-26 24 -40 50q6 12 23 27.5t31 22.5q13 -8 30 -23.5t24 -26.5zM160 616q0 -50 -34 -102t-80 -83l-10 10q21 25 38 61.5t18 63.5q-26 24 -40 50q6 12 23 27.5t31 22.5q13 -8 30 -23.5t24 -26.5z" />
    <glyph glyph-name="quotedblbase" unicode="&#x201e;" horiz-adv-x="361" 
d="M160 46q0 -50 -32.5 -97t-81.5 -75l-10 11q51 49 56 111q-26 24 -40 50q6 12 23 27.5t31 22.5q13 -8 30 -23.5t24 -26.5zM313 46q0 -50 -32.5 -97t-81.5 -75l-10 11q51 49 56 111q-26 24 -40 50q6 12 23 27.5t31 22.5q13 -8 30 -23.5t24 -26.5z" />
    <glyph glyph-name="dagger" unicode="&#x2020;" horiz-adv-x="378" 
d="M253 316v-4q-48 -59 -51 -229l-3 -198q-10 -3 -20 0l-3 198q-3 170 -51 229v4q49 60 51 129q-80 -12 -131 -45l-3 3q0 5 4 18t4 15q-46 17 -49 22q5 10 49 22q0 2 -4 15t-4 18l3 3q49 -33 130 -45q-7 94 -44 151l3 3q5 0 18 -4t15 -4q13 44 22 49q9 -5 22 -49q2 0 15 4
t18 4l3 -3q-37 -57 -44 -151q79 12 130 45l3 -3q0 -5 -4 -18t-4 -15q44 -12 49 -22q-3 -5 -49 -22q0 -2 4 -15t4 -18l-3 -3q-51 33 -131 45q2 -71 51 -129z" />
    <glyph glyph-name="daggerdbl" unicode="&#x2021;" horiz-adv-x="378" 
d="M253 257v-4q-28 -25 -39 -58.5t-12 -90.5q77 10 131 45l3 -3q0 -5 -4 -18t-4 -15q46 -17 49 -22q-5 -10 -49 -22q0 -2 4 -15t4 -18l-3 -3q-56 34 -130 44q7 -93 44 -150l-3 -3q-5 0 -18 4t-15 4q-13 -44 -22 -49q-9 5 -22 49q-2 0 -15 -4t-18 -4l-3 3q37 57 44 150
q-77 -10 -130 -44l-3 3q0 5 4 18t4 15q-44 12 -49 22q3 5 49 22q0 2 -4 15t-4 18l3 3q54 -35 131 -45q-1 57 -12 90t-39 59v4q11 2 29 8.5t19 9.5q-1 3 -19.5 9.5t-28.5 8.5v4q28 25 39 58t12 90q-80 -12 -131 -45l-3 3q0 5 4 18t4 15q-46 17 -49 22q5 10 49 22q0 2 -4 15
t-4 18l3 3q49 -33 130 -45q-7 94 -44 151l3 3q5 0 18 -4t15 -4q13 44 22 49q9 -5 22 -49q2 0 15 4t18 4l3 -3q-37 -57 -44 -151q79 12 130 45l3 -3q0 -5 -4 -18t-4 -15q44 -12 49 -22q-3 -5 -49 -22q0 -2 4 -15t4 -18l-3 -3q-51 33 -131 45q1 -57 12 -90t39 -58v-4
q-10 -2 -28.5 -8.5t-19.5 -9.5q1 -3 19 -9.5t29 -8.5z" />
    <glyph glyph-name="bullet" unicode="&#x2022;" horiz-adv-x="349" 
d="M297 288v-14q-77 -64 -112 -133h-20q-36 71 -113 132v14q4 3 17.5 14l17 14l14.5 12.5t15 14l12.5 13.5t13.5 16t11 16.5l12 19.5h20l12 -20t11 -16.5t13.5 -15.5l12.5 -13.5t15 -14l14 -12l17 -13.5t17 -14z" />
    <glyph glyph-name="perthousand" unicode="&#x2030;" horiz-adv-x="1063" 
d="M744 147q14 88 58 134.5t86 46.5q47 0 87 -42.5t54 -119.5q-14 -88 -57 -134.5t-84 -46.5q-48 0 -89 42.5t-55 119.5zM888 16q33 12 52 53.5t19 87.5t-19 87.5t-52 53.5q-32 -12 -52 -54t-20 -87t20 -87t52 -54zM34 389q14 88 58 134.5t86 46.5q22 0 114 -15t161 -15
q63 0 86 38l6 10q38 2 65 10l3 -3l-145 -217l-305 -478h-5q-26 12 -39 32q101 137 122 170l175 274q48 72 94 151l-4 1q-24 -25 -69 -25q-59 0 -177 36l-3 -3q47 -44 62 -128q-14 -88 -57 -134.5t-84 -46.5q-48 0 -89 42.5t-55 119.5zM425 147q14 88 58 134.5t86 46.5
q47 0 87 -42.5t54 -119.5q-14 -88 -57 -134.5t-84 -46.5q-48 0 -89 42.5t-55 119.5zM178 258q33 12 52 53.5t19 87.5t-19 87.5t-52 53.5q-32 -12 -52 -54t-20 -87t20 -87t52 -54zM569 16q33 12 52 53.5t19 87.5t-19 87.5t-52 53.5q-32 -12 -52 -54t-20 -87t20 -87t52 -54z
" />
    <glyph glyph-name="guilsinglleft" unicode="&#x2039;" horiz-adv-x="247" 
d="M111 283l108 -158l-20 -14q-93 107 -178 158v20q95 52 178 150l19 -13z" />
    <glyph glyph-name="guilsinglright" unicode="&#x203a;" horiz-adv-x="247" 
d="M28 125l108 158l-105 143l17 13q83 -98 178 -150v-20q-85 -51 -178 -158z" />
    <glyph glyph-name="fraction" unicode="&#x2044;" horiz-adv-x="550" 
d="M24 -42l-5 1q-17 14 -29 40l125 161l254 351l132 193q22 -5 53 -7l4 -3q-32 -40 -136 -184z" />
    <glyph glyph-name="zerosuperior" unicode="&#x2070;" horiz-adv-x="416" 
d="M37 531q16 104 69 159.5t103 55.5q57 0 104 -50.5t66 -142.5q-18 -104 -69 -159t-101 -55q-58 0 -106.5 50.5t-65.5 141.5zM209 718q-40 -14 -64 -66.5t-24 -108.5q0 -57 24 -109.5t64 -65.5q40 13 63.5 65.5t23.5 109.5t-23.5 109t-63.5 66z" />
    <glyph glyph-name="foursuperior" unicode="&#x2074;" horiz-adv-x="363" 
d="M262 602v-107q55 0 66 32l14 -4q-7 -32 -5 -73l-4 -2q-24 2 -70 2q0 -45 5 -70q13 -7 45 -16l-3 -18q-40 6 -91 6q-47 0 -80 -8l-2 17q27 12 54 17q5 29 5 72h-189l-4 12q137 160 191 266q36 4 71 17l6 -2q-9 -48 -9 -141zM193 670q-33 -70 -105 -168q44 -6 108 -6l2 174
h-5z" />
    <glyph glyph-name="fivesuperior" unicode="&#x2075;" horiz-adv-x="339" 
d="M239 679q-52 -5 -97 -5l-19 7l-3 -3l-9 -99q21 17 46 25q69 0 106.5 -36.5t37.5 -105.5q-13 -37 -51 -73t-78 -50q-71 0 -130 26v12q23 32 30 83h18q0 -27 1 -42q48 -27 93 -27q27 0 37 12q9 24 9 52q0 46 -23 73t-66 27q-31 0 -53 -12l-8 6l6 122q3 46 -1 72l19 3
q3 -9 7 -18q98 4 155 17l8 -6q-7 -20 -7 -45q0 -23 5 -51l-17 -5q-6 22 -16 41z" />
    <glyph glyph-name="sixsuperior" unicode="&#x2076;" horiz-adv-x="335" 
d="M120 495q0 -108 69 -108q30 0 45 14q10 20 10 48q0 46 -21 73t-63 27q-10 0 -21 -3v8q21 17 36 34q71 0 105 -32t34 -101q-16 -34 -59 -69.5t-81 -46.5q-61 0 -93.5 35.5t-32.5 98.5q0 81 57.5 160t136.5 113l10 -15q-62 -42 -97 -103.5t-35 -132.5z" />
    <glyph glyph-name="sevensuperior" unicode="&#x2077;" horiz-adv-x="287" 
d="M86 374q8 101 94 239l41 66l-2 2q-8 -4 -16 -7q-62 -2 -122 5q-10 -17 -16 -42l-17 6q5 27 5 51q0 23 -7 45l9 6q90 -18 198 -18q7 8 13 19l17 -9q-37 -60 -70 -139q-53 -119 -54 -220q18 -3 50 -14l-2 -19q-34 7 -76 7q-35 0 -73 -10l-4 19q19 6 32 13z" />
    <glyph glyph-name="eightsuperior" unicode="&#x2078;" horiz-adv-x="367" 
d="M198 746q42 0 71.5 -17t29.5 -51q0 -23 -23.5 -52t-50.5 -49q41 -24 64.5 -49.5t23.5 -64.5q-16 -39 -55 -74.5t-81 -48.5q-48 0 -85.5 28t-37.5 71q0 29 25 62.5t55 53.5q-65 45 -65 102q18 26 58.5 54t70.5 35zM242 445q0 20 -16 40t-31 31t-41 27q-38 -30 -38 -87
q0 -28 23.5 -48.5t52.5 -20.5q28 0 40 15q10 21 10 43zM140 665q0 -40 63 -76q34 34 34 71q0 39 -54 39q-26 0 -39 -13q-4 -10 -4 -21z" />
    <glyph glyph-name="ninesuperior" unicode="&#x2079;" horiz-adv-x="335" 
d="M215 590q0 108 -69 108q-30 0 -45 -14q-10 -20 -10 -48q0 -46 21 -73t63 -27q11 0 21 3v-8q-21 -17 -36 -34q-71 0 -105 32t-34 101q16 34 59 69.5t81 46.5q61 0 93.5 -35.5t32.5 -98.5q0 -81 -57.5 -160t-136.5 -113l-10 15q62 42 97 103.5t35 132.5z" />
    <glyph glyph-name="Euro" unicode="&#x20ac;" horiz-adv-x="456" 
d="M256 211l-100 -3q5 -72 31 -111.5t88 -39.5q59 0 128 63l10 -10q-60 -87 -156 -126q-91 0 -135.5 60t-46.5 160l-43 -5l-3 4q6 20 7 32l39 1q1 16 7 48q-29 -1 -50 -5l-3 4q6 20 7 32l53 2q23 80 75.5 139.5t126.5 81.5q71 0 131 -16v-14q-37 -48 -43 -113h-22
q0 40 -3 64q-42 14 -84 14q-46 0 -77 -27q-26 -56 -36 -127l128 5q64 3 84 5q4 -20 9 -31v-5l-122 -2l-102 -3v-17v-32l131 5q64 3 84 5q4 -20 9 -31v-5z" />
    <glyph glyph-name="trademark" unicode="&#x2122;" horiz-adv-x="718" 
d="M279 657l3 -12q-28 -25 -31 -79h-14q-5 20 -5 51q-21 10 -51 10q-9 0 -17 -3q-4 -32 -4 -120q0 -95 7 -158q21 -3 48 -9l-2 -16q-38 5 -79 5q-40 0 -72 -4l-2 14q17 6 40 11q6 42 6 127v30q0 86 -5 120q-6 3 -18 3q-27 0 -49 -8q-3 -11 -8 -53h-15q-2 52 -18 79l4 12
q48 -6 136 -6q98 0 146 6zM437 360q0 71 -53 255h-3l-14 -107q-9 -81 -9 -128q0 -35 17 -46l-3 -11q-33 3 -51 3q-38 0 -70 -5l-2 15q14 5 49 11l57 284q-23 3 -54 10l1 15q43 -5 91 -5q31 0 55 3l1 -10q-13 -3 -13 -14q0 -39 32 -158l13 -48l3 1q2 16 55 203q0 11 -17 16
l1 10q24 -3 67 -3q49 0 79 5l3 -15q-15 -5 -40 -10q-3 -13 -3 -34q0 -37 8.5 -129t15.5 -123q25 -3 47 -9l-2 -15q-42 5 -78 5q-42 0 -71 -4l-2 14q11 4 40 11q0 134 -11 266l-4 1q-60 -189 -66 -236q-48 -23 -62 -38l-8 4q1 6 1 16z" />
    <glyph glyph-name="Omega" unicode="&#x2126;" horiz-adv-x="701" 
d="M387 666q116 -10 177 -85t61 -197q0 -82 -41 -169.5t-105 -143.5v-5h8q78 0 118 18q8 37 12 83h25q4 -106 33 -158l-6 -20q-87 11 -204 11q-32 0 -53 -1l-1 42q62 47 91.5 128.5t29.5 173.5q0 52 -10 98t-30 85t-56 61.5t-84 22.5q-41 0 -76 -16q-51 -42 -75 -109.5
t-24 -141.5q0 -92 29.5 -173.5t91.5 -128.5l-1 -42q-21 1 -63 1q-115 0 -202 -11l-6 20q29 52 33 158h25q4 -46 12 -83q40 -18 126 -18h7v5q-66 54 -105.5 132.5t-39.5 160.5q0 126 89.5 209t213.5 93z" />
    <glyph glyph-name="partialdiff" unicode="&#x2202;" horiz-adv-x="471" 
d="M429 272q0 -118 -61.5 -195.5t-173.5 -91.5q-71 12 -110 65.5t-39 130.5q0 90 57.5 154t149.5 84q48 -11 81 -65h5q-50 312 -195 312q-32 0 -52 -13q-5 -17 -5 -41q0 -28 10 -39l-1 -7q-25 -15 -50 -42q-12 1 -19.5 10t-7.5 21q0 60 46.5 101.5t117.5 54.5
q77 -14 134.5 -84.5t85 -163.5t27.5 -191zM306 54q43 60 43 177q0 33 -7 60q-43 69 -119 85q-47 0 -72 -45t-25 -124q0 -70 33 -118.5t94 -48.5q31 0 53 14z" />
    <glyph glyph-name="Delta" unicode="&#x2206;" horiz-adv-x="550" 
d="M552 46l-9 -46h-558l-8 7q171 335 273 644l47 15q97 -296 255 -620zM261 549l-202 -485q79 -11 315 -11q71 0 93 6l-201 491z" />
    <glyph glyph-name="product" unicode="&#x220f;" horiz-adv-x="689" 
d="M344 651q197 0 335 15l3 -24q-40 -13 -110 -26q-13 -74 -13 -301v-59q0 -227 13 -301q53 -5 110 -19l-3 -24q-64 8 -156 8q-65 0 -134 -6l-4 25q28 9 86 19q11 81 11 357q0 209 -10 277q-37 22 -128 22q-94 0 -127 -5q-10 -68 -10 -294q0 -264 13 -360q48 -5 100 -17
l-3 -24q-69 6 -146 6q-91 0 -144 -8l-4 25q45 14 96 21q11 83 11 298v59q0 150 -13 298q-15 3 -96 28l4 25q138 -15 319 -15z" />
    <glyph glyph-name="summation" unicode="&#x2211;" horiz-adv-x="539" 
d="M294 593l-159 1l-4 -3l151 -263v-4l-185 -320l3 -4h225q58 0 83 19q12 42 19 112h25q4 -137 59 -223l-19 -15l-20 18q-148 23 -368 23q-82 0 -128 -27l-11 10l65 97l186 277l-163 255q-43 66 -89 104l13 14q53 -24 131 -24q76 0 223 13t170 13l3 -22q-31 -8 -47 -17
q-9 -36 -9 -82q0 -20 2 -58l-24 -4q-14 34 -25 91q-44 19 -107 19z" />
    <glyph glyph-name="minus" unicode="&#x2212;" horiz-adv-x="550" 
d="M496 268l-9 -46h-426l-8 7l9 51q169 -9 343 -9q46 0 85 3z" />
    <glyph glyph-name="radical" unicode="&#x221a;" horiz-adv-x="550" 
d="M144 485h7q10 -36 57.5 -166.5t97.5 -251.5l4 -1l83 414q29 143 38 216q32 4 57 14l4 -2q-21 -70 -51 -218l-98 -486l-67 -20l-175 431q-53 0 -100 -13l-6 21q96 26 149 62z" />
    <glyph glyph-name="infinity" unicode="&#x221e;" horiz-adv-x="550" 
d="M394 127q-41 0 -71 23t-59 66q-77 -89 -137 -89q-45 0 -67.5 32t-22.5 83q12 41 47.5 85.5t70.5 59.5q68 0 130 -89q77 89 137 89q45 0 67.5 -32t22.5 -83q-12 -41 -47.5 -85.5t-70.5 -59.5zM405 190q18 0 30 6q21 17 21 57q0 78 -58 78q-52 0 -98 -51q28 -45 51 -67.5
t54 -22.5zM144 324q-18 0 -30 -6q-21 -17 -21 -57q0 -78 58 -78q52 0 98 51q-28 45 -51 67.5t-54 22.5z" />
    <glyph glyph-name="integral" unicode="&#x222b;" horiz-adv-x="365" 
d="M155 25l-19 445q11 88 70.5 164.5t134.5 76.5q12 0 21 -7.5t10 -19.5q-27 -25 -42 -50l-7 -1q-11 10 -39 10q-32 0 -46 -7q-31 -77 -28 -166l19 -444q-11 -88 -70.5 -164.5t-134.5 -76.5q-12 0 -21 7.5t-10 19.5q27 25 42 50l7 1q11 -10 39 -10q32 0 46 7q30 74 28 165z
" />
    <glyph glyph-name="approxequal" unicode="&#x2248;" horiz-adv-x="590" 
d="M68 115l-18 11q22 41 69.5 76.5t91.5 40.5q43 -29 96 -49.5t97 -20.5q69 0 118 58l18 -11q-20 -38 -64 -71.5t-87 -45.5q-33 0 -110 33t-110 33q-66 0 -101 -54zM68 295l-18 11q22 41 69.5 76.5t91.5 40.5q43 -29 96 -49.5t97 -20.5q69 0 118 58l18 -11
q-20 -38 -64 -71.5t-87 -45.5q-33 0 -110 33t-110 33q-66 0 -101 -54z" />
    <glyph glyph-name="notequal" unicode="&#x2260;" horiz-adv-x="550" 
d="M496 201l-9 -46h-254l-96 -118l-11 -1l-31 37q50 54 73 82h-107l-8 7l9 51q49 -3 149 -7l75 93h-225l-8 7l9 51q128 -7 262 -9l78 103l8 2l41 -32l-60 -73h14q46 0 85 3l6 -6l-9 -46h-136l-77 -94q44 -1 131 -1q46 0 85 3z" />
    <glyph glyph-name="lessequal" unicode="&#x2264;" horiz-adv-x="550" 
d="M58 233l15 65q62 16 192 62q123 43 222 92l21 -49l-5 -10l-362 -126v-4l362 -127l5 -10l-21 -46q-105 48 -225 90q-107 38 -204 63zM493 46l-9 -46h-426l-8 7l9 51q170 -9 343 -9q46 0 85 3z" />
    <glyph glyph-name="greaterequal" unicode="&#x2265;" horiz-adv-x="550" 
d="M485 298l15 -65q-97 -25 -204 -63q-120 -42 -225 -90l-21 46l5 10l362 127v4l-362 126l-5 10l21 49q99 -49 222 -92q130 -46 192 -62zM74 0l-9 46l6 6q39 -3 85 -3q174 0 343 9l9 -51l-8 -7h-426z" />
    <glyph glyph-name="lozenge" unicode="&#x25ca;" horiz-adv-x="550" 
d="M299 -106l-44 -9q-33 88 -90 199q-59 115 -107 190h1l-1 1q54 85 107 192q63 125 86 191l48 9q22 -73 87 -200q59 -115 106 -191q-47 -74 -107 -192q-55 -107 -86 -190zM272 585l-148 -309l149 -315l5 1l148 312l-149 312z" />
    <glyph glyph-name="CR" horiz-adv-x="180" 
 />
    <glyph glyph-name="uacute.001" horiz-adv-x="542" 
d="M170 485l7 -4q-16 -97 -19 -280q-2 -18 -0.5 -41.5t4.5 -44t13.5 -34.5t27.5 -14q39 0 92 49t71 91q0 145 -11 233q-28 6 -63 19l2 19q56 -8 105 -8q51 0 102 6l3 -19q-30 -13 -59 -20q-9 -68 -9 -157v-84q0 -92 7 -163q24 -8 54 -8v-21q-64 -3 -135 -19l-7 2
q11 69 11 158l-4 1q-34 -47 -88.5 -96.5t-98.5 -64.5q-30 0 -50 14t-28.5 40.5t-11 53t-1.5 63.5l5 281q-24 8 -54 8v21q64 3 135 19zM451 634l-189 -109l-11 18q37 25 72.5 67t59.5 84q26 2 43 -1q7 -8 15.5 -28.5t9.5 -30.5z" />
    <glyph glyph-name="unoalternativo" horiz-adv-x="450" 
d="M185 30q9 74 9 160v84q0 53 -3 113h-76l-2 2q0 13 3 19q78 18 134 74q12 3 28 3l4 -2q-14 -82 -14 -209v-84q0 -105 7 -157q29 -7 59 -20l-3 -19q-51 6 -102 6q-49 0 -105 -8l-2 19q36 13 63 19z" />
    <glyph glyph-name="Ealternate" horiz-adv-x="513" 
d="M397 566q-48 28 -118 28q-65 0 -106 -34q-15 -187 170 -187l-5 -37h-12q-79 0 -130.5 -31.5t-51.5 -98.5q0 -73 48 -111.5t121 -38.5q57 0 94 24q7 14 7 46q0 28 -10 39l1 7q25 15 50 42q12 -1 19.5 -10t7.5 -21q0 -61 -57.5 -118.5t-125.5 -79.5q-107 0 -178 52t-71 148
q0 69 58 115t132 46v4q-68 4 -113.5 38t-45.5 94q36 64 95.5 115t127.5 69q72 0 141 -19q21 10 42 30l19 -13q-74 -81 -81 -191h-25q0 48 -3 93z" />
    <glyph glyph-name="aalternate" horiz-adv-x="473" 
d="M207 423q-34 0 -56 -14q-7 -12 -7 -34q0 -18 10 -27l-1 -7q-26 -16 -48 -40q-12 1 -19 9.5t-7 19.5q0 46 53 92.5t107 62.5q57 0 116 -21q14 21 23 53l21 -6q-22 -90 -22 -318q0 -102 7 -160q24 -8 54 -8v-21q-64 -3 -135 -19l-7 4q11 37 11 100l-4 1q-47 -80 -133 -105
q-59 0 -86 30t-27 91q0 62 26 102q56 17 223 46q-1 110 -6 145q-42 24 -93 24zM192 52q38 0 70.5 28t44.5 67v81q-103 -22 -161 -45q-8 -19 -8 -48q0 -83 54 -83z" />
    <glyph glyph-name="zero.tabonum" horiz-adv-x="450" 
d="M26 221q21 128 84.5 196t124.5 68q69 0 126.5 -62t79.5 -175q-21 -128 -83.5 -195.5t-122.5 -67.5q-70 0 -128.5 62t-80.5 174zM235 453q-50 -17 -80 -82t-30 -136t30 -136t80 -82q50 17 80 82t30 136t-30 136t-80 82z" />
    <glyph glyph-name="one.tabonum" horiz-adv-x="450" 
d="M275 36q32 -9 59 -23l-3 -19q-51 6 -105 6q-64 0 -117 -8l-2 19q40 13 78 22q9 74 9 157v84q0 101 -7 159q-47 13 -78 29l3 20q57 -12 116 -12q63 0 104 5l4 -20q-29 -8 -59 -21q-9 -68 -9 -160v-84q0 -102 7 -154z" />
    <glyph glyph-name="two.tabonum" horiz-adv-x="450" 
d="M219 485q81 0 118.5 -39t37.5 -120q-95 -126 -236 -247l2 -4q15 7 27 10q77 3 187 -11q10 22 23 58l21 -7q-11 -39 -11 -73q0 -30 7 -59l-12 -8q-159 36 -296 36q-13 -13 -31 -36l-19 10q19 38 62 88t81.5 88.5t68.5 87.5t30 90q0 37 -24 55.5t-64 18.5q-34 0 -62 -14
q-7 -12 -7 -34q0 -18 10 -27l-1 -7q-26 -16 -48 -40q-12 1 -19 9.5t-7 19.5q0 46 53.5 92.5t108.5 62.5z" />
    <glyph glyph-name="three.tabonum" horiz-adv-x="450" 
d="M73 485q120 -27 280 -27q25 16 36 27l17 -15q-38 -35 -177 -203q72 -12 112 -64.5t40 -136.5q-20 -55 -73.5 -107.5t-108.5 -73.5q-41 0 -93 11t-88 28v13q38 43 43 112h22q0 -39 2 -61q24 -17 63.5 -29t69.5 -12q40 0 60 24q15 38 15 85q0 71 -37 111.5t-105 40.5l-4 6
l135 183l-2 4q-15 -7 -27 -10q-58 0 -147 7q-9 -23 -20 -61l-21 7q7 40 7 65q0 34 -10 67z" />
    <glyph glyph-name="four.tabonum" horiz-adv-x="450" 
d="M336 274q0 -130 1 -165q38 0 53.5 7.5t27.5 36.5l16 -3q-9 -45 -9 -92l-4 -2q-35 3 -83 3q0 -67 8 -126q21 -11 51 -18l-4 -20q-57 5 -101 5q-49 0 -111 -12l-3 20q34 15 79 26q7 57 7 125h-253l-4 14q161 187 261 387q42 10 73 25l8 -4q-13 -77 -13 -207zM260 379
q-62 -136 -148 -259q62 -6 152 -8l3 267h-7z" />
    <glyph glyph-name="five.tabonum" horiz-adv-x="450" 
d="M326 398q-70 -7 -153 -7l-23 10l-4 -5l-11 -155q45 25 65 30q98 -3 152 -56t54 -149q-20 -55 -73.5 -107.5t-108.5 -73.5q-41 0 -93 11t-88 28v13q38 43 43 112h22q0 -39 2 -61q24 -17 63.5 -29t69.5 -12q40 0 60 24q15 38 15 85q0 70 -36.5 111t-104.5 41q-39 0 -70 -17
l-12 9l10 175q4 67 -2 107l21 4q5 -18 9 -27q128 4 229 26l11 -9q-12 -35 -12 -79q0 -24 5 -54l-22 -5q-9 37 -18 60z" />
    <glyph glyph-name="six.tabonum" horiz-adv-x="450" 
d="M142 215q0 -168 106 -168q49 0 69 24q15 38 15 75q0 152 -131 152q-15 0 -30 -3v7q28 20 57 48q192 0 192 -194q-22 -51 -81 -103.5t-112 -67.5q-174 0 -174 197q0 124 78.5 239t194.5 164l13 -18q-90 -59 -143.5 -152t-53.5 -200z" />
    <glyph glyph-name="seven.tabonum" horiz-adv-x="450" 
d="M123 -70q13 144 140 358l65 110l-3 4q-14 -7 -26 -11q-85 -3 -182 6q-9 -23 -18 -60l-22 5q5 30 5 54q0 43 -12 78l11 9q125 -26 287 -26q8 9 17 24l20 -10q-60 -103 -106 -204q-86 -192 -87 -331q48 -9 80 -22l-2 -20q-66 7 -112 6q-57 -2 -100 -11l-5 20q32 10 50 21z
" />
    <glyph glyph-name="eight.tabonum" horiz-adv-x="450" 
d="M245 585q58 0 98.5 -25.5t40.5 -74.5q0 -34 -35 -77t-74 -71q40 -25 64 -44t45 -53t21 -74q-22 -57 -76.5 -109.5t-112.5 -71.5q-66 0 -118.5 41.5t-52.5 103.5q0 43 36 92t81 80q-95 69 -95 152q23 37 79.5 78.5t98.5 52.5zM317 146q0 15 -6.5 29t-13.5 24t-24 24.5
t-26.5 21l-33 22l-32.5 21.5q-62 -48 -62 -132q0 -45 35.5 -77t82.5 -32q45 0 65 24q15 35 15 75zM154 466q0 -34 25 -59.5t75 -56.5q56 51 56 109q0 64 -86 64q-42 0 -63 -23q-7 -12 -7 -34z" />
    <glyph glyph-name="nine.tabonum" horiz-adv-x="450" 
d="M323 255q0 168 -106 168q-49 0 -69 -24q-15 -38 -15 -75q0 -152 131 -152q15 0 30 3v-7q-28 -20 -57 -48q-192 0 -192 194q22 51 81 103.5t112 67.5q174 0 174 -197q0 -124 -78.5 -239t-194.5 -164l-13 18q90 59 143.5 152t53.5 200z" />
    <glyph glyph-name="quotesinglbase.001" horiz-adv-x="213" 
d="M160 46q0 -50 -34 -102t-80 -83l-10 10q21 25 38 61.5t18 63.5q-26 24 -40 50q6 12 23 27.5t31 22.5q13 -8 30 -23.5t24 -26.5z" />
    <glyph glyph-name="ornament" horiz-adv-x="436" 
d="M87 324q41 -27 106 -36q-57 40 -101 50v3q3 3 12 8t11 7q-17 34 -15 40q7 2 40 -15q2 2 7 11.5t7 11.5h4q11 -52 49 -101q-10 62 -35 106l2 2q3 0 13.5 -3t12.5 -3q13 36 18 39q5 -2 18 -39q2 0 12.5 3t13.5 3l2 -2q-26 -42 -35 -105q39 53 49 100h3q3 -3 8 -12t7 -11
q31 17 40 15q1 -3 -1.5 -10.5t-7.5 -17.5l-6 -12q2 -2 11 -7t12 -8v-3q-47 -10 -101 -50q63 9 106 36l2 -2q0 -4 -3 -15l-3 -11q36 -13 39 -18q-2 -5 -39 -18l3 -11q3 -11 3 -15l-2 -2q-46 28 -107 36q54 -40 102 -50v-4q-2 -2 -11.5 -7t-11.5 -7q17 -33 15 -40
q-6 -2 -40 15q-2 -2 -7 -11t-8 -12h-3q-10 47 -49 100q9 -63 35 -105l-2 -2q-3 0 -13.5 3t-12.5 3q-13 -37 -18 -39q-5 3 -18 39q-2 0 -12.5 -3t-13.5 -3l-2 2q25 42 35 105q-38 -50 -49 -100h-4q-2 3 -7 11.5t-7 11.5q-34 -17 -40 -15q-2 7 15 40q-3 2 -11.5 7t-11.5 7v4
q50 11 101 50q-62 -8 -106 -36l-2 2q0 4 3 15l3 11q-37 13 -39 18q3 5 39 18l-3 11q-3 11 -3 15z" />
    <glyph glyph-name="paragraph.alt" horiz-adv-x="512" 
d="M305 125v200q0 198 -9 292q-11 3 -25 3q-13 0 -23 -3q-8 -57 -8 -138q0 -130 22 -169l-2 -14q-7 -1 -22 -1q-97 0 -170 55t-73 144q0 164 206 164q27 0 133.5 -4.5t156.5 -4.5v-25q-50 0 -98 -16q-11 -93 -11 -283v-199q-11 -87 -71.5 -164t-136.5 -77q-12 0 -21 7.5
t-10 19.5q27 25 42 50l7 1q11 -10 39 -10q32 0 46 7q30 74 28 165z" />
    <glyph glyph-name="a_e.alternate" horiz-adv-x="661" 
d="M473 57q63 0 123 53l11 -10q-57 -78 -146 -115q-114 0 -154 105v-1l-4 1q-47 -80 -133 -105q-59 0 -86 30t-27 91q0 62 26 102q55 17 212 44q8 69 8 109q0 21 -3 38q-43 24 -93 24q-34 0 -56 -14q-7 -12 -7 -34q0 -18 10 -27l-1 -7q-26 -16 -48 -40q-12 1 -19 9.5
t-7 19.5q0 46 53 92.5t107 62.5q85 0 153 -48h4q39 33 91 48q67 0 94 -26.5t27 -93.5q0 -38 -10 -65q21 -8 49 -8l-1 -21q-116 2 -281 -33q0 -40 4 -69t14.5 -56t33 -41.5t56.5 -14.5zM192 52q32 0 60.5 20.5t44.5 51.5q-6 30 -6 66q0 23 1 35q-101 -24 -146 -42
q-8 -19 -8 -48q0 -83 54 -83zM394 399q-27 -56 -29 -135q82 27 163 41q0 66 -12.5 92t-55.5 26q-37 0 -66 -24z" />
    <glyph glyph-name="zero.numr" 
d="M14 451q16 104 69 159.5t103 55.5q57 0 104 -50.5t66 -142.5q-18 -104 -69 -159t-101 -55q-58 0 -106.5 50.5t-65.5 141.5zM186 638q-40 -14 -64 -66.5t-24 -108.5q0 -57 24 -109.5t64 -65.5q40 13 63.5 65.5t23.5 109.5t-23.5 109t-63.5 66z" />
    <glyph glyph-name="one.numr" 
d="M155 298q8 69 8 129v67q0 44 -3 91h-60l-2 2q0 11 2 17q72 20 110 60q12 2 26 2l3 -2q-11 -81 -11 -170v-67q0 -81 6 -127q24 -8 45 -17l-3 -17q-41 6 -83 6q-47 0 -86 -7l-2 17q25 11 50 16z" />
    <glyph glyph-name="two.numr" 
d="M182 666q66 0 97 -32t31 -98q-76 -99 -190 -198l2 -3q11 5 19 7q67 3 150 -8q10 19 20 47l17 -6q-9 -30 -9 -61q0 -21 6 -48l-10 -7q-144 30 -242 30q-14 -14 -26 -30l-17 8q18 37 70 91.5t90.5 104.5t38.5 93q0 28 -19.5 43t-50.5 15q-28 0 -51 -11q-5 -12 -5 -27
q0 -16 8 -21v-6q-12 -7 -40 -33q-23 2 -23 24q0 37 44.5 74.5t89.5 51.5z" />
    <glyph glyph-name="three.numr" 
d="M83 665q86 -18 203 -18q14 8 23 18l13 -11q-21 -19 -119 -134q104 -19 104 -138q-13 -37 -51 -73t-78 -50q-71 0 -130 26v12q23 32 30 83h18q0 -27 1 -42q48 -27 93 -27q27 0 37 12q9 23 9 52q0 47 -23.5 73.5t-69.5 26.5l-3 4l85 119l-2 3q-11 -5 -19 -7q-45 0 -95 5
q-10 -18 -16 -42l-17 6q5 28 5 51t-7 45z" />
    <glyph glyph-name="four.numr" 
d="M262 522v-107q55 0 66 32l14 -4q-7 -32 -5 -73l-4 -2q-24 2 -70 2q0 -45 5 -70q13 -7 45 -16l-3 -18q-40 6 -91 6q-47 0 -80 -8l-2 17q27 12 54 17q5 29 5 72h-189l-4 12q137 160 191 266q36 4 71 17l6 -2q-9 -48 -9 -141zM193 590q-33 -70 -105 -168q44 -6 108 -6l2 174
h-5z" />
    <glyph glyph-name="five.numr" 
d="M246 599q-52 -5 -97 -5l-19 7l-3 -3l-9 -99q21 17 46 25q69 0 106.5 -36.5t37.5 -105.5q-13 -37 -51 -73t-78 -50q-71 0 -130 26v12q23 32 30 83h18q0 -27 1 -42q48 -27 93 -27q27 0 37 12q9 24 9 52q0 46 -23 73t-66 27q-30 0 -53 -12l-8 6l6 122q3 46 -1 72l19 3
q3 -9 7 -18q98 4 155 17l8 -6q-7 -20 -7 -45q0 -23 5 -51l-17 -5q-6 22 -16 41z" />
    <glyph glyph-name="six.numr" 
d="M132 415q0 -108 69 -108q30 0 45 14q10 20 10 48q0 46 -21 73t-63 27q-10 0 -21 -3v8q21 17 36 34q71 0 105 -32t34 -101q-16 -34 -59 -69.5t-81 -46.5q-61 0 -93.5 35.5t-32.5 98.5q0 81 57.5 160t136.5 113l10 -15q-62 -42 -97 -103.5t-35 -132.5z" />
    <glyph glyph-name="seven.numr" 
d="M119 294q8 101 94 239l41 66l-2 2q-8 -4 -16 -7q-62 -2 -122 5q-10 -17 -16 -42l-17 6q5 27 5 51q0 23 -7 45l9 6q90 -18 198 -18q7 8 13 19l17 -9q-37 -60 -70 -139q-53 -119 -54 -220q18 -3 50 -14l-2 -19q-34 7 -76 7q-35 0 -73 -10l-4 19q19 6 32 13z" />
    <glyph glyph-name="eight.numr" 
d="M199 666q42 0 71.5 -17t29.5 -51q0 -23 -23.5 -52t-50.5 -49q41 -24 64.5 -49.5t23.5 -64.5q-16 -39 -55 -74.5t-81 -48.5q-48 0 -85.5 28t-37.5 71q0 29 25 62.5t55 53.5q-65 45 -65 102q18 26 58.5 54t70.5 35zM243 365q0 20 -16 40t-31 31t-41 27q-38 -30 -38 -87
q0 -28 23.5 -48.5t52.5 -20.5q27 0 40 15q10 21 10 43zM141 585q0 -40 63 -76q34 34 34 71q0 39 -54 39q-26 0 -39 -13q-4 -10 -4 -21z" />
    <glyph glyph-name="nine.numr" 
d="M238 510q0 108 -69 108q-30 0 -45 -14q-10 -20 -10 -48q0 -46 21 -73t63 -27q10 0 21 3v-8q-21 -17 -36 -34q-71 0 -105 32t-34 101q16 34 59 69.5t81 46.5q61 0 93.5 -35.5t32.5 -98.5q0 -81 -57.5 -160t-136.5 -113l-10 15q62 42 97 103.5t35 132.5z" />
    <glyph glyph-name="zero.dnum" 
d="M14 192q16 104 69 159.5t103 55.5q57 0 104 -50.5t66 -142.5q-18 -104 -69 -159t-101 -55q-58 0 -106.5 50.5t-65.5 141.5zM186 379q-40 -14 -64 -66.5t-24 -108.5q0 -57 24 -109.5t64 -65.5q40 13 63.5 65.5t23.5 109.5t-23.5 109t-63.5 66z" />
    <glyph glyph-name="one.dnum" 
d="M155 39q8 69 8 129v67q0 45 -3 91h-60l-2 2q0 11 2 17q72 20 110 60q12 2 26 2l3 -2q-11 -81 -11 -170v-67q0 -81 6 -127q24 -8 45 -17l-3 -17q-40 6 -83 6q-47 0 -86 -7l-2 17q25 11 50 16z" />
    <glyph glyph-name="two.dnum" 
d="M182 407q66 0 97 -32t31 -98q-76 -99 -190 -198l2 -3q11 5 19 7q68 3 150 -8q10 19 20 47l17 -6q-9 -30 -9 -61q0 -21 6 -48l-10 -7q-144 30 -242 30q-14 -14 -26 -30l-17 8q18 37 70 91.5t90.5 104.5t38.5 93q0 28 -19.5 43t-50.5 15q-28 0 -51 -11q-5 -12 -5 -27
q0 -16 8 -21v-6q-12 -7 -40 -33q-23 2 -23 24q0 37 44.5 74.5t89.5 51.5z" />
    <glyph glyph-name="three.dnum" 
d="M83 406q86 -18 203 -18q14 8 23 18l13 -11q-21 -19 -119 -134q104 -19 104 -138q-13 -37 -51 -73t-78 -50q-71 0 -130 26v12q23 32 30 83h18q0 -27 1 -42q48 -27 93 -27q27 0 37 12q9 23 9 52q0 47 -23.5 73.5t-69.5 26.5l-3 4l85 119l-2 3q-11 -5 -19 -7q-45 0 -95 5
q-10 -18 -16 -42l-17 6q5 28 5 51t-7 45z" />
    <glyph glyph-name="four.dnum" horiz-adv-x="380" 
d="M262 263v-107q55 0 66 32l14 -4q-7 -32 -5 -73l-4 -2q-24 2 -70 2q0 -45 5 -70q13 -7 45 -16l-3 -18q-40 6 -91 6q-47 0 -80 -8l-2 17q27 12 54 17q5 29 5 72h-189l-4 12q137 160 191 266q36 4 71 17l6 -2q-9 -48 -9 -141zM193 331q-33 -70 -105 -168q43 -6 108 -6l2 174
h-5z" />
    <glyph glyph-name="five.dnum" 
d="M246 340q-52 -5 -97 -5l-19 7l-3 -3l-9 -99q21 17 46 25q69 0 106.5 -36.5t37.5 -105.5q-13 -37 -51 -73t-78 -50q-71 0 -130 26v12q23 32 30 83h18q0 -27 1 -42q48 -27 93 -27q27 0 37 12q9 24 9 52q0 46 -23 73t-66 27q-30 0 -53 -12l-8 6l6 122q3 46 -1 72l19 3
q3 -9 7 -18q98 4 155 17l8 -6q-7 -20 -7 -45q0 -23 5 -51l-17 -5q-6 22 -16 41z" />
    <glyph glyph-name="six.dnum" 
d="M132 156q0 -108 69 -108q30 0 45 14q10 20 10 48q0 46 -21 73t-63 27q-10 0 -21 -3v8q21 17 36 34q71 0 105 -32t34 -101q-16 -34 -59 -69.5t-81 -46.5q-61 0 -93.5 35.5t-32.5 98.5q0 81 57.5 160t136.5 113l10 -15q-62 -42 -97 -103.5t-35 -132.5z" />
    <glyph glyph-name="seven.dnum" 
d="M119 35q8 101 94 239l41 66l-2 2q-8 -4 -16 -7q-62 -2 -122 5q-10 -16 -16 -42l-17 6q5 27 5 51q0 23 -7 45l9 6q90 -18 198 -18q7 8 13 19l17 -9q-37 -60 -70 -139q-53 -119 -54 -220q18 -3 50 -14l-2 -19q-34 7 -76 7q-35 0 -73 -10l-4 19q19 6 32 13z" />
    <glyph glyph-name="eight.dnum" 
d="M199 406q42 0 71.5 -17t29.5 -51q0 -23 -23.5 -52t-50.5 -49q41 -24 64.5 -49.5t23.5 -64.5q-16 -39 -55 -74.5t-81 -48.5q-48 0 -85.5 28t-37.5 71q0 29 25 62.5t55 53.5q-65 45 -65 102q18 26 58.5 54t70.5 35zM243 105q0 20 -16 40t-31 31t-41 27q-38 -30 -38 -87
q0 -28 23.5 -48.5t52.5 -20.5q27 0 40 15q10 21 10 43zM141 325q0 -40 63 -76q34 34 34 71q0 39 -54 39q-26 0 -39 -13q-4 -10 -4 -21z" />
    <glyph glyph-name="nine.dnum" 
d="M238 251q0 108 -69 108q-30 0 -45 -14q-10 -20 -10 -48q0 -46 21 -73t63 -27q10 0 21 3v-8q-21 -17 -36 -34q-71 0 -105 32t-34 101q16 34 59 69.5t81 46.5q61 0 93.5 -35.5t32.5 -98.5q0 -81 -57.5 -160t-136.5 -113l-10 15q62 42 97 103.5t35 132.5z" />
    <glyph glyph-name="ornament.002" horiz-adv-x="377" 
d="M179 562q-28 -6 -55 -23l-1 1q0 3 2 10t2 9q-24 7 -27 12q4 6 27 13q0 2 -2 8.5t-2 9.5l1 2q25 -17 54 -21q-4 29 -22 58l2 1q2 0 18 -4q6 24 13 28q6 -5 12 -28q16 4 19 4l1 -1q-19 -33 -23 -60q27 4 55 23l2 -2q0 -3 -2.5 -9.5t-2.5 -8.5q24 -6 27 -13q-3 -6 -27 -12
q0 -2 2.5 -9t2.5 -10l-2 -1q-25 17 -55 23q4 -30 23 -60l-2 -1q-2 0 -18 4q-6 -24 -13 -28q-6 5 -12 28q-16 -4 -19 -4l-1 1q19 33 23 60zM179 270q-28 -6 -55 -23l-1 1q0 3 2 10t2 9q-24 7 -27 12q4 6 27 13q0 2 -2 8.5t-2 9.5l1 2q28 -19 55 -23q-4 30 -23 60l2 1
q2 0 18 -4q6 24 13 28q6 -5 12 -28q16 4 19 4l1 -1q-19 -33 -23 -60q27 4 55 23l2 -2q0 -3 -2.5 -9.5t-2.5 -8.5q24 -6 27 -13q-3 -6 -27 -12q0 -2 2.5 -9t2.5 -10l-2 -1q-25 17 -55 23q4 -30 23 -60l-2 -1q-2 0 -18 4q-6 -24 -13 -28q-6 5 -12 28q-16 -4 -19 -4l-1 1
q19 33 23 60zM179 -30q-28 -6 -55 -23l-1 1q0 3 2 10t2 9q-25 7 -27 12q4 6 27 13q0 2 -2 8.5t-2 9.5l1 2q28 -19 55 -23q-4 30 -23 60l2 1q2 0 18 -4q6 24 13 28q6 -5 12 -28q16 4 19 4l1 -1q-19 -33 -23 -60q27 4 55 23l2 -2q0 -3 -2.5 -9.5t-2.5 -8.5q24 -6 27 -13
q-3 -6 -27 -12q0 -2 2.5 -9t2.5 -10l-2 -1q-25 17 -55 23q4 -30 23 -60l-2 -1q-2 0 -18 4q-6 -24 -13 -28q-6 5 -12 28q-16 -4 -19 -4l-1 1q19 33 23 60z" />
    <glyph glyph-name="ornament.003" horiz-adv-x="359" 
d="M229 618v-5q-31 -25 -45 -54h-8q-16 30 -46 53v6q2 2 8 6.5l8 6t6.5 5.5t7 6.5t5.5 6.5t5.5 8l5.5 9h8q11 -21 45 -48zM229 401v-5q-31 -25 -45 -54h-8q-16 30 -46 53v6q2 2 8 6.5l8 6t6.5 5.5t7 6.5t5.5 6.5t5.5 8l5.5 9h8q11 -21 45 -48zM229 176v-5q-31 -25 -45 -54
h-8q-16 30 -46 53v6q2 2 8 6.5l8 6t6.5 5.5t7 6.5t5.5 6.5t5.5 8l5.5 9h8q11 -21 45 -48zM229 -56v-5q-31 -25 -45 -54h-8q-16 30 -46 53v6q2 2 8 6.5l8 6t6.5 5.5t7 6.5t5.5 6.5t5.5 8l5.5 9h8q11 -21 45 -48z" />
    <glyph glyph-name="ornament.004" horiz-adv-x="426" 
d="M134 350q5 -7 14 -22t15 -22.5t18 -14.5t27 -8q-1 19 -10.5 30.5t-30 24.5t-27.5 18q0 22 32.5 45t40.5 37h2q7 -14 39.5 -37t32.5 -45l-27.5 -17.5t-30 -25t-9.5 -30.5q19 2 30 10.5t24 29.5t18 27q22 0 45 -32.5t37 -39.5v-2q-14 -8 -37 -40.5t-45 -32.5q-5 7 -18 27.5
t-24 29.5t-30 10q1 -19 9.5 -30.5t30.5 -25l27 -16.5q0 -22 -32.5 -45.5t-39.5 -36.5h-2q-7 13 -40 36.5t-33 45.5q6 4 27.5 17t30.5 25t10 31q-20 -1 -31.5 -9.5t-25.5 -31.5t-17 -27q-22 0 -45.5 33t-36.5 40v2q13 7 36.5 39.5t45.5 32.5z" />
    <glyph glyph-name="ornament.005" horiz-adv-x="443" 
d="M123 353h5q45 -52 84 -69l2 2q-21 44 -70 82v5q0 21 10 36t30 15q21 0 36 -27h3q15 27 36 27q20 0 29.5 -14.5t9.5 -35.5v-5q-51 -43 -69 -83l2 -2q39 17 84 69h5q20 0 35 -10t15 -29q0 -21 -28 -36v-3q28 -15 28 -36q0 -20 -15 -30t-36 -10h-5q-42 52 -83 70l-2 -2
q17 -39 69 -84v-4q0 -21 -9.5 -35.5t-29.5 -14.5q-21 0 -36 27h-3q-15 -27 -36 -27q-20 0 -30 15t-10 36v4q50 40 70 83l-2 2q-41 -18 -83 -70h-5q-21 0 -36 10t-15 30q0 21 27 36v3q-27 15 -27 36q0 20 14.5 29.5t35.5 9.5z" />
    <glyph glyph-name="f_" horiz-adv-x="582" 
d="M485 274v-84q0 -108 7 -160q27 -6 63 -19l-2 -19q-56 8 -105 8q-51 0 -102 -6l-3 19q30 13 59 20q9 67 9 157q0 162 -6 223q-20 11 -94 13l-134 2v-198q0 -134 12 -290q-19 3 -35 2q-30 -55 -45 -142l-18 1q12 216 12 429v199h-54l-2 2q0 16 3 22q13 5 53 17
q10 78 64 145t128 96q44 0 90 -16v-14q-38 -47 -43 -115h-22q0 39 -2 61q-20 12 -49 12q-45 0 -70 -24q-21 -56 -21 -145h146q110 0 167 15l7 -4q-13 -77 -13 -207zM579 634l-189 -109l-11 18q37 25 72.5 67t59.5 84q26 2 43 -1q7 -8 15.5 -28.5t9.5 -30.5z" />
    <glyph glyph-name="Lacute.may" horiz-adv-x="456" 
d="M313 797l-206 -75l-8 20q82 36 157 126q22 -2 42 -9q5 -9 10.5 -30.5t4.5 -31.5zM477 9l-6 -20q-100 11 -222 11q-135 0 -224 -10l-4 25q39 13 96 23q11 82 11 258v59q0 175 -11 258q-51 7 -96 21l4 25q53 -8 144 -8q82 0 156 8l3 -24q-60 -14 -110 -19q-13 -88 -13 -261
q0 -239 10 -313q33 -5 74 -5q71 0 111 18q12 37 19 112h25q4 -106 33 -158z" />
    <glyph glyph-name="hungarumlaut.may" horiz-adv-x="541" 
d="M303 807l-191 -85l-8 20q82 36 157 126q8 -1 27 -5q15 -27 15 -56zM472 807l-191 -85l-8 20q82 36 157 126q8 -1 27 -5q15 -27 15 -56z" />
    <glyph glyph-name="dbar" horiz-adv-x="520" 
d="M56 176q0 104 56 190.5t150 118.5q54 0 98 -10q0 64 -1 91h-22q-72 -2 -118 -9l-3 4q6 20 7 32l135 4q-1 27 -5 66q-24 8 -54 8v21q64 3 135 19l7 -5q-9 -49 -12 -106q36 2 51 4q4 -20 9 -31v-5l-62 -1q-3 -50 -3 -191v-183q0 -102 7 -160q24 -8 54 -8v-21
q-64 -3 -135 -19l-7 4q11 69 11 156l-4 1q-35 -50 -83 -97t-91 -64q-55 0 -87.5 61t-32.5 130zM136 221q0 -50 17.5 -102t50.5 -52q35 0 85 50t65 90q0 149 -7 192q-53 24 -104 24q-48 0 -74 -24q-33 -76 -33 -178z" />
    <glyph glyph-name="fleuron_001" horiz-adv-x="870" 
d="M313 415q16 -16 35.5 -16t36.5 6q1 1 7 4.5t7.5 4.5l6.5 4.5t6.5 5.5t5 5.5t4.5 6.5t3 7.5t2.5 9t0.5 10.5q0 26 -15.5 44t-44 38.5t-44.5 39.5v7q0 31 14 52.5t43 21.5q28 0 51 -39h6q23 39 51 39q29 0 43 -21.5t14 -52.5v-7q-16 -19 -44.5 -39.5t-44 -38.5t-15.5 -44
q0 -16 7.5 -28t12.5 -15.5t22 -14.5q18 -6 37.5 -6t35.5 16q19 19 20.5 42t-4 58t-3.5 60l5 5q53 52 93 12q20 -20 8 -64l4 -4q44 12 64 -8q40 -40 -12 -93l-5 -5q-25 -2 -60 3.5t-58 4t-42 -20.5q-16 -16 -16 -35.5t6 -37.5q19 -30 31 -36q11 -6 27 -6q26 0 44 15.5
t38.5 44t39.5 44.5h7q31 0 52.5 -14t21.5 -43q0 -28 -39 -51v-6q39 -23 39 -51q0 -29 -21.5 -43t-52.5 -14h-7q-19 16 -39.5 44.5t-38.5 44t-44 15.5q-16 0 -28 -8t-15.5 -12.5t-14.5 -22.5q-6 -17 -6 -36.5t16 -35.5q19 -19 42 -20.5t58 4t60 3.5l5 -5q52 -53 12 -93
q-20 -20 -64 -8l-4 -4q12 -44 -8 -64q-40 -40 -93 12l-5 5q-2 25 3.5 60t4 58t-20.5 42q-5 5 -10 8.5t-10.5 5t-9.5 2t-11 0t-9.5 -1t-11.5 -2.5t-11 -3t-7 -4.5t-7 -4.5t-6.5 -4t-6 -5t-5 -5.5t-4.5 -6.5t-3 -7.5t-2.5 -9t-0.5 -10.5q0 -26 15.5 -44t44 -38.5t44.5 -39.5
v-7q0 -31 -14 -52.5t-43 -21.5q-28 0 -51 39h-6q-23 -39 -51 -39q-29 0 -43 21.5t-14 52.5v7q16 19 44.5 39.5t44 38.5t15.5 44q0 6 -1 11.5t-2.5 9.5t-4.5 8.5t-5 6.5t-7 5.5l-7 5t-8 5.5t-8 5q-3 1 -9.5 2.5t-9.5 2l-9 1.5t-9 1t-8.5 -1t-9 -2.5t-8.5 -5t-9 -7.5
q-19 -19 -20.5 -42t4 -58t3.5 -60l-5 -5q-53 -52 -93 -12q-20 20 -8 64l-4 4q-44 -12 -64 8q-40 40 12 93l5 5q25 2 60 -3.5t58 -4t42 20.5q4 4 7.5 9t5 8.5t2.5 9t1 8.5t-1 9l-1.5 9t-2 9.5t-2.5 9.5q-1 2 -5 8t-5.5 8l-5 7t-5.5 7t-6.5 5t-8.5 4.5t-9.5 2.5t-11.5 1
q-26 0 -44 -15.5t-38.5 -44t-39.5 -44.5h-7q-31 0 -52.5 14t-21.5 43q0 28 39 51v6q-39 23 -39 51q0 29 21.5 43t52.5 14h7q19 -16 39.5 -44.5t38.5 -44t44 -15.5q16 0 28 7.5t14.5 12t14.5 22.5q1 2 3 11t2.5 11.5t1 9.5t0 11t-2 9.5t-5 10.5t-8.5 10q-19 19 -42 20.5
t-58 -4t-60 -3.5l-5 5q-52 53 -12 93q20 20 64 8l4 4q-12 44 8 64q40 40 93 -12l5 -5q2 -25 -3.5 -60t-4 -58t20.5 -42zM434 331q-5 10 -32 30q-4 -29 0 -43l-2 -2q-12 3 -43 -1q15 -23 30 -31v-2q-14 -7 -30 -32q29 -4 43 0l2 -2q-3 -12 1 -43q24 18 31 30h2q7 -12 31 -30
q4 31 1 43l2 2q12 -3 43 1q-22 27 -30 31v2q8 4 30 31q-31 4 -43 1l-2 2q3 12 -1 43q-25 -19 -31 -30h-2z" />
    <glyph glyph-name="fleuron_003" horiz-adv-x="419" 
d="M214 163q0 -19 11 -31.5t32 -27.5t32 -28v-6q0 -21 -10 -36.5t-30 -15.5q-21 0 -38 29h-4q-14 -29 -37 -29q-20 0 -30 15.5t-10 36.5v6q11 13 31.5 28t31 27.5t10.5 31.5q0 10 -3.5 17.5t-7.5 10.5l-12.5 9.5l-12.5 9.5q0 8 6 14.5t16 13t14 11.5q-4 5 -14.5 11.5t-16 13
t-5.5 15.5l12.5 8.5t13 10t7 11t3.5 17.5q0 18 -10.5 30.5t-31 27.5t-31.5 28v6q0 21 10 36.5t30 15.5q23 0 37 -29h4q17 29 38 29q20 0 30 -15.5t10 -36.5v-6q-12 -13 -32.5 -28t-31.5 -27.5t-11 -30.5q0 -13 4.5 -20t18 -16t15.5 -11q0 -9 -5.5 -15.5t-16.5 -13.5t-15 -11
q5 -5 15.5 -11.5t16 -13t5.5 -14.5q-4 -3 -16.5 -11.5t-17 -15.5t-4.5 -20zM214 -70q0 -19 11 -31.5t32 -27.5t32 -28v-6q0 -52 -40 -52q-19 0 -38 27h-4q-15 -27 -37 -27q-40 0 -40 52v6q11 13 31.5 28t31 27.5t10.5 31.5q0 9 -3.5 16t-7 10.5t-12.5 9.5t-13 9
q0 12 18.5 25.5t22.5 21.5h2q4 -7 23 -21t19 -26l-16 -10.5t-17.5 -15.5t-4.5 -19zM214 567q0 -12 4.5 -19t17.5 -15t16 -11q0 -13 -19 -26.5t-23 -20.5h-2q-4 8 -22.5 21t-18.5 26q4 3 13 9t12.5 9t7 10t3.5 17q0 18 -10.5 30.5t-31 27.5t-31.5 28v6q0 52 40 52
q22 0 37 -27h4q19 27 38 27q40 0 40 -52v-6q-12 -13 -32.5 -28t-31.5 -27.5t-11 -30.5z" />
    <glyph glyph-name="commaaccent" horiz-adv-x="116" 
d="M116 -84q-5 -79 -106 -131l-10 13q42 31 48 68q-26 24 -40 50q6 12 23 27.5t31 22.5q13 -8 30 -23.5t24 -26.5z" />
    <glyph glyph-name="grave.cap" horiz-adv-x="215" 
d="M207 731l-206 75q-1 10 4.5 31.5t10.5 30.5q20 7 42 9q75 -90 157 -126z" />
    <glyph glyph-name="acute.cap" horiz-adv-x="215" 
d="M214 797l-206 -75l-8 20q82 36 157 126q22 -2 42 -9q5 -9 10.5 -30.5t4.5 -31.5z" />
    <glyph glyph-name="circumflex.cap" horiz-adv-x="342" 
d="M332 715l-161 75l-161 -75l-10 19q92 58 161 151h20q69 -93 161 -151z" />
    <glyph glyph-name="dieresis.cap" horiz-adv-x="293" 
d="M108 803q-7 -13 -24.5 -33t-29.5 -28q-12 8 -29.5 28t-24.5 33q6 12 23 27.5t31 22.5q13 -8 30 -23.5t24 -26.5zM293 803q-7 -13 -24.5 -33t-29.5 -28q-12 8 -29.5 28t-24.5 33q6 12 23 27.5t31 22.5q13 -8 30 -23.5t24 -26.5z" />
    <glyph glyph-name="caron.cap" horiz-adv-x="342" 
d="M171 810l161 75l10 -19q-92 -58 -161 -151h-20q-69 93 -161 151l10 19z" />
    <glyph glyph-name="ring.cap" horiz-adv-x="193" 
d="M0 777q0 40 29.5 69.5t72.5 38.5q91 0 91 -74q0 -39 -26.5 -66.5t-69.5 -40.5q-41 0 -69 19t-28 54zM88 850q-20 0 -30 -9q-11 -17 -11 -43t16 -42.5t42 -16.5q19 0 30 9q11 16 11 43t-15.5 43t-42.5 16z" />
    <glyph glyph-name="tilde.cap" horiz-adv-x="330" 
d="M18 744l-18 11q56 61 128 82q59 -31 119 -31q45 0 65 24l18 -11q-56 -61 -104 -82q-21 0 -72.5 15.5t-72.5 15.5q-43 0 -63 -24z" />
    <glyph glyph-name="dotaccentcmb.cap" horiz-adv-x="108" 
d="M108 803q-7 -13 -24.5 -33t-29.5 -28q-12 8 -29.5 28t-24.5 33q6 12 23 27.5t31 22.5q13 -8 30 -23.5t24 -26.5z" />
    <glyph glyph-name="Ldotaccent.001" horiz-adv-x="456" 
d="M477 9l-6 -20q-100 11 -222 11q-135 0 -224 -10l-4 25q39 13 96 23q11 82 11 258v59q0 175 -11 258q-51 7 -96 21l4 25q53 -8 144 -8q82 0 156 8l3 -24q-60 -14 -110 -19q-13 -88 -13 -261q0 -239 10 -313q33 -5 74 -5q71 0 111 18q12 37 19 112h25q4 -106 33 -158z
M424 354q-7 -13 -24.5 -33t-29.5 -28q-12 8 -29.5 28t-24.5 33q6 12 23 27.5t31 22.5q13 -8 30 -23.5t24 -26.5z" />
    </font>
</defs>
</svg>
