<?xml version="1.0" standalone="no"?>
<!DOCTYPE svg PUBLIC "-//W3C//DTD SVG 1.1//EN" "http://www.w3.org/Graphics/SVG/1.1/DTD/svg11.dtd" >
<svg>
<metadata>
Created by FontForge 20090622 at Tue Jul 12 21:25:53 2016
 By deploy user
Copyright (c) 2011-2012, Ana Sanfelippo (anasanfe@gmail.com), with Reserved Font Name 'Almendra'
</metadata>
<defs>
<font id="Almendra-Bold" horiz-adv-x="648" >
  <font-face 
    font-family="Almendra"
    font-weight="700"
    font-stretch="normal"
    units-per-em="1000"
    panose-1="2 0 0 0 0 0 0 0 0 0"
    ascent="800"
    descent="-200"
    x-height="505"
    cap-height="660"
    bbox="-48 -251 939 906"
    underline-thickness="50"
    underline-position="-50"
    unicode-range="U+0020-U+FB02"
  />
<missing-glyph horiz-adv-x="180" 
 />
    <glyph glyph-name="ellipsis" unicode="&#x2e;&#x2e;&#x2e;" horiz-adv-x="716" 
d="M223 85q-11 -22 -41 -53t-53 -47q-23 15 -53 46.5t-42 53.5q13 21 40.5 45t54.5 36q24 -13 52 -36.5t42 -44.5zM452 85q-11 -22 -41 -53t-53 -47q-23 15 -53 46.5t-42 53.5q13 21 40.5 45t54.5 36q24 -13 52 -36.5t42 -44.5zM682 85q-11 -22 -41 -53t-53 -47
q-23 15 -53 46.5t-42 53.5q13 21 40.5 45t54.5 36q24 -13 52 -36.5t42 -44.5z" />
    <glyph glyph-name="fi" unicode="fi" horiz-adv-x="691" 
d="M435 322q0 44 -5 99q-152 15 -188 16v-169q0 -160 17 -328q-66 6 -129 8q-28 -52 -45 -148l-25 2q1 25 14.5 199.5t14.5 268.5l1 169h-67l-2 2q0 21 3 27q13 5 72 22q26 71 88 131t134 90q132 0 223 -49l-1 -12q-70 -41 -102 -111l-10 1q-73 81 -169 90q-15 -71 -17 -140
q225 0 360 15l7 -7q-21 -90 -21 -249q0 -171 9 -214q35 -10 66 -24l-3 -20q-68 9 -150 9q-97 0 -148 -7l-3 20q16 9 62 25q14 70 14 284z" />
    <glyph glyph-name="fl" unicode="fl" horiz-adv-x="687" 
d="M582 323q0 -244 9 -288q35 -10 66 -24l-3 -20q-68 9 -150 9q-97 0 -148 -7l-3 20q16 9 62 25q16 80 16 284q0 151 -3 238q-76 62 -169 70q-13 -64 -16 -138l108 5l5 -5q-11 -35 -14 -63q-94 8 -100 8v-169q0 -160 17 -328q-66 6 -129 8q-28 -52 -45 -148l-25 2
q1 25 14.5 199.5t14.5 268.5l1 169h-67l-2 2q0 21 3 27q13 5 72 22q26 71 88 131t134 90q94 0 175 -29q89 8 151 30l6 -19q-20 -17 -50 -34q-18 -83 -18 -336z" />
    <glyph glyph-name=".notdef" horiz-adv-x="180" 
 />
    <glyph glyph-name=".null" horiz-adv-x="0" 
 />
    <glyph glyph-name="nonmarkingreturn" horiz-adv-x="333" 
 />
    <glyph glyph-name="space" unicode=" " horiz-adv-x="180" 
 />
    <glyph glyph-name="exclam" unicode="!" horiz-adv-x="260" 
d="M223 85q-11 -22 -41 -53t-53 -47q-23 15 -53 46.5t-42 53.5q13 21 40.5 45t54.5 36q24 -13 52 -36.5t42 -44.5zM102 241l-38 437q59 35 130 33q39 -23 59 -60q-69 -188 -105 -405z" />
    <glyph glyph-name="quotedbl" unicode="&#x22;" horiz-adv-x="419" 
d="M102 378l-22 273q47 30 114 30l15 -20q-41 -120 -64 -278zM268 378l-22 273q47 30 114 30l15 -20q-41 -120 -64 -278z" />
    <glyph glyph-name="numbersign" unicode="#" horiz-adv-x="550" 
d="M483 187l-10 -64l-112 3l-26 -218h-5q-43 10 -55 21q17 97 30 199l-100 2l-26 -222h-5q-43 10 -55 21q21 121 30 202l-101 3l-8 7l10 67l46 -4q50 -4 61 -4l15 119l-97 3l-8 6l10 68l45 -4q45 -3 58 -4l25 199q33 0 58 5l4 -3q-21 -117 -32 -203l101 -4l25 205q33 0 58 5
l4 -3q-21 -112 -32 -208q91 -2 112 -1l7 -6l-10 -63l-117 3l-14 -121q87 -2 107 -1zM213 197l100 -3l15 122l-101 2z" />
    <glyph glyph-name="dollar" unicode="$" horiz-adv-x="500" 
d="M160 119q32 -29 72 -42l3 59l3 63l-29 10.5l-29.5 10.5t-26.5 10t-24.5 11t-18.5 10.5t-13 11t-4 10.5q0 65 58.5 134.5t128.5 106.5q0 11 -0.5 33.5t-0.5 35.5q23 10 39 23l6 -3q-4 -39 -7 -80q89 -2 151 -24v-16q-47 -48 -63 -108l-10 -2q-42 35 -83 52l-3 -63l-2 -32
q10 -4 28 -10.5l29 -10.5t26 -10t24 -11l18 -10.5t13 -11t4 -10.5q0 -71 -56 -142.5t-131 -115.5l-5 -110l-6 -1q-20 2 -35 17l9 81q-88 4 -154 23v16q50 66 55 163h24q0 -4 0.5 -8.5t1 -9.5l1 -10.5t1.5 -10l2 -9t1.5 -8.5t1 -6.5t1.5 -4.5v-1zM331 136q0 23 -59 49
l-6 -116h12q26 0 39.5 19t13.5 48zM211 395q0 -24 64 -52l4 93q-12 3 -25 3q-19 0 -31 -12.5t-12 -31.5z" />
    <glyph glyph-name="percent" unicode="%" horiz-adv-x="744" 
d="M1 389q18 81 73 131t104 50q22 0 110 -15t158 -15q63 0 86 38l6 10q55 3 79 10l3 -3l-145 -217l-305 -478h-5q-46 21 -53 32q101 137 122 170l175 274q48 72 94 151l-4 1q-30 -32 -76 -32q-55 0 -149 43l-3 -3q59 -47 82 -128q-18 -81 -71.5 -131t-103.5 -50
q-58 0 -107.5 45.5t-69.5 116.5zM392 147q18 81 73 131t104 50q58 0 106.5 -45.5t68.5 -116.5q-18 -81 -71.5 -131t-103.5 -50q-58 0 -107.5 45.5t-69.5 116.5zM569 291q-19 -11 -30.5 -50t-11.5 -85q0 -45 11.5 -84t30.5 -50q19 11 30.5 50t11.5 84q0 46 -11.5 85t-30.5 50
zM178 533q-19 -11 -30.5 -50t-11.5 -85q0 -45 11.5 -84t30.5 -50q19 11 30.5 50t11.5 84q0 46 -11.5 85t-30.5 50z" />
    <glyph glyph-name="ampersand" unicode="&#x26;" horiz-adv-x="686" 
d="M478 404q95 -16 95 -86q0 -81 -67 -151q18 -29 55 -69.5t64 -63.5q32 -4 54 -10l-3 -26q-45 3 -84 3q-115 0 -185 -16l-4 14q6 10 6 24q0 19 -10 31q-46 -43 -102 -69q-111 0 -187 54t-76 152q0 111 144 173q-23 36 -42 87.5t-19 86.5q28 36 96 77t115 51q41 0 76.5 -8.5
t62.5 -31.5t27 -58q0 -39 -33 -73t-77 -52l1 -5l233 18l4 -4q-7 -19 -14 -51q-110 7 -130 8v-5zM273 562q0 -51 68.5 -167t130.5 -186q10 34 10 84q0 119 -132 124l-7 19q45 37 45 90q0 34 -20 56.5t-53 22.5q-23 0 -35 -5q-7 -18 -7 -38zM317 75q31 0 56 16
q-75 82 -157 209q-12 -22 -12 -64q0 -68 28 -114.5t85 -46.5z" />
    <glyph glyph-name="quotesingle" unicode="'" horiz-adv-x="260" 
d="M102 378l-22 273q47 30 114 30l15 -20q-41 -120 -64 -278z" />
    <glyph glyph-name="parenleft" unicode="(" horiz-adv-x="297" 
d="M31 262q0 125 60.5 245.5t158.5 203.5l15 -14q-142 -194 -142 -435q0 -126 36 -248.5t104 -215.5l-13 -13q-96 81 -157.5 214t-61.5 263z" />
    <glyph glyph-name="parenright" unicode=")" horiz-adv-x="297" 
d="M266 262q0 -130 -61.5 -263t-157.5 -214l-13 13q68 93 104 215.5t36 248.5q0 241 -142 435l15 14q98 -83 158.5 -203.5t60.5 -245.5z" />
    <glyph glyph-name="asterisk" unicode="*" horiz-adv-x="371" 
d="M240 679q-28 -44 -39 -101q45 41 69 83l4 -1q1 -2 9 -30q35 5 43 -1q1 -6 -21 -38q20 -20 22 -23l-1 -3q-50 2 -109 -18q59 -20 109 -18l1 -3q-2 -3 -22 -23q22 -32 21 -38q-8 -6 -43 -1q-8 -28 -9 -30l-4 -1q-25 44 -69 83q11 -59 39 -101l-3 -2q-7 0 -31 7
q-15 -34 -22 -37q-10 5 -22 37q-25 -7 -31 -7l-3 2q23 38 37 101q-46 -43 -67 -83l-4 1q-1 2 -9 30q-38 -3 -43 1q-1 11 21 38q-20 20 -22 23l1 3q46 0 105 18q-59 18 -105 18l-1 3q2 3 22 23q-22 27 -21 38q5 4 43 1q8 28 9 30l4 1q21 -40 67 -83q-14 62 -37 101l3 2
q7 0 31 -7q12 32 22 37q7 -3 22 -37q25 7 31 7z" />
    <glyph glyph-name="plus" unicode="+" horiz-adv-x="576" 
d="M520 278l-9 -66h-191q0 -127 9 -222l-70 -9l-10 7v224h-184l-8 7l9 71q122 -6 183 -7v203l71 9l5 -6q-5 -133 -5 -206v-1q37 -1 109 -1q46 0 85 3z" />
    <glyph glyph-name="comma" unicode="," horiz-adv-x="257" 
d="M223 85q0 -64 -57.5 -140.5t-120.5 -113.5l-16 20q67 63 76 153q-19 16 -40.5 40.5t-30.5 40.5q13 21 40.5 45t54.5 36q24 -13 52 -36.5t42 -44.5z" />
    <glyph glyph-name="hyphen" unicode="-" horiz-adv-x="300" 
d="M276 303l-6 -62l-237 -15l-9 6l6 66h46q108 0 192 10z" />
    <glyph glyph-name="period" unicode="." horiz-adv-x="257" 
d="M223 85q-11 -22 -41 -53t-53 -47q-23 15 -53 46.5t-42 53.5q13 21 40.5 45t54.5 36q24 -13 52 -36.5t42 -44.5z" />
    <glyph glyph-name="slash" unicode="/" horiz-adv-x="354" 
d="M68 -41h-5q-45 19 -54 30q23 50 76 189l117 299q40 104 78 221q47 3 69 8l4 -3q-26 -59 -83 -212z" />
    <glyph glyph-name="zero" unicode="0" horiz-adv-x="520" 
d="M4 231q27 122 106 198t152 76q84 0 154.5 -69t99.5 -177q-27 -123 -104.5 -198.5t-149.5 -75.5q-85 0 -157 69.5t-101 176.5zM262 460q-34 -18 -54.5 -80.5t-20.5 -134.5t20.5 -134.5t54.5 -80.5q34 18 54 81t20 134q0 72 -20 134.5t-54 80.5z" />
    <glyph glyph-name="one" unicode="1" horiz-adv-x="341" 
d="M257 37q33 -11 57 -23l-3 -20q-54 6 -135 6q-102 0 -164 -9l-3 22q24 10 76 22q9 61 9 213q0 136 -8 204q-54 16 -74 28l4 22q67 -12 182 -12q76 0 119 5l3 -23q-38 -10 -61 -21q-12 -93 -12 -203q0 -149 10 -211z" />
    <glyph glyph-name="two" unicode="2" horiz-adv-x="456" 
d="M212 505q91 0 142 -40.5t51 -124.5q-102 -110 -252 -212v-10q21 13 33 16q88 0 193 -17q13 25 24 57l22 -7q-12 -39 -12 -95q0 -45 10 -82l-12 -8q-180 37 -362 37q-17 -16 -33 -44l-23 10q16 41 57.5 93.5t80.5 93t69.5 93t30.5 99.5q0 34 -13 50.5t-45 16.5
q-21 0 -42 -8q-8 -22 -8 -51q0 -26 11 -36l-1 -7q-53 -19 -88 -50q-26 2 -26 29q0 63 62.5 122.5t130.5 74.5z" />
    <glyph glyph-name="three" unicode="3" horiz-adv-x="470" 
d="M64 505q144 -27 325 -27q32 14 57 39l20 -16l-211 -214q197 -27 197 -215q-40 -57 -111.5 -111t-136.5 -76q-80 0 -197 54v14q35 40 44 165h25q0 -40 2 -63q31 -45 71 -68.5t75 -23.5q27 0 44 13q13 31 13 76q0 71 -32.5 103t-104.5 32l-13 8l119 169l-2 4
q-16 -7 -28 -10q-54 0 -120 7q-15 -33 -23 -63l-22 6q8 48 8 99q0 56 -11 89z" />
    <glyph glyph-name="four" unicode="4" horiz-adv-x="534" 
d="M408 289q0 -89 2 -161q40 0 56 7.5t28 38.5l19 -4q-11 -56 -11 -135l-5 -2q-36 3 -86 3q0 -56 8 -101q19 -9 54 -20l-5 -24q-60 9 -136 9q-89 0 -165 -12l-4 22q21 11 84 27q7 45 7 99h-253l-8 24q133 164 245 423q39 1 96 8.5t81 17.5l9 -4q-16 -90 -16 -216zM250 399
q-51 -151 -119 -260q55 -6 123 -8l3 268h-7z" />
    <glyph glyph-name="five" unicode="5" horiz-adv-x="487" 
d="M358 368q-83 -8 -183 -8l-23 10l-4 -3l-22 -123q54 31 116 43q101 -5 159 -61t58 -154q-40 -57 -111.5 -111t-136.5 -76q-80 0 -197 54v14q35 40 44 165h25q0 -40 2 -63q31 -45 71 -68.5t75 -23.5q27 0 44 13q13 31 13 76q0 140 -127 140q-40 0 -72 -18l-12 10l10 207
q4 68 -2 110l22 4l10 -28q161 3 281 27l11 -9q-13 -39 -13 -98q0 -50 6 -86l-24 -5q-11 38 -20 62z" />
    <glyph glyph-name="six" unicode="6" horiz-adv-x="499" 
d="M189 215q0 -161 65 -161q28 0 42 13q11 35 11 79q0 67 -16 97.5t-69 30.5v9q42 42 62 90q87 0 137 -54.5t50 -162.5q-42 -58 -105 -104.5t-130 -66.5q-212 0 -212 197q0 137 104 248t249 155l13 -18q-105 -66 -153 -148.5t-48 -203.5z" />
    <glyph glyph-name="seven" unicode="7" horiz-adv-x="398" 
d="M61 -66q8 64 39 129.5t114 197.5l65 103l-4 4q-14 -7 -27 -11q-76 -4 -171 6q-12 -29 -20 -63l-24 5q6 36 6 97q0 57 -13 96l11 9q129 -27 326 -27q11 11 20 26l24 -12q-64 -111 -105 -212q-42 -103 -60.5 -181t-18.5 -160q48 -10 85 -26l-3 -22q-58 7 -137 7
q-93 0 -156 -13l-5 23q20 5 54 24z" />
    <glyph glyph-name="eight" unicode="8" horiz-adv-x="482" 
d="M30 130q0 70 115 150q-91 62 -91 174q29 43 90.5 81t115.5 50q70 0 111 -25t41 -75q0 -31 -26.5 -66.5t-65.5 -62.5q31 -16 50.5 -29.5t42.5 -36t34 -53.5t11 -71q-32 -62 -89.5 -112.5t-124.5 -68.5q-88 0 -151 36.5t-63 108.5zM307 129q0 11 -1.5 20.5t-6.5 18l-9 15
t-13.5 14.5l-14 12t-17.5 12l-18 11t-20.5 11.5t-19.5 10.5q-30 -52 -30 -105q0 -44 29.5 -73t73.5 -29q29 0 38 9q9 36 9 73zM199 478q0 -34 19.5 -56t56.5 -43q25 39 25 89q0 26 -17 40.5t-45 14.5q-23 0 -33 -8q-6 -15 -6 -37z" />
    <glyph glyph-name="nine" unicode="9" horiz-adv-x="499" 
d="M310 265q0 37 -2 63t-8.5 53t-20 41t-34.5 14q-28 0 -42 -13q-11 -35 -11 -89q0 -33 2.5 -54.5t11 -42.5t26 -31t45.5 -10v-9q-42 -42 -62 -90q-85 0 -136 63.5t-51 173.5q42 58 105 104.5t130 66.5q212 0 212 -197q0 -145 -104 -262.5t-249 -160.5l-13 18
q105 66 153 150t48 212z" />
    <glyph glyph-name="colon" unicode=":" horiz-adv-x="257" 
d="M223 85q-11 -22 -41 -53t-53 -47q-23 15 -53 46.5t-42 53.5q13 21 40.5 45t54.5 36q24 -13 52 -36.5t42 -44.5zM223 424q-11 -22 -41 -53t-53 -47q-23 15 -53 46.5t-42 53.5q13 21 40.5 45t54.5 36q24 -13 52 -36.5t42 -44.5z" />
    <glyph glyph-name="semicolon" unicode=";" horiz-adv-x="257" 
d="M223 85q0 -64 -57.5 -140.5t-120.5 -113.5l-16 20q67 63 76 153q-19 16 -40.5 40.5t-30.5 40.5q13 21 40.5 45t54.5 36q24 -13 52 -36.5t42 -44.5zM223 424q-11 -22 -41 -53t-53 -47q-23 15 -53 46.5t-42 53.5q13 21 40.5 45t54.5 36q24 -13 52 -36.5t42 -44.5z" />
    <glyph glyph-name="less" unicode="&#x3c;" horiz-adv-x="576" 
d="M55 222l14 64q56 17 186 66q126 48 242 107l24 -66l-5 -10l-349 -129v-4l349 -128l5 -10l-26 -67q-113 56 -240 107q-103 41 -200 70z" />
    <glyph glyph-name="equal" unicode="=" horiz-adv-x="576" 
d="M519 196l-9 -61h-446l-8 7l9 66q169 -9 363 -9q46 0 85 3zM519 355l-9 -61h-446l-8 7l9 66q169 -9 363 -9q46 0 85 3z" />
    <glyph glyph-name="greater" unicode="&#x3e;" horiz-adv-x="576" 
d="M507 286l14 -64q-97 -29 -200 -70q-127 -51 -240 -107l-26 67l5 10l349 128v4l-349 129l-5 10l24 66q116 -59 242 -107q130 -49 186 -66z" />
    <glyph glyph-name="question" unicode="?" horiz-adv-x="351" 
d="M261 85q-11 -22 -41 -53t-53 -47q-23 15 -53 46.5t-42 53.5q13 21 40.5 45t54.5 36q24 -13 52 -36.5t42 -44.5zM140 244l-22 130v19q87 72 87 182q0 62 -58 62q-21 0 -42 -8q-8 -22 -8 -50q0 -27 11 -37l-1 -7q-53 -19 -88 -50q-26 2 -26 29q0 61 62.5 121.5t129.5 75.5
q86 0 141 -41t55 -118q-55 -74 -171 -160q-18 -110 -22 -143z" />
    <glyph glyph-name="at" unicode="@" horiz-adv-x="878" 
d="M209 192q0 100 70 185t172 128q85 0 172 -29q21 25 30 53l24 -7q-21 -89 -21 -320q0 -96 7 -153q54 45 82.5 124.5t28.5 162.5q0 298 -305 298q-107 0 -179 -49q-75 -80 -118.5 -189t-43.5 -218q0 -152 73 -235t219 -83q62 0 119 22l7 -13q-60 -42 -134 -59
q-180 0 -275 87.5t-95 263.5q0 202 123 348.5t320 174.5q171 0 272 -78t101 -235q0 -142 -83 -255.5t-212 -130.5q-52 19 -52 174l-10 1q-37 -99 -123 -175q-75 0 -122 62.5t-47 144.5zM368 238q0 -137 43 -137q17 0 42.5 32t48.5 94q0 127 -4 170q-26 32 -69 32
q-23 0 -41 -5q-20 -79 -20 -186z" />
    <glyph glyph-name="A" unicode="A" horiz-adv-x="644" 
d="M332 651q157 0 261 11l4 -26q-21 -10 -50 -17q-13 -83 -13 -283q0 -207 14 -302q39 -7 60 -17l-3 -26q-72 9 -157 9q-84 0 -144 -9l-4 27q22 12 56 19q8 64 12 193q-27 4 -74 4q-48 0 -81 -5q-15 -97 -15 -135q0 -34 8.5 -54.5t33.5 -30.5l-3 -16q-54 7 -110 7
q-93 0 -147 -9l-4 27q20 11 56 19l152 577q-30 8 -59 22l5 26q87 -11 202 -11zM369 301v25q0 174 -11 267q-12 5 -43 5q-23 0 -41 -5l-51 -292q36 -4 71 -4q48 0 75 4z" />
    <glyph glyph-name="B" unicode="B" horiz-adv-x="618" 
d="M300 -15q-81 0 -186 40q-14 -17 -25 -48l-25 6q28 127 28 342q0 193 -13 281q-26 13 -58 16v27q41 0 155 4.5t155 4.5q36 0 58.5 -1t53.5 -4t50 -11t38 -20.5t27.5 -33.5t8.5 -49q0 -52 -36 -97t-89 -68v-8q70 0 110 -32t40 -97q0 -82 -98 -159t-194 -93zM294 342l5 42
h14q39 0 57 13q22 41 22 112q0 100 -85 100q-26 0 -41 -5q-9 -91 -9 -279q0 -116 7 -233q31 -23 79 -23q39 0 57 13q15 47 15 109q0 79 -25 115t-96 36z" />
    <glyph glyph-name="C" unicode="C" horiz-adv-x="516" 
d="M342 83q42 0 76 15t75 46l16 -15q-83 -106 -198 -144q-137 0 -209 72t-72 208q0 141 84 247t225 154q104 0 209 -19l-1 -24q-27 0 -49 -9q-29 -79 -29 -158h-27q-10 38 -12 84q-45 42 -116 42q-47 0 -69 -17q-17 -39 -26.5 -106.5t-9.5 -119.5q0 -41 1 -65t4.5 -58.5
t12.5 -54.5t23 -40t37 -29t55 -9z" />
    <glyph glyph-name="D" unicode="D" horiz-adv-x="661" 
d="M307 -15q-79 0 -193 40q-14 -17 -25 -48l-25 6q28 133 28 342q0 193 -13 281q-26 13 -58 16v27q50 0 160 4.5t160 4.5q145 0 217.5 -66t72.5 -206q0 -149 -90 -261.5t-234 -139.5zM302 609q-21 0 -36 -5q-9 -100 -9 -279q0 -112 7 -229q38 -27 86 -27q38 0 65 17
q37 90 37 234q0 289 -150 289z" />
    <glyph glyph-name="E" unicode="E" horiz-adv-x="526" 
d="M342 83q42 0 76 15t75 46l16 -15q-83 -106 -198 -144q-137 0 -209 72t-72 208q0 141 84 247t225 154q104 0 209 -19l-1 -24q-27 0 -49 -9q-29 -79 -29 -158h-27q-10 38 -12 84q-45 42 -116 42q-47 0 -69 -17q-27 -62 -34 -180q37 -10 91 -10q76 0 110 35l22 -5
q-13 -39 -13 -81q0 -40 10 -88l-25 -4q-14 36 -21 74q-31 5 -83 5q-54 0 -93 -5q0 -51 4.5 -86t17.5 -69t41 -51t70 -17z" />
    <glyph glyph-name="F" unicode="F" horiz-adv-x="499" 
d="M279 651q136 0 230 13l6 -21q-39 -52 -42 -163h-27q-9 46 -9 87q-33 17 -95 17q-40 0 -59 -7q-8 -100 -8 -215q19 -4 42 -4q76 0 110 35l22 -5q-13 -39 -13 -81q0 -40 10 -88l-25 -4q-14 36 -21 74q-31 5 -83 5q-26 0 -42 -2q1 -180 14 -258q39 -7 60 -17l-3 -26
q-72 9 -157 9q-84 0 -144 -9l-4 27q22 12 56 19q13 97 13 289q0 177 -15 288q-31 7 -56 20l4 27q79 -10 236 -10z" />
    <glyph glyph-name="G" unicode="G" horiz-adv-x="557" 
d="M313 83q21 0 39 3l-5 108q-4 46 -9 67q-22 12 -61 19l3 22q23 -3 44 -3q48 0 102 13t91 38l15 -17q-23 -19 -34 -39q-14 -142 -22 -298h-22q-11 46 -26 77q-69 -62 -146 -88q-137 0 -209 72t-72 208q0 141 84 247t225 154q110 0 223 -24l-1 -24q-26 0 -49 -9
q-29 -79 -29 -158h-27q-10 38 -12 84q-24 21 -60.5 34t-69.5 13q-47 0 -69 -17q-17 -39 -26.5 -106.5t-9.5 -119.5q0 -41 1 -65t4.5 -58.5t12.5 -54.5t23 -40t37 -29t55 -9z" />
    <glyph glyph-name="H" unicode="H" horiz-adv-x="744" 
d="M458 614q-27 7 -46 19l4 27q59 -9 142 -9q94 0 158 9l3 -26q-26 -10 -70 -17q-15 -85 -15 -291q0 -207 15 -292q44 -7 70 -17l-3 -26q-64 9 -156 9q-85 0 -144 -9l-4 27q19 12 46 19q10 102 11 278q-44 7 -96 7q-54 0 -98 -7q1 -202 13 -281q39 -7 60 -17l-3 -26
q-72 9 -156 9t-144 -9l-4 27q22 12 56 19q13 97 13 289q0 177 -15 288q-34 7 -56 19l4 27q60 -9 144 -9t156 9l3 -26q-21 -10 -60 -17q-9 -59 -11 -223q40 -9 98 -9q61 0 96 8q-1 120 -11 221z" />
    <glyph glyph-name="I" unicode="I" horiz-adv-x="385" 
d="M275 336q0 -207 14 -302q39 -7 60 -17l-3 -26q-72 9 -157 9q-84 0 -144 -9l-4 27q22 12 56 19q13 97 13 289q0 177 -15 288q-34 7 -56 19l4 27q60 -9 144 -9q85 0 157 9l3 -26q-21 -10 -60 -17q-12 -77 -12 -281z" />
    <glyph glyph-name="J" unicode="J" horiz-adv-x="377" 
d="M110 164v190q0 186 -12 263q-39 7 -60 17l3 26q72 -9 157 -9q84 0 144 9l4 -27q-22 -12 -56 -19q-15 -111 -15 -260q0 -220 13 -317q-101 -129 -300 -219l-17 21q80 61 109.5 136.5t29.5 188.5z" />
    <glyph glyph-name="K" unicode="K" horiz-adv-x="670" 
d="M437 427l205 -390q36 -8 56 -19l-4 -27q-50 9 -151 9q-69 0 -126 -5l-3 18q18 18 18 64q0 32 -17 82.5t-70 174.5l-70 -72q3 -147 14 -228q39 -7 60 -17l-3 -26q-72 9 -157 9q-84 0 -144 -9l-4 27q22 12 56 19q13 97 13 289q0 177 -15 288q-34 7 -56 19l4 27
q60 -9 144 -9q80 0 143 9l3 -26q-10 -6 -46 -17q-12 -77 -12 -288q66 87 100 144t40 78.5t6 45.5q0 28 -22 45l3 16q54 -7 125 -7q102 0 145 9l4 -27q-20 -11 -56 -19z" />
    <glyph glyph-name="L" unicode="L" horiz-adv-x="480" 
d="M276 0q-154 0 -233 -10l-4 27q25 13 56 20q15 113 15 289q0 177 -15 288q-34 7 -56 19l4 27q60 -9 144 -9q85 0 157 9l3 -26q-21 -10 -60 -17q-12 -77 -12 -281q0 -186 8 -266q19 -7 53 -7q56 0 83 14q10 33 15 90h29q0 -112 41 -159l-6 -21q-94 13 -222 13z" />
    <glyph glyph-name="M" unicode="M" horiz-adv-x="847" 
d="M301 70q0 74 -33 194t-71 214l-8 -1l-12 -130q-10 -111 -10 -238q0 -76 42 -98l-3 -16q-47 5 -98 5q-55 0 -108 -8l-4 27q19 10 56 18l95 577q-34 7 -56 19l4 27q59 -9 142 -9q85 0 143 7l3 -17q-34 -9 -34 -34q0 -14 6 -43t25.5 -114.5l37.5 -166.5l6 -28l10 3
q3 56 86 349q0 25 -26 33l3 17q51 -6 129 -6q96 0 148 8l5 -25q-20 -11 -47 -18q-6 -29 -6 -74q0 -81 17 -254.5t33 -253.5q44 -7 70 -17l-3 -26q-64 9 -149 9t-144 -9l-4 27q19 12 46 19q-2 231 -33 440l-7 1q-59 -183 -74 -252t-15 -121q-86 -30 -150 -75l-13 7q1 11 1 33
z" />
    <glyph glyph-name="N" unicode="N" horiz-adv-x="705" 
d="M191 651q93 0 144 7l3 -18q-10 -3 -17 -12t-7 -19q0 -21 6 -41t52 -105t138 -236l4 2v94q0 172 -16.5 236.5t-76.5 79.5l3 21q58 -9 125 -9q68 0 128 9l3 -26q-26 -10 -70 -17q-5 -25 -10 -114.5t-5 -176.5q0 -207 15 -292q38 -6 70 -17l-3 -26q-61 9 -127 9
q-64 0 -117 -6q0 43 -42 127t-196 340l-4 -2v-77q0 -155 11 -235.5t48 -112.5q39 -7 60 -17l-3 -26q-83 9 -125 9q-77 0 -137 -9l-4 27q22 12 56 19q13 97 13 289q0 66 -5.5 161t-9.5 127q-34 7 -56 19l4 27q57 -9 148 -9z" />
    <glyph glyph-name="O" unicode="O" 
d="M30 265q0 142 83.5 247.5t224.5 153.5q138 0 209 -70.5t71 -208.5q0 -143 -78 -248.5t-216 -153.5q-138 0 -216 77t-78 203zM303 582q-34 0 -57 -16q-37 -86 -37 -227q0 -49 5.5 -91.5t19.5 -85.5t42.5 -68t68.5 -25q32 0 57 17q37 85 37 224q0 37 -1.5 64.5t-5.5 61.5
t-13.5 58t-24 45t-38 32t-53.5 11z" />
    <glyph glyph-name="P" unicode="P" horiz-adv-x="584" 
d="M275 336q0 -207 14 -302q39 -7 60 -17l-3 -26q-72 9 -157 9q-84 0 -144 -9l-4 27q22 12 56 19q13 97 13 289q0 157 -14 280q-26 13 -57 16v27q53 0 159 4.5t151 4.5q116 1 179 -34t63 -130q0 -93 -76 -153t-176 -60q-18 0 -26 1l4 46h12q82 0 82 151q0 61 -19.5 95.5
t-69.5 34.5q-19 0 -37 -5q-10 -88 -10 -268z" />
    <glyph glyph-name="Q" unicode="Q" 
d="M631 -72q25 8 44 22l17 -21q-44 -34 -72.5 -68t-60.5 -89l-24 20q-58 45 -132 78t-135 33q-66 0 -109 -36l-18 16q24 31 65 59.5t81 44.5q-118 11 -184 86t-66 192q0 142 82 247.5t220 153.5q135 0 204.5 -70.5t69.5 -208.5q0 -130 -63 -229t-176 -153q41 -5 129 -39
t128 -38zM304 582q-33 0 -56 -16q-36 -87 -36 -227q0 -49 5.5 -91.5t19 -85.5t41.5 -68t67 -25q33 0 56 17q37 85 37 224q0 45 -2 77.5t-9.5 72t-21.5 64t-39.5 41.5t-61.5 17z" />
    <glyph glyph-name="R" unicode="R" horiz-adv-x="655" 
d="M275 336q0 -207 14 -302q39 -7 60 -17l-3 -26q-72 9 -157 9q-84 0 -144 -9l-4 27q22 12 56 19q13 97 13 289q0 157 -14 280q-26 13 -57 16v27q49 0 155 4.5t155 4.5q56 0 96.5 -6.5t75.5 -23.5t53 -50.5t18 -83.5q0 -53 -30.5 -95.5t-82.5 -69.5l144 -292q36 -8 56 -19
l-4 -27q-49 9 -146 9q-64 0 -121 -5l-3 18q18 18 18 64q0 68 -60 227q-24 4 -50 4l4 41h11q43 0 62.5 37.5t19.5 92.5q0 130 -88 130q-19 0 -37 -5q-10 -88 -10 -268z" />
    <glyph glyph-name="S" unicode="S" horiz-adv-x="465" 
d="M98 131q60 -55 132 -55q84 0 84 72q0 24 -41.5 58t-91.5 63.5t-91.5 66.5t-41.5 66q0 85 71.5 159.5t164.5 104.5q94 0 173 -22v-20q-26 -24 -40.5 -70.5t-17.5 -93.5h-27q0 50 -6 82q-45 39 -108 39q-34 0 -58.5 -16t-24.5 -46q0 -24 43 -57.5t94.5 -62.5t94.5 -65.5
t43 -65.5q0 -75 -78 -164.5t-157 -118.5q-81 0 -159 23q-18 -9 -42 -37l-20 19q62 65 71 210h28z" />
    <glyph glyph-name="T" unicode="T" horiz-adv-x="554" 
d="M277 651q195 0 294 14l6 -21q-39 -52 -42 -160h-27q-9 47 -9 87q-33 17 -85 17q-21 0 -41 -4q-8 -108 -8 -248q0 -207 14 -302q39 -7 60 -17l-3 -26q-72 9 -157 9q-84 0 -144 -9l-4 27q22 12 56 19q13 97 13 289q0 130 -11 255q-19 7 -49 7q-48 0 -76 -14
q-11 -39 -14 -90h-29q-3 107 -44 161l6 21q117 -15 294 -15z" />
    <glyph glyph-name="U" unicode="U" horiz-adv-x="708" 
d="M598 336q0 -207 14 -302q39 -7 60 -17l-3 -26q-72 9 -117 9q-74 0 -134 -9l-4 18q9 14 13 57q-51 -49 -131 -81q-123 0 -170 61t-47 195q0 57 7 181t7 136q0 36 -7 57q-36 8 -51 18l4 27q70 -9 149 -9q68 0 113 7l4 -17q-24 -13 -33 -33t-12 -59q-11 -132 -11 -273
q0 -34 0.5 -51t3 -44t8 -41t15.5 -29t26.5 -21.5t38.5 -6.5q45 0 89 34q3 44 3 209q0 177 -15 288q-34 7 -56 19l4 27q60 -9 144 -9q85 0 157 9l3 -26q-21 -10 -60 -17q-12 -77 -12 -281z" />
    <glyph glyph-name="V" unicode="V" horiz-adv-x="604" 
d="M384 32q44 -10 67 -17l-4 -24q-60 9 -161 9q-84 0 -143 -5l-3 16q34 9 34 30q0 70 -108 488q-14 54 -33 87q-32 7 -51 17l4 27q60 -9 153 -9q80 0 155 9l3 -26q-28 -11 -60 -18q19 -212 107 -537q78 300 78 439q0 94 -59 121l3 20q69 -8 126 -8q68 0 128 9l4 -27
q-21 -8 -56 -16q18 -36 18 -92q0 -73 -43 -178.5t-159 -314.5z" />
    <glyph glyph-name="W" unicode="W" horiz-adv-x="919" 
d="M705 32q44 -10 67 -17l-4 -24q-60 9 -157 9q-77 0 -140 -8l-3 16q13 3 23.5 12t10.5 21q0 61 -37 226l-81 -235q18 -12 47 -17l-4 -24q-60 9 -161 9q-64 0 -123 -5l-3 16q34 9 34 30q0 70 -108 488q-14 54 -33 87q-32 7 -51 17l4 27q86 -10 311 -10q206 0 318 10l3 -26
q-28 -11 -60 -18q19 -212 107 -537q72 308 72 439q0 94 -59 121l3 20q69 -8 126 -8q68 0 128 9l4 -27q-21 -8 -56 -16q18 -36 18 -92q0 -72 -41.5 -176.5t-154.5 -316.5zM338 618q-50 0 -100 -13q18 -201 106 -526q72 308 72 439q0 56 -14.5 78t-63.5 22z" />
    <glyph glyph-name="X" unicode="X" horiz-adv-x="635" 
d="M349 660l3 -26q-25 -10 -60 -18q0 -37 12.5 -75.5t57.5 -113.5q60 126 60 172q0 31 -23 43l4 16q56 -7 116 -7q71 0 131 9l4 -27q-27 -13 -56 -19q-98 -99 -201 -236l206 -343q36 -8 56 -17l-4 -27q-60 9 -141 9q-78 0 -126 -6l-4 15q4 8 4 23q0 38 -20 88.5t-85 155.5
q-62 -166 -62 -241q25 -5 55 -18l-3 -26q-60 9 -135 9q-87 0 -147 -9l-5 26q22 11 62 20l199 290l-184 289q-34 7 -52 17l4 27q60 -9 153 -9q91 0 181 9z" />
    <glyph glyph-name="Y" unicode="Y" horiz-adv-x="566" 
d="M226 617q62 -185 98 -254q42 125 53.5 168.5t11.5 71.5t-22 39l3 16q65 -7 114 -7q62 0 112 9l4 -26q-24 -13 -58 -20l-176 -286q0 -198 13 -294q43 -9 60 -17l-3 -26q-64 9 -156 9q-85 0 -145 -9l-4 27q21 11 57 19q12 90 12 238v26q-92 193 -120.5 244t-53.5 71
q-33 9 -48 17l4 27q64 -9 151 -9q79 0 150 9l3 -26q-17 -8 -60 -17z" />
    <glyph glyph-name="Z" unicode="Z" horiz-adv-x="513" 
d="M399 640q45 0 68.5 8t47.5 29l22 -17q-29 -27 -69 -111l-225 -462l5 -4h69q73 0 104 43q5 22 5 71l28 1q9 -131 78 -203l-21 -15q-8 10 -20 18q-142 23 -338 23q-120 0 -153 -39l-22 18q23 23 76 118l261 454l-5 5h-95q-65 0 -107 -39q-11 -38 -26 -69l-24 4q2 38 2 73
q0 45 -9 81q-16 9 -47 17l3 23q32 0 168 -13.5t224 -13.5z" />
    <glyph glyph-name="bracketleft" unicode="[" horiz-adv-x="326" 
d="M296 -175v-21q-139 2 -208 -15l-7 5q10 69 10 455q0 384 -10 453l7 5q69 -17 208 -15v-21q-78 -2 -132 -17v-812q54 -15 132 -17z" />
    <glyph glyph-name="backslash" unicode="\" horiz-adv-x="351" 
d="M275 -45h-5l-178 523q-46 137 -78 218q1 0 27 8t35 13h4q26 -95 69 -224l109 -318q32 -93 72 -192q-6 -7 -55 -28z" />
    <glyph glyph-name="bracketright" unicode="]" horiz-adv-x="326" 
d="M30 -196v21q78 2 132 17v812q-54 15 -132 17v21q139 -2 208 15l7 -5q-10 -69 -10 -453q0 -386 10 -455l-7 -5q-69 17 -208 15z" />
    <glyph glyph-name="asciicircum" unicode="^" horiz-adv-x="518" 
d="M259 550l-180 -272l-34 18q58 103 94.5 178t91.5 212l53 10q57 -140 95 -220.5t94 -179.5l-34 -18z" />
    <glyph glyph-name="underscore" unicode="_" horiz-adv-x="656" 
d="M649 -141l-8 -54h-626l-8 7l8 59q170 -9 472 -9q117 0 156 3z" />
    <glyph glyph-name="grave" unicode="`" horiz-adv-x="272" 
d="M262 527l-262 97q1 27 8.5 66.5t16.5 54.5q6 2 16 2q23 0 32 -3q74 -125 199 -193z" />
    <glyph glyph-name="a" unicode="a" horiz-adv-x="547" 
d="M24 192q0 100 70 185t172 128q85 0 172 -29q23 27 34 63l22 -7q-23 -97 -23 -330q0 -103 8 -162q24 -11 56 -13v-22q-109 0 -221 -20l-7 7q19 82 19 167l-10 1q-37 -99 -123 -175q-75 0 -122 62.5t-47 144.5zM183 238q0 -137 43 -137q17 0 42.5 32t48.5 94q0 127 -4 170
q-26 32 -69 32q-24 0 -41 -5q-20 -79 -20 -186z" />
    <glyph glyph-name="b" unicode="b" horiz-adv-x="545" 
d="M240 659q-9 -37 -15 -153.5t-6 -174.5l10 -1q37 99 123 175q75 0 122 -62.5t47 -144.5q0 -100 -70 -185t-172 -128q-86 0 -224 45q20 139 20 294q0 196 -3.5 269t-21.5 140l24 7q10 -37 31 -62q84 6 179 33l5 -19q-12 -10 -49 -33zM366 252q0 137 -43 137
q-17 0 -42.5 -32t-48.5 -94q0 -127 4 -170q26 -32 69 -32q23 0 41 5q20 79 20 186z" />
    <glyph glyph-name="c" unicode="c" horiz-adv-x="417" 
d="M386 164l16 -8q-59 -122 -161 -171q-99 0 -158 60t-59 160q0 91 70.5 175.5t165.5 124.5q93 0 169 -26v-16q-49 -44 -64.5 -74t-21.5 -79h-24q-3 39 -10 64q-45 43 -107 50q-18 -97 -18 -177q0 -153 93 -153q30 0 61 20.5t48 49.5z" />
    <glyph glyph-name="d" unicode="d" horiz-adv-x="546" 
d="M497 704q-27 -126 -27 -381q0 -216 9 -283q24 -11 56 -13v-22q-109 0 -221 -20l-7 7q19 82 19 167l-10 1q-37 -99 -123 -175q-75 0 -122 62.5t-47 144.5q0 100 70 185t172 128q31 0 67 -6q0 100 -8 157q-24 11 -56 13v22q109 0 221 20zM184 238q0 -137 43 -137
q17 0 42.5 32t48.5 94q0 127 -4 170q-26 32 -69 32q-23 0 -41 -5q-20 -79 -20 -186z" />
    <glyph glyph-name="e" unicode="e" horiz-adv-x="479" 
d="M294 92q38 0 75 20.5t64 53.5l13 -11q-62 -111 -191 -170q-106 0 -168.5 58t-62.5 162q0 92 71 176.5t165 123.5q182 0 182 -126q0 -32 -9 -68q27 -13 50 -14l-1 -22q-133 2 -298 -34q0 -74 23.5 -111.5t86.5 -37.5zM201 424q-15 -75 -17 -156q50 21 100 32q0 78 -9 105
t-39 27q-19 0 -35 -8z" />
    <glyph glyph-name="f" unicode="f" horiz-adv-x="363" 
d="M89 270l1 169h-67l-2 2q0 21 3 27q13 5 72 22q26 71 88 131t134 90q82 0 145 -20v-16q-47 -47 -63 -104l-10 -2q-35 29 -63.5 43t-67.5 18q-15 -72 -17 -138l126 5l5 -5q-11 -35 -14 -63q-65 7 -117 8v-169q0 -160 17 -328q-66 6 -129 8q-28 -52 -45 -148l-25 2
q1 25 14.5 199.5t14.5 268.5z" />
    <glyph glyph-name="g" unicode="g" horiz-adv-x="550" 
d="M30 196q0 96 71 183t170 126q84 0 171 -29q49 10 90 27l5 -19q-13 -13 -48 -35q-14 -114 -14 -227q0 -138 15 -231q-30 -58 -102.5 -122t-133.5 -84q-108 0 -230 42v20q36 63 153 156v4q-67 20 -107 70.5t-40 118.5zM190 249q0 -133 43 -133q16 0 43.5 35.5t45.5 92.5
q0 106 -3 153q-27 32 -71 32q-23 0 -39 -5q-19 -82 -19 -175zM330 176l-9 2q-18 -43 -43.5 -80.5t-44 -59t-35 -59t-21.5 -87.5q16 -14 42.5 -24t48.5 -10t41 8q15 64 18 119t3 191z" />
    <glyph glyph-name="h" unicode="h" horiz-adv-x="583" 
d="M78 323q0 197 -3.5 270t-21.5 140l24 7q10 -37 31 -62q84 6 179 33l5 -19q-12 -10 -49 -33q-9 -37 -15 -153.5t-6 -174.5l10 -1q20 51 55 100t75 75q89 0 123.5 -54t31.5 -156l-8 -257q34 -12 59 -26l-3 -19q-56 7 -137 7q-54 0 -91 -3v21q20 92 20 241q0 70 -6 100
t-23 30q-24 0 -51.5 -35t-46.5 -91q0 -185 9 -228q35 -10 66 -24l-3 -20q-67 9 -150 9q-97 0 -148 -7l-3 20q16 9 62 25q15 75 15 285z" />
    <glyph glyph-name="i" unicode="i" horiz-adv-x="328" 
d="M264 641q-11 -22 -41 -53t-53 -47q-23 15 -53 46.5t-42 53.5q13 21 40.5 45t54.5 36q24 -13 52 -36.5t42 -44.5zM93 322q0 62 -8 128q-24 11 -56 13v22q119 0 231 20l7 -7q-21 -90 -21 -249q0 -171 9 -214q35 -10 66 -24l-3 -20q-68 9 -150 9q-97 0 -148 -7l-3 20
q16 9 62 25q14 70 14 284z" />
    <glyph glyph-name="j" unicode="j" horiz-adv-x="317" 
d="M89 83v137q0 164 -8 230q-24 11 -56 13v22q119 0 231 20l7 -7q-21 -90 -21 -249q0 -135 17 -217q-24 -67 -109 -138t-167 -109l-11 19q117 88 117 279zM268 641q-11 -22 -41 -53t-53 -47q-23 15 -53 46.5t-42 53.5q13 21 40.5 45t54.5 36q24 -13 52 -36.5t42 -44.5z" />
    <glyph glyph-name="k" unicode="k" horiz-adv-x="560" 
d="M256 659q-9 -14 -17.5 -111.5t-8.5 -216.5l10 -1q44 116 120 175q150 0 150 -134q0 -45 -22 -83.5t-61 -56.5l22 -63q33 -92 64 -131q28 -8 54 -8v-21q-141 -6 -201 -20l-9 5q0 66 -58 216q-24 -2 -36 -2v23q50 4 72 31.5t22 79.5q0 49 -24 59q-61 -39 -95 -137
q0 -198 9 -228q35 -10 66 -24l-3 -20q-68 9 -150 9q-97 0 -148 -7l-3 20q16 9 62 25q16 80 16 284q0 246 -12 319q-27 15 -57 15v22q185 0 282 34l6 -19q-20 -17 -50 -34z" />
    <glyph glyph-name="l" unicode="l" horiz-adv-x="324" 
d="M238 323q0 -244 9 -288q35 -10 66 -24l-3 -20q-68 9 -150 9q-97 0 -148 -7l-3 20q16 9 62 25q16 80 16 284q0 246 -12 319q-27 15 -57 15v22q185 0 282 34l6 -19q-20 -17 -50 -34q-18 -83 -18 -336z" />
    <glyph glyph-name="m" unicode="m" horiz-adv-x="869" 
d="M88 322q0 62 -8 128q-24 11 -56 13v22q108 0 221 20l7 -7q-19 -82 -19 -167l10 -1q49 123 127 175q81 0 113 -42.5t32 -131.5l8 -1q50 125 125 175q89 0 123.5 -54t31.5 -156l-8 -257q34 -12 59 -26l-3 -19q-56 7 -137 7q-54 0 -91 -3v21q20 92 20 241q0 70 -6 100
t-23 30q-22 0 -46 -31.5t-44 -85.5l-7 -234q34 -12 59 -26l-3 -19q-56 7 -137 7q-54 0 -91 -3v21q20 92 20 241q0 70 -6 100t-23 30q-23 0 -49.5 -34.5t-45.5 -91.5q0 -185 9 -228q35 -10 66 -24l-3 -20q-67 9 -150 9q-97 0 -148 -7l-3 20q16 9 62 25q14 70 14 284z" />
    <glyph glyph-name="n" unicode="n" horiz-adv-x="594" 
d="M88 322q0 62 -8 128q-24 11 -56 13v22q108 0 221 20l7 -7q-19 -82 -19 -167l10 -1q20 51 55 100t75 75q89 0 123.5 -54t31.5 -156l-8 -257q34 -12 59 -26l-3 -19q-56 7 -137 7q-53 0 -91 -3v21q20 92 20 241q0 70 -6 100t-23 30q-24 0 -51.5 -35t-46.5 -91q0 -185 9 -228
q35 -10 66 -24l-3 -20q-67 9 -150 9q-97 0 -148 -7l-3 20q25 14 62 25q14 70 14 284z" />
    <glyph glyph-name="o" unicode="o" horiz-adv-x="512" 
d="M24 198q0 97 71 181t172 126q110 0 165.5 -54.5t55.5 -158.5q0 -98 -66.5 -182t-165.5 -125q-106 0 -169 57.5t-63 155.5zM246 432q-23 0 -40 -8q-18 -76 -18 -169q0 -96 16 -146.5t62 -50.5q27 0 40 8q18 77 18 169q0 96 -16 146.5t-62 50.5z" />
    <glyph glyph-name="p" unicode="p" horiz-adv-x="548" 
d="M215 -9q0 -98 8 -155q38 -9 80 -28l-5 -21q-66 13 -143 13q-80 0 -142 -8l-4 22q24 6 50 19q19 115 19 334q0 216 -9 283q-24 11 -56 13v22q109 0 221 20l7 -7q-19 -82 -19 -167l10 -1q37 99 123 175q75 0 122 -62.5t47 -144.5q0 -100 -70 -185t-172 -128q-31 0 -67 6z
M364 252q0 137 -43 137q-17 0 -42.5 -32t-48.5 -94q0 -127 4 -170q26 -32 69 -32q23 0 41 5q20 79 20 186z" />
    <glyph glyph-name="q" unicode="q" horiz-adv-x="544" 
d="M466 166q0 -202 11 -310q29 -5 55 -13l2 -19q-151 -6 -281 -40l-7 21q48 17 59 28q9 38 15 153t6 173l-10 1q-37 -99 -123 -175q-75 0 -122 62.5t-47 144.5q0 100 70 185t172 128q75 0 172 -29q46 9 88 27l5 -19q-13 -13 -48 -35q-17 -118 -17 -283zM179 238
q0 -137 43 -137q17 0 42.5 32t48.5 94q0 127 -4 170q-26 32 -69 32q-24 0 -41 -5q-20 -79 -20 -186z" />
    <glyph glyph-name="r" unicode="r" horiz-adv-x="433" 
d="M88 322q-2 78 -8 128q-24 11 -56 13v22q108 0 221 20l7 -7q-19 -82 -19 -167l10 -1q53 133 116 175q45 0 86 -18v-16q-60 -82 -66 -203h-24q-3 40 -10 65q-18 9 -37 9q-48 0 -67 -79q0 -185 9 -228q46 -8 86 -24l-3 -21q-68 10 -170 10q-97 0 -148 -7l-3 20q16 9 62 25
q14 70 14 284z" />
    <glyph glyph-name="s" unicode="s" horiz-adv-x="419" 
d="M106 115q56 -49 118 -49q26 0 39.5 18t13.5 47q0 23 -59.5 45l-119 42.5t-59.5 38.5q0 67 66.5 142t138.5 106q102 0 170 -23v-16q-47 -47 -63 -104l-10 -2q-79 64 -141 64q-19 0 -31 -12t-12 -31q0 -23 59.5 -45.5l119 -43t59.5 -38.5q0 -75 -65 -152.5t-144 -116.5
q-92 0 -169 22v16q50 63 55 157h24q0 -5 0.5 -11t1.5 -12l2 -12.5t2 -11.5t2 -9.5t2 -6.5v-2z" />
    <glyph glyph-name="t" unicode="t" horiz-adv-x="373" 
d="M225 -15q-91 0 -124 52.5t-29 157.5l5 127q3 60 3 117h-64l-2 2q0 21 3 27q68 33 110.5 67t85.5 91q17 6 45 6l4 -3q-20 -96 -21 -137l126 5l5 -5q-11 -35 -14 -63q-65 7 -121 8l-7 -209q-4 -130 29 -130q48 0 91 67l16 -9q-32 -66 -62.5 -107t-78.5 -64z" />
    <glyph glyph-name="u" unicode="u" horiz-adv-x="600" 
d="M229 231q0 -70 6 -100t23 -30q24 0 51.5 35t46.5 91q0 185 -9 228q-35 10 -66 24l3 20q68 -9 150 -9q97 0 148 7l3 -20q-16 -9 -62 -25q-14 -70 -14 -284q2 -78 8 -128q24 -11 56 -13v-22q-109 0 -221 -20l-7 7q19 82 19 167l-10 1q-20 -51 -55 -100t-75 -75
q-91 0 -123 52t-30 158l3 127q2 66 -6 128q-24 11 -56 13v22q118 0 231 20l7 -7q-21 -90 -21 -267z" />
    <glyph glyph-name="v" unicode="v" horiz-adv-x="523" 
d="M487 469q19 -27 19 -66q0 -92 -62.5 -203t-150.5 -187q-46 -18 -118 -28q-45 19 -62.5 75t-51.5 268l-23 122q-24 11 -56 13v22q125 0 238 20l4 -7q-15 -24 -15 -62q0 -35 6 -89q13 -116 25.5 -180.5t22 -84t22.5 -19.5q29 53 44.5 133.5t15.5 152.5q0 67 -21 100
q-18 8 -64 10l1 23q162 2 273 33l4 -18q-16 -12 -51 -28z" />
    <glyph glyph-name="w" unicode="w" horiz-adv-x="810" 
d="M262 484q110 -7 209 -7q92 0 194.5 10t155.5 28l4 -18q-26 -17 -51 -27q19 -27 19 -67q0 -92 -60.5 -203.5t-147.5 -186.5q-46 -18 -118 -28q-31 13 -47.5 40.5t-30.5 92.5q-44 -59 -96 -105q-46 -18 -118 -28q-45 19 -62.5 75t-51.5 268l-23 122q-24 11 -56 13v22
q125 0 238 20l4 -7q-15 -24 -15 -62q0 -35 6 -89q13 -116 25.5 -180.5t22 -84t22.5 -19.5q29 53 44 135.5t15 155.5q0 63 -20 94q-23 10 -64 13zM500 446q0 -43 7 -99q13 -116 25.5 -180.5t22 -84t22.5 -19.5q29 53 44 135.5t15 155.5q0 62 -21 95q-16 8 -49 8
q-41 0 -66 -11z" />
    <glyph glyph-name="x" unicode="x" horiz-adv-x="498" 
d="M311 291l64 -115q63 -116 81 -139q24 -8 53 -10v-21q-48 2 -123.5 -3t-113.5 -14l-9 3q1 24 -10 68.5t-27 76.5l-28 57q-22 -132 -85 -209q-23 0 -61 5t-55 13v16q60 82 66 203h24q3 -40 10 -65q16 -9 37 -9q9 0 22.5 20t26.5 56l-50 92q-55 105 -81 139q-24 8 -53 10v21
q48 -2 123.5 3t113.5 14l9 -3q-1 -24 10.5 -68.5t26.5 -76.5l14 -30q26 115 79 180q65 0 106 -18v-16q-60 -82 -66 -203h-24q-3 40 -10 65q-16 9 -37 9q-15 0 -33 -51z" />
    <glyph glyph-name="y" unicode="y" horiz-adv-x="570" 
d="M147 -72q60 -70 141 -70q22 0 41 8q15 64 18 113t3 180l-10 1q-53 -133 -116 -175q-91 0 -123 52t-30 158l3 127q2 66 -6 128q-24 11 -56 13v22q118 0 231 20l7 -7q-21 -90 -21 -267q0 -70 6 -100t23 -30q18 0 42.5 37.5t41.5 88.5q0 185 -9 228q-31 11 -52 24l3 20
q68 -9 136 -9q97 0 148 7l3 -20q-16 -9 -62 -25q-14 -70 -14 -230q0 -138 15 -231q-30 -58 -102.5 -122t-133.5 -84q-99 0 -229 41v16q39 41 52.5 65t18.5 68h26q2 -30 5 -47z" />
    <glyph glyph-name="z" unicode="z" horiz-adv-x="432" 
d="M217 163l2 -4q16 7 29 10q61 0 137 -20q18 27 29 59l21 -6q-17 -63 -17 -106q0 -46 13 -103l-12 -8q-185 48 -344 48q-37 -15 -72 -49l-18 16q30 31 95 108l190 233l-56 3q-107 4 -143 1q-22 -22 -38 -51l-20 12q35 75 42 192l14 7q24 -12 56 -17t136 -13l114 -9
q34 15 60 39l18 -16q-36 -34 -76 -93z" />
    <glyph glyph-name="braceleft" unicode="{" horiz-adv-x="300" 
d="M224 711l5 -18q-55 -28 -75 -89q0 -47 22.5 -141t22.5 -134q-14 -34 -91 -79v-4q77 -45 91 -79q0 -40 -22.5 -134t-22.5 -141q19 -59 76 -88l-6 -19q-50 14 -97.5 56.5t-47.5 85.5q0 47 18.5 125t18.5 125q0 20 -21.5 37.5t-46.5 21.5l-4 19q26 6 49 24t23 40
q0 47 -18.5 125t-18.5 125q0 43 47.5 85.5t97.5 56.5z" />
    <glyph glyph-name="bar" unicode="|" horiz-adv-x="238" 
d="M151 -199l-55 -17l-7 3q0 689 -7 936q5 2 20 7.5l27.5 10.5t18.5 9l5 -1q-2 -142 -2 -948z" />
    <glyph glyph-name="braceright" unicode="}" horiz-adv-x="288" 
d="M71 693l5 18q50 -14 97.5 -56.5t47.5 -85.5q0 -47 -18.5 -125t-18.5 -125q0 -22 23 -40t49 -24l-4 -19q-25 -4 -46.5 -21.5t-21.5 -37.5q0 -47 18.5 -125t18.5 -125q0 -43 -47.5 -85.5t-97.5 -56.5l-6 19q49 25 69 88q0 47 -22.5 141t-22.5 134q12 29 98 79v4
q-86 50 -98 79q0 40 22.5 134t22.5 141q-21 65 -68 89z" />
    <glyph glyph-name="asciitilde" unicode="~" horiz-adv-x="637" 
d="M25 178l-25 16q29 68 91 126.5t119 66.5q56 -48 125 -81.5t126 -33.5q90 0 152 94l24 -16q-26 -63 -82.5 -118t-113.5 -76q-43 0 -143 54.5t-143 54.5q-85 0 -130 -87z" />
    <glyph glyph-name="nbspace" unicode="&#xa0;" horiz-adv-x="180" 
 />
    <glyph glyph-name="exclamdown" unicode="&#xa1;" horiz-adv-x="290" 
d="M67 424q14 21 42 44.5t52 36.5q27 -12 54.5 -36t40.5 -45q-12 -22 -42 -53.5t-53 -46.5q-23 16 -53 47t-41 53zM188 249l38 -431q-59 -35 -130 -33q-39 23 -59 60q41 112 63 195.5t42 203.5z" />
    <glyph glyph-name="cent" unicode="&#xa2;" horiz-adv-x="500" 
d="M424 179l16 -8q-50 -105 -138 -159l-4 -124l-6 -1q-19 2 -35 16q6 47 9 97q-95 4 -149.5 60.5t-54.5 152.5q0 86 64.5 164t155.5 121q0 23 -2 85q24 10 39 24l6 -3q-5 -55 -6 -100q85 -4 148 -25v-16q-49 -44 -64.5 -74t-21.5 -79h-24q-3 39 -10 64q-21 18 -32 25
q0 -5 -0.5 -18t-0.5 -19l-9 -253h10q30 0 61 20.5t48 49.5zM280 349l2 65q-17 6 -42 10q-18 -97 -18 -169q0 -109 50 -137q0 12 8 231z" />
    <glyph glyph-name="sterling" unicode="&#xa3;" horiz-adv-x="500" 
d="M95 222l-54 -5l-8 6l3 49h64q18 82 85.5 156.5t149.5 109.5q95 0 172 -27v-16q-49 -42 -65 -70.5t-23 -72.5h-24q-2 26 -10 55q-46 44 -109 51q-21 -104 -22 -177q33 2 47 4q62 6 89 11l6 -5l-4 -46l-140 -11q-12 -57 -48 -107v-9q21 13 33 16q88 0 183 -17q14 25 24 57
l22 -7q-12 -39 -12 -95q0 -45 10 -82l-12 -8q-180 37 -342 37q-17 -16 -33 -44l-23 10q8 22 45 84q7 11 1.5 72t-5.5 81z" />
    <glyph glyph-name="currency" unicode="&#xa4;" horiz-adv-x="567" 
d="M81 286q0 79 49 141l-105 94q1 7 7.5 15t18 19.5l12.5 12.5h5l103 -100q52 41 130 55q72 0 124 -33l75 78q27 -9 67 -16l2 -4q-56 -50 -103 -97q30 -41 30 -101q0 -84 -54 -148l127 -119l-2 -4q-40 -7 -67 -16l-98 102q-50 -36 -113 -49q-77 0 -133 33l-88 -86h-5
l-12.5 12.5t-18 19.5t-7.5 15l88 78q-32 42 -32 98zM276 450q-50 0 -77 -21q-28 -45 -28 -100q0 -63 33.5 -101.5t96.5 -38.5q52 0 78 20q27 44 27 101q0 65 -33 102.5t-97 37.5z" />
    <glyph glyph-name="yen" unicode="&#xa5;" horiz-adv-x="500" 
d="M64 205l-3 6q3 5 5 11.5t3 14t2 10.5h106q-71 150 -94 189.5t-43 56.5q-41 9 -50 14l4 24q66 -8 142 -8q70 0 131 8l4 -23q-13 -7 -50 -14q6 -17 20.5 -65t27 -82.5t26.5 -60.5l14.5 53l11.5 42.5t8 31l6 25t4 18t2.5 15.5t0.5 12q0 23 -18 31l3 16q54 -7 93 -7
q49 0 100 8l4 -23q-17 -10 -48 -16l-143 -229v-15q70 2 101 4q10 -31 10 -32v-6h-110v-36q70 2 103 4q10 -31 10 -32v-6h-112q2 -68 9 -110q32 -6 66 -22l-3 -19q-48 7 -152 7q-101 0 -145 -7l-4 22q12 7 65 21q6 48 8 104l-119 -5l-3 6q3 5 5 11.5t3 14t2 10.5h113v33z" />
    <glyph glyph-name="brokenbar" unicode="&#xa6;" horiz-adv-x="245" 
d="M156 340l-55 -17l-7 3q-1 182 -7 399q5 2 20 7.5l27.5 10.5t18.5 9l5 -1q-2 -142 -2 -411zM156 -198l-55 -17l-7 3q-1 182 -7 399q5 2 20 7.5l27.5 10.5t18.5 9l5 -1q-2 -142 -2 -411z" />
    <glyph glyph-name="section" unicode="&#xa7;" horiz-adv-x="472" 
d="M355 165l-27 19q8 15 8 38q0 38 -42 73.5t-92 59.5t-92 59.5t-42 73.5q76 126 195 178q102 0 170 -23v-16q-47 -47 -63 -104l-10 -2q-79 64 -141 64q-19 0 -31 -12t-12 -31q0 -24 42 -53.5t92 -53.5t92 -59.5t42 -70.5q-30 -78 -89 -140zM117 384l27 -19q-9 -17 -8 -38
q3 -31 31.5 -59.5t67.5 -51l77.5 -45t65 -51t26.5 -59.5q-76 -126 -195 -178q-102 0 -170 23v16q47 47 63 104l10 2q79 -64 141 -64q19 0 31 12t12 31q0 24 -42 53.5t-92 53.5t-92 59.5t-42 70.5q30 78 89 140z" />
    <glyph glyph-name="dieresis" unicode="&#xa8;" horiz-adv-x="401" 
d="M179 641q-10 -21 -38.5 -50.5t-50.5 -44.5q-22 15 -50.5 44.5t-39.5 50.5q12 20 38.5 42.5t51.5 33.5q23 -12 49.5 -34.5t39.5 -41.5zM401 641q-10 -21 -38.5 -50.5t-50.5 -44.5q-22 15 -50.5 44.5t-39.5 50.5q12 20 38.5 42.5t51.5 33.5q23 -12 49.5 -34.5t39.5 -41.5z
" />
    <glyph glyph-name="copyright" unicode="&#xa9;" horiz-adv-x="765" 
d="M42 325q0 141 99.5 241t240.5 100t241 -100t100 -241t-100 -240.5t-241 -99.5t-240.5 99.5t-99.5 240.5zM95 325q0 -119 84 -204t203 -85t203.5 85t84.5 204t-84.5 204.5t-203.5 85.5t-203 -85t-84 -205zM397 185q42 0 92 36l12 -11q-50 -64 -123 -91q-176 0 -176 168
q0 86 52.5 150.5t140.5 93.5q65 0 128 -12l-1 -18q-16 0 -30 -6q-15 -44 -15 -98h-18q-9 28 -10 51q-28 26 -69 26q-25 0 -36 -10q-20 -47 -20 -130q0 -34 1.5 -54.5t8 -45.5t22.5 -37t41 -12z" />
    <glyph glyph-name="ordfeminine" unicode="&#xaa;" horiz-adv-x="451" 
d="M24 421q0 79 57 145t140 100q62 0 137 -22q18 22 27 49l21 -6q-18 -77 -18 -258q0 -79 7 -127q22 -10 44 -10v-18q-91 0 -183 -15l-5 6q15 65 15 126l-7 1q-28 -75 -98 -133q-60 0 -98.5 49t-38.5 113zM163 457q0 -101 26 -101q12 0 30 23.5t34 68.5q0 80 -2 128
q-17 23 -48 23q-15 0 -27 -4q-13 -53 -13 -138z" />
    <glyph glyph-name="guillemotleft" unicode="&#xab;" horiz-adv-x="491" 
d="M143 297l113 -208l-20 -14q-16 17 -50.5 57l-52.5 59.5t-47.5 46.5t-57.5 45v20q14 8 28.5 19l26 20t27 24.5l24.5 24t26.5 28l24 26.5l26.5 29.5t25 28.5l19 -13zM333 297l113 -188l-20 -14l-51 50.5l-52 52t-48 43t-57 42.5v20q16 10 31 20.5t32 24.5l28 23t31 28
l27 26l30.5 30l28.5 28l19 -13z" />
    <glyph glyph-name="logicalnot" unicode="&#xac;" horiz-adv-x="576" 
d="M517 82l-67 9v137h-388l-8 7l9 66q169 -9 343 -9q66 0 105 3l6 -6q0 -69 5 -201z" />
    <glyph glyph-name="registered" unicode="&#xae;" horiz-adv-x="434" 
d="M21 500q0 82 57 139t139 57t139 -57t57 -139t-57 -139t-139 -57t-139 57t-57 139zM62 500q0 -65 45 -111t110 -46t109 45.5t44 111.5q0 65 -44 110t-109 45t-110 -45t-45 -110zM202 509q0 -71 4 -91q15 -4 18 -5l-1 -9q-26 3 -51 3q-24 0 -45 -3l-1 9l16 6q4 36 4 87
q0 34 -4 86q-10 5 -17 5v9q14 0 48 1t49 1q37 0 56 -10.5t19 -39.5q0 -34 -35 -52l43 -87q10 -3 17 -6l-2 -9q-18 3 -45 3q-18 0 -38 -2l-1 6q6 8 6 19q0 24 -15 69h-16l1 15h3q23 0 23 39q0 37 -21 37q-6 0 -12 -2q-3 -20 -3 -79z" />
    <glyph glyph-name="macron" unicode="&#xaf;" horiz-adv-x="323" 
d="M323 685l-12 -80l-302 -3l-9 6l12 84l45 -3q66 -4 147 -4q54 0 111 5z" />
    <glyph glyph-name="degree" unicode="&#xb0;" horiz-adv-x="367" 
d="M45 509q0 61 41.5 104t105.5 54q58 0 94 -30t36 -85q0 -60 -38 -101.5t-100 -54.5q-59 0 -99 29.5t-40 83.5zM174 614q-32 0 -47 -12q-13 -28 -13 -64q0 -41 20 -65t59 -24q32 0 47 12q13 28 13 64q0 89 -79 89z" />
    <glyph glyph-name="plusminus" unicode="&#xb1;" horiz-adv-x="576" 
d="M524 328l-9 -66h-191q0 -77 9 -172l-70 -4l-10 2v174h-184l-8 7l9 71q122 -6 183 -7v153l71 9l5 -6q-5 -88 -5 -156v-1q37 -1 109 -1q46 0 85 3zM516 46l-9 -56h-446l-8 7l9 61q169 -9 353 -9q56 0 95 3z" />
    <glyph glyph-name="twosuperior" unicode="&#xb2;" horiz-adv-x="396" 
d="M186 746q90 0 124 -31.5t34 -118.5q-85 -79 -173 -138l4 -5q13 7 21 9q49 2 125 -8q10 19 20 47l21 -6q-10 -33 -10 -81q0 -36 7 -68l-10 -7q-162 30 -279 30q-18 -8 -36 -32l-20 10q15 31 47.5 67t60 62t49.5 61t22 69q0 46 -50 46q-22 0 -31 -8q-5 -12 -5 -28
q0 -17 9 -23v-6q-27 -11 -61 -43q-23 0 -23 24q0 40 55 99t99 79z" />
    <glyph glyph-name="threesuperior" unicode="&#xb3;" horiz-adv-x="380" 
d="M62 745q125 -18 250 -18q11 6 23 20l19 -14l-122 -133q56 -5 90 -46.5t34 -101.5q-67 -69 -190 -113q-70 0 -134 31v12q31 44 35 115h20q0 -27 1 -42q15 -26 37 -43t44 -17q20 0 28 7q8 23 8 50q0 73 -73 73l-4 6l86 100l-2 3q-11 -5 -19 -7q-53 0 -103 5
q-10 -18 -16 -42l-19 6q7 40 7 74q0 40 -9 69z" />
    <glyph glyph-name="acute" unicode="&#xb4;" horiz-adv-x="272" 
d="M272 624l-262 -97l-10 24q125 68 199 193q9 3 32 3q10 0 16 -2q9 -15 16.5 -54.5t8.5 -66.5z" />
    <glyph glyph-name="mu" unicode="&#xb5;" horiz-adv-x="529" 
d="M43 193v78q0 152 -15 209l7 6q96 0 184 19l7 -7q-13 -41 -22 -121t-9 -146q0 -70 6 -100t23 -30q24 0 51.5 35t46.5 91q0 187 -14 259q89 0 177 19l14 -8q-6 -25 -10 -45q-14 -70 -14 -284q2 -78 8 -128q24 -11 56 -13v-22q-109 0 -221 -20l-7 7q19 82 19 167l-10 1
q-20 -51 -55 -100t-75 -75l-42 9q1 -103 20 -174l-7 -6q-60 -4 -137 -29l-7 7q2 17 7.5 67.5t9 87t6.5 104t3 142.5z" />
    <glyph glyph-name="mu" unicode="&#x3bc;" horiz-adv-x="529" 
d="M43 193v78q0 152 -15 209l7 6q96 0 184 19l7 -7q-13 -41 -22 -121t-9 -146q0 -70 6 -100t23 -30q24 0 51.5 35t46.5 91q0 187 -14 259q89 0 177 19l14 -8q-6 -25 -10 -45q-14 -70 -14 -284q2 -78 8 -128q24 -11 56 -13v-22q-109 0 -221 -20l-7 7q19 82 19 167l-10 1
q-20 -51 -55 -100t-75 -75l-42 9q1 -103 20 -174l-7 -6q-60 -4 -137 -29l-7 7q2 17 7.5 67.5t9 87t6.5 104t3 142.5z" />
    <glyph glyph-name="paragraph" unicode="&#xb6;" horiz-adv-x="588" 
d="M348 651l-1 -7q-16 -113 -16 -319v-144q0 -147 -54.5 -221.5t-140.5 -74.5q-51 0 -51 27q33 32 57 70l7 1q13 -12 39 -12q38 0 57 9q22 61 22 151v165q-12 -1 -34 -1q-105 0 -171.5 64t-66.5 143q0 67 51 111.5t150 44.5q14 0 152 -7zM368 -1l-2 4q10 32 13.5 87.5
t3.5 234.5q0 230 12 324q43 -4 136 -4h36v-25q-29 0 -77 -16q-12 -102 -12 -279q0 -199 13 -287q15 -2 75 -21l-4 -25q-61 8 -137 8q-37 0 -57 -1z" />
    <glyph glyph-name="periodcentered" unicode="&#xb7;" horiz-adv-x="257" 
d="M223 285q-11 -22 -41 -53t-53 -47q-23 15 -53 46.5t-42 53.5q13 21 40.5 45t54.5 36q24 -13 52 -36.5t42 -44.5z" />
    <glyph glyph-name="cedilla" unicode="&#xb8;" horiz-adv-x="220" 
d="M54 -107l-6 4l38 117l39 2l-23 -52l4 -3q114 0 114 -77q-39 -75 -122 -119q-54 0 -98 21q27 41 36 76l4 2q24 -39 68 -39q17 0 29 5q6 11 6 23q0 40 -89 40z" />
    <glyph glyph-name="onesuperior" unicode="&#xb9;" horiz-adv-x="316" 
d="M82 380q8 69 8 157q0 51 -3 98h-61l-2 2q0 15 3 24q45 9 92.5 31.5t77.5 50.5q18 3 36 3l3 -2q-11 -81 -11 -204q0 -112 6 -158q18 -6 45 -18l-3 -23q-68 11 -118 11q-70 0 -121 -11l-2 23q25 11 50 16z" />
    <glyph glyph-name="ordmasculine" unicode="&#xba;" horiz-adv-x="425" 
d="M24 426q0 76 58 141.5t140 98.5q89 0 134 -43t45 -124q0 -77 -54 -142.5t-134 -97.5q-86 0 -137.5 45.5t-51.5 121.5zM205 602q-15 0 -26 -7q-12 -51 -12 -125q0 -72 11 -109.5t43 -37.5q15 0 25 7q12 51 12 125q0 47 -3.5 76t-15.5 50t-34 21z" />
    <glyph glyph-name="guillemotright" unicode="&#xbb;" horiz-adv-x="491" 
d="M235 89l113 208l-112 193l19 13q5 -6 25 -28.5l26.5 -29.5l24 -26.5t26.5 -28l24.5 -24t27 -24.5l26 -20t28.5 -19v-20q-28 -18 -57.5 -45t-47.5 -46.5l-52.5 -59.5t-50.5 -57zM45 109l113 188l-112 173l19 13l28.5 -28l30.5 -30l27 -26t31 -28l28 -23t32 -24.5t31 -20.5
v-20q-28 -18 -57 -42.5t-48 -43l-52 -52l-51 -50.5z" />
    <glyph glyph-name="onequarter" unicode="&#xbc;" horiz-adv-x="850" 
d="M740 262v-97q55 0 66 32l14 -4q-8 -37 -5 -103l-4 -2q-24 2 -70 2q0 -23 5 -48q9 -5 46 -15l-4 -23q-53 8 -126 8t-115 -10l-3 21q26 11 55 17q5 29 5 50h-169l-7 36q105 120 174 260q91 8 138 20l9 -3q-9 -48 -9 -141zM92 300q8 69 8 157q0 51 -3 98h-61l-2 2q0 15 3 24
q45 9 92.5 31.5t77.5 50.5q18 3 36 3l3 -2q-11 -81 -11 -204q0 -112 6 -158q18 -6 45 -18l-3 -23q-68 11 -118 11q-70 0 -121 -11l-2 23q25 11 50 16zM169 -42l-5 1q-2 1 -14 10t-19 16t-10 14l125 161l254 351l132 193q17 -4 67 -7l4 -3q-32 -40 -136 -184zM601 310
q-34 -82 -75 -138q35 -6 78 -6l2 144h-5z" />
    <glyph glyph-name="onehalf" unicode="&#xbd;" horiz-adv-x="850" 
d="M169 -42l-5 1q-2 1 -14 10t-19 16t-10 14l125 161l254 351l132 193q17 -4 67 -7l4 -3q-32 -40 -136 -184zM95 300q8 69 8 157q0 51 -3 98h-61l-2 2q0 15 3 24q47 10 99 32.5t81 49.5q18 3 36 3l3 -2q-11 -81 -11 -204q0 -112 6 -158q18 -6 45 -18l-3 -23q-68 11 -123 11
q-75 0 -126 -11l-2 23q25 11 50 16zM629 407q90 0 124 -31.5t34 -118.5q-85 -79 -173 -138l4 -5q13 7 21 9q49 2 125 -8q10 19 20 47l21 -6q-10 -33 -10 -81q0 -37 7 -68l-10 -7q-162 30 -279 30q-18 -8 -36 -32l-20 10q15 31 47.5 67t60 62t49.5 61t22 69q0 46 -50 46
q-22 0 -31 -8q-5 -12 -5 -28q0 -17 9 -23v-6q-27 -11 -61 -43q-23 0 -23 24q0 40 55 99t99 79z" />
    <glyph glyph-name="threequarters" unicode="&#xbe;" horiz-adv-x="850" 
d="M740 262v-97q55 0 66 32l14 -4q-8 -37 -5 -103l-4 -2q-24 2 -70 2q0 -23 5 -48q9 -5 46 -15l-4 -23q-53 8 -126 8t-115 -10l-3 21q26 11 55 17q5 29 5 50h-169l-7 36q105 120 174 260q91 8 138 20l9 -3q-9 -48 -9 -141zM72 665q125 -18 250 -18q11 6 23 20l19 -14
l-122 -133q56 -5 90 -46.5t34 -101.5q-67 -69 -190 -113q-70 0 -134 31v12q31 44 35 115h20q0 -27 1 -42q15 -26 37 -43t44 -17q20 0 28 7q8 23 8 50q0 73 -73 73l-4 6l86 100l-2 3q-11 -5 -19 -7q-53 0 -103 5q-10 -18 -16 -42l-19 6q7 40 7 74q0 40 -9 69zM169 -42l-5 1
q-2 1 -14 10t-19 16t-10 14l125 161l254 351l132 193q17 -4 67 -7l4 -3q-32 -40 -136 -184zM601 310q-34 -82 -75 -138q35 -6 78 -6l2 144h-5z" />
    <glyph glyph-name="questiondown" unicode="&#xbf;" horiz-adv-x="351" 
d="M90 430q14 21 42 44.5t52 36.5q27 -12 54.5 -36t40.5 -45q-12 -22 -42 -53.5t-53 -46.5q-23 16 -53 47t-41 53zM211 252l22 -130v-19q-87 -72 -87 -182q0 -62 58 -62q21 0 42 8q8 22 8 50q0 27 -11 37l1 7q53 19 88 50q26 -2 26 -29q0 -61 -62.5 -121.5t-129.5 -75.5
q-86 0 -141 41t-55 118q55 74 171 160q18 110 22 143z" />
    <glyph glyph-name="Agrave" unicode="&#xc0;" horiz-adv-x="644" 
d="M332 651q157 0 261 11l4 -26q-21 -10 -50 -17q-13 -83 -13 -283q0 -207 14 -302q39 -7 60 -17l-3 -26q-72 9 -157 9q-84 0 -144 -9l-4 27q22 12 56 19q8 64 12 193q-27 4 -74 4q-48 0 -81 -5q-15 -97 -15 -135q0 -34 8.5 -54.5t33.5 -30.5l-3 -16q-54 7 -110 7
q-93 0 -147 -9l-4 27q20 11 56 19l152 577q-30 8 -59 22l5 26q87 -11 202 -11zM369 301v25q0 174 -11 267q-12 5 -43 5q-23 0 -41 -5l-51 -292q36 -4 71 -4q48 0 75 4zM409 717l-262 66q1 26 8.5 60t16.5 50q7 3 22 3q16 0 26 -3q56 -85 199 -152z" />
    <glyph glyph-name="Aacute" unicode="&#xc1;" horiz-adv-x="644" 
d="M332 651q157 0 261 11l4 -26q-21 -10 -50 -17q-13 -83 -13 -283q0 -207 14 -302q39 -7 60 -17l-3 -26q-72 9 -157 9q-84 0 -144 -9l-4 27q22 12 56 19q8 64 12 193q-27 4 -74 4q-48 0 -81 -5q-15 -97 -15 -135q0 -34 8.5 -54.5t33.5 -30.5l-3 -16q-54 7 -110 7
q-93 0 -147 -9l-4 27q20 11 56 19l152 577q-30 8 -59 22l5 26q87 -11 202 -11zM369 301v25q0 174 -11 267q-12 5 -43 5q-23 0 -41 -5l-51 -292q36 -4 71 -4q48 0 75 4zM562 783l-262 -66l-10 24q143 67 199 152q9 3 26 3q15 0 22 -3q9 -16 16.5 -50t8.5 -60z" />
    <glyph glyph-name="Acircumflex" unicode="&#xc2;" horiz-adv-x="644" 
d="M332 651q157 0 261 11l4 -26q-21 -10 -50 -17q-13 -83 -13 -283q0 -207 14 -302q39 -7 60 -17l-3 -26q-72 9 -157 9q-84 0 -144 -9l-4 27q22 12 56 19q8 64 12 193q-27 4 -74 4q-48 0 -81 -5q-15 -97 -15 -135q0 -34 8.5 -54.5t33.5 -30.5l-3 -16q-54 7 -110 7
q-93 0 -147 -9l-4 27q20 11 56 19l152 577q-30 8 -59 22l5 26q87 -11 202 -11zM369 301v25q0 174 -11 267q-12 5 -43 5q-23 0 -41 -5l-51 -292q36 -4 71 -4q48 0 75 4zM564 717l-204 62l-204 -62l-10 24q126 67 183 152q11 3 31 3t31 -3q57 -85 183 -152z" />
    <glyph glyph-name="Atilde" unicode="&#xc3;" horiz-adv-x="644" 
d="M332 651q157 0 261 11l4 -26q-21 -10 -50 -17q-13 -83 -13 -283q0 -207 14 -302q39 -7 60 -17l-3 -26q-72 9 -157 9q-84 0 -144 -9l-4 27q22 12 56 19q8 64 12 193q-27 4 -74 4q-48 0 -81 -5q-15 -97 -15 -135q0 -34 8.5 -54.5t33.5 -30.5l-3 -16q-54 7 -110 7
q-93 0 -147 -9l-4 27q20 11 56 19l152 577q-30 8 -59 22l5 26q87 -11 202 -11zM369 301v25q0 174 -11 267q-12 5 -43 5q-23 0 -41 -5l-51 -292q36 -4 71 -4q48 0 75 4zM183 744l-24 17q72 100 169 135q79 -51 157 -51q59 0 86 39l24 -17q-75 -102 -138 -136q-27 0 -95 26
t-97 26q-57 0 -82 -39z" />
    <glyph glyph-name="Adieresis" unicode="&#xc4;" horiz-adv-x="644" 
d="M332 651q157 0 261 11l4 -26q-21 -10 -50 -17q-13 -83 -13 -283q0 -207 14 -302q39 -7 60 -17l-3 -26q-72 9 -157 9q-84 0 -144 -9l-4 27q22 12 56 19q8 64 12 193q-27 4 -74 4q-48 0 -81 -5q-15 -97 -15 -135q0 -34 8.5 -54.5t33.5 -30.5l-3 -16q-54 7 -110 7
q-93 0 -147 -9l-4 27q20 11 56 19l152 577q-30 8 -59 22l5 26q87 -11 202 -11zM369 301v25q0 174 -11 267q-12 5 -43 5q-23 0 -41 -5l-51 -292q36 -4 71 -4q48 0 75 4zM347 819q-10 -21 -38.5 -50.5t-50.5 -44.5q-22 15 -50.5 44.5t-39.5 50.5q12 20 38.5 42.5t51.5 33.5
q23 -12 49.5 -34.5t39.5 -41.5zM569 819q-10 -21 -38.5 -50.5t-50.5 -44.5q-22 15 -50.5 44.5t-39.5 50.5q12 20 38.5 42.5t51.5 33.5q23 -12 49.5 -34.5t39.5 -41.5z" />
    <glyph glyph-name="Aring" unicode="&#xc5;" horiz-adv-x="644" 
d="M332 651q157 0 261 11l4 -26q-21 -10 -50 -17q-13 -83 -13 -283q0 -207 14 -302q39 -7 60 -17l-3 -26q-72 9 -157 9q-84 0 -144 -9l-4 27q22 12 56 19q8 64 12 193q-27 4 -74 4q-48 0 -81 -5q-15 -97 -15 -135q0 -34 8.5 -54.5t33.5 -30.5l-3 -16q-54 7 -110 7
q-93 0 -147 -9l-4 27q20 11 56 19l152 577q-30 8 -59 22l5 26q87 -11 202 -11zM369 301v25q0 174 -11 267q-12 5 -43 5q-23 0 -41 -5l-51 -292q36 -4 71 -4q48 0 75 4zM258 782q0 46 33.5 79.5t84.5 44.5q103 0 103 -84q0 -45 -31 -77t-79 -46q-47 0 -79 21.5t-32 61.5z
M359 858q-22 0 -33 -8q-7 -18 -7 -44q0 -27 16 -43.5t43 -16.5q20 0 33 9q7 18 7 44q0 27 -15.5 43t-43.5 16z" />
    <glyph glyph-name="AE" unicode="&#xc6;" horiz-adv-x="748" 
d="M421 651q224 0 318 13l6 -21q-39 -52 -42 -163h-27q-9 46 -9 87q-36 17 -95 17q-42 0 -59 -7q-25 -66 -28 -195q34 -8 62 -8q59 0 90 36l22 -5q-13 -39 -13 -81q0 -40 10 -88l-25 -4q-14 36 -21 74q-22 6 -63 6q-28 0 -63 -5q0 -53 1 -81t6.5 -60.5t16 -47.5t30 -25
t49.5 -10q78 0 141 61l16 -15q-89 -121 -208 -144q-132 0 -174 77q-28 53 -30 193v53q-19 4 -45 4q-33 0 -65 -5q-37 -174 -37 -213q0 -34 8.5 -54.5t33.5 -30.5l-3 -16q-54 7 -110 7q-93 0 -147 -9l-4 27q20 11 56 19l186 577q-38 10 -63 22l5 26q87 -11 274 -11zM282 595
q-39 -177 -47 -218q20 -4 52 -4q30 0 49 4l19 159q4 35 0 58q-13 4 -41 4q-17 0 -32 -3z" />
    <glyph glyph-name="Ccedilla" unicode="&#xc7;" horiz-adv-x="516" 
d="M342 83q42 0 76 15t75 46l16 -15q-83 -106 -198 -144q-137 0 -209 72t-72 208q0 141 84 247t225 154q104 0 209 -19l-1 -24q-27 0 -49 -9q-29 -79 -29 -158h-27q-10 38 -12 84q-45 42 -116 42q-47 0 -69 -17q-17 -39 -26.5 -106.5t-9.5 -119.5q0 -41 1 -65t4.5 -58.5
t12.5 -54.5t23 -40t37 -29t55 -9zM202 -107l-6 4l38 117l39 2l-23 -52l4 -3q114 0 114 -77q-39 -75 -122 -119q-54 0 -98 21q27 41 36 76l4 2q24 -39 68 -39q17 0 29 5q6 11 6 23q0 40 -89 40z" />
    <glyph glyph-name="Egrave" unicode="&#xc8;" horiz-adv-x="526" 
d="M342 83q42 0 76 15t75 46l16 -15q-83 -106 -198 -144q-137 0 -209 72t-72 208q0 141 84 247t225 154q104 0 209 -19l-1 -24q-27 0 -49 -9q-29 -79 -29 -158h-27q-10 38 -12 84q-45 42 -116 42q-47 0 -69 -17q-27 -62 -34 -180q37 -10 91 -10q76 0 110 35l22 -5
q-13 -39 -13 -81q0 -40 10 -88l-25 -4q-14 36 -21 74q-31 5 -83 5q-54 0 -93 -5q0 -51 4.5 -86t17.5 -69t41 -51t70 -17zM385 717l-262 66q1 26 8.5 60t16.5 50q8 3 22 3q16 0 26 -3q56 -85 199 -152z" />
    <glyph glyph-name="Eacute" unicode="&#xc9;" horiz-adv-x="526" 
d="M342 83q42 0 76 15t75 46l16 -15q-83 -106 -198 -144q-137 0 -209 72t-72 208q0 141 84 247t225 154q104 0 209 -19l-1 -24q-27 0 -49 -9q-29 -79 -29 -158h-27q-10 38 -12 84q-45 42 -116 42q-47 0 -69 -17q-27 -62 -34 -180q37 -10 91 -10q76 0 110 35l22 -5
q-13 -39 -13 -81q0 -40 10 -88l-25 -4q-14 36 -21 74q-31 5 -83 5q-54 0 -93 -5q0 -51 4.5 -86t17.5 -69t41 -51t70 -17zM504 783l-262 -66l-10 24q143 67 199 152q9 3 26 3q15 0 22 -3q9 -16 16.5 -50t8.5 -60z" />
    <glyph glyph-name="Ecircumflex" unicode="&#xca;" horiz-adv-x="526" 
d="M342 83q42 0 76 15t75 46l16 -15q-83 -106 -198 -144q-137 0 -209 72t-72 208q0 141 84 247t225 154q104 0 209 -19l-1 -24q-27 0 -49 -9q-29 -79 -29 -158h-27q-10 38 -12 84q-45 42 -116 42q-47 0 -69 -17q-27 -62 -34 -180q37 -10 91 -10q76 0 110 35l22 -5
q-13 -39 -13 -81q0 -40 10 -88l-25 -4q-14 36 -21 74q-31 5 -83 5q-54 0 -93 -5q0 -51 4.5 -86t17.5 -69t41 -51t70 -17zM545 717l-204 62l-204 -62l-10 24q126 67 183 152q10 3 31 3t31 -3q57 -85 183 -152z" />
    <glyph glyph-name="Edieresis" unicode="&#xcb;" horiz-adv-x="526" 
d="M342 83q42 0 76 15t75 46l16 -15q-83 -106 -198 -144q-137 0 -209 72t-72 208q0 141 84 247t225 154q104 0 209 -19l-1 -24q-27 0 -49 -9q-29 -79 -29 -158h-27q-10 38 -12 84q-45 42 -116 42q-47 0 -69 -17q-27 -62 -34 -180q37 -10 91 -10q76 0 110 35l22 -5
q-13 -39 -13 -81q0 -40 10 -88l-25 -4q-14 36 -21 74q-31 5 -83 5q-54 0 -93 -5q0 -51 4.5 -86t17.5 -69t41 -51t70 -17zM303 819q-10 -21 -38.5 -50.5t-50.5 -44.5q-22 15 -50.5 44.5t-39.5 50.5q12 20 38.5 42.5t51.5 33.5q23 -12 49.5 -34.5t39.5 -41.5zM525 819
q-10 -21 -38.5 -50.5t-50.5 -44.5q-22 15 -50.5 44.5t-39.5 50.5q12 20 38.5 42.5t51.5 33.5q23 -12 49.5 -34.5t39.5 -41.5z" />
    <glyph glyph-name="Igrave" unicode="&#xcc;" horiz-adv-x="385" 
d="M275 336q0 -207 14 -302q39 -7 60 -17l-3 -26q-72 9 -157 9q-84 0 -144 -9l-4 27q22 12 56 19q13 97 13 289q0 177 -15 288q-34 7 -56 19l4 27q60 -9 144 -9q85 0 157 9l3 -26q-21 -10 -60 -17q-12 -77 -12 -281zM302 717l-262 66q1 26 8.5 60t16.5 50q7 3 22 3
q16 0 26 -3q56 -85 199 -152z" />
    <glyph glyph-name="Iacute" unicode="&#xcd;" horiz-adv-x="385" 
d="M275 336q0 -207 14 -302q39 -7 60 -17l-3 -26q-72 9 -157 9q-84 0 -144 -9l-4 27q22 12 56 19q13 97 13 289q0 177 -15 288q-34 7 -56 19l4 27q60 -9 144 -9q85 0 157 9l3 -26q-21 -10 -60 -17q-12 -77 -12 -281zM362 783l-262 -66l-10 24q143 67 199 152q9 3 26 3
q15 0 22 -3q9 -16 16.5 -50t8.5 -60z" />
    <glyph glyph-name="Icircumflex" unicode="&#xce;" horiz-adv-x="385" 
d="M275 336q0 -207 14 -302q39 -7 60 -17l-3 -26q-72 9 -157 9q-84 0 -144 -9l-4 27q22 12 56 19q13 97 13 289q0 177 -15 288q-34 7 -56 19l4 27q60 -9 144 -9q85 0 157 9l3 -26q-21 -10 -60 -17q-12 -77 -12 -281zM398 717l-204 62l-204 -62l-10 24q126 67 183 152
q10 3 31 3t31 -3q57 -85 183 -152z" />
    <glyph glyph-name="Idieresis" unicode="&#xcf;" horiz-adv-x="385" 
d="M275 336q0 -207 14 -302q39 -7 60 -17l-3 -26q-72 9 -157 9q-84 0 -144 -9l-4 27q22 12 56 19q13 97 13 289q0 177 -15 288q-34 7 -56 19l4 27q60 -9 144 -9q85 0 157 9l3 -26q-21 -10 -60 -17q-12 -77 -12 -281zM171 819q-10 -21 -38.5 -50.5t-50.5 -44.5
q-22 15 -50.5 44.5t-39.5 50.5q12 20 38.5 42.5t51.5 33.5q23 -12 49.5 -34.5t39.5 -41.5zM393 819q-10 -21 -38.5 -50.5t-50.5 -44.5q-22 15 -50.5 44.5t-39.5 50.5q12 20 38.5 42.5t51.5 33.5q23 -12 49.5 -34.5t39.5 -41.5z" />
    <glyph glyph-name="Eth" unicode="&#xd0;" horiz-adv-x="661" 
d="M307 -15q-79 0 -193 40q-14 -17 -25 -48l-25 6q26 129 28 321l-61 -3l-9 6l6 56h64q-3 164 -13 243q-26 13 -58 16v27q50 0 160 4.5t160 4.5q145 0 217.5 -66t72.5 -206q0 -149 -90 -261.5t-234 -139.5zM356 371l-6 -52l-93 -5q0 -108 7 -218q38 -27 86 -27q38 0 65 17
q37 90 37 234q0 289 -150 289q-21 0 -36 -5q-9 -90 -9 -236q55 3 91 8z" />
    <glyph glyph-name="Ntilde" unicode="&#xd1;" horiz-adv-x="705" 
d="M191 651q93 0 144 7l3 -18q-10 -3 -17 -12t-7 -19q0 -21 6 -41t52 -105t138 -236l4 2v94q0 172 -16.5 236.5t-76.5 79.5l3 21q58 -9 125 -9q68 0 128 9l3 -26q-26 -10 -70 -17q-5 -25 -10 -114.5t-5 -176.5q0 -207 15 -292q38 -6 70 -17l-3 -26q-61 9 -127 9
q-64 0 -117 -6q0 43 -42 127t-196 340l-4 -2v-77q0 -155 11 -235.5t48 -112.5q39 -7 60 -17l-3 -26q-83 9 -125 9q-77 0 -137 -9l-4 27q22 12 56 19q13 97 13 289q0 66 -5.5 161t-9.5 127q-34 7 -56 19l4 27q57 -9 148 -9zM184 744l-24 17q72 100 169 135q79 -51 157 -51
q59 0 86 39l24 -17q-75 -102 -138 -136q-27 0 -95 26t-97 26q-57 0 -82 -39z" />
    <glyph glyph-name="Ograve" unicode="&#xd2;" 
d="M30 265q0 142 83.5 247.5t224.5 153.5q138 0 209 -70.5t71 -208.5q0 -143 -78 -248.5t-216 -153.5q-138 0 -216 77t-78 203zM303 582q-34 0 -57 -16q-37 -86 -37 -227q0 -49 5.5 -91.5t19.5 -85.5t42.5 -68t68.5 -25q32 0 57 17q37 85 37 224q0 37 -1.5 64.5t-5.5 61.5
t-13.5 58t-24 45t-38 32t-53.5 11zM372 717l-262 66q1 26 8.5 60t16.5 50q7 3 22 3t26 -3q56 -85 199 -152z" />
    <glyph glyph-name="Oacute" unicode="&#xd3;" 
d="M30 265q0 142 83.5 247.5t224.5 153.5q138 0 209 -70.5t71 -208.5q0 -143 -78 -248.5t-216 -153.5q-138 0 -216 77t-78 203zM303 582q-34 0 -57 -16q-37 -86 -37 -227q0 -49 5.5 -91.5t19.5 -85.5t42.5 -68t68.5 -25q32 0 57 17q37 85 37 224q0 37 -1.5 64.5t-5.5 61.5
t-13.5 58t-24 45t-38 32t-53.5 11zM536 783l-262 -66l-10 24q143 67 199 152q9 3 26 3q15 0 22 -3q9 -16 16.5 -50t8.5 -60z" />
    <glyph glyph-name="Ocircumflex" unicode="&#xd4;" 
d="M30 265q0 142 83.5 247.5t224.5 153.5q138 0 209 -70.5t71 -208.5q0 -143 -78 -248.5t-216 -153.5q-138 0 -216 77t-78 203zM303 582q-34 0 -57 -16q-37 -86 -37 -227q0 -49 5.5 -91.5t19.5 -85.5t42.5 -68t68.5 -25q32 0 57 17q37 85 37 224q0 37 -1.5 64.5t-5.5 61.5
t-13.5 58t-24 45t-38 32t-53.5 11zM551 717l-204 62l-204 -62l-10 24q126 67 183 152q10 3 31 3t31 -3q57 -85 183 -152z" />
    <glyph glyph-name="Otilde" unicode="&#xd5;" 
d="M30 265q0 142 83.5 247.5t224.5 153.5q138 0 209 -70.5t71 -208.5q0 -143 -78 -248.5t-216 -153.5q-138 0 -216 77t-78 203zM303 582q-34 0 -57 -16q-37 -86 -37 -227q0 -49 5.5 -91.5t19.5 -85.5t42.5 -68t68.5 -25q32 0 57 17q37 85 37 224q0 37 -1.5 64.5t-5.5 61.5
t-13.5 58t-24 45t-38 32t-53.5 11zM161 744l-24 17q72 100 169 135q79 -51 157 -51q59 0 86 39l24 -17q-75 -102 -138 -136q-27 0 -95 26t-97 26q-57 0 -82 -39z" />
    <glyph glyph-name="Odieresis" unicode="&#xd6;" 
d="M30 265q0 142 83.5 247.5t224.5 153.5q138 0 209 -70.5t71 -208.5q0 -143 -78 -248.5t-216 -153.5q-138 0 -216 77t-78 203zM303 582q-34 0 -57 -16q-37 -86 -37 -227q0 -49 5.5 -91.5t19.5 -85.5t42.5 -68t68.5 -25q32 0 57 17q37 85 37 224q0 37 -1.5 64.5t-5.5 61.5
t-13.5 58t-24 45t-38 32t-53.5 11zM316 819q-10 -21 -38.5 -50.5t-50.5 -44.5q-22 15 -50.5 44.5t-39.5 50.5q12 20 38.5 42.5t51.5 33.5q23 -12 49.5 -34.5t39.5 -41.5zM538 819q-10 -21 -38.5 -50.5t-50.5 -44.5q-22 15 -50.5 44.5t-39.5 50.5q12 20 38.5 42.5t51.5 33.5
q23 -12 49.5 -34.5t39.5 -41.5z" />
    <glyph glyph-name="multiply" unicode="&#xd7;" horiz-adv-x="576" 
d="M437 441l52 -48l-156 -152q28 -29 56 -54.5l63 -55l47 -39.5l-42 -54l-11 1l-160 156l-156 -157h-11l-42 53l66.5 57.5t97.5 90.5l-154 153l52 50l8 -1q25 -28 144 -153l138 152z" />
    <glyph glyph-name="Oslash" unicode="&#xd8;" 
d="M185 -90h-5q-23 10 -40 30q38 85 97 238l114 299q52 136 91 255q28 2 55 8l4 -3q-28 -64 -96 -246zM30 265q0 142 83.5 247.5t224.5 153.5q138 0 209 -70.5t71 -208.5q0 -143 -78 -248.5t-216 -153.5q-138 0 -216 77t-78 203zM303 582q-34 0 -57 -16q-37 -86 -37 -227
q0 -49 5.5 -91.5t19.5 -85.5t42.5 -68t68.5 -25q32 0 57 17q37 85 37 224q0 37 -1.5 64.5t-5.5 61.5t-13.5 58t-24 45t-38 32t-53.5 11z" />
    <glyph glyph-name="Ugrave" unicode="&#xd9;" horiz-adv-x="708" 
d="M598 336q0 -207 14 -302q39 -7 60 -17l-3 -26q-72 9 -117 9q-74 0 -134 -9l-4 18q9 14 13 57q-51 -49 -131 -81q-123 0 -170 61t-47 195q0 57 7 181t7 136q0 36 -7 57q-36 8 -51 18l4 27q70 -9 149 -9q68 0 113 7l4 -17q-24 -13 -33 -33t-12 -59q-11 -132 -11 -273
q0 -34 0.5 -51t3 -44t8 -41t15.5 -29t26.5 -21.5t38.5 -6.5q45 0 89 34q3 44 3 209q0 177 -15 288q-34 7 -56 19l4 27q60 -9 144 -9q85 0 157 9l3 -26q-21 -10 -60 -17q-12 -77 -12 -281zM390 717l-262 66q1 26 8.5 60t16.5 50q8 3 22 3q15 0 26 -3q56 -85 199 -152z" />
    <glyph glyph-name="Uacute" unicode="&#xda;" horiz-adv-x="708" 
d="M598 336q0 -207 14 -302q39 -7 60 -17l-3 -26q-72 9 -117 9q-74 0 -134 -9l-4 18q9 14 13 57q-51 -49 -131 -81q-123 0 -170 61t-47 195q0 57 7 181t7 136q0 36 -7 57q-36 8 -51 18l4 27q70 -9 149 -9q68 0 113 7l4 -17q-24 -13 -33 -33t-12 -59q-11 -132 -11 -273
q0 -34 0.5 -51t3 -44t8 -41t15.5 -29t26.5 -21.5t38.5 -6.5q45 0 89 34q3 44 3 209q0 177 -15 288q-34 7 -56 19l4 27q60 -9 144 -9q85 0 157 9l3 -26q-21 -10 -60 -17q-12 -77 -12 -281zM598 783l-262 -66l-10 24q143 67 199 152q9 3 26 3q15 0 22 -3q9 -16 16.5 -50
t8.5 -60z" />
    <glyph glyph-name="Ucircumflex" unicode="&#xdb;" horiz-adv-x="708" 
d="M598 336q0 -207 14 -302q39 -7 60 -17l-3 -26q-72 9 -117 9q-74 0 -134 -9l-4 18q9 14 13 57q-51 -49 -131 -81q-123 0 -170 61t-47 195q0 57 7 181t7 136q0 36 -7 57q-36 8 -51 18l4 27q70 -9 149 -9q68 0 113 7l4 -17q-24 -13 -33 -33t-12 -59q-11 -132 -11 -273
q0 -34 0.5 -51t3 -44t8 -41t15.5 -29t26.5 -21.5t38.5 -6.5q45 0 89 34q3 44 3 209q0 177 -15 288q-34 7 -56 19l4 27q60 -9 144 -9q85 0 157 9l3 -26q-21 -10 -60 -17q-12 -77 -12 -281zM551 717l-204 62l-204 -62l-10 24q126 67 183 152q10 3 31 3t31 -3q57 -85 183 -152z
" />
    <glyph glyph-name="Udieresis" unicode="&#xdc;" horiz-adv-x="708" 
d="M598 336q0 -207 14 -302q39 -7 60 -17l-3 -26q-72 9 -117 9q-74 0 -134 -9l-4 18q9 14 13 57q-51 -49 -131 -81q-123 0 -170 61t-47 195q0 57 7 181t7 136q0 36 -7 57q-36 8 -51 18l4 27q70 -9 149 -9q68 0 113 7l4 -17q-24 -13 -33 -33t-12 -59q-11 -132 -11 -273
q0 -34 0.5 -51t3 -44t8 -41t15.5 -29t26.5 -21.5t38.5 -6.5q45 0 89 34q3 44 3 209q0 177 -15 288q-34 7 -56 19l4 27q60 -9 144 -9q85 0 157 9l3 -26q-21 -10 -60 -17q-12 -77 -12 -281zM326 819q-10 -21 -38.5 -50.5t-50.5 -44.5q-22 15 -50.5 44.5t-39.5 50.5
q12 20 38.5 42.5t51.5 33.5q23 -12 49.5 -34.5t39.5 -41.5zM548 819q-10 -21 -38.5 -50.5t-50.5 -44.5q-22 15 -50.5 44.5t-39.5 50.5q12 20 38.5 42.5t51.5 33.5q23 -12 49.5 -34.5t39.5 -41.5z" />
    <glyph glyph-name="Yacute" unicode="&#xdd;" horiz-adv-x="566" 
d="M226 617q62 -185 98 -254q42 125 53.5 168.5t11.5 71.5t-22 39l3 16q65 -7 114 -7q62 0 112 9l4 -26q-24 -13 -58 -20l-176 -286q0 -198 13 -294q43 -9 60 -17l-3 -26q-64 9 -156 9q-85 0 -145 -9l-4 27q21 11 57 19q12 90 12 238v26q-92 193 -120.5 244t-53.5 71
q-33 9 -48 17l4 27q64 -9 151 -9q79 0 150 9l3 -26q-17 -8 -60 -17zM554 793l-262 -66l-10 24q143 67 199 152q9 3 26 3q15 0 22 -3q9 -16 16.5 -50t8.5 -60z" />
    <glyph glyph-name="Thorn" unicode="&#xde;" horiz-adv-x="591" 
d="M278 482q0 -1 -0.5 -3t-0.5 -3q-2 -86 -2 -140q0 -207 14 -302q39 -7 60 -17l-3 -26q-72 9 -157 9q-84 0 -144 -9l-4 27q22 12 56 19q13 97 13 289q0 177 -15 288q-34 7 -56 19l4 27q60 -9 144 -9q85 0 157 9l3 -26q-21 -10 -60 -17q-4 -31 -7 -82q11 0 31.5 0.5
t30.5 0.5q116 1 179 -34t63 -130q0 -93 -75 -153t-173 -60q-18 0 -26 1l4 46h12q78 0 78 151q0 61 -19.5 95.5t-69.5 34.5q-19 0 -37 -5z" />
    <glyph glyph-name="germandbls" unicode="&#xdf;" horiz-adv-x="602" 
d="M356 115q32 -50 76 -50q45 0 45 66q0 21 -29.5 53.5t-65 61t-65 62.5t-29.5 59v19q90 75 90 189q0 62 -64 62q-27 0 -48 -8q-24 -52 -24 -137v-224q0 -160 17 -328q-66 6 -129 8q-28 -52 -45 -148l-25 2q1 25 14.5 199.5t14.5 268.5l1 169h-67l-2 2q0 21 3 27q13 5 72 22
q34 83 102 143.5t153 77.5q78 0 130.5 -28t52.5 -91q0 -37 -27 -69t-53.5 -50.5t-26.5 -22.5q0 -21 26.5 -50.5t57.5 -54t57.5 -55.5t26.5 -56q0 -63 -63 -144t-126 -105q-68 0 -129 19v16q41 61 45 160h24q0 -5 0.5 -11t1.5 -12l2 -12.5t2 -11.5t2 -9.5t2 -6.5v-2z" />
    <glyph glyph-name="agrave" unicode="&#xe0;" horiz-adv-x="546" 
d="M342 527l-262 97q1 27 8.5 66.5t16.5 54.5q6 2 16 2q23 0 32 -3q74 -125 199 -193zM23 192q0 100 70 185t172 128q85 0 172 -29q23 27 34 63l22 -7q-23 -97 -23 -330q0 -103 8 -162q24 -11 56 -13v-22q-108 0 -221 -20l-7 7q19 82 19 167l-10 1q-37 -99 -123 -175
q-75 0 -122 62.5t-47 144.5zM182 238q0 -137 43 -137q17 0 42.5 32t48.5 94q0 127 -4 170q-26 32 -69 32q-23 0 -41 -5q-20 -79 -20 -186z" />
    <glyph glyph-name="aacute" unicode="&#xe1;" horiz-adv-x="546" 
d="M23 192q0 100 70 185t172 128q85 0 172 -29q23 27 34 63l22 -7q-23 -97 -23 -330q0 -103 8 -162q24 -11 56 -13v-22q-108 0 -221 -20l-7 7q19 82 19 167l-10 1q-37 -99 -123 -175q-75 0 -122 62.5t-47 144.5zM182 238q0 -137 43 -137q17 0 42.5 32t48.5 94q0 127 -4 170
q-26 32 -69 32q-23 0 -41 -5q-20 -79 -20 -186zM486 624l-262 -97l-10 24q125 68 199 193q9 3 32 3q10 0 16 -2q9 -15 16.5 -54.5t8.5 -66.5z" />
    <glyph glyph-name="acircumflex" unicode="&#xe2;" horiz-adv-x="546" 
d="M478 554l-192 72l-206 -99l-10 24q126 76 195 194q6 2 21 2t21 -2q33 -51 74.5 -88t106.5 -79zM23 192q0 100 70 185t172 128q85 0 172 -29q23 27 34 63l22 -7q-23 -97 -23 -330q0 -103 8 -162q24 -11 56 -13v-22q-108 0 -221 -20l-7 7q19 82 19 167l-10 1
q-37 -99 -123 -175q-75 0 -122 62.5t-47 144.5zM182 238q0 -137 43 -137q17 0 42.5 32t48.5 94q0 127 -4 170q-26 32 -69 32q-23 0 -41 -5q-20 -79 -20 -186z" />
    <glyph glyph-name="atilde" unicode="&#xe3;" horiz-adv-x="546" 
d="M23 192q0 100 70 185t172 128q85 0 172 -29q23 27 34 63l22 -7q-23 -97 -23 -330q0 -103 8 -162q24 -11 56 -13v-22q-108 0 -221 -20l-7 7q19 82 19 167l-10 1q-37 -99 -123 -175q-75 0 -122 62.5t-47 144.5zM182 238q0 -137 43 -137q17 0 42.5 32t48.5 94q0 127 -4 170
q-26 32 -69 32q-23 0 -41 -5q-20 -79 -20 -186zM98 571l-24 17q72 100 169 135q79 -51 157 -51q59 0 86 39l24 -17q-75 -102 -138 -136q-27 0 -95 26t-97 26q-57 0 -82 -39z" />
    <glyph glyph-name="adieresis" unicode="&#xe4;" horiz-adv-x="546" 
d="M23 192q0 100 70 185t172 128q85 0 172 -29q23 27 34 63l22 -7q-23 -97 -23 -330q0 -103 8 -162q24 -11 56 -13v-22q-108 0 -221 -20l-7 7q19 82 19 167l-10 1q-37 -99 -123 -175q-75 0 -122 62.5t-47 144.5zM182 238q0 -137 43 -137q17 0 42.5 32t48.5 94q0 127 -4 170
q-26 32 -69 32q-23 0 -41 -5q-20 -79 -20 -186zM258 641q-10 -21 -38.5 -50.5t-50.5 -44.5q-22 15 -50.5 44.5t-39.5 50.5q12 20 38.5 42.5t51.5 33.5q23 -12 49.5 -34.5t39.5 -41.5zM480 641q-10 -21 -38.5 -50.5t-50.5 -44.5q-22 15 -50.5 44.5t-39.5 50.5
q12 20 38.5 42.5t51.5 33.5q23 -12 49.5 -34.5t39.5 -41.5z" />
    <glyph glyph-name="aring" unicode="&#xe5;" horiz-adv-x="546" 
d="M23 192q0 100 70 185t172 128q85 0 172 -29q23 27 34 63l22 -7q-23 -97 -23 -330q0 -103 8 -162q24 -11 56 -13v-22q-108 0 -221 -20l-7 7q19 82 19 167l-10 1q-37 -99 -123 -175q-75 0 -122 62.5t-47 144.5zM182 238q0 -137 43 -137q17 0 42.5 32t48.5 94q0 127 -4 170
q-26 32 -69 32q-23 0 -41 -5q-20 -79 -20 -186zM170 612q0 46 33.5 79.5t84.5 44.5q103 0 103 -84q0 -45 -31 -77t-79 -46q-47 0 -79 21.5t-32 61.5zM271 688q-22 0 -33 -8q-7 -18 -7 -44q0 -27 16 -43.5t43 -16.5q20 0 33 9q7 18 7 44q0 27 -15.5 43t-43.5 16z" />
    <glyph glyph-name="ae" unicode="&#xe6;" horiz-adv-x="743" 
d="M579 92q38 0 75 20.5t64 53.5l13 -11q-62 -111 -191 -170q-160 0 -207 137q-19 -33 -67 -75.5t-84 -61.5q-69 9 -113.5 59t-44.5 119q0 102 86 203.5t192 138.5q79 0 164 -30q16 13 30 22q37 8 77 8q63 0 97 -34.5t34 -97.5q0 -9 -2 -35q24 -6 41 -6q8 0 12 1l2 -22
q-133 -22 -290 -85q9 -134 112 -134zM239 424q-52 -119 -52 -231q0 -42 13.5 -67t31.5 -25q16 0 43.5 16.5t44.5 47.5q0 93 57 214q-40 50 -97 50q-24 0 -41 -5zM476 421q-11 -55 -11 -157q36 17 99 41q0 66 -11.5 95t-42.5 29q-18 0 -34 -8z" />
    <glyph glyph-name="ccedilla" unicode="&#xe7;" horiz-adv-x="387" 
d="M386 164l16 -8q-59 -122 -161 -171q-99 0 -158 60t-59 160q0 91 70.5 175.5t165.5 124.5q93 0 169 -26v-16q-49 -44 -64.5 -74t-21.5 -79h-24q-3 39 -10 64q-45 43 -107 50q-18 -97 -18 -177q0 -153 93 -153q30 0 61 20.5t48 49.5zM151 -107l-6 4l38 117l39 2l-23 -52
l4 -3q114 0 114 -77q-39 -75 -122 -119q-54 0 -98 21q27 41 36 76l4 2q24 -39 68 -39q17 0 29 5q6 11 6 23q0 40 -89 40z" />
    <glyph glyph-name="egrave" unicode="&#xe8;" horiz-adv-x="479" 
d="M294 92q38 0 75 20.5t64 53.5l13 -11q-62 -111 -191 -170q-106 0 -168.5 58t-62.5 162q0 92 71 176.5t165 123.5q182 0 182 -126q0 -32 -9 -68q27 -13 50 -14l-1 -22q-133 2 -298 -34q0 -74 23.5 -111.5t86.5 -37.5zM201 424q-15 -75 -17 -156q50 21 100 32q0 78 -9 105
t-39 27q-19 0 -35 -8zM311 527l-262 97q1 27 8.5 66.5t16.5 54.5q6 2 16 2q23 0 32 -3q74 -125 199 -193z" />
    <glyph glyph-name="eacute" unicode="&#xe9;" horiz-adv-x="479" 
d="M294 92q38 0 75 20.5t64 53.5l13 -11q-62 -111 -191 -170q-106 0 -168.5 58t-62.5 162q0 92 71 176.5t165 123.5q182 0 182 -126q0 -32 -9 -68q27 -13 50 -14l-1 -22q-133 2 -298 -34q0 -74 23.5 -111.5t86.5 -37.5zM201 424q-15 -75 -17 -156q50 21 100 32q0 78 -9 105
t-39 27q-19 0 -35 -8zM460 624l-262 -97l-10 24q125 68 199 193q9 3 32 3q10 0 16 -2q9 -15 16.5 -54.5t8.5 -66.5z" />
    <glyph glyph-name="ecircumflex" unicode="&#xea;" horiz-adv-x="557" 
d="M294 92q38 0 75 20.5t64 53.5l13 -11q-62 -111 -191 -170q-106 0 -168.5 58t-62.5 162q0 92 71 176.5t165 123.5q182 0 182 -126q0 -32 -9 -68q27 -13 50 -14l-1 -22q-133 2 -298 -34q0 -74 23.5 -111.5t86.5 -37.5zM201 424q-15 -75 -17 -156q50 21 100 32q0 78 -9 105
t-39 27q-19 0 -35 -8zM480 527l-206 79l-206 -79l-10 24q126 76 195 194q6 2 21 2t21 -2q69 -118 195 -194z" />
    <glyph glyph-name="edieresis" unicode="&#xeb;" horiz-adv-x="479" 
d="M294 92q38 0 75 20.5t64 53.5l13 -11q-62 -111 -191 -170q-106 0 -168.5 58t-62.5 162q0 92 71 176.5t165 123.5q182 0 182 -126q0 -32 -9 -68q27 -13 50 -14l-1 -22q-133 2 -298 -34q0 -74 23.5 -111.5t86.5 -37.5zM201 424q-15 -75 -17 -156q50 21 100 32q0 78 -9 105
t-39 27q-19 0 -35 -8zM253 641q-10 -21 -38.5 -50.5t-50.5 -44.5q-22 15 -50.5 44.5t-39.5 50.5q12 20 38.5 42.5t51.5 33.5q23 -12 49.5 -34.5t39.5 -41.5zM475 641q-10 -21 -38.5 -50.5t-50.5 -44.5q-22 15 -50.5 44.5t-39.5 50.5q12 20 38.5 42.5t51.5 33.5
q23 -12 49.5 -34.5t39.5 -41.5z" />
    <glyph glyph-name="igrave" unicode="&#xec;" horiz-adv-x="328" 
d="M93 322q0 62 -8 128q-24 11 -56 13v22q119 0 231 20l7 -7q-21 -90 -21 -249q0 -171 9 -214q35 -10 66 -24l-3 -20q-68 9 -150 9q-97 0 -148 -7l-3 20q16 9 62 25q14 70 14 284zM275 527l-262 97q1 27 8.5 66.5t16.5 54.5q6 2 16 2q23 0 32 -3q74 -125 199 -193z" />
    <glyph glyph-name="iacute" unicode="&#xed;" horiz-adv-x="328" 
d="M93 322q0 62 -8 128q-24 11 -56 13v22q119 0 231 20l7 -7q-21 -90 -21 -249q0 -171 9 -214q35 -10 66 -24l-3 -20q-68 9 -150 9q-97 0 -148 -7l-3 20q16 9 62 25q14 70 14 284zM317 624l-262 -97l-10 24q125 68 199 193q9 3 32 3q10 0 16 -2q9 -15 16.5 -54.5t8.5 -66.5z
" />
    <glyph glyph-name="icircumflex" unicode="&#xee;" horiz-adv-x="328" 
d="M93 322q0 62 -8 128q-24 11 -56 13v22q119 0 231 20l7 -7q-21 -90 -21 -249q0 -171 9 -214q35 -10 66 -24l-3 -20q-68 9 -150 9q-97 0 -148 -7l-3 20q16 9 62 25q14 70 14 284zM381 527l-206 79l-206 -79l-10 24q126 76 195 194q6 2 21 2t21 -2q69 -118 195 -194z" />
    <glyph glyph-name="idieresis" unicode="&#xef;" horiz-adv-x="328" 
d="M154 641q-10 -21 -38.5 -50.5t-50.5 -44.5q-22 15 -50.5 44.5t-39.5 50.5q12 20 38.5 42.5t51.5 33.5q23 -12 49.5 -34.5t39.5 -41.5zM362 641q-10 -21 -38.5 -50.5t-50.5 -44.5q-22 15 -50.5 44.5t-39.5 50.5q12 20 38.5 42.5t51.5 33.5q23 -12 49.5 -34.5t39.5 -41.5z
M93 322q0 62 -8 128q-24 11 -56 13v22q119 0 231 20l7 -7q-21 -90 -21 -249q0 -171 9 -214q35 -10 66 -24l-3 -20q-68 9 -150 9q-97 0 -148 -7l-3 20q16 9 62 25q14 70 14 284z" />
    <glyph glyph-name="eth" unicode="&#xf0;" horiz-adv-x="512" 
d="M419 704l23 -45l-118 -83q164 -136 164 -304q0 -104 -77 -188.5t-197 -98.5q-83 10 -136.5 63.5t-53.5 132.5q0 90 69.5 154t180.5 84q22 -12 55 -48l6 3q-38 96 -81 154l-123 -87l-10 2l-25 47q106 65 125 78q-54 60 -150 120l14 23q104 -38 195 -102l46 32q35 23 84 65
zM306 62q22 56 22 169q0 45 -7 75q-34 48 -79 61q-27 0 -42 -43.5t-15 -116.5q0 -40 6.5 -72t27 -57.5t53.5 -25.5q23 0 34 10z" />
    <glyph glyph-name="ntilde" unicode="&#xf1;" horiz-adv-x="547" 
d="M88 322q0 62 -8 128q-24 11 -56 13v22q108 0 221 20l7 -7q-19 -82 -19 -167l10 -1q20 51 55 100t75 75q89 0 123.5 -54t31.5 -156l-8 -257q34 -12 59 -26l-3 -19q-56 7 -137 7q-53 0 -91 -3v21q20 92 20 241q0 70 -6 100t-23 30q-24 0 -51.5 -35t-46.5 -91q0 -185 9 -228
q35 -10 66 -24l-3 -20q-67 9 -150 9q-97 0 -148 -7l-3 20q25 14 62 25q14 70 14 284zM119 571l-24 17q72 100 169 135q79 -51 157 -51q59 0 86 39l24 -17q-75 -102 -138 -136q-27 0 -95 26t-97 26q-57 0 -82 -39z" />
    <glyph glyph-name="ograve" unicode="&#xf2;" horiz-adv-x="488" 
d="M28 198q0 97 71 181t172 126q110 0 165.5 -54.5t55.5 -158.5q0 -98 -66.5 -182t-165.5 -125q-106 0 -169 57.5t-63 155.5zM250 432q-23 0 -40 -8q-18 -76 -18 -169q0 -96 16 -146.5t62 -50.5q27 0 40 8q18 77 18 169q0 96 -16 146.5t-62 50.5zM337 527l-262 97
q1 27 8.5 66.5t16.5 54.5q6 2 16 2q23 0 32 -3q74 -125 199 -193z" />
    <glyph glyph-name="oacute" unicode="&#xf3;" horiz-adv-x="488" 
d="M28 198q0 97 71 181t172 126q110 0 165.5 -54.5t55.5 -158.5q0 -98 -66.5 -182t-165.5 -125q-106 0 -169 57.5t-63 155.5zM250 432q-23 0 -40 -8q-18 -76 -18 -169q0 -96 16 -146.5t62 -50.5q27 0 40 8q18 77 18 169q0 96 -16 146.5t-62 50.5zM455 624l-262 -97l-10 24
q125 68 199 193q9 3 32 3q10 0 16 -2q9 -15 16.5 -54.5t8.5 -66.5z" />
    <glyph glyph-name="ocircumflex" unicode="&#xf4;" horiz-adv-x="488" 
d="M28 198q0 97 71 181t172 126q110 0 165.5 -54.5t55.5 -158.5q0 -98 -66.5 -182t-165.5 -125q-106 0 -169 57.5t-63 155.5zM250 432q-23 0 -40 -8q-18 -76 -18 -169q0 -96 16 -146.5t62 -50.5q27 0 40 8q18 77 18 169q0 96 -16 146.5t-62 50.5zM495 527l-206 79l-206 -79
l-10 24q126 76 195 194q6 2 21 2t21 -2q69 -118 195 -194z" />
    <glyph glyph-name="otilde" unicode="&#xf5;" horiz-adv-x="488" 
d="M28 198q0 97 71 181t172 126q110 0 165.5 -54.5t55.5 -158.5q0 -98 -66.5 -182t-165.5 -125q-106 0 -169 57.5t-63 155.5zM250 432q-23 0 -40 -8q-18 -76 -18 -169q0 -96 16 -146.5t62 -50.5q27 0 40 8q18 77 18 169q0 96 -16 146.5t-62 50.5zM87 571l-24 17
q72 100 169 135q79 -51 157 -51q59 0 86 39l24 -17q-75 -102 -138 -136q-27 0 -95 26t-97 26q-57 0 -82 -39z" />
    <glyph glyph-name="odieresis" unicode="&#xf6;" horiz-adv-x="488" 
d="M28 198q0 97 71 181t172 126q110 0 165.5 -54.5t55.5 -158.5q0 -98 -66.5 -182t-165.5 -125q-106 0 -169 57.5t-63 155.5zM250 432q-23 0 -40 -8q-18 -76 -18 -169q0 -96 16 -146.5t62 -50.5q27 0 40 8q18 77 18 169q0 96 -16 146.5t-62 50.5zM237 641
q-10 -21 -38.5 -50.5t-50.5 -44.5q-22 15 -50.5 44.5t-39.5 50.5q12 20 38.5 42.5t51.5 33.5q23 -12 49.5 -34.5t39.5 -41.5zM459 641q-10 -21 -38.5 -50.5t-50.5 -44.5q-22 15 -50.5 44.5t-39.5 50.5q12 20 38.5 42.5t51.5 33.5q23 -12 49.5 -34.5t39.5 -41.5z" />
    <glyph glyph-name="divide" unicode="&#xf7;" horiz-adv-x="576" 
d="M343 390q0 -21 -17 -39t-38 -18q-20 0 -38 18.5t-18 38.5q0 21 18 38.5t38 17.5q21 0 38 -17.5t17 -38.5zM343 107q0 -21 -17 -39t-38 -18q-20 0 -38 18.5t-18 38.5q0 21 18 38.5t38 17.5q21 0 38 -17.5t17 -38.5zM520 278l-9 -61h-446l-8 7l9 66q170 -9 363 -9
q46 0 85 3z" />
    <glyph glyph-name="oslash" unicode="&#xf8;" horiz-adv-x="519" 
d="M28 198q0 97 71 181t172 126q29 0 57 -5q14 44 21 69q22 1 43 9l5 -4q-19 -40 -34 -82q129 -39 129 -200q0 -98 -66.5 -182t-165.5 -125q-47 0 -86 12l-34 -92h-6q-18 10 -29 29l34 76q-53 25 -82 73.5t-29 114.5zM309 350l-96 -253q17 -39 57 -39q27 0 40 8
q18 77 18 169q0 86 -12 133zM250 432q-23 0 -40 -8q-18 -76 -18 -169q0 -65 5 -102l76 194l24 63q-19 22 -47 22z" />
    <glyph glyph-name="ugrave" unicode="&#xf9;" horiz-adv-x="600" 
d="M229 231q0 -70 6 -100t23 -30q24 0 51.5 35t46.5 91q0 185 -9 228q-35 10 -66 24l3 20q68 -9 150 -9q97 0 148 7l3 -20q-16 -9 -62 -25q-14 -70 -14 -284q2 -78 8 -128q24 -11 56 -13v-22q-109 0 -221 -20l-7 7q19 82 19 167l-10 1q-20 -51 -55 -100t-75 -75
q-91 0 -123 52t-30 158l3 127q2 66 -6 128q-24 11 -56 13v22q118 0 231 20l7 -7q-21 -90 -21 -267zM356 527l-262 97q1 27 8.5 66.5t16.5 54.5q6 2 16 2q23 0 32 -3q74 -125 199 -193z" />
    <glyph glyph-name="uacute" unicode="&#xfa;" horiz-adv-x="600" 
d="M229 231q0 -70 6 -100t23 -30q24 0 51.5 35t46.5 91q0 185 -9 228q-35 10 -66 24l3 20q68 -9 150 -9q97 0 148 7l3 -20q-16 -9 -62 -25q-14 -70 -14 -284q2 -78 8 -128q24 -11 56 -13v-22q-109 0 -221 -20l-7 7q19 82 19 167l-10 1q-20 -51 -55 -100t-75 -75
q-91 0 -123 52t-30 158l3 127q2 66 -6 128q-24 11 -56 13v22q118 0 231 20l7 -7q-21 -90 -21 -267zM491 624l-262 -97l-10 24q125 68 199 193q9 3 32 3q10 0 16 -2q9 -15 16.5 -54.5t8.5 -66.5z" />
    <glyph glyph-name="ucircumflex" unicode="&#xfb;" horiz-adv-x="604" 
d="M229 231q0 -70 6 -100t23 -30q24 0 51.5 35t46.5 91q0 185 -9 228q-35 10 -66 24l3 20q68 -9 150 -9q97 0 148 7l3 -20q-16 -9 -62 -25q-14 -70 -14 -284q2 -78 8 -128q24 -11 56 -13v-22q-109 0 -221 -20l-7 7q19 82 19 167l-10 1q-20 -51 -55 -100t-75 -75
q-91 0 -123 52t-30 158l3 127q2 66 -6 128q-24 11 -56 13v22q118 0 231 20l7 -7q-21 -90 -21 -267zM497 527l-206 79l-206 -79l-10 24q126 76 195 194q6 2 21 2t21 -2q69 -118 195 -194z" />
    <glyph glyph-name="udieresis" unicode="&#xfc;" horiz-adv-x="600" 
d="M229 231q0 -70 6 -100t23 -30q24 0 51.5 35t46.5 91q0 185 -9 228q-35 10 -66 24l3 20q68 -9 150 -9q97 0 148 7l3 -20q-16 -9 -62 -25q-14 -70 -14 -284q2 -78 8 -128q24 -11 56 -13v-22q-109 0 -221 -20l-7 7q19 82 19 167l-10 1q-20 -51 -55 -100t-75 -75
q-91 0 -123 52t-30 158l3 127q2 66 -6 128q-24 11 -56 13v22q118 0 231 20l7 -7q-21 -90 -21 -267zM270 641q-10 -21 -38.5 -50.5t-50.5 -44.5q-22 15 -50.5 44.5t-39.5 50.5q12 20 38.5 42.5t51.5 33.5q23 -12 49.5 -34.5t39.5 -41.5zM492 641q-10 -21 -38.5 -50.5
t-50.5 -44.5q-22 15 -50.5 44.5t-39.5 50.5q12 20 38.5 42.5t51.5 33.5q23 -12 49.5 -34.5t39.5 -41.5z" />
    <glyph glyph-name="yacute" unicode="&#xfd;" horiz-adv-x="582" 
d="M159 -72q60 -70 141 -70q22 0 41 8q15 64 18 113t3 180l-10 1q-53 -133 -116 -175q-91 0 -123 52t-30 158l3 127q2 66 -6 128q-24 11 -56 13v22q119 0 231 20l7 -7q-21 -90 -21 -267q0 -70 6 -100t23 -30q18 0 42.5 37.5t41.5 88.5q0 185 -9 228q-31 11 -52 24l3 20
q68 -9 136 -9q97 0 148 7l3 -20q-16 -9 -62 -25q-14 -70 -14 -230q0 -138 15 -231q-30 -58 -102.5 -122t-133.5 -84q-99 0 -229 41v16q39 41 52.5 65t18.5 68h26q2 -30 5 -47zM503 624l-262 -97l-10 24q125 68 199 193q9 3 32 3q10 0 16 -2q9 -15 16.5 -54.5t8.5 -66.5z" />
    <glyph glyph-name="thorn" unicode="&#xfe;" horiz-adv-x="548" 
d="M225 416l-3 -85l10 -1q37 99 123 175q75 0 122 -62.5t47 -144.5q0 -100 -70 -185t-172 -128q-31 0 -67 6q0 -98 8 -155q38 -9 80 -28l-5 -21q-66 13 -143 13q-80 0 -142 -8l-4 22q24 6 50 19q18 111 20 374l2 209q0 167 -8 233q-24 11 -56 13v22q119 0 231 20l7 -7
q-30 -110 -30 -281zM364 252q0 137 -43 137q-17 0 -42.5 -32t-48.5 -94q0 -127 4 -170q26 -32 69 -32q23 0 41 5q20 79 20 186z" />
    <glyph glyph-name="ydieresis" unicode="&#xff;" horiz-adv-x="582" 
d="M159 -72q60 -70 141 -70q22 0 41 8q15 64 18 113t3 180l-10 1q-53 -133 -116 -175q-91 0 -123 52t-30 158l3 127q2 66 -6 128q-24 11 -56 13v22q119 0 231 20l7 -7q-21 -90 -21 -267q0 -70 6 -100t23 -30q18 0 42.5 37.5t41.5 88.5q0 185 -9 228q-31 11 -52 24l3 20
q68 -9 136 -9q97 0 148 7l3 -20q-16 -9 -62 -25q-14 -70 -14 -230q0 -138 15 -231q-30 -58 -102.5 -122t-133.5 -84q-99 0 -229 41v16q39 41 52.5 65t18.5 68h26q2 -30 5 -47zM282 641q-10 -21 -38.5 -50.5t-50.5 -44.5q-22 15 -50.5 44.5t-39.5 50.5q12 20 38.5 42.5
t51.5 33.5q23 -12 49.5 -34.5t39.5 -41.5zM504 641q-10 -21 -38.5 -50.5t-50.5 -44.5q-22 15 -50.5 44.5t-39.5 50.5q12 20 38.5 42.5t51.5 33.5q23 -12 49.5 -34.5t39.5 -41.5z" />
    <glyph glyph-name="hbar" unicode="&#x127;" horiz-adv-x="583" 
d="M392 597l-4 -46l-378 -33l-8 6l3 49q114 1 275 15q65 6 106 14zM78 323q0 197 -3.5 270t-21.5 140l24 7q10 -37 31 -62q84 6 179 33l5 -19q-12 -10 -49 -33q-9 -37 -15 -153.5t-6 -174.5l10 -1q20 51 55 100t75 75q89 0 123.5 -54t31.5 -156l-8 -257q34 -12 59 -26
l-3 -19q-56 7 -137 7q-54 0 -91 -3v21q20 92 20 241q0 70 -6 100t-23 30q-24 0 -51.5 -35t-46.5 -91q0 -185 9 -228q35 -10 66 -24l-3 -20q-67 9 -150 9q-97 0 -148 -7l-3 20q16 9 62 25q15 75 15 285z" />
    <glyph glyph-name="Itilde" unicode="&#x128;" horiz-adv-x="385" 
d="M275 336q0 -207 14 -302q39 -7 60 -17l-3 -26q-72 9 -157 9q-84 0 -144 -9l-4 27q22 12 56 19q13 97 13 289q0 177 -15 288q-34 7 -56 19l4 27q60 -9 144 -9q85 0 157 9l3 -26q-21 -10 -60 -17q-12 -77 -12 -281zM12 744l-24 17q72 100 169 135q79 -51 157 -51
q59 0 86 39l24 -17q-75 -102 -138 -136q-27 0 -95 26t-97 26q-57 0 -82 -39z" />
    <glyph glyph-name="itilde" unicode="&#x129;" horiz-adv-x="328" 
d="M93 322q0 62 -8 128q-24 11 -56 13v22q119 0 231 20l7 -7q-21 -90 -21 -249q0 -171 9 -214q35 -10 66 -24l-3 -20q-68 9 -150 9q-97 0 -148 -7l-3 20q16 9 62 25q14 70 14 284zM-16 571l-24 17q72 100 169 135q79 -51 157 -51q59 0 86 39l24 -17q-75 -102 -138 -136
q-27 0 -95 26t-97 26q-57 0 -82 -39z" />
    <glyph glyph-name="dotlessi" unicode="&#x131;" horiz-adv-x="328" 
d="M93 322q0 62 -8 128q-24 11 -56 13v22q119 0 231 20l7 -7q-21 -90 -21 -249q0 -171 9 -214q35 -10 66 -24l-3 -20q-68 9 -150 9q-97 0 -148 -7l-3 20q16 9 62 25q14 70 14 284z" />
    <glyph glyph-name="IJ" unicode="&#x132;" horiz-adv-x="762" 
d="M275 336q0 -207 14 -302q39 -7 60 -17l-3 -26q-72 9 -157 9q-84 0 -144 -9l-4 27q22 12 56 19q13 97 13 289q0 177 -15 288q-34 7 -56 19l4 27q60 -9 144 -9q85 0 157 9l3 -26q-21 -10 -60 -17q-12 -77 -12 -281zM495 164v190q0 186 -12 263q-39 7 -60 17l3 26
q72 -9 157 -9q84 0 144 9l4 -27q-22 -12 -56 -19q-15 -111 -15 -260q0 -220 13 -317q-101 -129 -300 -219l-17 21q80 61 109.5 136.5t29.5 188.5z" />
    <glyph glyph-name="ij" unicode="&#x133;" horiz-adv-x="649" 
d="M97 322q0 62 -8 128q-24 11 -56 13v22q119 0 231 20l7 -7q-21 -90 -21 -249q0 -171 9 -214q35 -10 66 -24l-3 -20q-68 9 -150 9q-97 0 -148 -7l-3 20q16 9 62 25q14 70 14 284zM268 641q-11 -22 -41 -53t-53 -47q-23 15 -53 46.5t-42 53.5q13 21 40.5 45t54.5 36
q24 -13 52 -36.5t42 -44.5zM421 83v137q0 164 -8 230q-24 11 -56 13v22q119 0 231 20l7 -7q-21 -90 -21 -249q0 -135 17 -217q-24 -67 -109 -138t-167 -109l-11 19q117 88 117 279zM600 641q-11 -22 -41 -53t-53 -47q-23 15 -53 46.5t-42 53.5q13 21 40.5 45t54.5 36
q24 -13 52 -36.5t42 -44.5z" />
    <glyph glyph-name="Jcircumflex" unicode="&#x134;" horiz-adv-x="377" 
d="M110 164v190q0 186 -12 263q-39 7 -60 17l3 26q72 -9 157 -9q84 0 144 9l4 -27q-22 -12 -56 -19q-15 -111 -15 -260q0 -220 13 -317q-101 -129 -300 -219l-17 21q80 61 109.5 136.5t29.5 188.5zM398 717l-204 62l-204 -62l-10 24q126 67 183 152q10 3 31 3t31 -3
q57 -85 183 -152z" />
    <glyph glyph-name="jcircumflex" unicode="&#x135;" horiz-adv-x="317" 
d="M89 83v137q0 164 -8 230q-24 11 -56 13v22q119 0 231 20l7 -7q-21 -90 -21 -249q0 -135 17 -217q-24 -67 -109 -138t-167 -109l-11 19q117 88 117 279zM374 527l-206 79l-206 -79l-10 24q126 76 195 194q6 2 21 2t21 -2q69 -118 195 -194z" />
    <glyph glyph-name="kcommaaccent" unicode="&#x137;" horiz-adv-x="515" 
d="M256 659q-9 -14 -17.5 -111.5t-8.5 -216.5l10 -1q44 116 120 175q150 0 150 -134q0 -45 -22 -83.5t-61 -56.5l22 -63q33 -92 64 -131q28 -8 54 -8v-21q-141 -6 -201 -20l-9 5q0 66 -58 216q-24 -2 -36 -2v23q50 4 72 31.5t22 79.5q0 49 -24 59q-61 -39 -95 -137
q0 -198 9 -228q35 -10 66 -24l-3 -20q-68 9 -150 9q-97 0 -148 -7l-3 20q16 9 62 25q16 80 16 284q0 246 -12 319q-27 15 -57 15v22q185 0 282 34l6 -19q-20 -17 -50 -34zM398 -95q-8 -54 -53.5 -97.5t-112.5 -58.5l-10 24q50 28 64 56q-41 34 -55 76q13 17 37.5 34.5
t46.5 26.5q53 -21 83 -61z" />
    <glyph glyph-name="kgreenlandic" unicode="&#x138;" horiz-adv-x="563" 
d="M93 322q0 62 -8 128q-24 11 -56 13v22q119 0 231 20l7 -7q-25 -105 -28 -240l10 -1q111 198 192 248q53 0 96 -18v-16q-32 -43 -42.5 -84.5t-13.5 -108.5h-24q-3 40 -10 65q-18 9 -37 9q-13 0 -51 -28l62 -114q75 -137 113 -172q24 -7 41 -8v-22q-132 -4 -201 -20l-9 5
q0 40 -13.5 71.5t-88.5 167.5q-12 -14 -17 -21q0 -139 9 -176q35 -10 66 -24l-3 -20q-68 9 -150 9q-97 0 -148 -7l-3 20q16 9 62 25q14 70 14 284z" />
    <glyph glyph-name="Ldotaccent" unicode="&#x13f;" horiz-adv-x="480" 
d="M481 356q-10 -21 -38.5 -50.5t-50.5 -44.5q-22 15 -50.5 44.5t-39.5 50.5q12 20 38.5 42.5t51.5 33.5q23 -12 49.5 -34.5t39.5 -41.5zM276 0q-154 0 -233 -10l-4 27q25 13 56 20q15 113 15 289q0 177 -15 288q-34 7 -56 19l4 27q60 -9 144 -9q85 0 157 9l3 -26
q-21 -10 -60 -17q-12 -77 -12 -281q0 -186 8 -266q19 -7 53 -7q56 0 83 14q10 33 15 90h29q0 -112 41 -159l-6 -21q-94 13 -222 13z" />
    <glyph glyph-name="ldot" unicode="&#x140;" horiz-adv-x="515" 
d="M481 356q-10 -21 -38.5 -50.5t-50.5 -44.5q-22 15 -50.5 44.5t-39.5 50.5q12 20 38.5 42.5t51.5 33.5q23 -12 49.5 -34.5t39.5 -41.5zM238 323q0 -244 9 -288q35 -10 66 -24l-3 -20q-68 9 -150 9q-97 0 -148 -7l-3 20q16 9 62 25q16 80 16 284q0 246 -12 319
q-27 15 -57 15v22q185 0 282 34l6 -19q-20 -17 -50 -34q-18 -83 -18 -336z" />
    <glyph glyph-name="Lslash" unicode="&#x141;" horiz-adv-x="480" 
d="M397 417l8 -46l-357 -130l-9 4l-10 48q125 36 262 86q64 23 99 41zM276 0q-154 0 -233 -10l-4 27q25 13 56 20q15 113 15 289q0 177 -15 288q-34 7 -56 19l4 27q60 -9 144 -9q85 0 157 9l3 -26q-21 -10 -60 -17q-12 -77 -12 -281q0 -186 8 -266q19 -7 53 -7q56 0 83 14
q10 33 15 90h29q0 -112 41 -159l-6 -21q-94 13 -222 13z" />
    <glyph glyph-name="lslash" unicode="&#x142;" horiz-adv-x="324" 
d="M345 447l8 -46l-357 -130l-9 4l-10 48q125 36 262 86q64 23 99 41zM238 323q0 -244 9 -288q35 -10 66 -24l-3 -20q-68 9 -150 9q-97 0 -148 -7l-3 20q16 9 62 25q16 80 16 284q0 246 -12 319q-27 15 -57 15v22q185 0 282 34l6 -19q-20 -17 -50 -34q-18 -83 -18 -336z" />
    <glyph glyph-name="Nacute" unicode="&#x143;" horiz-adv-x="705" 
d="M191 651q93 0 144 7l3 -18q-10 -3 -17 -12t-7 -19q0 -21 6 -41t52 -105t138 -236l4 2v94q0 172 -16.5 236.5t-76.5 79.5l3 21q58 -9 125 -9q68 0 128 9l3 -26q-26 -10 -70 -17q-5 -25 -10 -114.5t-5 -176.5q0 -207 15 -292q38 -6 70 -17l-3 -26q-61 9 -127 9
q-64 0 -117 -6q0 43 -42 127t-196 340l-4 -2v-77q0 -155 11 -235.5t48 -112.5q39 -7 60 -17l-3 -26q-83 9 -125 9q-77 0 -137 -9l-4 27q22 12 56 19q13 97 13 289q0 66 -5.5 161t-9.5 127q-34 7 -56 19l4 27q57 -9 148 -9zM577 783l-262 -66l-10 24q143 67 199 152q9 3 26 3
q14 0 22 -3q9 -16 16.5 -50t8.5 -60z" />
    <glyph glyph-name="nacute" unicode="&#x144;" horiz-adv-x="547" 
d="M88 322q0 62 -8 128q-24 11 -56 13v22q108 0 221 20l7 -7q-19 -82 -19 -167l10 -1q20 51 55 100t75 75q89 0 123.5 -54t31.5 -156l-8 -257q34 -12 59 -26l-3 -19q-56 7 -137 7q-53 0 -91 -3v21q20 92 20 241q0 70 -6 100t-23 30q-24 0 -51.5 -35t-46.5 -91q0 -185 9 -228
q35 -10 66 -24l-3 -20q-67 9 -150 9q-97 0 -148 -7l-3 20q25 14 62 25q14 70 14 284zM513 624l-262 -97l-10 24q125 68 199 193q9 3 32 3q10 0 16 -2q9 -15 16.5 -54.5t8.5 -66.5z" />
    <glyph glyph-name="OE" unicode="&#x152;" horiz-adv-x="777" 
d="M641 83q78 0 141 61l16 -15q-86 -110 -188 -144q-123 0 -179 72q-72 -54 -157 -72q-118 0 -181 77t-63 203q0 141 84 247t225 154q56 0 125.5 -7.5t100.5 -7.5q134 0 228 13l6 -21q-39 -52 -42 -163h-27q-9 46 -9 87q-36 17 -95 17q-42 0 -59 -7q-25 -66 -28 -195
q29 -7 62 -7q60 0 90 35l22 -5q-13 -39 -13 -81q0 -40 10 -88l-25 -4q-14 36 -21 74q-19 5 -63 5q-35 0 -63 -4q0 -53 1 -81t6.5 -60.5t16 -47.5t30 -25t49.5 -10zM342 83h17q17 10 22.5 45.5t5.5 123.5q0 60 2.5 121.5t5.5 114.5t4 73q-40 21 -85 21q-47 0 -69 -17
q-17 -39 -26.5 -106.5t-9.5 -119.5q0 -41 1 -65t4.5 -58.5t12.5 -54.5t23 -40t37 -29t55 -9z" />
    <glyph glyph-name="oe" unicode="&#x153;" horiz-adv-x="779" 
d="M594 92q38 0 75 20.5t64 53.5l13 -11q-62 -111 -191 -170q-125 0 -183 93q-49 -66 -116 -93q-106 0 -169 57.5t-63 155.5q0 97 71 181t172 126q121 0 180 -81q47 54 113 81q182 0 182 -126q0 -32 -9 -68q27 -13 50 -14l-1 -22q-133 2 -298 -34q0 -74 23.5 -111.5
t86.5 -37.5zM246 432q-23 0 -40 -8q-18 -76 -18 -169q0 -96 16 -146.5t62 -50.5q27 0 40 8q18 77 18 169q0 96 -16 146.5t-62 50.5zM501 424q-15 -75 -17 -156q50 21 100 32q0 78 -9 105t-39 27q-19 0 -35 -8z" />
    <glyph glyph-name="Racute" unicode="&#x154;" horiz-adv-x="655" 
d="M275 336q0 -207 14 -302q39 -7 60 -17l-3 -26q-72 9 -157 9q-84 0 -144 -9l-4 27q22 12 56 19q13 97 13 289q0 157 -14 280q-26 13 -57 16v27q49 0 155 4.5t155 4.5q56 0 96.5 -6.5t75.5 -23.5t53 -50.5t18 -83.5q0 -53 -30.5 -95.5t-82.5 -69.5l144 -292q36 -8 56 -19
l-4 -27q-49 9 -146 9q-64 0 -121 -5l-3 18q18 18 18 64q0 68 -60 227q-24 4 -50 4l4 41h11q43 0 62.5 37.5t19.5 92.5q0 130 -88 130q-19 0 -37 -5q-10 -88 -10 -268zM552 783l-262 -66l-10 24q143 67 199 152q9 3 26 3q15 0 22 -3q9 -16 16.5 -50t8.5 -60z" />
    <glyph glyph-name="Rcommaaccent" unicode="&#x156;" horiz-adv-x="655" 
d="M275 336q0 -207 14 -302q39 -7 60 -17l-3 -26q-72 9 -157 9q-84 0 -144 -9l-4 27q22 12 56 19q13 97 13 289q0 157 -14 280q-26 13 -57 16v27q49 0 155 4.5t155 4.5q56 0 96.5 -6.5t75.5 -23.5t53 -50.5t18 -83.5q0 -53 -30.5 -95.5t-82.5 -69.5l144 -292q36 -8 56 -19
l-4 -27q-49 9 -146 9q-64 0 -121 -5l-3 18q18 18 18 64q0 68 -60 227q-24 4 -50 4l4 41h11q43 0 62.5 37.5t19.5 92.5q0 130 -88 130q-19 0 -37 -5q-10 -88 -10 -268zM437 -95q-8 -54 -53.5 -97.5t-112.5 -58.5l-10 24q50 28 64 56q-41 34 -55 76q13 17 37.5 34.5t46.5 26.5
q53 -21 83 -61z" />
    <glyph glyph-name="rcommaaccent" unicode="&#x157;" horiz-adv-x="433" 
d="M88 322q-2 78 -8 128q-24 11 -56 13v22q108 0 221 20l7 -7q-19 -82 -19 -167l10 -1q53 133 116 175q45 0 86 -18v-16q-60 -82 -66 -203h-24q-3 40 -10 65q-18 9 -37 9q-48 0 -67 -79q0 -185 9 -228q46 -8 86 -24l-3 -21q-68 10 -170 10q-97 0 -148 -7l-3 20q16 9 62 25
q14 70 14 284zM251 -95q-8 -54 -53.5 -97.5t-112.5 -58.5l-10 24q50 28 64 56q-41 34 -55 76q13 17 37.5 34.5t46.5 26.5q53 -21 83 -61z" />
    <glyph glyph-name="Rcaron" unicode="&#x158;" horiz-adv-x="655" 
d="M275 336q0 -207 14 -302q39 -7 60 -17l-3 -26q-72 9 -157 9q-84 0 -144 -9l-4 27q22 12 56 19q13 97 13 289q0 157 -14 280q-26 13 -57 16v27q49 0 155 4.5t155 4.5q56 0 96.5 -6.5t75.5 -23.5t53 -50.5t18 -83.5q0 -53 -30.5 -95.5t-82.5 -69.5l144 -292q36 -8 56 -19
l-4 -27q-49 9 -146 9q-64 0 -121 -5l-3 18q18 18 18 64q0 68 -60 227q-24 4 -50 4l4 41h11q43 0 62.5 37.5t19.5 92.5q0 130 -88 130q-19 0 -37 -5q-10 -88 -10 -268zM328 834l204 62l10 -24q-126 -67 -183 -152q-11 -3 -31 -3t-31 3q-57 85 -183 152l10 24z" />
    <glyph glyph-name="rcaron" unicode="&#x159;" horiz-adv-x="446" 
d="M88 322q-2 78 -8 128q-24 11 -56 13v22q108 0 221 20l7 -7q-19 -82 -19 -167l10 -1q53 133 116 175q45 0 86 -18v-16q-60 -82 -66 -203h-24q-3 40 -10 65q-18 9 -37 9q-48 0 -67 -79q0 -185 9 -228q46 -8 86 -24l-3 -21q-68 10 -170 10q-97 0 -148 -7l-3 20q16 9 62 25
q14 70 14 284zM242 668l206 79l10 -24q-126 -76 -195 -194q-6 -2 -21 -2t-21 2q-69 118 -195 194l10 24z" />
    <glyph glyph-name="dotlessj" unicode="&#x237;" horiz-adv-x="291" 
d="M77 83v137q0 164 -8 230q-24 11 -56 13v22q119 0 231 20l7 -7q-21 -90 -21 -249q0 -135 17 -217q-24 -67 -109 -138t-167 -109l-11 19q117 88 117 279z" />
    <glyph glyph-name="circumflex" unicode="&#x2c6;" horiz-adv-x="432" 
d="M422 527l-206 79l-206 -79l-10 24q126 76 195 194q6 2 21 2t21 -2q69 -118 195 -194z" />
    <glyph glyph-name="caron" unicode="&#x2c7;" horiz-adv-x="432" 
d="M216 668l206 79l10 -24q-126 -76 -195 -194q-6 -2 -21 -2t-21 2q-69 118 -195 194l10 24z" />
    <glyph glyph-name="ring" unicode="&#x2da;" horiz-adv-x="221" 
d="M0 612q0 46 33.5 79.5t84.5 44.5q103 0 103 -84q0 -45 -31 -77t-79 -46q-47 0 -79 21.5t-32 61.5zM101 688q-22 0 -33 -8q-7 -18 -7 -44q0 -27 16 -43.5t43 -16.5q20 0 33 9q7 18 7 44q0 27 -15.5 43t-43.5 16z" />
    <glyph glyph-name="tilde" unicode="&#x2dc;" horiz-adv-x="436" 
d="M24 571l-24 17q72 100 169 135q79 -51 157 -51q59 0 86 39l24 -17q-75 -102 -138 -136q-27 0 -95 26t-97 26q-57 0 -82 -39z" />
    <glyph glyph-name="dotaccentcmb" unicode="&#x307;" horiz-adv-x="189" 
d="M189 641q-11 -22 -41 -53t-53 -47q-23 15 -53 46.5t-42 53.5q13 21 40.5 45t54.5 36q24 -13 52 -36.5t42 -44.5z" />
    <glyph glyph-name="endash" unicode="&#x2013;" horiz-adv-x="456" 
d="M449 294l-8 -54h-426l-8 7l8 59q125 -9 322 -9q67 0 106 3z" />
    <glyph glyph-name="emdash" unicode="&#x2014;" horiz-adv-x="656" 
d="M649 294l-8 -54h-626l-8 7l8 59q169 -9 472 -9q117 0 156 3z" />
    <glyph glyph-name="quoteleft" unicode="&#x2018;" horiz-adv-x="257" 
d="M34 427q0 64 57.5 140.5t120.5 113.5l16 -20q-67 -63 -76 -153q19 -16 40.5 -40.5t30.5 -40.5q-13 -21 -40.5 -45t-54.5 -36q-24 13 -52 36.5t-42 44.5z" />
    <glyph glyph-name="quoteright" unicode="&#x2019;" horiz-adv-x="257" 
d="M223 600q0 -64 -57.5 -140.5t-120.5 -113.5l-16 20q67 63 76 153q-19 16 -40.5 40.5t-30.5 40.5q13 21 40.5 45t54.5 36q24 -13 52 -36.5t42 -44.5z" />
    <glyph glyph-name="quotesinglbase" unicode="&#x201a;" horiz-adv-x="257" 
d="M223 85q0 -59 -57 -130.5t-120 -104.5l-17 22q67 56 76 132q-19 16 -40.5 40.5t-30.5 40.5q13 21 40.5 45t54.5 36q24 -13 52 -36.5t42 -44.5z" />
    <glyph glyph-name="quotedblleft" unicode="&#x201c;" horiz-adv-x="472" 
d="M34 427q0 64 57.5 140.5t120.5 113.5l16 -20q-67 -63 -76 -153q19 -16 40.5 -40.5t30.5 -40.5q-13 -21 -40.5 -45t-54.5 -36q-24 13 -52 36.5t-42 44.5zM249 427q0 64 57.5 140.5t120.5 113.5l16 -20q-67 -63 -76 -153q19 -16 40.5 -40.5t30.5 -40.5q-13 -21 -40.5 -45
t-54.5 -36q-24 13 -52 36.5t-42 44.5z" />
    <glyph glyph-name="quotedblright" unicode="&#x201d;" horiz-adv-x="472" 
d="M438 600q0 -64 -57.5 -140.5t-120.5 -113.5l-16 20q67 63 76 153q-19 16 -40.5 40.5t-30.5 40.5q13 21 40.5 45t54.5 36q24 -13 52 -36.5t42 -44.5zM223 600q0 -64 -57.5 -140.5t-120.5 -113.5l-16 20q67 63 76 153q-19 16 -40.5 40.5t-30.5 40.5q13 21 40.5 45t54.5 36
q24 -13 52 -36.5t42 -44.5z" />
    <glyph glyph-name="quotedblbase" unicode="&#x201e;" horiz-adv-x="472" 
d="M223 85q0 -59 -57 -130.5t-120 -104.5l-17 22q67 56 76 132q-19 16 -40.5 40.5t-30.5 40.5q13 21 40.5 45t54.5 36q24 -13 52 -36.5t42 -44.5zM438 85q0 -59 -57 -130.5t-120 -104.5l-17 22q67 56 76 132q-19 16 -40.5 40.5t-30.5 40.5q13 21 40.5 45t54.5 36
q24 -13 52 -36.5t42 -44.5z" />
    <glyph glyph-name="bullet" unicode="&#x2022;" horiz-adv-x="371" 
d="M359 302v-14q-50 -34 -85.5 -73.5t-66.5 -94.5h-20q-62 109 -153 167v14q58 41 91.5 73t61.5 82h20q28 -50 62 -83t90 -71z" />
    <glyph glyph-name="guilsinglleft" unicode="&#x2039;" horiz-adv-x="301" 
d="M143 297l113 -208l-20 -14l-29.5 33l-30.5 33.5l-26.5 29t-29.5 31l-27.5 26.5t-32 29l-32.5 26v20q89 66 208 200l19 -13z" />
    <glyph glyph-name="guilsinglright" unicode="&#x203a;" horiz-adv-x="301" 
d="M45 89l113 208l-112 193l19 13q5 -6 25 -28.5l26.5 -29.5l24 -26.5t26.5 -28l24.5 -24t27 -24.5l26 -20t28.5 -19v-20q-28 -18 -57.5 -45t-47.5 -46.5l-52.5 -59.5t-50.5 -57z" />
    <glyph glyph-name="fraction" unicode="&#x2044;" horiz-adv-x="568" 
d="M41 -42l-5 1q-2 1 -14 10t-19 16t-10 14l125 161l254 351l132 193q17 -4 67 -7l4 -3q-32 -40 -136 -184z" />
    <glyph glyph-name="Euro" unicode="&#x20ac;" horiz-adv-x="500" 
d="M40 267l-3 6q12 20 17 39l52 -3q28 73 90 135.5t134 93.5q95 0 172 -27v-16q-49 -42 -65 -70.5t-23 -72.5h-24q-2 26 -10 55q-46 44 -109 51q-15 -79 -21 -149q72 0 160 5q10 -31 10 -32v-6h-171v-37q72 0 164 5q10 -31 10 -32v-6h-51h-65h-55q15 -113 95 -113
q31 0 62 22.5t49 52.5l17 -9q-61 -124 -165 -174q-94 0 -153.5 60t-66.5 155l-54 -3l-3 6q12 20 17 39l41 -2q2 22 4 30z" />
    <glyph glyph-name="CR" horiz-adv-x="180" 
 />
    <glyph glyph-name="commaaccent" horiz-adv-x="194" 
d="M191 -95q-8 -54 -53.5 -97.5t-112.5 -58.5l-10 24q50 28 64 56q-41 34 -55 76q13 17 37.5 34.5t46.5 26.5q53 -21 83 -61z" />
    <glyph glyph-name="grave.cap" horiz-adv-x="272" 
d="M262 717l-262 66q1 26 8.5 60t16.5 50q7 3 22 3t26 -3q56 -85 199 -152z" />
    <glyph glyph-name="acute.cap" horiz-adv-x="272" 
d="M272 783l-262 -66l-10 24q143 67 199 152q9 3 26 3q15 0 22 -3q9 -16 16.5 -50t8.5 -60z" />
    <glyph glyph-name="circumflex.cap" horiz-adv-x="428" 
d="M418 717l-204 62l-204 -62l-10 24q126 67 183 152q10 3 31 3q20 0 31 -3q57 -85 183 -152z" />
    <glyph glyph-name="dieresis.cap" horiz-adv-x="401" 
d="M179 819q-10 -21 -38.5 -50.5t-50.5 -44.5q-22 15 -50.5 44.5t-39.5 50.5q12 20 38.5 42.5t51.5 33.5q23 -12 49.5 -34.5t39.5 -41.5zM401 819q-10 -21 -38.5 -50.5t-50.5 -44.5q-22 15 -50.5 44.5t-39.5 50.5q12 20 38.5 42.5t51.5 33.5q23 -12 49.5 -34.5t39.5 -41.5z
" />
    <glyph glyph-name="caron.cap" horiz-adv-x="428" 
d="M214 834l204 62l10 -24q-126 -67 -183 -152q-11 -3 -31 -3t-31 3q-57 85 -183 152l10 24z" />
    <glyph glyph-name="ring.cap" horiz-adv-x="221" 
d="M0 782q0 46 33.5 79.5t84.5 44.5q103 0 103 -84q0 -45 -31 -77t-79 -46q-47 0 -79 21.5t-32 61.5zM101 858q-22 0 -33 -8q-7 -18 -7 -44q0 -27 16 -43.5t43 -16.5q20 0 33 9q7 18 7 44q0 27 -15.5 43t-43.5 16z" />
    <glyph glyph-name="tilde.cap" horiz-adv-x="436" 
d="M24 744l-24 17q72 100 169 135q79 -51 157 -51q59 0 86 39l24 -17q-75 -102 -138 -136q-27 0 -95 26t-97 26q-57 0 -82 -39z" />
    <glyph glyph-name="dotaccentcmb.cap" horiz-adv-x="189" 
d="M189 814q-11 -22 -41 -53t-53 -47q-23 15 -53 46.5t-42 53.5q13 21 40.5 45t54.5 36q24 -13 52 -36.5t42 -44.5z" />
    </font>
</defs>
</svg>
